<svg width="334" height="577" viewBox="0 0 334 577" fill="none" xmlns="http://www.w3.org/2000/svg">
<g opacity="0.4">
<path d="M334.647 176.564C333.776 176.451 332.852 176.338 331.929 176.282C331.006 176.282 330.134 176.282 329.262 176.338C328.39 176.451 327.518 176.62 326.646 176.79C325.774 176.959 324.851 177.184 323.928 177.297C323.056 177.523 322.235 177.749 321.312 177.974C320.338 178.143 319.363 178.313 318.389 178.426C317.363 178.538 316.235 178.482 315.055 178.144C313.773 177.749 312.439 177.354 311.054 176.959C309.618 176.564 308.08 176.225 306.49 175.831C304.9 175.549 303.31 175.323 301.72 175.21C300.078 175.21 298.386 175.21 296.693 175.323C295.103 175.661 293.513 176.056 291.975 176.62C290.641 177.749 289.359 179.385 288.077 181.077C286.794 183.277 285.512 185.872 284.23 188.749C282.845 191.908 281.614 195.406 280.383 199.185C279.101 203.247 277.819 207.478 276.485 211.765C275.152 216.335 273.87 221.299 272.639 226.207C271.459 231.284 270.279 236.361 269.151 241.438C268.023 246.572 266.74 251.593 265.612 256.613C264.33 261.86 263.099 266.993 261.919 272.183C260.688 277.599 259.355 282.902 258.124 288.261C256.79 293.846 255.405 299.149 253.969 304.282C252.431 309.472 250.789 314.549 249.097 319.344C247.302 324.196 245.404 328.822 243.506 333.165C241.506 337.622 239.454 341.796 237.454 345.689C235.3 349.638 233.197 353.305 231.146 356.633C228.991 360.018 226.991 363.12 224.991 365.885C222.99 368.705 221.093 371.244 219.349 373.444C217.554 375.7 215.861 377.618 214.425 379.142C212.938 380.721 211.604 381.962 210.476 382.921C209.296 383.88 208.322 384.557 207.552 384.952C206.732 385.347 206.168 385.403 205.809 385.065C205.398 384.783 205.244 384.219 205.296 383.26C205.296 382.357 205.552 381.172 205.962 379.593C206.373 378.07 206.988 376.265 207.809 374.121C208.578 371.977 209.604 369.551 210.732 366.787C211.861 364.079 213.092 361.033 214.528 357.648C215.861 354.32 217.297 350.71 218.836 346.874C220.272 343.038 221.76 338.976 223.298 334.576C224.632 330.345 225.914 325.832 227.042 321.037C227.966 316.411 228.889 311.616 229.761 306.539C230.53 301.631 231.299 296.497 232.069 291.194C232.736 285.948 233.454 280.532 234.12 274.891C234.684 269.363 235.197 263.665 235.762 257.967C236.326 252.495 236.993 247.023 237.711 241.495C238.377 236.136 239.147 230.664 239.916 225.022C240.839 219.55 241.865 213.966 242.788 208.324C243.558 202.909 244.327 197.437 244.994 191.908C245.558 186.549 246.019 181.133 246.481 175.718C246.84 170.471 247.199 165.225 247.558 160.035C247.917 155.071 248.174 150.219 248.481 145.481C248.84 141.024 249.302 136.793 249.815 132.675C250.328 128.895 250.841 125.172 251.764 122.013C252.636 118.967 253.508 116.09 254.38 113.325C255.252 110.674 256.277 108.192 257.406 105.823C258.637 103.792 259.919 101.874 261.201 100.068C262.432 98.2633 263.714 96.6273 264.996 95.1606C266.279 93.9195 267.561 92.9605 268.894 92.1143C270.279 91.5502 271.818 91.4938 273.408 91.6066C274.998 91.7758 276.537 91.9451 278.127 92.1707C279.614 92.4528 281.101 92.7913 282.64 93.1862C284.076 93.581 285.615 94.0323 287.051 94.4836C288.436 94.8221 289.718 94.9914 290.846 94.8785C291.923 94.6529 292.949 94.4272 293.975 94.2015C295.001 93.9195 295.975 93.581 296.95 93.2426C297.924 92.9041 298.847 92.622 299.822 92.5092C300.796 92.3963 301.822 92.34 302.797 92.2836C303.771 92.2272 304.694 92.2271 305.618 92.1707C306.49 92.1143 307.362 92.1143 308.233 92.1707C309.105 92.1707 309.926 92.2835 310.798 92.3964C311.67 92.5092 312.542 92.7348 313.414 92.9605C314.286 93.1861 315.209 93.4118 316.183 93.7503C317.107 94.0888 318.081 94.4273 319.004 94.8221C319.979 95.2734 320.953 95.6683 321.876 96.1196C322.8 96.5145 323.774 96.9658 324.646 97.4735C325.569 97.9812 326.595 98.5454 327.57 99.1095C328.544 99.73 329.519 100.351 330.544 101.084C331.519 101.817 332.493 102.551 333.519 103.453C334.545 104.412 335.519 105.428 336.545 106.443C337.571 107.515 338.545 108.643 339.571 109.771C340.546 110.9 341.571 112.084 342.495 113.325C343.469 114.567 344.444 115.808 345.47 117.105C346.495 118.403 347.47 119.7 348.444 121.054C349.47 122.408 350.445 123.762 351.419 125.172C352.394 126.582 353.317 127.993 354.291 129.459C355.214 130.926 356.189 132.393 357.061 133.916C357.984 135.496 358.907 137.019 359.728 138.598C360.6 140.178 361.472 141.701 362.344 143.281C363.164 144.804 363.985 146.383 364.754 147.906C365.575 149.43 366.344 150.896 367.114 152.363C367.883 153.773 368.652 155.24 369.37 156.594C370.14 158.004 370.858 159.358 371.525 160.712C372.191 162.122 372.858 163.476 373.473 164.83C374.089 166.184 374.653 167.594 375.217 168.948C375.73 170.302 376.294 171.656 376.756 173.01C377.218 174.364 377.679 175.718 378.09 177.015C378.5 178.369 378.859 179.667 379.167 180.908C379.526 182.205 379.782 183.446 380.039 184.631C380.295 185.872 380.5 187 380.705 188.129C380.859 189.257 381.013 190.329 381.116 191.344C381.218 192.416 381.321 193.375 381.321 194.334C381.372 195.293 381.372 196.139 381.372 196.985C381.372 197.832 381.321 198.621 381.218 199.411C381.116 200.144 381.013 200.878 380.859 201.498C380.705 202.175 380.5 202.739 380.346 203.304C380.141 203.868 379.885 204.319 379.628 204.77C379.372 205.222 379.064 205.616 378.756 205.955C378.449 206.293 378.141 206.575 377.731 206.801C377.372 207.027 376.961 207.196 376.551 207.309C376.141 207.365 375.679 207.365 375.217 207.365C374.756 207.309 374.243 207.252 373.781 207.083C373.268 206.914 372.755 206.745 372.191 206.463C371.627 206.237 371.063 205.898 370.447 205.56C369.832 205.222 369.216 204.77 368.55 204.319C367.883 203.868 367.216 203.304 366.549 202.796C365.883 202.288 365.165 201.724 364.395 201.047C363.677 200.426 362.959 199.75 362.19 199.016C361.42 198.283 360.6 197.549 359.831 196.872C359.061 196.252 358.292 195.575 357.471 195.011C356.651 194.447 355.83 193.826 355.009 193.206C354.189 192.585 353.317 191.965 352.445 191.288C351.573 190.611 350.701 189.99 349.829 189.37C349.008 188.636 348.137 187.79 347.367 186.944C346.547 186.041 345.726 185.082 344.854 184.067C344.033 183.108 343.162 182.149 342.29 181.246C341.418 180.456 340.546 179.779 339.674 179.102C338.853 178.538 338.033 178.031 337.161 177.523C336.443 177.128 335.571 176.846 334.647 176.564Z" stroke="#ECE8DC" stroke-width="3"/>
<path d="M337.006 200.596C336.39 200.314 335.775 200.088 335.159 199.919C334.544 199.75 333.928 199.58 333.313 199.468C332.749 199.355 332.133 199.185 331.569 199.073C331.005 198.96 330.389 198.791 329.825 198.621C329.21 198.452 328.594 198.283 328.03 198.114C327.415 197.888 326.799 197.662 326.184 197.493C325.517 197.267 324.85 197.098 324.183 196.816C323.568 196.59 322.901 196.308 322.286 196.026C321.67 195.744 321.004 195.462 320.337 195.124C319.67 194.785 319.003 194.503 318.285 194.165C317.567 193.826 316.849 193.488 316.028 193.206C315.208 192.98 314.336 192.754 313.413 192.585C312.489 192.472 311.464 192.303 310.438 192.19C309.361 192.134 308.284 192.134 307.155 192.134C306.027 192.247 304.899 192.472 303.873 192.811C302.847 193.149 301.77 193.601 300.744 194.052C299.667 194.56 298.59 195.18 297.616 195.97C296.641 196.929 295.667 198.057 294.743 199.468C293.82 201.16 292.846 202.965 291.871 204.94C290.845 207.252 289.82 209.735 288.794 212.33C287.871 215.15 286.845 218.14 285.87 221.412C284.896 224.797 283.921 228.182 282.947 231.566C282.024 235.064 281.049 238.618 280.126 242.398C279.305 246.234 278.433 250.126 277.561 254.019C276.638 258.08 275.715 262.198 274.894 266.317C274.022 270.604 273.099 274.891 272.125 279.291C271.202 283.861 270.176 288.487 269.15 293.282C268.124 298.302 267.047 303.38 265.919 308.569C264.637 313.759 263.2 319.006 261.713 324.196C260.123 329.442 258.431 334.745 256.635 339.991C252.635 350.653 248.019 361.146 242.992 371.357C237.402 381.68 231.504 391.609 225.4 401.086C219.553 410.62 214.014 419.702 208.782 428.108C203.346 436.457 197.858 444.185 192.319 450.842C186.318 456.991 180.112 462.237 173.957 466.581C167.546 470.474 161.237 473.52 155.031 475.946C148.62 478.315 142.26 480.289 136.003 481.7C129.694 482.772 123.54 483.449 117.436 483.787C111.076 483.787 105.075 483.166 99.3309 482.207C93.8429 481.023 88.5088 479.669 83.5338 478.202C78.4048 476.623 73.3785 475.043 68.6599 473.464C63.7361 471.771 59.0688 470.248 54.6579 468.725C50.247 467.258 46.0926 465.791 42.1946 464.438C38.1427 463.027 34.5012 461.73 31.1674 460.489C27.7823 459.248 24.7562 458.006 22.1404 456.822C19.4221 455.637 17.1141 454.453 15.2676 453.324C13.3187 452.196 11.8312 451.124 10.9593 450.165C10.0361 449.206 9.67712 448.304 9.7284 447.457C9.7284 446.611 10.2413 445.878 11.1645 445.201C12.0364 444.524 13.3699 443.847 15.1138 443.283C17.0115 442.719 19.3708 442.211 22.0891 441.816C24.7562 441.365 27.8848 440.97 31.4751 440.688C34.9628 440.349 38.8095 440.011 43.0152 439.785C47.2209 439.503 51.837 439.334 56.7094 439.052C61.4281 438.77 66.5057 438.713 71.8398 438.657C77.0713 438.601 82.5593 438.431 88.3037 438.093C94.0481 437.416 99.9977 436.626 106.101 435.723C112.307 434.764 118.821 433.523 125.54 431.887C132.31 429.913 139.08 427.092 145.696 423.369C151.954 418.969 158.006 413.835 163.802 407.743C169.29 400.917 174.572 393.245 179.547 384.896C185.343 376.265 191.19 366.957 196.729 356.746C201.704 346.592 206.269 336.042 210.321 325.437C213.347 315.452 215.501 305.41 217.553 295.369C218.476 290.405 219.399 285.384 220.271 280.307C221.041 275.286 221.707 270.209 222.22 265.245C222.631 260.393 222.99 255.598 223.349 250.859C223.759 246.234 224.323 241.608 224.939 237.095C225.605 232.582 226.375 228.012 227.195 223.556C228.324 219.099 229.452 214.586 230.529 210.13C231.555 205.729 232.529 201.273 233.401 196.816C234.171 192.416 234.837 188.016 235.453 183.672C236.017 179.385 236.53 175.154 237.043 170.866C237.402 166.692 237.761 162.517 238.017 158.343C238.274 154.281 238.53 150.276 238.787 146.27C239.043 142.378 239.197 138.598 239.402 134.819C239.607 131.208 239.812 127.711 240.12 124.439C240.479 121.336 240.838 118.29 241.3 115.582C241.761 112.931 242.274 110.392 242.89 108.023C243.505 105.71 244.069 103.51 244.685 101.366C245.249 99.3352 245.865 97.3044 246.583 95.4427C247.352 93.694 248.07 92.0016 248.942 90.422C249.865 89.0681 250.788 87.8271 251.712 86.6424C252.686 85.5706 253.661 84.5551 254.584 83.5961C255.507 82.7499 256.43 82.0729 257.456 81.5088C258.431 81.0011 259.456 80.5498 260.482 80.2113C261.508 79.9293 262.585 79.76 263.662 79.7036C264.739 79.7036 265.867 79.7036 266.996 79.8164C268.124 79.9292 269.201 80.0985 270.278 80.3241C271.355 80.5498 272.432 80.8319 273.51 81.1703C274.587 81.5088 275.664 81.8473 276.69 82.2422C277.767 82.5807 278.844 82.9755 279.921 83.3704C280.998 83.7653 281.972 84.1038 282.998 84.3859C283.87 84.4987 284.639 84.4423 285.409 84.3859C286.127 84.2731 286.794 84.1038 287.512 83.9346C288.178 83.7653 288.845 83.5397 289.512 83.2576C290.127 82.9756 290.794 82.7499 291.41 82.4678C292.025 82.2986 292.589 82.1858 293.205 82.0165C293.82 81.9037 294.436 81.7909 295.051 81.6781C295.667 81.5652 296.282 81.5088 296.898 81.396C297.513 81.2832 298.077 81.1704 298.59 81.0011C299.154 80.8883 299.667 80.7754 300.231 80.6626C300.796 80.5498 301.308 80.437 301.821 80.3241C302.334 80.2113 302.898 80.1549 303.411 80.0985C303.924 80.0421 304.488 80.0421 305.001 80.0421C305.565 80.0421 306.078 80.0985 306.643 80.0421C307.155 79.9857 307.72 79.9857 308.335 80.0421C308.951 80.0421 309.515 80.0421 310.13 80.0985C310.746 80.1549 311.31 80.2113 311.925 80.2677C312.489 80.3242 313.105 80.437 313.72 80.6062C314.336 80.7754 314.951 80.9447 315.567 81.0575C316.182 81.2268 316.798 81.3396 317.413 81.5088C318.029 81.7344 318.695 81.9601 319.362 82.1858C320.029 82.4114 320.645 82.6935 321.311 82.9756C321.927 83.2576 322.593 83.5397 323.26 83.8782C323.927 84.2166 324.594 84.6115 325.261 85.0628C325.927 85.5141 326.645 85.9654 327.363 86.4167C328.03 86.868 328.748 87.3193 329.466 87.827C330.133 88.3348 330.851 88.8424 331.569 89.4066C332.287 89.9707 333.005 90.5348 333.672 91.0989C334.39 91.7195 335.057 92.2836 335.775 92.9042C336.493 93.5247 337.211 94.2017 337.878 94.8222C338.596 95.4992 339.263 96.1761 339.981 96.8531C340.699 97.53 341.365 98.2633 342.032 98.9967C343.417 100.463 344.853 102.043 346.289 103.623C347.725 105.259 349.11 107.007 350.546 108.756C351.982 110.674 353.418 112.705 354.803 114.736C356.239 116.767 357.624 118.798 358.958 120.772C360.342 122.746 361.676 124.777 362.958 126.808C364.292 128.839 365.574 130.813 366.856 132.844C368.138 134.875 369.369 136.85 370.6 138.824C371.831 140.742 373.011 142.716 374.242 144.578C375.473 146.383 376.652 148.245 377.832 150.05C378.96 151.912 380.089 153.83 381.217 155.804C382.294 157.835 383.371 159.809 384.346 161.84C385.372 163.928 386.295 165.958 387.218 168.102C388.141 170.189 389.013 172.333 389.834 174.533C390.654 176.846 391.424 179.103 392.193 181.472C392.911 183.841 393.629 186.267 394.296 188.636C394.911 191.062 395.527 193.431 396.091 195.801C396.604 198.17 397.117 200.539 397.579 202.852C397.989 205.222 398.399 207.535 398.707 209.791C399.015 212.048 399.322 214.248 399.528 216.335C399.733 218.479 399.938 220.453 400.04 222.371C400.143 224.289 400.246 226.151 400.246 227.956C400.297 229.705 400.246 231.397 400.194 233.033C400.143 234.613 400.04 236.136 399.887 237.49C399.733 238.9 399.528 240.197 399.322 241.438C399.066 242.68 398.809 243.751 398.502 244.823C398.194 245.839 397.835 246.798 397.476 247.644C397.117 248.49 396.707 249.167 396.296 249.731C395.886 250.295 395.424 250.803 394.963 251.198C394.501 251.593 393.988 251.875 393.475 252.044C392.962 252.213 392.398 252.383 391.834 252.383C391.27 252.383 390.706 252.383 390.09 252.213C389.475 252.044 388.859 251.762 388.193 251.424C387.526 251.085 386.859 250.69 386.192 250.182C385.474 249.675 384.807 249.167 384.038 248.547C383.679 248.264 383.32 247.926 382.91 247.587C382.551 247.249 382.14 246.911 381.781 246.516C381.422 246.177 381.012 245.782 380.602 245.387C380.191 244.992 379.781 244.598 379.371 244.146C378.96 243.751 378.55 243.3 378.14 242.849C377.73 242.398 377.268 241.89 376.858 241.438C376.396 240.931 375.986 240.479 375.524 239.972C375.062 239.464 374.601 238.956 374.191 238.392C373.729 237.885 373.267 237.32 372.806 236.756C372.344 236.192 371.831 235.628 371.37 235.008C370.857 234.387 370.395 233.823 369.882 233.202C369.369 232.582 368.856 231.961 368.344 231.341C367.831 230.72 367.318 230.1 366.805 229.479C366.292 228.859 365.779 228.182 365.266 227.505C364.753 226.828 364.24 226.151 363.676 225.474C363.163 224.797 362.599 224.12 362.035 223.386C361.471 222.71 360.958 221.976 360.394 221.299C359.83 220.622 359.265 220.002 358.701 219.438C358.137 218.873 357.573 218.309 357.009 217.802C356.444 217.294 355.88 216.73 355.316 216.166C354.752 215.658 354.188 215.094 353.624 214.586C353.059 213.966 352.444 213.345 351.88 212.668C351.316 211.991 350.7 211.371 350.136 210.75C349.52 210.13 348.956 209.509 348.341 208.832C347.725 208.212 347.161 207.591 346.546 206.97C345.93 206.406 345.315 205.899 344.699 205.334C344.084 204.827 343.417 204.319 342.802 203.811C342.135 203.36 341.468 202.965 340.801 202.57C340.186 202.175 339.57 201.837 338.955 201.442C338.237 201.216 337.621 200.878 337.006 200.596Z" stroke="#ECE8DC" stroke-width="3"/>
<path d="M337.006 227.279C336.186 226.715 335.365 226.15 334.544 225.586C333.724 225.079 332.852 224.515 331.98 223.95C331.108 223.386 330.185 222.879 329.261 222.314C328.338 221.75 327.415 221.243 326.492 220.622C325.569 220.058 324.594 219.494 323.671 218.873C322.748 218.309 321.773 217.689 320.901 217.124C320.081 216.673 319.209 216.165 318.388 215.771C317.567 215.376 316.696 215.037 315.772 214.699C314.798 214.417 313.823 214.247 312.798 214.191C311.721 214.247 310.592 214.417 309.361 214.642C308.13 214.981 306.899 215.432 305.566 216.053C304.335 216.955 303.053 218.084 301.822 219.55C300.591 221.243 299.308 223.217 298.026 225.586C296.693 228.407 295.359 231.34 294.077 234.5C292.846 238.11 291.666 241.833 290.487 245.669C289.256 249.618 288.127 253.68 286.948 257.798C285.717 262.085 284.537 266.429 283.46 271.055C282.434 275.906 281.255 280.984 280.126 286.343C278.998 291.871 277.921 297.569 276.69 303.323C275.408 309.303 274.023 315.395 272.535 321.488C270.894 327.806 269.099 334.237 267.15 340.668C264.996 347.325 262.637 354.038 259.97 360.695C257.097 367.52 253.969 374.403 250.686 381.285C247.147 388.224 243.403 395.106 239.454 401.876C235.299 408.589 231.247 415.189 227.349 421.789C223.4 428.22 219.297 434.482 215.348 440.688C211.399 446.724 207.398 452.647 203.346 458.176C199.089 463.648 194.729 468.725 190.165 472.899C185.549 476.792 180.933 480.515 176.47 483.787C171.906 486.89 167.546 489.485 163.238 492.079C158.776 494.674 154.16 497.1 149.441 499.47C144.62 501.388 139.696 503.024 134.721 504.547C129.079 505.788 123.642 506.803 118.154 507.649C112.718 508.157 107.384 508.27 102.101 508.27C96.7155 508.101 91.5866 507.706 86.7141 507.085C81.8929 506.408 77.1742 505.562 72.6608 504.603C68.096 503.475 63.5826 502.347 59.1204 501.162C54.6582 499.921 50.2473 498.567 45.8364 497.213C41.3742 495.859 36.7069 494.618 32.1935 493.433C27.4748 492.249 22.8075 491.064 18.1402 489.879C13.2677 488.638 8.44647 487.341 3.67655 486.156C-1.14465 484.915 -5.91454 483.674 -10.6332 482.377C-15.3518 481.079 -20.0704 479.725 -24.6865 478.315C-29.4051 476.904 -34.0724 475.494 -38.6885 474.14C-43.2532 472.843 -47.6641 471.602 -51.9211 470.417C-56.1781 469.345 -60.3839 468.443 -64.4357 467.709C-68.4876 467.032 -72.4368 466.355 -76.3861 465.791C-80.3354 465.171 -84.2334 464.607 -88.0801 463.986C-91.9268 463.365 -95.7222 462.688 -99.4663 462.012C-103.057 461.335 -106.493 460.601 -109.827 459.868C-116.546 458.288 -123.008 456.652 -129.163 454.96C-135.471 453.155 -141.37 451.293 -146.755 449.375C-152.192 447.401 -157.321 445.37 -161.886 443.339C-166.553 441.252 -170.861 439.164 -174.657 437.134C-178.503 434.99 -181.888 432.959 -184.709 430.985C-187.633 428.954 -190.146 426.979 -192.249 425.061C-194.454 423.143 -196.198 421.282 -197.532 419.477C-198.916 417.671 -199.788 415.979 -200.147 414.399C-200.558 412.82 -200.506 411.353 -200.096 410.056C-199.737 408.702 -198.814 407.573 -197.429 406.614C-196.147 405.599 -194.403 404.753 -192.3 403.963C-190.197 403.23 -187.581 402.666 -184.555 402.158C-181.581 401.65 -177.734 401.368 -173.272 401.312C-168.758 401.199 -163.732 401.199 -158.09 401.368C-155.269 401.424 -152.346 401.424 -149.268 401.537C-146.242 401.594 -143.114 401.65 -139.78 401.707C-136.446 401.819 -132.907 401.876 -129.214 401.989C-125.573 402.045 -121.777 402.158 -117.879 402.214C-113.981 402.271 -109.981 402.327 -105.878 402.383C-101.569 402.496 -97.1583 402.553 -92.6961 402.666C-88.1827 402.722 -83.6179 402.835 -78.848 402.948C-74.0781 403.004 -69.2056 403.173 -64.2819 403.342C-59.3581 403.568 -54.3317 403.794 -49.254 404.076C-44.279 404.358 -39.2013 404.696 -34.0724 405.091C-28.9948 405.486 -23.8145 405.881 -18.3779 406.389C-12.9412 406.896 -7.40192 407.404 -1.81138 408.025C3.77916 408.645 9.36968 409.209 15.0628 409.886C20.7559 410.507 26.449 411.071 32.2447 411.748C37.9891 412.256 43.631 412.651 49.2728 413.045C54.8121 413.384 60.3001 413.666 65.8906 413.779C71.3786 413.835 76.8152 414.004 82.3032 414.287C87.7912 414.569 93.433 414.851 99.28 414.907C105.024 414.681 110.717 414.174 116.462 413.44C121.95 411.917 127.387 409.774 132.772 406.896C137.798 403.625 142.619 400.014 147.287 395.896C151.8 391.439 156.057 386.588 159.801 381.849C163.597 377.054 168.059 372.09 172.316 366.9C176.317 361.541 180.215 355.899 183.907 349.863C187.344 343.376 190.524 336.437 193.293 329.16C195.499 321.77 197.14 314.323 198.474 306.877C199.705 299.825 201.089 293.507 202.577 287.64C203.91 281.886 204.987 275.794 205.911 269.757C206.731 263.721 207.449 257.572 208.116 251.367C208.731 245.274 209.552 239.295 210.578 233.428C211.809 227.617 213.348 221.694 215.091 215.827C216.835 210.017 218.528 204.319 220.22 198.734C221.759 193.262 223.298 187.846 224.631 182.318C225.76 176.62 226.683 170.923 227.555 165.338C228.273 159.753 228.786 154.112 229.196 148.527C229.452 142.942 229.709 137.413 229.965 131.998C230.17 126.695 230.376 121.731 230.529 116.823C230.735 112.141 231.248 108.079 231.76 104.243C232.273 100.576 232.838 97.0785 233.556 93.9194C234.274 90.8731 234.992 88.1089 235.761 85.5139C236.633 83.0318 237.607 80.8317 238.633 78.7444C239.813 76.9956 241.044 75.5289 242.326 74.2314C243.557 73.0468 244.788 71.9749 246.019 71.0159C247.301 70.1697 248.532 69.4363 249.866 68.8722C251.199 68.4209 252.533 68.0824 253.917 67.8568C255.302 67.6875 256.687 67.744 258.072 67.8004C259.405 67.9132 260.79 68.0824 262.226 68.3645C263.611 68.703 264.996 69.0415 266.381 69.4363C267.766 69.8876 269.15 70.3389 270.535 70.8467C271.92 71.4108 273.305 71.9185 274.69 72.3698C275.972 72.7647 277.1 72.9903 278.126 72.9903C279.049 72.8775 279.972 72.7082 280.793 72.4826C281.614 72.1441 282.434 71.862 283.255 71.58C284.024 71.3543 284.742 71.1851 285.512 71.0159C286.23 70.8466 286.948 70.621 287.717 70.4517C288.486 70.2825 289.204 70.1133 289.923 69.8876C290.589 69.662 291.256 69.4363 291.923 69.1543C292.538 68.8722 293.205 68.5902 293.821 68.3081C294.436 68.0824 295.051 67.8003 295.718 67.6311C296.334 67.4055 296.949 67.2362 297.565 67.067C298.18 66.8413 298.796 66.6721 299.411 66.4465C300.078 66.2772 300.796 66.1079 301.514 65.9951C302.232 65.9387 302.95 65.8823 303.668 65.8823C304.386 65.8823 305.104 65.9387 305.822 65.9387C306.592 65.9951 307.31 66.0516 308.079 66.0516C308.848 66.108 309.618 66.1644 310.387 66.2772C311.156 66.39 311.926 66.5029 312.746 66.6157C313.567 66.7285 314.388 66.9542 315.208 67.2362C316.029 67.5183 316.901 67.8568 317.721 68.1952C318.593 68.5901 319.465 68.985 320.337 69.4363C321.209 69.8876 322.081 70.3389 322.953 70.8467C323.825 71.3544 324.697 71.8621 325.569 72.3698C326.441 72.9339 327.312 73.498 328.184 74.0622C329.056 74.6827 329.98 75.3032 330.851 75.9802C331.723 76.6571 332.595 77.3341 333.467 78.011C334.339 78.688 335.211 79.3649 336.083 80.0419C336.955 80.7188 337.827 81.4522 338.699 82.1292C339.571 82.8625 340.443 83.5394 341.263 84.3292C342.135 85.0626 343.058 85.8524 343.981 86.6986C344.905 87.6012 345.828 88.5602 346.751 89.5192C347.674 90.5346 348.598 91.5501 349.521 92.6219C350.444 93.6373 351.367 94.7656 352.239 95.781C353.162 96.8528 354.034 97.9247 354.957 98.9965C355.881 100.125 356.753 101.197 357.676 102.325C358.548 103.453 359.471 104.581 360.343 105.766C361.215 106.894 362.087 108.079 362.959 109.207C363.83 110.392 364.702 111.577 365.574 112.705C366.446 113.889 367.267 115.074 368.139 116.259C369.011 117.443 369.831 118.684 370.652 119.869C371.473 121.054 372.293 122.295 373.114 123.48C373.935 124.664 374.806 125.849 375.627 127.034C376.448 128.218 377.268 129.403 378.038 130.531C378.858 131.659 379.679 132.788 380.5 133.916C381.32 135.044 382.141 136.172 382.91 137.301C383.731 138.485 384.5 139.67 385.269 140.855C386.039 142.039 386.808 143.28 387.577 144.521C388.347 145.763 389.065 147.004 389.783 148.301C390.501 149.599 391.219 150.953 391.937 152.25C392.655 153.66 393.322 155.071 394.04 156.537C394.707 158.06 395.425 159.584 396.091 161.163C397.425 164.379 398.707 167.594 399.938 170.866C401.169 174.194 402.349 177.523 403.477 180.964C404.606 184.405 405.631 187.959 406.657 191.513C407.632 195.124 408.606 198.734 409.478 202.344C410.35 205.955 411.119 209.565 411.837 213.176C412.555 216.842 413.171 220.453 413.735 224.063C414.248 227.674 414.761 231.284 415.12 234.838C415.479 238.392 415.838 241.89 416.094 245.218C416.351 248.603 416.505 251.818 416.607 254.977C416.71 258.136 416.71 261.239 416.659 264.229C416.607 267.219 416.505 270.039 416.3 272.747C416.094 275.455 415.889 278.05 415.581 280.532C415.274 283.014 414.915 285.44 414.504 287.697C414.094 289.953 413.632 292.04 413.12 294.015C412.863 294.974 412.607 295.933 412.35 296.836C412.094 297.738 411.786 298.641 411.53 299.487C411.222 300.333 410.965 301.123 410.658 301.856C410.35 302.59 410.042 303.267 409.735 303.943C409.427 304.62 409.119 305.241 408.76 305.805C408.401 306.426 408.093 306.99 407.734 307.497C407.375 308.005 407.016 308.513 406.657 308.964C406.298 309.416 405.939 309.81 405.58 310.205C405.221 310.6 404.811 310.939 404.452 311.221C404.041 311.559 403.682 311.785 403.323 311.954C402.964 312.123 402.554 312.293 402.195 312.405C401.785 312.518 401.426 312.631 401.015 312.687C400.605 312.744 400.246 312.744 399.836 312.744C399.425 312.744 399.015 312.687 398.605 312.575C398.194 312.462 397.784 312.293 397.374 312.123C396.963 311.954 396.553 311.728 396.143 311.503C395.733 311.277 395.322 310.939 394.912 310.6C394.502 310.262 394.091 309.81 393.681 309.359C393.271 308.908 392.86 308.4 392.45 307.892C392.04 307.328 391.578 306.764 391.168 306.144C390.757 305.523 390.296 304.903 389.885 304.169C389.475 303.492 389.014 302.759 388.603 301.969C388.142 301.236 387.731 300.502 387.27 299.713C386.808 298.923 386.398 298.133 385.936 297.287C385.475 296.497 385.013 295.707 384.551 294.861C384.09 294.015 383.628 293.169 383.115 292.266C382.654 291.42 382.141 290.517 381.679 289.615C381.218 288.712 380.705 287.809 380.243 286.85C379.73 286.004 379.269 285.102 378.756 284.199C378.243 283.296 377.73 282.337 377.217 281.378C376.704 280.419 376.191 279.46 375.627 278.501C375.114 277.542 374.55 276.583 374.037 275.624C373.473 274.665 372.909 273.65 372.396 272.691C371.832 271.732 371.267 270.773 370.703 269.757C370.139 268.798 369.524 267.783 368.959 266.768C368.344 265.752 367.78 264.737 367.164 263.721C366.549 262.706 365.933 261.69 365.369 260.675C364.754 259.716 364.138 258.701 363.523 257.685C362.856 256.726 362.241 255.711 361.625 254.695C360.958 253.736 360.343 252.721 359.676 251.705C359.009 250.746 358.394 249.787 357.727 248.885C357.06 248.039 356.394 247.136 355.675 246.121C354.957 245.162 354.291 244.203 353.573 243.187C352.855 242.228 352.085 241.269 351.367 240.367C350.649 239.52 349.931 238.731 349.264 237.941C348.546 237.151 347.828 236.305 347.11 235.459C346.392 234.612 345.623 233.879 344.853 233.146C344.084 232.469 343.263 231.792 342.494 231.115C341.673 230.494 340.853 229.817 340.032 229.14C338.647 228.463 337.827 227.843 337.006 227.279Z" stroke="#ECE8DC" stroke-width="3"/>
<path d="M335.108 242.172C334.134 241.326 333.21 240.536 332.236 239.69C331.261 238.9 330.184 238.167 329.159 237.377C328.081 236.643 327.004 236.023 325.979 235.515C324.953 235.064 323.927 234.669 322.85 234.274C321.773 233.936 320.696 233.597 319.619 233.259C318.49 232.977 317.311 232.751 316.234 232.525C315.105 232.356 314.028 232.243 312.849 232.13C311.669 232.13 310.541 232.243 309.361 232.469C308.181 232.864 307.002 233.428 305.771 234.161C304.54 235.29 303.257 236.643 301.873 238.392C300.488 240.536 299.052 243.018 297.769 245.895C296.487 249.336 295.205 253.003 293.923 256.839C292.692 260.788 291.461 264.737 290.179 268.742C288.794 272.973 287.512 277.261 286.281 281.83C285.05 287.02 283.819 292.548 282.639 298.359C281.408 304.395 280.126 310.431 278.844 316.524C277.408 322.786 275.869 328.934 274.176 335.083C272.279 341.345 270.278 347.72 268.073 354.151C265.611 360.864 262.944 367.634 259.969 374.629C256.687 381.85 253.045 389.183 249.147 396.46C244.89 403.907 240.479 411.071 236.017 418.292C231.504 425.682 227.041 432.903 222.374 439.954C217.758 446.95 213.245 453.776 208.68 460.037C203.961 466.073 199.14 471.771 194.165 476.905C189.036 481.643 183.958 486.156 178.932 490.162C174.06 493.772 169.29 496.988 164.52 500.147C159.545 503.306 153.903 506.352 148.107 509.003C142.055 511.26 135.798 513.347 129.335 515.209C122.873 516.788 116.513 518.086 110.461 518.763C104.306 519.158 98.2026 519.383 92.3043 519.383C86.5599 519.158 80.9693 518.763 75.5327 518.199C70.096 517.409 64.8645 516.394 59.7356 515.322C54.5553 514.193 49.4777 512.896 44.4 511.598C39.2198 510.301 33.937 508.891 28.9619 507.537C23.9356 506.126 18.8579 504.773 13.6777 503.419C8.34358 502.065 3.11207 500.767 -2.11944 499.357C-7.40225 497.947 -12.7364 496.48 -18.1217 494.957C-23.6097 493.434 -29.0464 491.91 -34.4317 490.444C-39.9197 488.977 -45.3564 487.51 -50.4853 486.156C-55.6655 484.859 -60.6919 483.731 -65.6157 482.772C-70.5907 481.869 -75.4632 481.023 -80.2331 480.233C-85.0031 479.5 -89.773 478.71 -94.5429 477.977C-99.3641 477.187 -104.134 476.341 -108.801 475.438C-113.469 474.535 -117.982 473.576 -122.444 472.561C-126.906 471.546 -131.369 470.53 -135.728 469.458C-140.139 468.386 -144.499 467.202 -148.807 466.074C-153.167 464.889 -157.372 463.648 -161.527 462.407C-165.681 461.109 -169.631 459.812 -173.426 458.514C-177.221 457.16 -180.965 455.75 -184.556 454.396C-188.249 452.986 -191.839 451.519 -195.326 450.052C-198.865 448.529 -202.251 447.062 -205.482 445.539C-208.764 444.016 -211.944 442.493 -215.022 440.914C-218.048 439.334 -220.971 437.811 -223.792 436.175C-226.613 434.539 -229.331 432.959 -231.998 431.323C-234.665 429.687 -237.23 427.995 -239.64 426.359C-241.846 424.779 -244 423.144 -246.052 421.564C-248.103 419.928 -250.052 418.348 -251.95 416.769C-253.848 415.133 -255.592 413.553 -257.284 411.974C-258.977 410.338 -260.618 408.758 -262.105 407.179C-263.644 405.599 -265.029 404.02 -266.311 402.553C-267.542 401.03 -268.722 399.563 -269.799 398.096C-270.876 396.63 -271.902 395.219 -272.825 393.809C-273.748 392.399 -274.517 391.045 -275.235 389.747C-275.953 388.393 -276.569 387.152 -277.082 385.911C-277.595 384.67 -277.954 383.485 -278.21 382.414C-278.467 381.285 -278.672 380.27 -278.723 379.255C-278.826 378.239 -278.774 377.336 -278.723 376.434C-278.62 375.531 -278.467 374.741 -278.159 373.952C-277.8 373.218 -277.389 372.485 -276.825 371.864C-276.312 371.244 -275.697 370.623 -275.03 370.059C-274.312 369.552 -273.543 369.157 -272.671 368.762C-271.85 368.367 -270.876 367.972 -269.901 367.69C-268.875 367.351 -267.798 367.126 -266.567 366.9C-265.388 366.674 -264.106 366.505 -262.721 366.392C-261.336 366.28 -259.797 366.28 -258.207 366.392C-256.566 366.449 -254.873 366.562 -253.13 366.731C-251.386 366.844 -249.539 367.013 -247.59 367.239C-245.641 367.464 -243.641 367.746 -241.436 368.085C-239.281 368.367 -237.025 368.705 -234.665 369.1C-232.152 369.495 -229.485 370.003 -226.716 370.511C-223.946 370.962 -221.074 371.47 -218.15 371.977C-215.124 372.485 -211.893 373.106 -208.508 373.726C-205.123 374.347 -201.635 374.967 -198.045 375.644C-194.455 376.265 -190.71 376.885 -186.761 377.562C-182.761 378.239 -178.606 378.916 -174.349 379.537C-169.938 380.157 -165.322 380.834 -160.604 381.455C-155.782 382.075 -150.705 382.696 -145.473 383.316C-140.088 383.88 -134.549 384.444 -128.804 385.009C-122.957 385.516 -117.059 385.968 -111.007 386.419C-104.903 386.814 -98.5947 387.209 -92.1836 387.604C-85.8237 387.942 -79.3612 388.281 -72.8475 388.619C-66.2824 388.957 -59.6661 389.296 -52.9985 389.691C-46.4335 390.086 -39.7658 390.593 -33.0469 391.214C-26.2767 391.778 -19.4039 392.455 -12.4286 393.188C-5.50453 393.922 1.36823 394.712 8.29229 395.501C15.0625 396.235 21.8327 396.912 28.7055 397.589C35.3218 398.04 41.7843 398.266 48.0929 398.378C54.2989 398.322 60.5049 398.322 66.7622 398.548C72.8656 399.112 78.8152 399.732 84.6109 400.24C90.2014 400.578 95.7407 400.748 101.382 400.466C106.922 399.563 112.615 398.266 118.103 396.46C123.386 394.204 128.361 391.44 133.079 388.281C137.593 384.896 142.004 381.06 146.363 377.054C151.082 372.654 156.365 367.69 161.545 362.218C166.469 356.464 171.341 350.258 175.855 343.489C179.804 335.478 183.292 326.791 185.497 317.652C186.779 308.4 187.702 299.092 189.087 291.138C190.575 284.03 191.908 277.091 193.19 270.435C194.524 264.398 195.755 258.249 196.883 251.818C197.858 245.331 198.935 238.787 200.32 232.469C202.012 225.982 204.269 219.381 206.526 212.781C208.68 206.406 210.731 200.201 212.783 194.165C214.783 188.354 216.63 182.544 218.425 176.959C220.015 171.092 221.246 165.112 222.272 159.189C223.092 153.096 223.759 146.665 224.169 140.234C224.374 133.803 224.58 127.429 224.785 121.28C224.939 115.413 225.092 109.772 225.4 104.638C225.811 99.8429 226.323 95.4427 226.888 91.2682C227.554 87.4886 228.324 83.991 229.144 80.8319C230.016 77.8984 230.991 75.2471 232.17 72.8213C233.401 70.734 234.786 68.9852 236.171 67.5185C237.556 66.1646 238.941 64.9799 240.325 63.9645C241.71 63.0055 243.146 62.2157 244.634 61.5388C246.121 61.0311 247.608 60.6362 249.147 60.4105C250.635 60.2977 252.173 60.2412 253.712 60.3541C255.251 60.5233 256.789 60.749 258.328 61.0311C259.867 61.426 261.457 61.8773 262.995 62.385C264.534 62.8927 266.073 63.4568 267.663 64.0209C269.201 64.585 270.689 65.2056 272.125 65.7133C273.356 65.9389 274.433 65.8261 275.459 65.6569C276.433 65.4312 277.356 65.0928 278.28 64.9235C279.151 64.7543 279.972 64.5286 280.844 64.303C281.665 64.0773 282.434 63.8517 283.255 63.626C284.075 63.4004 284.845 63.1747 285.614 62.8926C286.332 62.5542 287.05 62.2157 287.768 61.9337C288.486 61.5952 289.153 61.3131 289.871 60.9747C290.538 60.6926 291.204 60.3541 291.871 60.0156C292.538 59.6771 293.205 59.3951 293.872 59.113C294.538 58.7745 295.256 58.4925 295.974 58.2668C296.744 58.0412 297.462 57.8719 298.231 57.7027C299 57.5899 299.77 57.4207 300.539 57.3642C301.308 57.3078 302.129 57.2514 302.95 57.2514C303.77 57.195 304.642 57.195 305.463 57.195C306.284 57.195 307.155 57.1386 308.079 57.3642C309.002 57.5335 309.925 57.7591 310.848 57.9848C311.771 58.2104 312.746 58.5489 313.669 58.831C314.644 59.1694 315.567 59.5643 316.541 59.9592C317.516 60.3541 318.439 60.749 319.414 61.2003C320.388 61.6516 321.311 62.1029 322.286 62.5542C323.26 63.0055 324.184 63.4568 325.158 63.9645C326.133 64.4722 327.056 64.98 328.03 65.4877C329.005 65.9954 329.979 66.5595 330.954 67.1236C331.928 67.6877 332.851 68.3083 333.826 68.9288C334.8 69.6058 335.724 70.2263 336.698 70.9597C337.621 71.6366 338.596 72.37 339.57 73.2162C340.545 74.0624 341.571 74.9649 342.596 75.8675C343.622 76.883 344.648 77.8984 345.674 78.9138C346.7 79.9293 347.725 81.0011 348.751 82.0729C349.777 83.1448 350.803 84.273 351.777 85.3449C352.752 86.4731 353.777 87.6014 354.803 88.786C355.829 89.9707 356.804 91.099 357.829 92.2837C358.855 93.4683 359.83 94.6529 360.855 95.8376C361.881 97.0787 362.856 98.3198 363.882 99.5608C364.856 100.802 365.882 102.043 366.856 103.284C367.831 104.525 368.805 105.766 369.78 107.007C370.754 108.248 371.677 109.546 372.652 110.787C373.626 112.028 374.55 113.269 375.473 114.51C376.396 115.751 377.319 116.992 378.243 118.233C379.114 119.531 380.038 120.772 380.961 122.013C381.884 123.254 382.807 124.382 383.73 125.623C384.654 126.865 385.577 128.049 386.449 129.29C387.321 130.531 388.244 131.772 389.116 133.07C389.988 134.367 390.911 135.778 391.783 137.244C392.655 138.824 393.527 140.404 394.45 142.04C395.322 143.788 396.194 145.537 397.066 147.342C397.938 149.148 398.758 150.953 399.579 152.814C400.4 154.676 401.22 156.594 402.041 158.512C402.861 160.43 403.631 162.404 404.4 164.379C405.169 166.41 405.939 168.384 406.708 170.415C407.426 172.446 408.144 174.477 408.862 176.508C409.58 178.538 410.247 180.626 410.914 182.657C411.581 184.687 412.196 186.775 412.812 188.862C413.427 190.949 414.043 193.037 414.607 195.124C415.171 197.211 415.735 199.298 416.248 201.386C416.761 203.473 417.274 205.56 417.735 207.647C418.197 209.735 418.659 211.822 419.12 213.909C419.53 215.996 419.941 218.084 420.351 220.115C420.761 222.202 421.12 224.233 421.479 226.32C421.838 228.407 422.146 230.438 422.454 232.469C422.762 234.5 423.018 236.531 423.275 238.561C423.531 240.592 423.736 242.623 423.993 244.598C424.198 246.629 424.403 248.603 424.557 250.634C424.711 252.665 424.865 254.639 424.967 256.557C425.07 258.532 425.172 260.45 425.224 262.368C425.326 264.286 425.377 266.204 425.377 268.065C425.429 269.927 425.429 271.789 425.377 273.65C425.377 275.455 425.326 277.261 425.275 279.066C425.224 280.815 425.121 282.563 425.018 284.256C424.916 285.948 424.813 287.697 424.659 289.333C424.506 291.025 424.352 292.661 424.198 294.297C424.044 295.933 423.839 297.513 423.634 299.092C423.428 300.672 423.172 302.195 422.967 303.718C422.71 305.241 422.454 306.708 422.197 308.175C421.941 309.641 421.633 311.052 421.326 312.462C421.018 313.816 420.71 315.17 420.402 316.524C420.095 317.878 419.736 319.175 419.377 320.473C419.018 321.714 418.659 322.955 418.248 324.196C417.838 325.437 417.479 326.565 417.069 327.693C416.658 328.822 416.248 329.894 415.786 330.909C415.376 331.924 414.914 332.94 414.453 333.899C413.991 334.858 413.53 335.817 413.068 336.719C412.606 337.622 412.145 338.412 411.632 339.202C411.17 339.935 410.709 340.668 410.247 341.345C409.785 342.022 409.273 342.643 408.811 343.207C408.349 343.771 407.836 344.279 407.324 344.73C406.862 345.181 406.349 345.576 405.836 345.915C405.375 346.253 404.862 346.592 404.349 346.817C403.836 347.043 403.323 347.269 402.861 347.381C402.4 347.494 401.887 347.607 401.425 347.607C400.964 347.607 400.451 347.607 399.938 347.551C399.425 347.494 398.963 347.381 398.451 347.212C397.989 347.043 397.476 346.874 396.963 346.648C396.45 346.422 395.989 346.14 395.476 345.858C395.014 345.576 394.501 345.181 394.04 344.73C393.578 344.279 393.116 343.771 392.655 343.263C392.193 342.756 391.732 342.191 391.27 341.571C390.808 340.95 390.347 340.273 389.885 339.596C389.424 338.863 388.962 338.073 388.552 337.227C388.09 336.381 387.68 335.535 387.218 334.632C386.757 333.73 386.295 332.827 385.833 331.812C385.372 330.853 384.91 329.837 384.449 328.765C383.987 327.693 383.474 326.622 383.012 325.55C382.551 324.421 382.038 323.293 381.576 322.165C381.115 321.037 380.602 319.852 380.14 318.667C379.627 317.483 379.166 316.298 378.653 315.113C378.14 313.929 377.627 312.744 377.114 311.503C376.601 310.262 376.088 309.021 375.575 307.78C375.063 306.539 374.498 305.298 373.985 304.056C373.421 302.815 372.908 301.631 372.344 300.39C371.78 299.149 371.216 297.908 370.652 296.61C370.087 295.369 369.523 294.072 368.908 292.83C368.292 291.589 367.728 290.348 367.113 289.051C366.497 287.81 365.882 286.512 365.215 285.271C364.6 284.086 363.933 282.845 363.317 281.604C362.651 280.363 362.035 279.179 361.368 277.994C360.702 276.809 360.035 275.625 359.368 274.44C358.701 273.255 357.983 272.071 357.316 270.773C356.598 269.476 355.88 268.235 355.162 266.881C354.444 265.64 353.726 264.511 353.008 263.327C352.239 262.198 351.469 261.014 350.7 259.773C349.931 258.588 349.161 257.347 348.341 256.162C347.52 254.978 346.751 253.793 345.981 252.721C345.161 251.818 344.34 250.972 343.468 250.126C342.596 249.28 341.724 248.49 340.853 247.587C339.929 246.741 339.006 245.839 338.083 244.993C337.006 243.921 336.083 243.075 335.108 242.172Z" stroke="#ECE8DC" stroke-width="3"/>
<path d="M319.927 315.057C318.747 314.775 317.516 314.549 316.285 314.436C315.003 314.493 313.669 314.718 312.284 315C310.848 315.508 309.412 316.241 308.079 317.257C306.694 318.554 305.258 320.021 303.822 321.713C302.283 323.744 300.796 326.114 299.257 328.765C297.718 331.811 296.128 335.252 294.538 338.976C292.743 343.263 290.897 348.002 288.948 353.248C286.845 358.889 284.691 364.474 282.383 370.228C279.87 376.208 277.203 382.301 274.33 388.45C271.304 394.768 268.073 400.973 264.739 407.122C261.2 413.271 257.507 419.42 253.609 425.456C249.404 431.605 245.044 437.867 240.684 444.185C235.966 450.842 231.247 457.499 226.272 464.212C221.041 470.868 215.963 477.017 210.885 483.054C205.449 489.202 199.653 495.351 193.703 501.218C187.703 506.747 181.702 511.598 175.496 516.45C169.136 521.019 162.417 525.476 155.185 530.045C147.953 534.107 140.824 537.661 133.49 540.933C125.95 544.036 118.565 546.743 111.333 549.113C104.46 550.861 97.6385 552.328 90.817 553.513C84.3545 554.303 78.1485 554.641 71.9425 554.81C65.7878 554.697 59.6843 554.415 53.8886 553.964C48.1442 553.4 42.3998 552.78 36.9119 552.046C31.6291 551.2 26.5001 550.297 21.4225 549.338C16.3448 548.379 11.3185 547.307 6.39471 546.236C1.41964 545.107 -3.45286 543.979 -8.32535 542.907C-13.1978 541.779 -18.019 540.651 -22.789 539.466C-27.5076 538.281 -32.1236 537.04 -36.7397 535.799C-41.3044 534.502 -45.8179 533.261 -50.28 531.963C-54.7935 530.666 -59.4608 529.368 -64.1282 528.127C-69.1032 526.886 -74.1809 525.419 -79.4124 523.896C-85.003 522.317 -90.5935 520.681 -96.2353 519.045C-101.98 517.465 -107.827 515.942 -113.674 514.363C-119.623 512.783 -125.522 511.203 -131.42 509.624C-137.369 508.101 -143.37 506.578 -149.371 504.998C-155.372 503.362 -161.168 501.67 -166.912 499.921C-172.657 498.116 -178.35 496.31 -183.991 494.449C-189.582 492.644 -195.173 490.838 -200.66 488.92C-206.148 486.946 -211.534 484.972 -216.817 482.941C-222.048 480.853 -227.075 478.766 -232.101 476.622C-237.127 474.479 -242.051 472.279 -246.924 470.079C-251.591 467.879 -255.95 465.678 -260.259 463.478C-264.464 461.278 -268.568 459.135 -272.568 456.878C-276.569 454.565 -280.467 452.252 -284.313 449.883C-288.058 447.457 -291.699 444.975 -295.187 442.38C-298.674 439.729 -302.06 437.021 -305.291 434.313C-308.368 431.605 -311.394 428.841 -314.318 426.077C-317.19 423.256 -320.062 420.492 -322.883 417.671C-325.653 414.794 -328.422 411.974 -331.089 409.097C-333.756 406.163 -336.372 403.286 -338.885 400.353C-341.399 397.419 -343.912 394.429 -346.22 391.496C-348.528 388.562 -350.733 385.629 -352.887 382.695C-354.888 379.818 -356.837 376.998 -358.734 374.177C-360.632 371.3 -362.478 368.423 -364.222 365.659C-365.966 362.838 -367.659 359.961 -369.249 357.197C-370.787 354.433 -372.275 351.725 -373.711 348.961C-375.147 346.197 -376.532 343.432 -377.814 340.781C-378.994 338.186 -380.122 335.591 -381.199 333.052C-382.225 330.514 -383.251 327.919 -384.174 325.38C-385.097 322.842 -385.969 320.303 -386.738 317.821C-387.456 315.395 -388.123 312.97 -388.636 310.657C-389.098 308.4 -389.559 306.144 -389.918 303.944C-390.277 301.687 -390.636 299.487 -390.893 297.287C-391.149 295.087 -391.354 292.887 -391.56 290.799C-391.713 288.656 -391.816 286.512 -391.919 284.425C-391.97 282.338 -391.97 280.25 -391.816 278.332C-391.611 276.527 -391.354 274.722 -390.995 272.973C-390.636 271.281 -390.226 269.645 -389.713 268.065C-389.251 266.486 -388.687 264.906 -388.123 263.439C-387.508 261.973 -386.892 260.506 -386.174 259.152C-385.456 257.798 -384.687 256.444 -383.917 255.147C-383.097 253.849 -382.276 252.608 -381.353 251.423C-380.481 250.182 -379.507 248.998 -378.532 247.869C-377.506 246.798 -376.429 245.726 -375.301 244.71C-374.172 243.695 -373.044 242.679 -371.813 241.777C-370.582 240.818 -369.3 240.028 -368.018 239.351C-366.684 238.787 -365.299 238.279 -363.863 237.884C-362.427 237.433 -360.94 237.038 -359.452 236.7C-357.914 236.418 -356.324 236.192 -354.682 236.023C-353.041 235.854 -351.4 235.684 -349.656 235.684C-347.912 235.741 -346.066 235.91 -344.168 236.136C-342.27 236.361 -340.321 236.643 -338.27 236.982C-336.27 237.32 -334.269 237.715 -332.218 238.505C-330.166 239.351 -328.012 240.254 -325.858 241.269C-323.652 242.285 -321.344 243.413 -319.036 244.597C-316.728 245.839 -314.266 247.531 -311.753 249.336C-309.24 251.141 -306.727 253.059 -304.111 255.147C-301.444 257.177 -298.674 259.152 -295.854 261.126C-292.93 263.101 -289.853 265.301 -286.673 267.557C-283.493 269.701 -280.313 271.901 -276.979 273.988C-273.645 276.019 -270.209 277.937 -266.772 279.799C-263.336 281.548 -259.848 283.24 -256.207 284.989C-252.514 286.681 -248.77 288.486 -244.872 290.574C-240.923 292.717 -236.922 294.861 -232.665 297.118C-228.305 299.487 -223.741 301.969 -219.022 304.451C-214.15 306.877 -209.072 309.303 -203.687 311.785C-198.199 314.211 -192.505 316.58 -186.556 318.893C-180.401 321.037 -173.939 323.124 -167.22 325.098C-160.296 326.903 -152.756 328.652 -144.909 330.232C-136.959 331.586 -128.804 332.77 -120.444 333.842C-111.879 334.858 -102.903 335.817 -93.5683 336.719C-83.9772 337.565 -74.2322 338.412 -64.3333 339.258C-54.5884 339.991 -44.8947 340.725 -34.9958 341.571C-24.9431 342.36 -14.993 343.094 -4.73509 343.714C5.11247 343.771 14.8575 343.432 24.346 342.699C33.2703 341.401 41.8356 339.596 49.9394 337.283C57.5815 334.745 64.8646 331.868 71.7887 328.709C78.405 325.38 84.611 321.713 90.5093 317.821C95.9972 313.646 101.126 309.134 105.999 304.395C110.512 299.318 114.769 293.958 118.667 288.204C122.257 281.943 125.591 275.286 128.771 267.952C131.541 260.167 134.31 252.1 137.234 243.751C140.568 235.064 144.312 226.376 148.005 217.745C151.646 209.114 155.236 200.652 159.083 193.093C163.032 186.267 167.084 180.061 171.034 174.138C174.88 168.384 178.522 162.912 182.009 157.553C185.343 152.363 188.472 147.342 191.344 142.321C194.062 137.244 196.524 131.49 198.063 124.1C199.089 116.146 199.704 107.853 199.961 99.3351C200.422 91.663 200.884 84.4985 201.346 77.7854C201.807 71.4108 202.371 65.6003 203.295 60.7488C204.526 56.5743 205.756 52.4562 207.039 48.7894C208.526 45.7431 210.116 42.9789 211.86 40.6095C213.706 38.6351 215.553 36.8863 217.348 35.5888C219.194 34.517 221.092 33.6144 222.99 32.881C224.887 32.204 226.836 31.7528 228.837 31.4143C230.837 31.245 232.889 31.245 234.94 31.3579C236.992 31.5271 239.043 31.8656 241.044 32.204C243.044 32.6553 245.095 33.1067 247.096 33.6708C248.993 34.2913 250.891 34.9118 252.686 35.476C254.43 35.8709 256.02 36.1529 257.61 36.3786C259.046 36.4914 260.38 36.4914 261.662 36.435C262.893 36.3222 264.124 36.1529 265.355 35.9837C266.534 35.758 267.611 35.476 268.74 35.1939C269.714 34.7426 270.638 34.1785 271.509 33.6708C272.381 33.1067 273.253 32.5425 274.074 32.0348C274.895 31.4707 275.818 30.8502 276.69 30.1732C277.613 29.4398 278.485 28.6501 279.357 27.9167C280.331 27.2962 281.357 26.7885 282.434 26.3372C283.511 25.9423 284.588 25.5473 285.717 25.3217C286.896 25.1525 288.025 24.9832 289.204 24.8704C290.384 24.7576 291.564 24.7012 292.743 24.6448C293.923 24.6448 295.154 24.7012 296.333 24.7012C297.564 24.7576 298.744 24.7576 299.924 24.814C301.155 24.8704 302.334 24.9268 303.565 24.9268C304.796 24.9833 305.976 25.0396 307.207 25.1525C308.438 25.2653 309.669 25.4345 310.848 25.6038C312.079 25.773 313.259 26.0551 314.49 26.3372C315.721 26.6756 316.952 26.9013 318.183 27.2397C319.465 27.691 320.747 28.1423 322.029 28.6501C323.312 29.1578 324.594 29.7219 325.876 30.286C327.158 30.9066 328.441 31.6399 329.723 32.3733C331.005 33.163 332.287 33.9528 333.672 34.8554C335.057 35.758 336.39 36.6607 337.724 37.6197C339.058 38.5223 340.442 39.4813 341.827 40.4967C343.212 41.5121 344.597 42.584 345.982 43.7122C347.418 44.8405 348.803 46.0251 350.239 47.2662C351.675 48.5073 353.059 49.7484 354.496 51.1023C355.932 52.4562 357.368 53.8665 358.804 55.2768C360.24 56.7435 361.727 58.2102 363.164 59.7334C364.651 61.3129 366.087 62.8925 367.574 64.5285C369.062 66.1644 370.498 67.8004 371.985 69.3799C373.421 71.0159 374.857 72.6519 376.294 74.2879C377.73 75.8674 379.166 77.5034 380.551 79.1393C381.935 80.7189 383.372 82.242 384.756 83.7651C386.192 85.4575 387.629 87.2063 389.065 89.0679C390.501 90.8731 391.988 92.6784 393.476 94.6528C394.963 96.7965 396.45 99.053 397.938 101.31C399.425 103.622 400.861 105.992 402.297 108.361C403.733 110.73 405.118 113.1 406.554 115.469C407.939 117.838 409.324 120.264 410.657 122.633C411.991 125.059 413.273 127.429 414.555 129.854C415.838 132.28 417.069 134.706 418.3 137.132C419.531 139.557 420.71 141.983 421.89 144.465C423.069 146.947 424.198 149.429 425.326 151.912C426.403 154.45 427.532 156.932 428.557 159.471C429.635 162.009 430.66 164.548 431.686 167.143C432.661 169.738 433.686 172.333 434.61 174.928C435.584 177.523 436.507 180.118 437.379 182.713C438.251 185.308 439.123 187.959 439.944 190.554C440.764 193.206 441.585 195.801 442.354 198.452C443.124 201.103 443.842 203.698 444.56 206.35C445.278 209.001 445.945 211.653 446.56 214.247C447.227 216.899 447.791 219.55 448.406 222.202C448.971 224.853 449.535 227.504 450.048 230.156C450.561 232.807 451.022 235.459 451.484 238.11C451.945 240.761 452.356 243.413 452.715 246.064C453.074 248.716 453.433 251.367 453.741 254.018C454.048 256.67 454.356 259.321 454.612 261.973C454.869 264.624 455.074 267.275 455.279 269.927C455.433 272.578 455.587 275.23 455.741 277.881C455.843 280.532 455.946 283.184 455.997 285.779C456.049 288.43 456.049 291.025 456.049 293.62C456.049 296.215 455.997 298.754 455.895 301.292C455.792 303.831 455.69 306.313 455.536 308.795C455.382 311.221 455.177 313.703 454.971 316.129C454.766 318.554 454.51 320.98 454.253 323.349C453.997 325.719 453.689 328.088 453.382 330.457C453.074 332.77 452.715 335.14 452.304 337.396C451.894 339.709 451.484 341.966 451.073 344.222C450.663 346.479 450.15 348.735 449.689 350.935C449.176 353.135 448.663 355.335 448.099 357.535C447.535 359.736 446.97 361.879 446.355 364.023C445.739 366.167 445.124 368.31 444.457 370.398C443.79 372.485 443.124 374.572 442.406 376.603C441.688 378.634 440.97 380.608 440.251 382.583C439.533 384.557 438.764 386.475 437.995 388.337C437.225 390.198 436.405 392.004 435.635 393.752C434.815 395.558 433.994 397.306 433.122 398.999C432.302 400.635 431.481 402.271 430.609 403.794C429.737 405.373 428.865 406.896 427.993 408.42C427.121 409.943 426.198 411.41 425.275 412.82C424.352 414.23 423.429 415.64 422.454 417.051C421.48 418.405 420.505 419.759 419.531 421.112C418.556 422.41 417.53 423.707 416.504 425.005C415.479 426.246 414.453 427.487 413.427 428.672C412.401 429.856 411.376 431.041 410.298 432.169C409.273 433.298 408.196 434.369 407.118 435.441C406.041 436.513 404.964 437.529 403.887 438.488C402.81 439.447 401.733 440.349 400.656 441.139C399.63 441.872 398.604 442.549 397.579 443.17C396.553 443.79 395.476 444.411 394.45 445.031C393.373 445.652 392.296 446.216 391.219 446.78C390.142 447.344 389.013 447.908 387.936 448.416C386.859 448.867 385.782 449.262 384.756 449.488C383.731 449.77 382.653 449.939 381.628 450.052C380.653 450.109 379.679 450.109 378.704 449.996C377.73 449.827 376.807 449.657 375.883 449.319C375.011 448.98 374.139 448.529 373.267 447.965C372.447 447.401 371.575 446.837 370.754 446.16C369.934 445.539 369.113 444.806 368.344 444.016C367.574 443.226 366.754 442.436 365.984 441.59C365.266 440.688 364.651 439.559 364.087 438.262C363.523 437.021 363.01 435.554 362.497 434.087C361.984 432.564 361.522 431.098 361.061 429.462C360.599 427.882 360.137 426.19 359.727 424.497C359.266 422.861 358.855 421.112 358.394 419.307C357.932 417.558 357.522 415.753 357.111 413.892C356.65 412.086 356.239 410.225 355.778 408.363C355.316 406.502 354.906 404.527 354.444 402.609C353.983 400.691 353.521 398.717 353.06 396.686C352.649 394.711 352.188 392.681 351.777 390.65C351.316 388.675 350.854 386.644 350.392 384.67C349.88 382.695 349.418 380.665 348.956 378.69C348.443 376.772 347.982 374.911 347.469 372.993C346.956 371.131 346.443 369.1 345.93 366.956C345.417 364.813 344.853 362.556 344.34 360.243C343.776 357.987 343.161 355.674 342.545 353.305C341.878 351.048 341.212 348.792 340.545 346.422C339.827 344.166 339.109 341.909 338.339 339.709C337.57 337.622 336.801 335.478 335.98 333.334C335.16 331.36 334.288 329.329 333.416 327.298C332.441 325.662 331.364 324.365 330.338 323.124C329.261 321.939 328.184 320.754 327.056 319.57C325.927 318.554 324.696 317.708 323.517 316.918C322.388 316.129 321.157 315.508 319.927 315.057Z" stroke="#ECE8DC" stroke-width="3"/>
<path d="M306.232 379.029C305.514 379.424 304.745 379.819 304.027 380.326C303.258 380.89 302.437 381.511 301.616 382.188C300.745 382.978 299.873 383.824 299.001 384.67C298.077 385.629 297.154 386.588 296.231 387.66C295.257 388.788 294.231 390.086 293.256 391.439C292.23 392.906 291.153 394.429 290.076 396.009C288.948 397.701 287.82 399.394 286.64 401.199C285.409 403.06 284.178 404.978 282.896 406.953C281.614 409.04 280.229 411.128 278.895 413.271C277.459 415.471 276.023 417.728 274.536 419.984C272.997 422.354 271.407 424.61 269.817 426.923C268.124 429.349 266.483 431.775 264.739 434.2C262.944 436.682 261.098 439.221 259.251 441.76C257.354 444.355 255.405 446.837 253.456 449.262C249.353 454.34 245.198 459.586 240.89 465.002C236.376 470.586 231.76 476.228 226.99 481.812C222.015 487.454 216.886 492.982 211.604 498.68C206.116 504.547 200.371 510.301 194.627 515.716C188.78 520.85 182.779 525.758 176.676 530.553C170.572 535.122 164.264 539.579 157.75 543.979C151.031 548.266 144.415 552.159 137.798 555.713C130.977 559.154 124.053 562.37 117.231 565.303C110.512 567.842 104.101 569.872 97.8951 571.452C91.9455 572.524 85.9447 573.37 80.0977 573.934C74.3533 574.273 68.5063 574.555 62.8645 574.611C57.1201 574.668 51.4782 574.555 46.2467 574.16C41.1178 573.709 35.8863 573.201 30.8086 572.58C25.8335 571.847 20.8072 571.114 15.8321 570.324C10.8058 569.478 5.72812 568.575 0.650475 567.616C-4.47846 566.657 -9.55611 565.642 -14.4799 564.57C-19.3524 563.498 -24.2249 562.37 -29.0461 561.298C-33.8673 560.17 -38.6885 559.098 -43.3045 557.969C-47.818 556.841 -52.2801 555.657 -56.691 554.472C-61.1019 553.287 -65.5128 552.103 -69.975 550.918C-74.2833 549.62 -78.8993 547.984 -83.8231 546.066C-89.0033 544.036 -94.3887 542.005 -99.9793 539.917C-105.826 537.774 -111.776 535.686 -117.777 533.543C-123.778 531.456 -129.778 529.481 -135.728 527.507C-141.729 525.589 -147.678 523.614 -153.731 521.64C-159.885 519.609 -166.091 517.578 -172.246 515.434C-178.349 513.347 -184.453 511.316 -190.454 509.285C-196.608 507.142 -202.814 505.054 -208.918 502.854C-214.97 500.654 -220.817 498.398 -226.51 496.141C-232.152 493.885 -237.589 491.741 -242.871 489.654C-248.052 487.567 -252.975 485.536 -257.848 483.392C-262.72 481.248 -267.439 479.048 -272.106 476.848C-276.774 474.592 -281.338 472.279 -285.801 469.909C-290.263 467.484 -294.622 465.002 -298.828 462.407C-302.931 459.699 -306.727 456.822 -310.368 453.945C-313.959 451.011 -317.497 447.965 -320.934 444.975C-324.37 441.929 -327.704 438.883 -330.987 435.836C-334.218 432.734 -337.346 429.687 -340.373 426.641C-343.399 423.538 -346.373 420.436 -349.297 417.389C-352.22 414.23 -355.041 411.127 -357.708 408.025C-360.273 404.979 -362.786 401.989 -365.197 398.942C-367.607 395.896 -370.018 392.793 -372.326 389.747C-374.634 386.644 -376.891 383.542 -379.096 380.439C-381.301 377.336 -383.456 374.177 -385.558 371.075C-387.661 367.972 -389.662 364.869 -391.611 361.823C-393.508 358.777 -395.355 355.787 -397.15 352.797C-398.945 349.751 -400.586 346.817 -402.074 343.997C-403.561 341.176 -404.946 338.355 -406.279 335.535C-407.613 332.714 -408.946 329.893 -410.177 327.016C-411.408 324.196 -412.588 321.319 -413.716 318.498C-414.742 315.734 -415.665 313.026 -416.589 310.375C-417.46 307.667 -418.281 304.959 -419.05 302.251C-419.82 299.543 -420.538 296.836 -421.205 294.128C-421.871 291.42 -422.487 288.712 -423 286.061C-423.513 283.409 -423.974 280.758 -424.282 278.219C-424.538 275.737 -424.692 273.312 -424.795 270.886C-424.897 268.404 -425 265.978 -425 263.552C-425 261.126 -424.949 258.701 -424.897 256.331C-424.795 253.906 -424.641 251.593 -424.436 249.223C-424.231 246.854 -423.974 244.541 -423.666 242.285C-423.359 239.972 -423 237.715 -422.589 235.459C-422.128 233.259 -421.615 231.058 -420.999 228.971C-420.384 226.884 -419.717 224.797 -418.999 222.766C-418.281 220.735 -417.512 218.704 -416.742 216.673C-415.922 214.699 -415.101 212.837 -414.178 210.976C-413.255 209.227 -412.332 207.478 -411.357 205.842C-410.383 204.206 -409.357 202.57 -408.28 200.991C-407.203 199.411 -406.074 197.888 -404.946 196.478C-403.766 195.011 -402.587 193.601 -401.356 192.19C-400.125 190.78 -398.791 189.482 -397.304 188.354C-395.816 187.226 -394.329 186.098 -392.739 185.026C-391.149 183.954 -389.559 182.939 -387.867 181.98C-386.225 180.964 -384.481 180.005 -382.738 179.102C-380.994 178.2 -379.147 177.297 -377.25 176.507C-375.403 175.718 -373.454 175.097 -371.454 174.477C-369.454 173.969 -367.402 173.518 -365.299 173.123C-363.196 172.671 -360.991 172.446 -358.734 172.277C-356.477 172.107 -354.169 172.107 -351.861 172.107C-349.502 172.051 -347.143 172.051 -344.681 172.107C-342.27 172.107 -339.757 172.277 -337.193 172.502C-334.628 172.728 -331.961 173.066 -329.345 173.687C-326.73 174.307 -324.114 174.984 -321.395 175.831C-318.677 176.62 -315.908 177.41 -313.292 178.764C-310.625 180.174 -307.958 182.092 -305.342 184.575C-302.675 187.17 -299.957 189.764 -296.982 192.641C-294.007 195.575 -290.93 198.734 -287.75 201.893C-284.467 204.77 -281.082 207.76 -277.646 210.75C-274.158 213.458 -270.619 216.222 -266.977 219.043C-263.285 221.694 -259.54 224.345 -255.796 226.997C-252.001 229.648 -248.154 232.638 -244.205 236.079C-240.256 239.633 -236.101 243.3 -231.793 246.91C-227.074 250.013 -222.099 253.003 -216.97 255.88C-211.79 258.644 -206.456 261.408 -200.968 264.06C-195.48 266.598 -189.838 269.137 -183.94 271.732C-177.837 274.383 -171.528 277.035 -164.963 279.63C-158.193 282.055 -150.961 284.312 -143.268 286.963C-135.215 289.728 -126.598 292.379 -117.264 294.805C-107.057 296.666 -96.0813 297.851 -84.5925 298.754C-72.8472 299.487 -60.9481 300.277 -48.9463 301.123C-37.2524 301.969 -25.9687 302.703 -15.0441 303.267C-4.78622 303.549 4.44587 302.759 12.3957 299.543C19.3198 294.635 25.3719 288.825 30.9112 282.507C36.194 276.189 41.4255 269.87 46.7083 263.326C51.8885 256.557 57.5304 249.844 63.2235 242.905C68.9166 235.91 74.6097 228.802 80.3541 221.581C85.9447 214.248 91.5352 206.801 97.0745 199.298C102.46 191.626 107.691 183.841 112.82 175.887C117.795 167.876 122.719 159.809 127.694 152.081C132.515 144.973 137.234 138.091 142.004 131.885C146.671 126.075 151.082 120.49 155.288 114.961C159.288 109.602 162.93 104.356 166.315 99.2222C169.444 93.9759 171.7 88.391 173.649 82.5241C175.137 76.6008 176.47 70.7339 177.804 65.0362C178.984 59.5642 180.163 54.1486 181.189 48.2253C181.702 45.3482 182.163 42.584 182.676 39.7634C183.241 37.2248 183.959 34.8555 184.677 32.599C185.446 30.4553 186.369 28.5373 187.395 26.6757C188.421 24.8705 189.395 23.1217 190.319 21.6549C191.293 20.301 192.268 19.1164 193.293 18.101C194.319 17.1419 195.345 16.2957 196.422 15.5624C197.499 14.8854 198.525 14.2649 199.602 13.6444C200.679 13.1367 201.756 12.6289 202.833 12.1776C203.91 11.7263 205.039 11.3315 206.116 10.993C207.244 10.7109 208.424 10.4853 209.552 10.2596C210.732 10.0904 211.86 9.97754 213.091 9.92112C214.271 9.86471 215.45 9.80831 216.579 9.86473C217.758 9.97755 218.887 10.1468 220.066 10.316C221.246 10.5417 222.374 10.7673 223.605 10.993C224.785 11.2186 225.965 11.5007 227.144 11.8392C228.273 12.1212 229.401 12.4033 230.529 12.6854C231.658 12.9674 232.735 13.193 233.761 13.4751C234.838 13.7572 235.915 13.9828 236.941 14.2649C237.966 14.4906 238.941 14.7162 239.915 14.9983C240.89 15.2239 241.813 15.3931 242.736 15.5624C243.659 15.7316 244.531 15.8444 245.403 16.0137C246.275 16.1265 247.147 16.2393 247.968 16.2957C248.788 16.3522 249.609 16.3522 250.378 16.3522C251.148 16.3522 251.866 16.2958 252.635 16.2393C253.353 16.1265 254.071 16.0701 254.738 15.9573C255.405 15.8445 256.071 15.6752 256.738 15.5624C257.354 15.3931 258.02 15.2239 258.533 14.9419C259.098 14.6034 259.61 14.2649 260.175 13.9264C261.252 13.1931 262.38 12.3469 263.406 11.4443C264.483 10.5417 265.56 9.6955 266.637 8.84931C267.765 8.11594 269.048 7.60822 270.381 7.32616C271.663 6.98768 272.946 6.64922 274.228 6.31074C275.51 5.97226 276.844 5.57736 278.177 5.12606C279.511 4.67475 280.793 4.33628 282.126 3.9978C283.46 3.65933 284.794 3.37726 286.127 3.15161C287.461 2.92596 288.845 2.75673 290.179 2.58749C291.512 2.41825 292.897 2.36185 294.282 2.24903C295.616 2.19261 297 2.07978 298.385 2.02336C299.77 1.96695 301.155 2.02338 302.54 2.0798C303.924 2.19262 305.361 2.41824 306.797 2.75672C308.233 3.03878 309.669 3.37726 311.054 3.71574C312.49 4.05422 313.926 4.50552 315.311 4.95682C316.747 5.40812 318.234 5.85941 319.67 6.42354C321.158 7.10049 322.696 7.77747 324.184 8.56724C325.671 9.35702 327.21 10.2032 328.851 11.1622C330.492 12.1212 332.031 13.1366 333.672 14.1521C335.314 15.2239 337.006 16.3522 338.647 17.5368C340.289 18.7215 341.981 20.019 343.674 21.3165C345.366 22.6704 347.059 24.0243 348.751 25.4346C350.495 26.9577 352.188 28.4809 353.932 30.004C355.675 31.5272 357.368 33.0503 359.112 34.6298C360.856 36.2094 362.548 37.789 364.241 39.3685C365.933 40.9481 367.677 42.584 369.37 44.1636C371.062 45.7995 372.755 47.4355 374.447 49.0715C376.14 50.7074 377.832 52.5127 379.628 54.5435C381.423 56.7436 383.269 59.0565 385.116 61.4822C386.962 63.9644 388.808 66.4466 390.655 68.9287C392.501 71.3545 394.296 73.7802 396.143 76.206C397.938 78.6881 399.733 81.1702 401.477 83.6524C403.221 86.1345 404.964 88.6731 406.606 91.1553C408.298 93.6939 409.94 96.2324 411.632 98.8274C413.273 101.366 414.863 103.961 416.453 106.499C418.043 109.038 419.531 111.633 421.069 114.172C422.557 116.767 424.044 119.362 425.532 121.957C426.968 124.552 428.404 127.147 429.789 129.798C431.173 132.449 432.507 135.044 433.84 137.696C435.174 140.347 436.456 142.998 437.738 145.65C439.021 148.301 440.252 150.953 441.431 153.66C442.611 156.312 443.791 158.963 444.919 161.671C446.047 164.322 447.176 167.03 448.253 169.738C449.33 172.446 450.356 175.097 451.381 177.749C452.407 180.4 453.382 183.051 454.305 185.703C455.228 188.354 456.151 190.949 457.023 193.544C457.895 196.139 458.716 198.734 459.536 201.329C460.357 203.868 461.126 206.463 461.844 209.058C462.562 211.653 463.281 214.248 463.999 216.842C464.665 219.437 465.332 222.032 465.948 224.684C466.563 227.279 467.127 229.93 467.691 232.582C468.256 235.233 468.717 237.884 469.23 240.536C469.692 243.187 470.153 245.839 470.564 248.49C470.974 251.141 471.333 253.793 471.641 256.501C472 259.208 472.256 261.86 472.564 264.568C472.82 267.275 473.026 269.927 473.231 272.635C473.436 275.342 473.59 278.05 473.692 280.758C473.795 283.466 473.897 286.174 473.949 288.881C474 291.589 474 294.297 474 297.005C473.949 299.713 473.897 302.364 473.795 305.072C473.692 307.723 473.538 310.375 473.385 313.082C473.231 315.734 473.025 318.385 472.769 320.98C472.513 323.632 472.256 326.227 471.948 328.822C471.641 331.416 471.282 334.012 470.923 336.55C470.564 339.089 470.153 341.684 469.692 344.222C469.23 346.761 468.769 349.299 468.256 351.838C467.743 354.376 467.179 356.859 466.614 359.341C466.05 361.823 465.435 364.305 464.819 366.731C464.152 369.213 463.486 371.639 462.819 374.064C462.101 376.49 461.383 378.916 460.613 381.285C459.844 383.711 459.075 386.08 458.254 388.45C457.434 390.819 456.562 393.188 455.69 395.501C454.818 397.814 453.895 400.127 452.92 402.44C451.946 404.753 450.971 407.009 449.997 409.266C448.971 411.522 447.945 413.779 446.868 415.979C445.791 418.235 444.714 420.436 443.585 422.636C442.457 424.836 441.277 426.979 440.098 429.18C438.918 431.323 437.687 433.467 436.456 435.554C435.225 437.641 433.943 439.672 432.661 441.76C431.379 443.79 430.045 445.821 428.712 447.796C427.378 449.77 426.044 451.688 424.66 453.606C423.326 455.411 421.993 457.104 420.659 458.683C419.326 460.263 417.992 461.786 416.659 463.196C415.325 464.607 413.991 465.904 412.658 467.258C411.273 468.612 409.888 469.909 408.504 471.15C407.067 472.392 405.683 473.576 404.298 474.704C402.913 475.833 401.477 476.961 400.041 478.033C398.605 479.161 397.169 480.177 395.732 481.248C394.245 482.264 392.809 483.279 391.322 484.295C389.834 485.254 388.398 486.156 386.911 487.059C385.423 487.961 383.936 488.864 382.448 489.654C380.961 490.444 379.474 491.121 378.14 491.572C376.807 492.023 375.422 492.418 374.088 492.813C372.704 493.208 371.319 493.603 369.934 493.941C368.549 494.28 367.164 494.562 365.882 494.618C364.549 494.731 363.266 494.731 361.984 494.675C360.753 494.562 359.522 494.449 358.24 494.28C357.009 494.11 355.829 493.603 354.803 492.926C353.726 492.305 352.701 491.628 351.675 490.895C350.7 490.105 349.675 489.315 348.7 488.469C347.726 487.623 346.751 486.777 345.777 485.874C344.853 485.028 343.981 484.125 343.11 483.223C342.238 482.32 341.366 481.361 340.596 480.12C339.93 478.823 339.314 477.356 338.75 475.776C338.186 474.197 337.622 472.617 337.109 471.038C336.596 469.458 336.083 467.709 335.621 465.904C335.16 464.155 334.749 462.294 334.339 460.376C333.877 458.514 333.467 456.652 333.108 454.847C332.698 453.042 332.339 451.18 332.031 449.262C331.672 447.401 331.364 445.426 331.005 443.395C330.646 441.421 330.287 439.334 329.928 437.247C329.518 435.159 329.159 432.959 328.8 430.59C328.389 428.333 328.03 426.077 327.569 423.877C327.159 421.564 326.748 419.194 326.338 416.825C325.825 414.625 325.363 412.369 324.902 410.056C324.645 408.871 324.389 407.686 324.132 406.502C323.825 405.317 323.568 404.189 323.261 403.004C323.004 401.763 322.696 400.578 322.389 399.394C322.081 398.265 321.773 397.081 321.414 395.952C321.055 394.824 320.696 393.696 320.388 392.624C320.081 391.552 319.722 390.48 319.363 389.409C319.004 388.337 318.645 387.321 318.285 386.306C317.875 385.347 317.516 384.388 317.106 383.485C316.644 382.865 316.131 382.301 315.618 381.68C315.106 381.116 314.593 380.608 314.028 380.101C313.464 379.649 312.9 379.198 312.285 378.86C311.669 378.577 311.105 378.408 310.438 378.183C309.823 378.013 309.156 378.013 308.489 378.183C307.669 378.465 306.951 378.747 306.232 379.029Z" stroke="#ECE8DC" stroke-width="3"/>
</g>
</svg>
