<svg width="221" height="575" viewBox="0 0 221 575" fill="none" xmlns="http://www.w3.org/2000/svg">
<path d="M400.061 84.2726C400.174 85.2316 400.287 86.2471 400.343 87.2625C400.343 88.2779 400.343 89.2369 400.286 90.1959C400.174 91.1549 400.004 92.1139 399.835 93.0729C399.666 94.032 399.44 95.0474 399.327 96.0628C399.102 97.0218 398.876 97.9244 398.651 98.9399C398.481 100.012 398.312 101.084 398.199 102.155C398.086 103.284 398.143 104.525 398.481 105.822C398.876 107.233 399.271 108.699 399.666 110.222C400.061 111.802 400.399 113.494 400.794 115.243C401.076 116.992 401.302 118.741 401.415 120.49C401.415 122.295 401.415 124.156 401.302 126.018C400.963 127.767 400.569 129.516 400.004 131.208C398.876 132.675 397.24 134.085 395.548 135.495C393.348 136.906 390.753 138.316 387.876 139.726C384.717 141.249 381.219 142.603 377.439 143.957C373.378 145.367 369.147 146.778 364.859 148.244C360.29 149.711 355.326 151.122 350.418 152.475C345.341 153.773 340.264 155.07 335.186 156.312C330.053 157.553 325.032 158.963 320.011 160.204C314.765 161.614 309.631 162.968 304.442 164.266C299.026 165.62 293.723 167.086 288.364 168.44C282.779 169.907 277.476 171.43 272.343 173.01C267.153 174.702 262.076 176.507 257.281 178.369C252.429 180.343 247.803 182.431 243.459 184.518C239.003 186.718 234.828 188.974 230.936 191.174C226.987 193.544 223.32 195.857 219.992 198.113C216.607 200.483 213.504 202.683 210.74 204.883C207.919 207.083 205.381 209.17 203.181 211.088C200.924 213.063 199.006 214.924 197.483 216.504C195.904 218.14 194.663 219.606 193.704 220.847C192.745 222.145 192.068 223.217 191.673 224.063C191.278 224.966 191.221 225.586 191.56 225.981C191.842 226.432 192.406 226.602 193.365 226.545C194.268 226.545 195.452 226.263 197.032 225.812C198.555 225.36 200.36 224.684 202.504 223.781C204.648 222.935 207.073 221.806 209.838 220.565C212.545 219.324 215.592 217.97 218.976 216.391C222.305 214.924 225.915 213.345 229.751 211.652C233.587 210.073 237.649 208.437 242.049 206.744C246.28 205.278 250.793 203.867 255.588 202.626C260.214 201.611 265.009 200.595 270.086 199.636C274.994 198.79 280.128 197.944 285.43 197.098C290.677 196.364 296.092 195.575 301.734 194.841C307.262 194.221 312.96 193.657 318.657 193.036C324.129 192.416 329.601 191.682 335.13 190.892C340.489 190.159 345.961 189.313 351.602 188.467C357.074 187.451 362.659 186.323 368.301 185.308C373.716 184.461 379.188 183.615 384.717 182.882C390.076 182.261 395.491 181.754 400.907 181.246C406.153 180.851 411.4 180.456 416.59 180.061C421.554 179.666 426.406 179.384 431.144 179.046C435.601 178.651 439.832 178.143 443.95 177.579C447.729 177.015 451.453 176.451 454.612 175.435C457.658 174.476 460.535 173.517 463.299 172.558C465.951 171.599 468.433 170.471 470.802 169.23C472.833 167.876 474.751 166.466 476.556 165.055C478.362 163.702 479.997 162.291 481.464 160.881C482.705 159.471 483.664 158.06 484.51 156.594C485.075 155.07 485.131 153.378 485.018 151.629C484.849 149.88 484.68 148.188 484.454 146.439C484.172 144.803 483.834 143.167 483.439 141.475C483.044 139.895 482.592 138.203 482.141 136.624C481.803 135.1 481.633 133.69 481.746 132.449C481.972 131.264 482.198 130.136 482.423 129.008C482.705 127.88 483.044 126.808 483.382 125.736C483.721 124.664 484.003 123.649 484.116 122.577C484.228 121.505 484.285 120.377 484.341 119.305C484.398 118.233 484.398 117.218 484.454 116.202C484.51 115.243 484.51 114.284 484.454 113.325C484.454 112.366 484.341 111.463 484.228 110.504C484.116 109.545 483.89 108.586 483.664 107.627C483.439 106.668 483.213 105.653 482.875 104.581C482.536 103.566 482.198 102.494 481.803 101.478C481.351 100.407 480.957 99.3348 480.505 98.3193C480.11 97.3039 479.659 96.2321 479.151 95.273C478.644 94.2576 478.079 93.1294 477.515 92.0576C476.895 90.9857 476.274 89.9138 475.541 88.7856C474.808 87.7138 474.074 86.642 473.172 85.5137C472.213 84.3855 471.197 83.3136 470.182 82.1854C469.11 81.0571 467.982 79.9852 466.853 78.857C465.725 77.7852 464.54 76.6569 463.299 75.6415C462.058 74.5697 460.817 73.4978 459.52 72.3695C458.222 71.2413 456.925 70.1694 455.571 69.0976C454.217 67.9693 452.863 66.8975 451.453 65.8257C450.042 64.7539 448.632 63.7384 447.165 62.6666C445.699 61.6512 444.232 60.5793 442.709 59.6203C441.129 58.6049 439.606 57.5894 438.026 56.6868C436.447 55.7278 434.924 54.7688 433.344 53.8098C431.821 52.9072 430.242 52.0046 428.718 51.1584C427.195 50.2558 425.729 49.4096 424.262 48.5635C422.851 47.7173 421.385 46.8711 420.031 46.0813C418.621 45.2351 417.267 44.4453 415.913 43.7119C414.502 42.9786 413.149 42.2452 411.795 41.5683C410.441 40.8913 409.03 40.2708 407.677 39.6502C406.323 39.0861 404.969 38.4656 403.615 37.9579C402.261 37.4501 400.907 36.9424 399.61 36.4911C398.256 36.0398 396.958 35.645 395.717 35.3065C394.42 34.9116 393.178 34.6295 391.994 34.3474C390.753 34.0654 389.625 33.8398 388.496 33.6141C387.368 33.4449 386.296 33.2756 385.281 33.1628C384.209 33.05 383.25 32.9371 382.291 32.9371C381.332 32.8807 380.486 32.8807 379.639 32.8807C378.793 32.8807 378.004 32.9372 377.214 33.05C376.48 33.1628 375.747 33.2756 375.126 33.4449C374.45 33.6141 373.885 33.8397 373.321 34.009C372.757 34.2346 372.306 34.5167 371.855 34.7988C371.403 35.0808 371.008 35.4193 370.67 35.7578C370.331 36.0962 370.049 36.4347 369.824 36.886C369.598 37.2809 369.429 37.7322 369.316 38.1835C369.26 38.6348 369.26 39.1425 369.26 39.6502C369.316 40.1579 369.372 40.7221 369.542 41.2298C369.711 41.7939 369.88 42.3581 370.162 42.9786C370.388 43.5991 370.726 44.2197 371.065 44.8966C371.403 45.5736 371.855 46.2505 372.306 46.9839C372.757 47.7172 373.321 48.4506 373.829 49.184C374.337 49.9173 374.901 50.7071 375.578 51.5533C376.198 52.3431 376.875 53.1329 377.609 53.979C378.342 54.8252 379.075 55.7278 379.752 56.574C380.373 57.4202 381.05 58.2664 381.614 59.169C382.178 60.0716 382.799 60.9742 383.419 61.8768C384.04 62.7794 384.66 63.7384 385.337 64.6974C386.014 65.6565 386.635 66.6155 387.255 67.5745C387.989 68.4771 388.835 69.4361 389.681 70.2823C390.584 71.1849 391.543 72.0875 392.558 73.0465C393.517 73.9491 394.476 74.9081 395.379 75.8671C396.168 76.8261 396.845 77.7852 397.522 78.7442C398.086 79.6468 398.594 80.5493 399.102 81.5084C399.497 82.2981 399.779 83.2572 400.061 84.2726Z" stroke="#655454" stroke-opacity="0.08" stroke-width="3"/>
<path d="M376.029 81.6779C376.311 82.3548 376.537 83.0317 376.706 83.7087C376.875 84.3856 377.044 85.0626 377.157 85.7395C377.27 86.3601 377.439 87.037 377.552 87.6576C377.665 88.2781 377.834 88.9551 378.004 89.5756C378.173 90.2526 378.342 90.9295 378.511 91.5501C378.737 92.227 378.963 92.904 379.132 93.5809C379.357 94.3143 379.527 95.0476 379.809 95.781C380.034 96.458 380.316 97.1913 380.599 97.8682C380.881 98.5452 381.163 99.2786 381.501 100.012C381.84 100.745 382.122 101.479 382.46 102.268C382.799 103.058 383.137 103.848 383.419 104.751C383.645 105.653 383.87 106.612 384.04 107.628C384.153 108.643 384.322 109.771 384.435 110.9C384.491 112.084 384.491 113.269 384.491 114.51C384.378 115.751 384.153 116.992 383.814 118.12C383.476 119.249 383.024 120.433 382.573 121.562C382.065 122.746 381.445 123.931 380.655 125.003C379.696 126.075 378.568 127.146 377.157 128.162C375.465 129.177 373.66 130.249 371.685 131.321C369.372 132.449 366.89 133.577 364.295 134.706C361.475 135.721 358.485 136.849 355.213 137.921C351.828 138.993 348.443 140.065 345.059 141.137C341.561 142.152 338.007 143.224 334.227 144.239C330.391 145.142 326.499 146.101 322.606 147.06C318.545 148.075 314.427 149.091 310.308 149.993C306.021 150.953 301.734 151.968 297.333 153.04C292.764 154.055 288.138 155.183 283.343 156.312C278.322 157.44 273.245 158.625 268.055 159.866C262.865 161.276 257.619 162.856 252.429 164.492C247.183 166.24 241.88 168.102 236.634 170.076C225.972 174.477 215.479 179.554 205.268 185.082C194.945 191.231 185.016 197.719 175.539 204.432C166.005 210.863 156.923 216.955 148.517 222.709C140.168 228.689 132.439 234.725 125.783 240.818C119.634 247.418 114.387 254.244 110.044 261.013C106.151 268.065 103.105 275.004 100.679 281.83C98.3099 288.881 96.3354 295.876 94.9251 302.759C93.8533 309.698 93.1763 316.467 92.8378 323.18C92.8378 330.175 93.4584 336.776 94.4174 343.094C95.6021 349.13 96.956 354.997 98.4227 360.469C100.002 366.11 101.582 371.639 103.161 376.829C104.854 382.244 106.377 387.378 107.9 392.229C109.367 397.081 110.833 401.65 112.187 405.937C113.598 410.394 114.895 414.399 116.136 418.066C117.377 421.789 118.618 425.118 119.803 427.995C120.988 430.985 122.172 433.523 123.301 435.554C124.429 437.698 125.501 439.334 126.46 440.293C127.419 441.308 128.321 441.703 129.168 441.647C130.014 441.647 130.747 441.082 131.424 440.067C132.101 439.108 132.778 437.641 133.342 435.723C133.906 433.636 134.414 431.041 134.809 428.051C135.26 425.118 135.655 421.677 135.937 417.728C136.276 413.892 136.614 409.661 136.84 405.035C137.122 400.409 137.291 395.332 137.573 389.973C137.855 384.783 137.911 379.198 137.968 373.331C138.024 367.577 138.194 361.541 138.532 355.223C139.209 348.904 139.999 342.36 140.901 335.647C141.86 328.821 143.101 321.657 144.737 314.267C146.712 306.821 149.533 299.374 153.256 292.097C157.656 285.214 162.789 278.558 168.882 272.183C175.708 266.147 183.38 260.337 191.729 254.865C200.36 248.49 209.668 242.059 219.879 235.966C230.033 230.494 240.582 225.474 251.188 221.017C261.173 217.689 271.214 215.319 281.256 213.063C286.22 212.047 291.241 211.032 296.318 210.073C301.339 209.227 306.416 208.493 311.38 207.929C316.232 207.478 321.027 207.083 325.765 206.688C330.391 206.237 335.017 205.616 339.53 204.939C344.043 204.206 348.613 203.36 353.069 202.457C357.526 201.216 362.039 199.975 366.495 198.79C370.896 197.662 375.352 196.59 379.809 195.631C384.209 194.785 388.609 194.052 392.953 193.375C397.24 192.754 401.471 192.19 405.759 191.626C409.933 191.231 414.108 190.836 418.282 190.554C422.344 190.272 426.349 189.99 430.354 189.708C434.247 189.426 438.027 189.257 441.806 189.031C445.417 188.805 448.914 188.58 452.186 188.241C455.289 187.846 458.335 187.451 461.043 186.944C463.694 186.436 466.233 185.872 468.602 185.195C470.915 184.518 473.115 183.897 475.259 183.221C477.29 182.6 479.321 181.923 481.182 181.133C482.931 180.287 484.623 179.497 486.203 178.538C487.557 177.523 488.798 176.507 489.982 175.492C491.054 174.42 492.07 173.348 493.029 172.333C493.875 171.317 494.552 170.302 495.116 169.174C495.624 168.102 496.075 166.974 496.414 165.845C496.696 164.717 496.865 163.533 496.921 162.348C496.921 161.163 496.921 159.922 496.808 158.681C496.696 157.44 496.526 156.255 496.301 155.071C496.075 153.886 495.793 152.701 495.455 151.517C495.116 150.332 494.778 149.147 494.383 148.019C494.044 146.834 493.649 145.65 493.254 144.465C492.86 143.28 492.521 142.209 492.239 141.08C492.126 140.121 492.183 139.275 492.239 138.429C492.352 137.639 492.521 136.906 492.69 136.116C492.86 135.383 493.085 134.649 493.367 133.916C493.649 133.239 493.875 132.506 494.157 131.829C494.326 131.152 494.439 130.531 494.608 129.854C494.721 129.177 494.834 128.5 494.947 127.823C495.06 127.146 495.116 126.469 495.229 125.792C495.342 125.116 495.455 124.495 495.624 123.931C495.737 123.31 495.849 122.746 495.962 122.126C496.075 121.505 496.188 120.941 496.301 120.377C496.414 119.813 496.47 119.192 496.526 118.628C496.583 118.064 496.583 117.443 496.583 116.879C496.583 116.259 496.526 115.695 496.583 115.074C496.639 114.51 496.639 113.889 496.583 113.213C496.583 112.536 496.583 111.915 496.526 111.238C496.47 110.561 496.414 109.941 496.357 109.264C496.301 108.643 496.188 107.966 496.019 107.289C495.849 106.612 495.68 105.935 495.567 105.258C495.398 104.581 495.285 103.904 495.116 103.227C494.89 102.55 494.665 101.817 494.439 101.084C494.213 100.35 493.931 99.6735 493.649 98.9401C493.367 98.2632 493.085 97.5298 492.747 96.7965C492.408 96.0631 492.013 95.3297 491.562 94.5964C491.111 93.863 490.659 93.0732 490.208 92.2835C489.757 91.5501 489.306 90.7603 488.798 89.9705C488.29 89.2371 487.782 88.4474 487.218 87.6576C486.654 86.8678 486.09 86.078 485.526 85.3447C484.905 84.5549 484.341 83.8216 483.721 83.0318C483.1 82.242 482.423 81.4522 481.803 80.7189C481.126 79.9291 480.449 79.1957 479.772 78.4059C479.095 77.6161 478.362 76.8828 477.628 76.1494C476.161 74.6263 474.582 73.0467 473.002 71.4672C471.366 69.8876 469.618 68.3645 467.869 66.7849C465.951 65.2054 463.92 63.6259 461.889 62.1027C459.858 60.5232 457.827 59 455.853 57.5332C453.878 56.0101 451.848 54.5434 449.817 53.1331C447.786 51.6664 445.811 50.2561 443.781 48.8458C441.75 47.4354 439.775 46.0815 437.801 44.7276C435.883 43.3737 433.908 42.0762 432.047 40.7223C430.242 39.3684 428.38 38.0709 426.575 36.7734C424.713 35.5324 422.795 34.2913 420.821 33.0502C418.79 31.8656 416.815 30.6808 414.785 29.609C412.697 28.4808 410.666 27.4653 408.523 26.4499C406.436 25.4345 404.292 24.4755 402.092 23.5729C399.779 22.6703 397.522 21.8241 395.153 20.9779C392.784 20.1881 390.358 19.3984 387.989 18.665C385.563 17.9881 383.193 17.3111 380.824 16.6906C378.455 16.1265 376.085 15.5623 373.773 15.0546C371.403 14.6033 369.09 14.152 366.834 13.8135C364.577 13.475 362.377 13.1365 360.29 12.9109C358.146 12.6852 356.172 12.4596 354.254 12.3468C352.336 12.2339 350.474 12.1211 348.669 12.1211C346.92 12.0647 345.228 12.1212 343.592 12.1776C342.012 12.234 340.489 12.3468 339.135 12.516C337.725 12.6853 336.427 12.9109 335.186 13.1366C333.945 13.4186 332.873 13.7007 331.802 14.0391C330.786 14.3776 329.827 14.7725 328.981 15.1674C328.135 15.5623 327.458 16.0136 326.894 16.4649C326.33 16.9162 325.822 17.4239 325.427 17.9316C325.032 18.4393 324.75 19.0035 324.581 19.5676C324.412 20.1317 324.242 20.7522 324.242 21.3728C324.242 21.9933 324.242 22.6139 324.412 23.2908C324.581 23.9678 324.863 24.6447 325.201 25.3781C325.54 26.1114 325.935 26.8448 326.442 27.5782C326.95 28.3679 327.458 29.1013 328.078 29.9475C328.36 30.3424 328.699 30.7373 329.037 31.1886C329.376 31.5835 329.714 32.0347 330.109 32.4296C330.448 32.8245 330.843 33.2758 331.238 33.7272C331.632 34.1785 332.027 34.6298 332.479 35.0811C332.873 35.5324 333.325 35.9837 333.776 36.435C334.227 36.8863 334.735 37.394 335.186 37.8453C335.694 38.353 336.145 38.8043 336.653 39.312C337.161 39.8197 337.668 40.3274 338.233 40.7787C338.74 41.2864 339.304 41.7941 339.869 42.3018C340.433 42.8096 340.997 43.3737 341.617 43.8814C342.238 44.4455 342.802 44.9533 343.423 45.5174C344.043 46.0815 344.664 46.6456 345.284 47.2098C345.905 47.7739 346.525 48.338 347.146 48.9022C347.766 49.4663 348.443 50.0304 349.12 50.5945C349.797 51.1587 350.474 51.7228 351.151 52.3433C351.828 52.9074 352.505 53.5279 353.238 54.1485C353.915 54.769 354.649 55.3332 355.326 55.9537C356.003 56.5743 356.623 57.1948 357.187 57.8153C357.751 58.4358 358.316 59.0564 358.823 59.6769C359.331 60.2975 359.895 60.9181 360.459 61.5386C360.967 62.1591 361.531 62.7796 362.039 63.4002C362.659 64.0207 363.28 64.6977 363.957 65.3182C364.634 65.9387 365.254 66.6157 365.875 67.2362C366.495 67.9132 367.116 68.5337 367.793 69.2107C368.413 69.8876 369.034 70.5082 369.654 71.1851C370.219 71.8621 370.726 72.539 371.29 73.216C371.798 73.8929 372.306 74.6263 372.814 75.3032C373.265 76.0366 373.66 76.7699 374.055 77.5033C374.45 78.1803 374.788 78.8572 375.183 79.5342C375.409 80.3239 375.747 81.0009 376.029 81.6779Z" stroke="#655454" stroke-opacity="0.08" stroke-width="3"/>
<path d="M349.346 81.6777C349.91 82.5803 350.474 83.4829 351.038 84.3855C351.546 85.2881 352.11 86.2471 352.674 87.2061C353.238 88.1651 353.746 89.1805 354.31 90.1959C354.874 91.2114 355.382 92.2268 356.003 93.2422C356.567 94.2577 357.131 95.3295 357.751 96.3449C358.316 97.3603 358.936 98.4322 359.5 99.3912C359.952 100.294 360.459 101.253 360.854 102.155C361.249 103.058 361.587 104.017 361.926 105.032C362.208 106.104 362.377 107.176 362.434 108.304C362.377 109.489 362.208 110.73 361.982 112.084C361.644 113.438 361.193 114.792 360.572 116.259C359.669 117.612 358.541 119.023 357.074 120.377C355.382 121.731 353.408 123.141 351.038 124.551C348.218 126.018 345.284 127.485 342.125 128.895C338.515 130.249 334.792 131.546 330.955 132.844C327.007 134.198 322.945 135.439 318.827 136.736C314.539 138.09 310.196 139.388 305.57 140.572C300.718 141.701 295.641 142.998 290.282 144.239C284.753 145.48 279.056 146.665 273.302 148.019C267.322 149.429 261.229 150.952 255.137 152.588C248.819 154.393 242.388 156.368 235.957 158.512C229.3 160.881 222.587 163.476 215.93 166.409C209.104 169.568 202.222 173.01 195.34 176.62C188.401 180.513 181.518 184.631 174.749 188.974C168.036 193.544 161.436 198 154.835 202.288C148.404 206.632 142.142 211.144 135.937 215.488C129.901 219.832 123.978 224.232 118.449 228.689C112.977 233.371 107.9 238.166 103.725 243.187C99.833 248.264 96.1098 253.341 92.8378 258.249C89.7351 263.27 87.1402 268.065 84.5452 272.804C81.9502 277.711 79.5245 282.788 77.1552 287.978C75.2371 293.281 73.6012 298.697 72.078 304.169C70.8369 310.374 69.8215 316.354 68.9753 322.39C68.4676 328.37 68.3548 334.237 68.3548 340.047C68.524 345.971 68.9189 351.612 69.5395 356.971C70.2164 362.274 71.0626 367.464 72.0216 372.428C73.1499 377.449 74.2781 382.413 75.4628 387.321C76.7039 392.229 78.0578 397.08 79.4117 401.932C80.7656 406.84 82.0066 411.973 83.1913 416.938C84.3759 422.128 85.5606 427.261 86.7453 432.395C87.9864 437.754 89.2838 443.057 90.4685 448.303C91.7096 453.606 92.9506 458.852 94.2481 464.042C95.5456 469.232 96.8996 474.422 98.3099 479.499C99.7202 484.689 101.131 489.823 102.484 494.9C103.782 499.921 105.023 504.772 106.208 509.454C107.279 514.137 108.182 518.762 108.915 523.219C109.592 527.676 110.269 532.019 110.833 536.363C111.454 540.707 112.018 544.994 112.639 549.225C113.259 553.456 113.936 557.631 114.613 561.749C115.29 565.698 116.023 569.477 116.757 573.144C118.336 580.534 119.972 587.642 121.665 594.412C123.47 601.35 125.331 607.838 127.249 613.761C129.224 619.741 131.255 625.382 133.286 630.403C135.373 635.536 137.46 640.275 139.491 644.45C141.635 648.681 143.666 652.404 145.64 655.507C147.671 658.722 149.645 661.486 151.563 663.799C153.481 666.225 155.343 668.143 157.148 669.61C158.953 671.133 160.646 672.092 162.225 672.487C163.805 672.938 165.272 672.882 166.569 672.43C167.923 672.035 169.051 671.02 170.01 669.497C171.026 668.087 171.872 666.169 172.662 663.856C173.395 661.543 173.959 658.666 174.467 655.337C174.975 652.065 175.257 647.834 175.313 642.927C175.426 637.962 175.426 632.434 175.257 626.228C175.2 623.126 175.2 619.91 175.087 616.525C175.031 613.197 174.975 609.756 174.918 606.089C174.805 602.422 174.749 598.53 174.636 594.468C174.58 590.463 174.467 586.288 174.41 582.001C174.354 577.714 174.298 573.313 174.241 568.8C174.128 564.062 174.072 559.21 173.959 554.302C173.903 549.338 173.79 544.317 173.677 539.071C173.621 533.825 173.451 528.465 173.282 523.05C173.057 517.634 172.831 512.106 172.549 506.521C172.267 501.049 171.928 495.464 171.533 489.823C171.138 484.238 170.744 478.54 170.236 472.561C169.728 466.581 169.22 460.488 168.6 454.339C167.979 448.19 167.415 442.041 166.738 435.779C166.118 429.518 165.554 423.256 164.877 416.881C164.369 410.563 163.974 404.358 163.579 398.152C163.241 392.06 162.959 386.024 162.846 379.875C162.789 373.838 162.62 367.859 162.338 361.823C162.056 355.786 161.774 349.581 161.718 343.15C161.943 336.832 162.451 330.57 163.184 324.252C164.708 318.216 166.851 312.236 169.728 306.313C173 300.784 176.611 295.481 180.729 290.348C185.185 285.384 190.037 280.701 194.775 276.583C199.57 272.409 204.535 267.501 209.725 262.818C215.084 258.418 220.725 254.131 226.761 250.069C233.249 246.29 240.188 242.792 247.465 239.746C254.855 237.32 262.301 235.515 269.748 234.048C276.799 232.694 283.118 231.171 288.984 229.535C294.739 228.068 300.831 226.884 306.867 225.868C312.903 224.966 319.052 224.176 325.258 223.443C331.35 222.766 337.33 221.863 343.197 220.735C349.007 219.381 354.931 217.688 360.798 215.77C366.608 213.852 372.306 211.991 377.891 210.129C383.363 208.437 388.778 206.744 394.307 205.278C400.004 204.037 405.702 203.021 411.287 202.062C416.872 201.272 422.513 200.708 428.098 200.257C433.683 199.975 439.211 199.693 444.627 199.411C449.93 199.185 454.894 198.959 459.802 198.79C464.484 198.565 468.546 198 472.382 197.436C476.049 196.872 479.546 196.252 482.705 195.462C485.752 194.672 488.516 193.882 491.111 193.036C493.593 192.077 495.793 191.005 497.88 189.877C499.629 188.58 501.096 187.226 502.393 185.815C503.578 184.461 504.65 183.107 505.609 181.754C506.455 180.343 507.188 178.989 507.752 177.523C508.204 176.056 508.542 174.589 508.768 173.066C508.937 171.543 508.881 170.02 508.824 168.497C508.711 167.03 508.542 165.507 508.26 163.927C507.922 162.404 507.583 160.881 507.188 159.358C506.737 157.835 506.286 156.311 505.778 154.788C505.214 153.265 504.706 151.742 504.255 150.219C503.86 148.809 503.634 147.568 503.634 146.439C503.747 145.424 503.916 144.408 504.142 143.506C504.481 142.603 504.763 141.701 505.045 140.798C505.27 139.952 505.44 139.162 505.609 138.316C505.778 137.526 506.004 136.736 506.173 135.89C506.342 135.044 506.511 134.254 506.737 133.464C506.963 132.731 507.188 131.998 507.47 131.264C507.752 130.587 508.035 129.854 508.317 129.177C508.542 128.5 508.824 127.823 508.994 127.09C509.219 126.413 509.388 125.736 509.558 125.059C509.783 124.382 509.953 123.705 510.178 123.028C510.347 122.295 510.517 121.505 510.63 120.715C510.686 119.925 510.742 119.136 510.742 118.346C510.742 117.556 510.686 116.766 510.686 115.977C510.63 115.13 510.573 114.341 510.573 113.494C510.517 112.648 510.46 111.802 510.348 110.956C510.235 110.11 510.122 109.263 510.009 108.361C509.896 107.458 509.671 106.556 509.388 105.653C509.106 104.75 508.768 103.791 508.429 102.889C508.035 101.93 507.64 100.971 507.188 100.012C506.737 99.0527 506.286 98.0937 505.778 97.1347C505.27 96.1757 504.763 95.2167 504.255 94.2577C503.691 93.2987 503.127 92.3396 502.563 91.3806C501.942 90.4216 501.321 89.4062 500.644 88.4472C499.968 87.4882 499.291 86.5292 498.614 85.5701C497.937 84.6111 497.26 83.6521 496.583 82.6931C495.906 81.7341 495.172 80.775 494.496 79.816C493.762 78.857 493.085 77.898 492.295 76.9954C491.562 76.0364 490.772 75.021 489.926 74.0056C489.024 72.9901 488.064 71.9747 487.105 70.9593C486.09 69.9438 485.075 68.9284 484.003 67.913C482.987 66.8975 481.859 65.8822 480.844 64.9231C479.772 63.9077 478.7 62.9487 477.628 61.9333C476.5 60.9178 475.428 59.9588 474.3 58.9434C473.172 57.9843 472.043 56.9689 470.859 56.0099C469.73 55.0509 468.546 54.0919 467.417 53.1329C466.233 52.1739 465.048 51.2149 463.92 50.2559C462.735 49.2969 461.551 48.3943 460.366 47.4352C459.181 46.4762 457.94 45.5736 456.756 44.671C455.571 43.7684 454.33 42.8658 453.145 41.9632C451.96 41.0606 450.776 40.1016 449.591 39.1989C448.406 38.2963 447.222 37.3938 446.094 36.5476C444.965 35.645 443.837 34.7424 442.709 33.8398C441.581 32.9372 440.452 32.0346 439.324 31.1884C438.139 30.2858 436.955 29.4396 435.77 28.5934C434.585 27.7472 433.344 26.901 432.103 26.0549C430.862 25.2087 429.621 24.4189 428.324 23.6291C427.026 22.8393 425.672 22.0496 424.375 21.2598C422.964 20.47 421.554 19.7367 420.087 18.9469C418.564 18.2135 417.041 17.4237 415.461 16.6904C412.246 15.2236 409.03 13.8133 405.759 12.4594C402.43 11.1055 399.102 9.80803 395.661 8.56695C392.22 7.32587 388.666 6.19758 385.112 5.06933C381.501 3.99749 377.891 2.92565 374.28 1.96663C370.67 1.00762 367.06 0.161443 363.449 -0.628334C359.782 -1.41811 356.172 -2.09503 352.561 -2.71557C348.951 -3.2797 345.341 -3.84387 341.787 -4.23875C338.233 -4.63364 334.735 -5.02848 331.407 -5.31054C328.022 -5.5926 324.806 -5.76184 321.647 -5.87467C318.488 -5.98749 315.386 -5.98755 312.396 -5.93113C309.406 -5.87472 306.585 -5.76186 303.877 -5.5362C301.17 -5.31055 298.575 -5.08489 296.092 -4.74641C293.61 -4.40794 291.185 -4.01307 288.928 -3.56176C286.672 -3.11046 284.584 -2.60278 282.61 -2.03865C281.651 -1.75659 280.692 -1.47453 279.789 -1.19246C278.887 -0.910401 277.984 -0.571939 277.138 -0.289876C276.292 0.0485997 275.502 0.330704 274.768 0.669179C274.035 1.00766 273.358 1.34609 272.681 1.68456C272.004 2.02304 271.384 2.36153 270.82 2.75642C270.199 3.15131 269.635 3.48978 269.127 3.88467C268.619 4.27956 268.112 4.67443 267.66 5.06932C267.209 5.46421 266.814 5.85915 266.419 6.25404C266.025 6.64893 265.686 7.1002 265.404 7.49509C265.066 7.94639 264.84 8.34125 264.671 8.73614C264.501 9.13103 264.332 9.58237 264.219 9.97726C264.107 10.4286 263.994 10.8234 263.937 11.2747C263.881 11.726 263.881 12.1209 263.881 12.5722C263.881 13.0235 263.937 13.4748 264.05 13.9261C264.163 14.3774 264.332 14.8288 264.501 15.2801C264.671 15.7314 264.896 16.1826 265.122 16.6339C265.348 17.0852 265.686 17.5365 266.025 17.9878C266.363 18.4391 266.814 18.8904 267.266 19.3417C267.717 19.793 268.225 20.2443 268.732 20.6957C269.296 21.147 269.861 21.6547 270.481 22.106C271.102 22.5573 271.722 23.065 272.456 23.5163C273.133 23.9676 273.866 24.4753 274.656 24.9266C275.389 25.4343 276.122 25.8856 276.912 26.3933C277.702 26.901 278.492 27.3523 279.338 27.86C280.128 28.3677 280.917 28.8755 281.764 29.3832C282.61 29.8909 283.456 30.3986 284.359 30.9627C285.205 31.4704 286.107 32.0346 287.01 32.5423C287.913 33.05 288.815 33.6141 289.774 34.1218C290.62 34.6859 291.523 35.1937 292.426 35.7578C293.328 36.3219 294.287 36.886 295.246 37.4502C296.205 38.0143 297.164 38.5784 298.123 39.1989C299.082 39.7631 300.041 40.3837 301 40.9478C301.959 41.5683 302.975 42.1888 303.934 42.753C304.893 43.3735 305.852 43.9941 306.867 44.6146C307.826 45.2351 308.842 45.912 309.857 46.5326C310.873 47.2095 311.888 47.8301 312.903 48.507C313.919 49.184 314.934 49.8609 315.95 50.4815C316.909 51.1584 317.924 51.8354 318.94 52.5124C319.899 53.2457 320.914 53.9227 321.929 54.5996C322.888 55.333 323.904 56.01 324.919 56.7433C325.878 57.4767 326.837 58.1536 327.74 58.887C328.586 59.6203 329.489 60.3537 330.504 61.1435C331.463 61.9332 332.422 62.6666 333.438 63.4564C334.397 64.2461 335.356 65.0924 336.258 65.8821C337.104 66.6719 337.894 67.4617 338.684 68.195C339.474 68.9848 340.32 69.7746 341.166 70.5644C342.012 71.3542 342.746 72.2003 343.479 73.0465C344.156 73.8927 344.833 74.7953 345.51 75.6415C346.13 76.5441 346.807 77.4467 347.484 78.3493C348.161 79.8724 348.782 80.7751 349.346 81.6777Z" stroke="#655454" stroke-opacity="0.08" stroke-width="3"/>
<path d="M334.453 83.765C335.299 84.8368 336.089 85.8523 336.935 86.9241C337.725 87.996 338.458 89.1806 339.248 90.3089C339.981 91.4935 340.602 92.6782 341.11 93.8064C341.561 94.9347 341.956 96.0629 342.351 97.2476C342.689 98.4322 343.028 99.6169 343.366 100.802C343.648 102.043 343.874 103.34 344.1 104.525C344.269 105.766 344.382 106.951 344.494 108.248C344.494 109.546 344.382 110.787 344.156 112.084C343.761 113.382 343.197 114.679 342.464 116.033C341.335 117.387 339.981 118.797 338.233 120.32C336.089 121.843 333.607 123.423 330.73 124.833C327.289 126.244 323.622 127.654 319.786 129.064C315.837 130.418 311.888 131.772 307.883 133.182C303.652 134.706 299.364 136.116 294.795 137.47C289.605 138.824 284.077 140.178 278.266 141.475C272.23 142.829 266.194 144.239 260.101 145.65C253.839 147.229 247.69 148.922 241.541 150.783C235.28 152.87 228.905 155.071 222.474 157.496C215.761 160.204 208.991 163.137 201.996 166.409C194.775 170.02 187.442 174.025 180.165 178.313C172.718 182.995 165.554 187.846 158.333 192.754C150.943 197.718 143.722 202.626 136.67 207.76C129.675 212.837 122.849 217.801 116.588 222.822C110.551 228.012 104.854 233.315 99.7202 238.787C94.9815 244.428 90.4685 250.013 86.4632 255.541C82.8528 260.9 79.6373 266.147 76.4782 271.393C73.3191 276.865 70.2728 283.071 67.6214 289.445C65.3649 296.102 63.2776 302.984 61.416 310.092C59.8365 317.2 58.539 324.195 57.862 330.852C57.4671 337.622 57.2415 344.335 57.2415 350.822C57.4671 357.14 57.862 363.289 58.4261 369.269C59.2159 375.249 60.2314 381.003 61.3032 386.644C62.4315 392.342 63.729 397.927 65.0264 403.512C66.3239 409.209 67.7342 415.02 69.0881 420.492C70.4984 426.02 71.8524 431.605 73.2063 437.303C74.5602 443.17 75.8576 448.924 77.268 454.678C78.6783 460.488 80.145 466.355 81.6682 472.279C83.1913 478.315 84.7144 484.294 86.1812 490.218C87.6479 496.254 89.1146 502.234 90.4685 507.875C91.766 513.573 92.8943 519.101 93.8533 524.517C94.7559 529.989 95.6021 535.348 96.3918 540.594C97.1252 545.841 97.915 551.087 98.6483 556.333C99.4381 561.636 100.284 566.882 101.187 572.016C102.09 577.15 103.049 582.114 104.064 587.022C105.079 591.93 106.095 596.838 107.167 601.633C108.238 606.484 109.423 611.279 110.551 616.018C111.736 620.813 112.977 625.439 114.218 630.008C115.516 634.578 116.813 638.921 118.111 643.096C119.465 647.27 120.875 651.389 122.229 655.337C123.639 659.399 125.106 663.348 126.573 667.184C128.096 671.077 129.562 674.8 131.086 678.354C132.609 681.964 134.132 685.462 135.711 688.846C137.291 692.175 138.814 695.39 140.45 698.493C142.086 701.596 143.666 704.586 145.302 707.519C146.937 710.452 148.63 713.273 150.266 715.925C151.845 718.35 153.481 720.72 155.061 722.976C156.697 725.233 158.276 727.376 159.856 729.464C161.492 731.551 163.072 733.469 164.651 735.33C166.287 737.192 167.867 738.997 169.446 740.633C171.026 742.326 172.605 743.849 174.072 745.259C175.595 746.613 177.062 747.91 178.529 749.095C179.995 750.28 181.406 751.408 182.816 752.423C184.226 753.439 185.58 754.285 186.878 755.075C188.232 755.865 189.473 756.542 190.714 757.106C191.955 757.67 193.139 758.065 194.211 758.347C195.34 758.629 196.355 758.855 197.37 758.911C198.386 759.024 199.288 758.967 200.191 758.911C201.094 758.798 201.883 758.629 202.673 758.29C203.407 757.895 204.14 757.444 204.76 756.824C205.381 756.26 206.002 755.583 206.566 754.849C207.073 754.059 207.468 753.213 207.863 752.254C208.258 751.352 208.653 750.28 208.935 749.208C209.273 748.08 209.499 746.895 209.725 745.541C209.95 744.244 210.12 742.833 210.232 741.31C210.345 739.787 210.345 738.095 210.232 736.346C210.176 734.541 210.063 732.679 209.894 730.761C209.781 728.843 209.612 726.812 209.386 724.668C209.161 722.525 208.879 720.325 208.54 717.899C208.258 715.53 207.92 713.047 207.525 710.453C207.13 707.688 206.622 704.755 206.114 701.709C205.663 698.662 205.155 695.503 204.648 692.288C204.14 688.959 203.519 685.405 202.899 681.682C202.278 677.959 201.658 674.123 200.981 670.174C200.36 666.225 199.74 662.107 199.063 657.763C198.386 653.363 197.709 648.794 197.088 644.111C196.468 639.26 195.791 634.183 195.17 628.993C194.55 623.69 193.929 618.105 193.309 612.351C192.745 606.428 192.18 600.335 191.616 594.017C191.109 587.586 190.657 581.098 190.206 574.442C189.811 567.729 189.416 560.79 189.021 553.738C188.683 546.743 188.344 539.635 188.006 532.471C187.667 525.25 187.329 517.973 186.934 510.639C186.539 503.418 186.031 496.085 185.411 488.695C184.847 481.248 184.17 473.689 183.436 466.017C182.703 458.401 181.913 450.842 181.124 443.226C180.39 435.78 179.713 428.333 179.036 420.774C178.585 413.497 178.359 406.389 178.247 399.45C178.303 392.624 178.303 385.798 178.077 378.916C177.513 372.203 176.893 365.659 176.385 359.284C176.046 353.135 175.877 347.043 176.159 340.837C177.062 334.745 178.359 328.483 180.165 322.447C182.421 316.636 185.185 311.164 188.344 305.974C191.729 301.01 195.565 296.158 199.57 291.363C203.971 286.173 208.935 280.363 214.407 274.665C220.161 269.25 226.366 263.89 233.136 258.926C241.147 254.582 249.834 250.746 258.973 248.321C268.225 246.91 277.533 245.895 285.487 244.372C292.595 242.736 299.534 241.269 306.19 239.859C312.226 238.392 318.375 237.038 324.806 235.797C331.294 234.725 337.838 233.54 344.156 232.017C350.643 230.156 357.244 227.674 363.844 225.191C370.219 222.822 376.424 220.565 382.46 218.309C388.271 216.109 394.081 214.078 399.666 212.104C405.533 210.355 411.513 209.001 417.436 207.873C423.528 206.97 429.96 206.237 436.391 205.785C442.822 205.56 449.196 205.334 455.345 205.109C461.212 204.939 466.853 204.77 471.987 204.432C476.782 203.98 481.182 203.416 485.357 202.796C489.136 202.062 492.634 201.216 495.793 200.313C498.726 199.354 501.378 198.283 503.804 196.985C505.891 195.631 507.64 194.108 509.106 192.585C510.46 191.062 511.645 189.539 512.66 188.015C513.619 186.492 514.409 184.913 515.086 183.277C515.594 181.641 515.989 180.005 516.214 178.313C516.327 176.677 516.384 174.984 516.271 173.292C516.102 171.599 515.876 169.907 515.594 168.215C515.199 166.522 514.748 164.774 514.24 163.081C513.732 161.389 513.168 159.696 512.604 157.948C512.04 156.255 511.419 154.619 510.912 153.04C510.686 151.686 510.799 150.501 510.968 149.373C511.194 148.301 511.532 147.286 511.701 146.27C511.871 145.311 512.096 144.409 512.322 143.45C512.548 142.547 512.773 141.701 512.999 140.798C513.225 139.896 513.45 139.049 513.732 138.203C514.071 137.413 514.409 136.624 514.691 135.834C515.03 135.044 515.312 134.311 515.65 133.521C515.932 132.788 516.271 132.054 516.609 131.321C516.948 130.587 517.23 129.854 517.512 129.121C517.85 128.387 518.132 127.598 518.358 126.808C518.584 125.962 518.753 125.172 518.922 124.326C519.035 123.479 519.204 122.633 519.261 121.787C519.317 120.941 519.374 120.038 519.374 119.136C519.43 118.233 519.43 117.274 519.43 116.371C519.43 115.469 519.486 114.51 519.261 113.494C519.091 112.479 518.866 111.464 518.64 110.448C518.414 109.433 518.076 108.361 517.794 107.345C517.455 106.274 517.061 105.258 516.666 104.186C516.271 103.115 515.876 102.099 515.425 101.027C514.973 99.9554 514.522 98.9399 514.071 97.8681C513.619 96.7963 513.168 95.7809 512.66 94.709C512.153 93.6372 511.645 92.6218 511.137 91.5499C510.63 90.4781 510.065 89.4063 509.501 88.3344C508.937 87.2626 508.317 86.2471 507.696 85.1753C507.019 84.1034 506.399 83.088 505.665 82.0162C504.988 81.0008 504.255 79.9289 503.409 78.8571C502.563 77.7853 501.66 76.657 500.757 75.5287C499.742 74.4005 498.727 73.2722 497.711 72.144C496.696 71.0157 495.624 69.8875 494.552 68.7592C493.48 67.631 492.352 66.5027 491.28 65.4309C490.152 64.359 489.024 63.2308 487.839 62.1026C486.654 60.9743 485.526 59.9025 484.341 58.7742C483.157 57.646 481.972 56.5741 480.787 55.4459C479.546 54.3176 478.305 53.2458 477.064 52.1175C475.823 51.0457 474.582 49.9175 473.341 48.8456C472.1 47.7738 470.859 46.7019 469.618 45.6301C468.376 44.5582 467.079 43.5428 465.838 42.471C464.597 41.3991 463.356 40.3837 462.115 39.3683C460.874 38.3528 459.633 37.3374 458.391 36.322C457.094 35.363 455.853 34.3476 454.612 33.3322C453.371 32.3167 452.242 31.3013 451.001 30.2859C449.76 29.2704 448.576 28.255 447.335 27.296C446.094 26.3369 444.852 25.3215 443.555 24.3625C442.258 23.4035 440.847 22.3881 439.38 21.429C437.801 20.47 436.221 19.511 434.585 18.4956C432.837 17.5366 431.088 16.5776 429.283 15.6186C427.477 14.6596 425.672 13.757 423.811 12.8543C421.949 11.9517 420.031 11.0491 418.113 10.1465C416.195 9.24392 414.22 8.39774 412.246 7.55155C410.215 6.70536 408.241 5.85917 406.21 5.01298C404.179 4.22321 402.148 3.43346 400.117 2.64368C398.086 1.85391 395.999 1.12054 393.968 0.387179C391.937 -0.346185 389.85 -1.02318 387.763 -1.70013C385.676 -2.37708 383.588 -3.05403 381.501 -3.67457C379.414 -4.29511 377.327 -4.91562 375.239 -5.47975C373.152 -6.04387 371.065 -6.60801 368.977 -7.11572C366.89 -7.62344 364.803 -8.13112 362.716 -8.63884C360.628 -9.09014 358.541 -9.54145 356.51 -9.99275C354.423 -10.4441 352.392 -10.8389 350.305 -11.2338C348.218 -11.6287 346.187 -11.9672 344.156 -12.3057C342.125 -12.6441 340.094 -12.9262 338.063 -13.2082C336.033 -13.4903 334.002 -13.716 332.027 -13.998C329.996 -14.2237 328.022 -14.4493 325.991 -14.6186C323.96 -14.7878 321.986 -14.9571 320.068 -15.0699C318.093 -15.1827 316.175 -15.2955 314.257 -15.352C312.339 -15.4648 310.421 -15.5212 308.56 -15.5212C306.698 -15.5776 304.836 -15.5776 302.975 -15.5212C301.17 -15.5212 299.364 -15.4648 297.559 -15.4084C295.81 -15.3519 294.062 -15.2391 292.369 -15.1263C290.677 -15.0135 288.928 -14.9007 287.292 -14.7314C285.6 -14.5622 283.964 -14.3929 282.328 -14.2237C280.692 -14.0545 279.112 -13.8288 277.533 -13.6032C275.953 -13.3775 274.43 -13.0954 272.907 -12.8698C271.384 -12.5877 269.917 -12.3057 268.45 -12.0236C266.984 -11.7415 265.573 -11.4031 264.163 -11.0646C262.809 -10.7261 261.455 -10.3876 260.101 -10.0492C258.747 -9.71068 257.45 -9.31579 256.152 -8.92091C254.911 -8.52602 253.67 -8.13116 252.429 -7.67986C251.188 -7.22856 250.06 -6.83364 248.932 -6.38234C247.803 -5.93104 246.731 -5.47974 245.716 -4.97202C244.701 -4.52072 243.685 -4.01302 242.726 -3.50531C241.767 -2.9976 240.808 -2.48991 239.906 -1.9822C239.003 -1.47448 238.213 -0.966744 237.423 -0.402618C236.69 0.105095 235.957 0.612781 235.28 1.12049C234.603 1.62821 233.982 2.19236 233.418 2.70007C232.854 3.20779 232.346 3.77193 231.895 4.33605C231.444 4.84377 231.049 5.40791 230.71 5.97203C230.372 6.47975 230.033 7.04382 229.808 7.60794C229.582 8.17207 229.356 8.73621 229.244 9.24392C229.131 9.75163 229.018 10.3158 229.018 10.8235C229.018 11.3312 229.018 11.8954 229.074 12.4595C229.131 13.0236 229.244 13.5313 229.413 14.0954C229.582 14.6031 229.751 15.1672 229.977 15.7314C230.203 16.2955 230.485 16.8032 230.767 17.3673C231.049 17.8751 231.444 18.4392 231.895 18.9469C232.346 19.4546 232.854 19.9623 233.362 20.47C233.869 20.9778 234.434 21.4854 235.054 21.9932C235.675 22.5009 236.352 23.0086 237.028 23.5163C237.762 24.024 238.552 24.5317 239.398 24.983C240.244 25.4908 241.09 25.9421 241.993 26.4498C242.895 26.9575 243.798 27.4652 244.813 27.9729C245.772 28.4807 246.788 28.9883 247.86 29.4961C248.932 30.0038 250.003 30.5679 251.075 31.0756C252.203 31.5834 253.332 32.1474 254.46 32.6551C255.588 33.1629 256.773 33.727 257.958 34.2347C259.142 34.7989 260.327 35.3066 261.511 35.8707C262.696 36.4348 263.881 36.999 265.122 37.5631C266.363 38.1272 267.604 38.6913 268.845 39.2555C270.086 39.8196 271.327 40.4401 272.568 41.0042C273.809 41.6248 274.994 42.1889 276.235 42.8094C277.476 43.43 278.717 44.0505 280.015 44.6711C281.256 45.2916 282.553 45.9122 283.794 46.5891C285.036 47.2661 286.277 47.8866 287.574 48.5635C288.815 49.2405 290.113 49.9174 291.354 50.6508C292.538 51.3277 293.78 52.0611 295.021 52.738C296.262 53.4714 297.446 54.1484 298.631 54.8817C299.816 55.6151 301 56.3485 302.185 57.0818C303.37 57.8152 304.554 58.605 305.852 59.3383C307.149 60.1281 308.39 60.9179 309.744 61.7076C310.985 62.4974 312.114 63.2872 313.298 64.077C314.427 64.9232 315.611 65.7694 316.852 66.6156C318.037 67.4618 319.278 68.3079 320.463 69.2105C321.647 70.1131 322.832 70.9593 323.904 71.8055C324.806 72.7081 325.653 73.6107 326.499 74.5697C327.345 75.5288 328.135 76.4878 329.037 77.4468C329.884 78.4622 330.786 79.4776 331.632 80.4931C332.704 81.6777 333.55 82.6931 334.453 83.765Z" stroke="#655454" stroke-opacity="0.08" stroke-width="3"/>
<path d="M261.568 100.463C261.85 101.761 262.076 103.115 262.189 104.468C262.132 105.879 261.906 107.345 261.624 108.869C261.117 110.448 260.383 112.028 259.368 113.494C258.07 115.018 256.604 116.597 254.911 118.177C252.88 119.869 250.511 121.505 247.86 123.197C244.813 124.89 241.372 126.639 237.649 128.387C233.362 130.362 228.623 132.393 223.377 134.536C217.735 136.849 212.151 139.219 206.396 141.757C200.417 144.521 194.324 147.455 188.175 150.614C181.857 153.942 175.652 157.496 169.503 161.163C163.354 165.056 157.205 169.117 151.169 173.405C145.02 178.03 138.758 182.826 132.44 187.621C125.783 192.811 119.126 198.001 112.413 203.473C105.756 209.227 99.6074 214.811 93.5713 220.396C87.4223 226.376 81.2734 232.751 75.4064 239.295C69.878 245.895 65.0265 252.495 60.175 259.321C55.6056 266.316 51.149 273.706 46.5795 281.66C42.5178 289.615 38.9639 297.456 35.692 305.523C32.5893 313.816 29.8815 321.939 27.5121 329.893C25.7633 337.452 24.2966 344.955 23.1119 352.458C22.3221 359.566 21.9837 366.392 21.8145 373.218C21.9273 379.987 22.2094 386.701 22.6607 393.075C23.2248 399.393 23.8453 405.712 24.5786 411.748C25.4248 417.558 26.3274 423.2 27.2865 428.784C28.2455 434.369 29.3173 439.898 30.3892 445.313C31.5174 450.785 32.6457 456.144 33.7175 461.504C34.8458 466.863 35.974 472.166 37.1587 477.412C38.3433 482.602 39.5844 487.679 40.8255 492.756C42.123 497.777 43.3641 502.741 44.6616 507.649C45.9591 512.613 47.2565 517.747 48.4976 522.881C49.7387 528.353 51.2054 533.937 52.7285 539.692C54.3081 545.841 55.944 551.99 57.58 558.195C59.1595 564.513 60.6827 570.944 62.2623 577.375C63.8418 583.919 65.4214 590.406 67.0009 596.894C68.5241 603.438 70.0472 610.038 71.6267 616.638C73.2627 623.239 74.9551 629.613 76.7039 635.931C78.5091 642.25 80.3143 648.511 82.1759 654.717C83.9811 660.866 85.7863 667.015 87.7043 673.051C89.6788 679.087 91.6532 685.01 93.684 690.821C95.7713 696.575 97.8586 702.103 100.002 707.632C102.146 713.16 104.346 718.576 106.546 723.935C108.746 729.069 110.946 733.864 113.146 738.602C115.346 743.228 117.49 747.741 119.747 752.141C122.06 756.542 124.373 760.829 126.742 765.06C129.168 769.178 131.65 773.183 134.245 777.019C136.896 780.855 139.604 784.579 142.312 788.133C145.02 791.517 147.784 794.846 150.548 798.061C153.369 801.22 156.133 804.379 158.953 807.482C161.831 810.528 164.651 813.575 167.528 816.508C170.462 819.442 173.339 822.319 176.272 825.083C179.206 827.847 182.195 830.611 185.129 833.15C188.062 835.688 190.996 838.114 193.929 840.484C196.806 842.684 199.627 844.827 202.448 846.915C205.325 849.002 208.202 851.033 210.966 852.951C213.786 854.869 216.664 856.73 219.428 858.479C222.192 860.172 224.9 861.807 227.664 863.387C230.428 864.967 233.192 866.49 235.844 867.9C238.439 869.198 241.034 870.439 243.572 871.623C246.111 872.752 248.706 873.88 251.244 874.895C253.783 875.911 256.322 876.87 258.804 877.716C261.229 878.506 263.655 879.239 265.968 879.803C268.225 880.311 270.481 880.819 272.681 881.213C274.938 881.608 277.138 882.003 279.338 882.285C281.538 882.567 283.738 882.793 285.825 883.019C287.969 883.188 290.113 883.301 292.2 883.414C294.287 883.47 296.375 883.47 298.293 883.301C300.098 883.075 301.903 882.793 303.652 882.398C305.344 882.003 306.98 881.552 308.56 880.988C310.139 880.48 311.719 879.86 313.186 879.239C314.652 878.562 316.119 877.885 317.473 877.095C318.827 876.306 320.181 875.459 321.478 874.613C322.776 873.711 324.017 872.808 325.201 871.793C326.442 870.834 327.627 869.762 328.755 868.69C329.827 867.562 330.899 866.377 331.914 865.136C332.93 863.895 333.945 862.654 334.848 861.3C335.807 859.946 336.597 858.536 337.274 857.125C337.838 855.659 338.345 854.135 338.74 852.556C339.192 850.976 339.587 849.34 339.925 847.704C340.207 846.012 340.433 844.263 340.602 842.458C340.771 840.653 340.94 838.848 340.94 836.93C340.884 835.012 340.715 832.981 340.489 830.893C340.263 828.806 339.981 826.662 339.643 824.406C339.304 822.206 338.91 820.006 338.12 817.749C337.274 815.493 336.371 813.123 335.356 810.754C334.34 808.328 333.212 805.79 332.027 803.251C330.786 800.713 329.094 798.005 327.289 795.241C325.483 792.476 323.565 789.712 321.478 786.835C319.447 783.902 317.473 780.855 315.498 777.753C313.524 774.537 311.324 771.152 309.067 767.655C306.924 764.157 304.724 760.66 302.636 756.993C300.605 753.326 298.687 749.546 296.826 745.767C295.077 741.987 293.385 738.151 291.636 734.146C289.943 730.084 288.138 725.966 286.051 721.679C283.907 717.335 281.764 712.935 279.507 708.252C277.138 703.457 274.656 698.437 272.174 693.247C269.748 687.887 267.322 682.303 264.84 676.379C262.414 670.343 260.045 664.081 257.732 657.537C255.588 650.768 253.501 643.66 251.527 636.27C249.721 628.654 247.973 620.362 246.393 611.73C245.039 602.986 243.854 594.017 242.783 584.822C241.767 575.401 240.808 565.529 239.906 555.261C239.059 544.712 238.213 533.994 237.367 523.106C236.634 512.388 235.9 501.726 235.054 490.838C234.264 479.781 233.531 468.837 232.91 457.555C232.854 446.724 233.192 436.005 233.926 425.569C235.223 415.753 237.029 406.332 239.341 397.419C241.88 389.014 244.757 381.003 247.916 373.387C251.244 366.11 254.911 359.284 258.804 352.797C262.978 346.76 267.491 341.119 272.23 335.76C277.307 330.796 282.666 326.113 288.42 321.826C294.682 317.877 301.339 314.21 308.673 310.713C316.457 307.667 324.524 304.62 332.873 301.405C341.561 297.738 350.249 293.62 358.88 289.558C367.511 285.553 375.973 281.604 383.532 277.373C390.358 273.029 396.563 268.573 402.487 264.229C408.241 259.998 413.713 255.993 419.072 252.157C424.262 248.49 429.283 245.049 434.303 241.89C439.38 238.9 445.135 236.192 452.525 234.499C460.479 233.371 468.771 232.694 477.29 232.412C484.962 231.904 492.126 231.397 498.839 230.889C505.214 230.381 511.024 229.761 515.876 228.745C520.05 227.391 524.169 226.038 527.835 224.627C530.882 222.991 533.646 221.243 536.015 219.324C537.99 217.294 539.738 215.263 541.036 213.288C542.108 211.258 543.01 209.17 543.744 207.083C544.421 204.996 544.872 202.852 545.21 200.652C545.38 198.452 545.38 196.195 545.267 193.939C545.098 191.682 544.759 189.426 544.421 187.226C543.969 185.026 543.518 182.769 542.954 180.569C542.333 178.482 541.713 176.395 541.149 174.42C540.754 172.502 540.472 170.753 540.246 169.004C540.133 167.425 540.133 165.958 540.19 164.548C540.303 163.194 540.472 161.84 540.641 160.486C540.867 159.189 541.149 158.004 541.431 156.763C541.882 155.691 542.446 154.676 542.954 153.717C543.518 152.758 544.082 151.799 544.59 150.896C545.154 149.993 545.775 148.978 546.452 148.019C547.185 147.004 547.975 146.045 548.708 145.086C549.329 144.014 549.836 142.885 550.288 141.701C550.683 140.516 551.077 139.331 551.303 138.09C551.472 136.793 551.642 135.552 551.754 134.254C551.867 132.957 551.924 131.659 551.98 130.362C551.98 129.064 551.924 127.71 551.924 126.413C551.867 125.059 551.867 123.762 551.811 122.464C551.754 121.11 551.698 119.813 551.698 118.459C551.642 117.105 551.585 115.807 551.472 114.453C551.359 113.1 551.19 111.746 551.021 110.448C550.852 109.094 550.57 107.797 550.288 106.443C549.949 105.089 549.724 103.735 549.385 102.381C548.934 100.971 548.482 99.5605 547.975 98.1502C547.467 96.7399 546.903 95.3296 546.339 93.9192C545.718 92.5089 544.985 91.0986 544.252 89.6883C543.462 88.278 542.672 86.8677 541.769 85.3446C540.867 83.8214 539.964 82.3547 539.005 80.888C538.103 79.4212 537.144 77.8981 536.128 76.3749C535.113 74.8518 534.041 73.3287 532.913 71.8055C531.784 70.226 530.6 68.7028 529.359 67.1233C528.118 65.5437 526.876 64.0206 525.522 62.4411C524.169 60.8615 522.758 59.2819 521.348 57.7024C519.881 56.1228 518.415 54.4869 516.891 52.9073C515.312 51.2714 513.732 49.6918 512.096 48.0558C510.46 46.4199 508.824 44.8403 507.245 43.2044C505.609 41.6248 503.973 40.0453 502.337 38.4657C500.757 36.8862 499.121 35.3066 497.485 33.7834C495.906 32.2603 494.383 30.6808 492.86 29.1576C491.167 27.5781 489.418 25.9985 487.557 24.419C485.752 22.8394 483.946 21.2035 481.972 19.5675C479.828 17.9315 477.572 16.2955 475.315 14.6595C473.002 13.0236 470.633 11.444 468.264 9.86448C465.894 8.28492 463.525 6.76183 461.156 5.18227C458.786 3.65913 456.361 2.13599 453.991 0.669265C451.566 -0.797462 449.196 -2.20776 446.771 -3.61808C444.345 -5.02839 441.919 -6.38232 439.493 -7.73623C437.068 -9.09013 434.642 -10.3876 432.16 -11.6851C429.677 -12.9826 427.195 -14.2236 424.713 -15.4647C422.175 -16.6494 419.692 -17.8905 417.154 -19.0187C414.615 -20.2034 412.077 -21.3316 409.482 -22.4599C406.887 -23.5317 404.292 -24.66 401.697 -25.6755C399.102 -26.7473 396.507 -27.7627 393.912 -28.7217C391.317 -29.6807 388.666 -30.6397 386.071 -31.5423C383.419 -32.4449 380.824 -33.3476 378.173 -34.1937C375.521 -35.0399 372.926 -35.8297 370.275 -36.6195C367.624 -37.4092 364.972 -38.1426 362.377 -38.8196C359.726 -39.5529 357.075 -40.1734 354.423 -40.8504C351.772 -41.4709 349.12 -42.0915 346.469 -42.6556C343.818 -43.2198 341.166 -43.7274 338.515 -44.2352C335.863 -44.7429 333.212 -45.1942 330.561 -45.5891C327.909 -45.984 325.258 -46.3788 322.606 -46.7173C319.955 -47.0558 317.304 -47.3943 314.652 -47.6764C312.001 -47.9584 309.349 -48.184 306.698 -48.4097C304.047 -48.5789 301.395 -48.7482 298.744 -48.9174C296.092 -49.0303 293.441 -49.1431 290.846 -49.1995C288.195 -49.2559 285.6 -49.2559 283.005 -49.2559C280.41 -49.2559 277.871 -49.1995 275.333 -49.0867C272.794 -48.9739 270.312 -48.861 267.83 -48.6918C265.404 -48.5225 262.922 -48.2969 260.496 -48.0712C258.07 -47.8456 255.645 -47.5635 253.275 -47.2814C250.906 -46.9994 248.537 -46.6609 246.167 -46.3225C243.854 -45.984 241.485 -45.5891 239.229 -45.1378C236.916 -44.6865 234.659 -44.2352 232.403 -43.7839C230.146 -43.3326 227.89 -42.7684 225.69 -42.2607C223.489 -41.6966 221.289 -41.1325 219.089 -40.5119C216.889 -39.8914 214.746 -39.2708 212.602 -38.5939C210.458 -37.9169 208.314 -37.24 206.227 -36.5067C204.14 -35.7733 202.053 -35.0399 200.022 -34.2502C197.991 -33.4604 196.017 -32.6706 194.042 -31.8809C192.068 -31.0911 190.15 -30.2449 188.288 -29.3987C186.426 -28.5525 184.621 -27.6499 182.872 -26.8037C181.067 -25.9011 179.318 -24.9985 177.626 -24.0395C175.99 -23.1369 174.354 -22.2343 172.831 -21.2753C171.251 -20.3162 169.728 -19.3572 168.205 -18.3982C166.682 -17.4392 165.215 -16.4238 163.805 -15.4083C162.395 -14.3929 160.984 -13.3775 159.574 -12.3056C158.22 -11.2338 156.866 -10.162 155.512 -9.09015C154.215 -8.01832 152.917 -6.89005 151.62 -5.7618C150.379 -4.63355 149.138 -3.50529 147.953 -2.37704C146.768 -1.24879 145.584 -0.120552 144.455 1.06411C143.327 2.19236 142.255 3.37707 141.184 4.56173C140.112 5.7464 139.096 6.93102 138.137 8.11569C137.178 9.30035 136.276 10.485 135.486 11.6697C134.753 12.798 134.075 13.9262 133.455 15.0545C132.834 16.1827 132.214 17.3674 131.593 18.4956C130.973 19.6803 130.409 20.865 129.845 22.0496C129.28 23.2343 128.716 24.4753 128.209 25.66C127.757 26.8447 127.362 28.0294 127.137 29.1576C126.855 30.2859 126.685 31.4705 126.573 32.5988C126.516 33.6706 126.516 34.7424 126.629 35.8143C126.798 36.8861 126.968 37.9015 127.306 38.9169C127.645 39.876 128.096 40.835 128.66 41.794C129.224 42.6966 129.788 43.6556 130.465 44.5582C131.086 45.4608 131.819 46.3635 132.609 47.2096C133.399 48.0558 134.188 48.9584 135.035 49.8046C135.937 50.5944 137.065 51.2713 138.363 51.8918C139.604 52.5124 141.071 53.0766 142.537 53.6407C144.061 54.2048 145.527 54.7125 147.163 55.2202C148.743 55.7279 150.435 56.2356 152.128 56.6869C153.764 57.1946 155.512 57.646 157.318 58.1537C159.066 58.6614 160.871 59.1127 162.733 59.564C164.538 60.0717 166.4 60.523 168.262 61.0307C170.123 61.5384 172.098 61.9897 174.016 62.4974C175.934 63.0052 177.908 63.5128 179.939 64.0206C181.913 64.4719 183.944 64.9796 185.975 65.4309C187.95 65.9386 189.98 66.4463 191.955 66.9541C193.929 67.5182 195.96 68.0259 197.935 68.5336C199.853 69.0977 201.714 69.6054 203.632 70.1695C205.494 70.7337 207.525 71.2978 209.668 71.8619C211.812 72.426 214.069 73.0466 216.381 73.6107C218.638 74.2312 220.951 74.9082 223.32 75.5851C225.577 76.3185 227.833 77.0519 230.203 77.7852C232.459 78.575 234.716 79.3648 236.916 80.211C239.003 81.0572 241.147 81.9034 243.29 82.806C245.265 83.7086 247.296 84.6676 249.326 85.6266C250.962 86.6985 252.26 87.8831 253.501 89.0114C254.686 90.196 255.87 91.3807 257.055 92.6218C258.07 93.8629 258.917 95.2168 259.706 96.5143C260.496 97.7553 261.117 99.1092 261.568 100.463Z" stroke="#655454" stroke-opacity="0.08" stroke-width="3"/>
<path d="M197.596 115.525C197.201 116.315 196.806 117.161 196.299 117.951C195.735 118.797 195.114 119.7 194.437 120.603C193.647 121.562 192.801 122.521 191.955 123.48C190.996 124.495 190.037 125.51 188.965 126.526C187.837 127.598 186.539 128.726 185.185 129.798C183.719 130.926 182.196 132.111 180.616 133.295C178.924 134.536 177.231 135.778 175.426 137.075C173.564 138.429 171.646 139.783 169.672 141.193C167.585 142.603 165.497 144.127 163.354 145.593C161.154 147.173 158.897 148.752 156.641 150.388C154.271 152.081 152.015 153.83 149.702 155.578C147.276 157.44 144.85 159.245 142.425 161.163C139.942 163.138 137.404 165.169 134.865 167.199C132.27 169.287 129.788 171.43 127.362 173.574C122.285 178.087 117.039 182.656 111.623 187.395C106.038 192.359 100.397 197.437 94.8124 202.683C89.1711 208.155 83.6427 213.796 77.9451 219.607C72.0781 225.643 66.324 231.961 60.9084 238.279C55.7749 244.71 50.867 251.311 46.0719 258.024C41.5025 264.737 37.0459 271.675 32.6457 278.84C28.3584 286.23 24.4659 293.507 20.9119 300.784C17.4707 308.287 14.2552 315.903 11.3217 323.406C8.78316 330.796 6.75236 337.847 5.1728 344.673C4.10097 351.217 3.25476 357.818 2.69064 364.249C2.35216 370.567 2.07006 376.998 2.01364 383.203C1.95723 389.521 2.07008 395.727 2.46497 401.481C2.91627 407.122 3.42401 412.876 4.04455 418.461C4.77791 423.933 5.51128 429.461 6.30105 434.934C7.14724 440.462 8.0498 446.047 9.00881 451.632C9.96783 457.273 10.9833 462.858 12.0551 468.273C13.1269 473.633 14.2552 478.992 15.3271 484.295C16.4553 489.597 17.5271 494.9 18.6554 499.977C19.7836 504.942 20.9683 509.849 22.153 514.701C23.3376 519.552 24.5223 524.404 25.7069 529.312C27.0044 534.05 28.6404 539.128 30.5585 544.543C32.5893 550.241 34.6201 556.164 36.7074 562.313C38.8511 568.744 40.9383 575.288 43.082 581.888C45.1693 588.489 47.1437 595.089 49.1181 601.633C51.0362 608.233 53.0106 614.777 54.9851 621.434C57.0159 628.203 59.0468 635.029 61.1905 641.799C63.2777 648.512 65.3086 655.225 67.3394 661.825C69.4831 668.594 71.5704 675.42 73.7705 682.134C75.9706 688.79 78.2271 695.221 80.4836 701.483C82.7401 707.688 84.8838 713.668 86.971 719.479C89.0583 725.176 91.0891 730.592 93.2328 735.951C95.3765 741.31 97.5766 746.5 99.7767 751.634C102.033 756.767 104.346 761.788 106.715 766.696C109.141 771.604 111.623 776.399 114.218 781.025C116.926 785.538 119.803 789.712 122.68 793.718C125.614 797.667 128.66 801.559 131.65 805.339C134.696 809.118 137.742 812.785 140.789 816.395C143.891 819.949 146.938 823.391 149.984 826.719C153.087 830.047 156.189 833.319 159.236 836.535C162.395 839.75 165.497 842.853 168.6 845.786C171.646 848.607 174.636 851.371 177.682 854.023C180.729 856.674 183.831 859.325 186.878 861.864C189.98 864.403 193.083 866.885 196.186 869.311C199.288 871.736 202.448 874.106 205.55 876.419C208.653 878.731 211.756 880.932 214.802 883.075C217.848 885.162 220.838 887.193 223.828 889.168C226.874 891.142 229.808 892.947 232.628 894.583C235.449 896.219 238.27 897.742 241.09 899.209C243.911 900.676 246.731 902.143 249.608 903.497C252.429 904.85 255.306 906.148 258.127 907.389C260.891 908.517 263.599 909.533 266.25 910.548C268.958 911.507 271.666 912.41 274.374 913.256C277.081 914.102 279.789 914.892 282.497 915.625C285.205 916.359 287.913 917.036 290.564 917.6C293.215 918.164 295.867 918.672 298.405 919.01C300.888 919.292 303.313 919.461 305.739 919.574C308.221 919.687 310.647 919.8 313.073 919.8C315.498 919.8 317.924 919.743 320.294 919.687C322.719 919.574 325.032 919.405 327.401 919.179C329.771 918.954 332.084 918.672 334.34 918.333C336.653 917.995 338.91 917.6 341.166 917.148C343.366 916.641 345.566 916.077 347.654 915.4C349.741 914.723 351.828 913.989 353.859 913.2C355.89 912.41 357.921 911.564 359.952 910.717C361.926 909.815 363.788 908.912 365.649 907.897C367.398 906.881 369.147 905.866 370.783 904.794C372.419 903.722 374.055 902.594 375.634 901.409C377.214 900.225 378.737 898.984 380.147 897.742C381.614 896.445 383.024 895.147 384.435 893.794C385.845 892.44 387.142 890.973 388.271 889.337C389.399 887.701 390.527 886.065 391.599 884.316C392.671 882.567 393.686 880.819 394.645 878.957C395.661 877.152 396.62 875.234 397.522 873.316C398.425 871.398 399.328 869.367 400.117 867.28C400.907 865.249 401.528 863.105 402.148 860.905C402.656 858.705 403.107 856.448 403.502 854.136C403.953 851.823 404.179 849.397 404.348 846.915C404.518 844.433 404.517 841.894 404.517 839.355C404.574 836.76 404.574 834.165 404.517 831.458C404.517 828.806 404.348 826.042 404.123 823.221C403.897 820.401 403.558 817.467 402.938 814.59C402.317 811.713 401.64 808.836 400.794 805.846C400.004 802.856 399.215 799.81 397.861 796.933C396.451 794 394.532 791.066 392.05 788.189C389.455 785.256 386.86 782.266 383.983 778.994C381.05 775.722 377.891 772.337 374.732 768.84C371.855 765.229 368.865 761.506 365.875 757.726C363.167 753.89 360.403 749.998 357.582 745.993C354.931 741.931 352.279 737.813 349.628 733.695C346.977 729.52 343.987 725.289 340.546 720.945C336.992 716.602 333.325 712.032 329.714 707.294C326.612 702.104 323.622 696.632 320.745 690.99C317.981 685.293 315.216 679.426 312.565 673.39C310.026 667.353 307.488 661.148 304.893 654.661C302.241 647.947 299.59 641.009 296.995 633.788C294.569 626.341 292.313 618.387 289.661 609.925C286.897 601.069 284.246 591.591 281.82 581.324C279.958 570.098 278.774 558.026 277.871 545.389C277.138 532.471 276.348 519.383 275.502 506.183C274.656 493.321 273.922 480.91 273.358 468.894C273.076 457.611 273.866 447.457 277.081 438.713C281.989 431.097 287.8 424.441 294.118 418.348C300.436 412.538 306.754 406.784 313.298 400.973C320.068 395.275 326.781 389.07 333.72 382.808C340.715 376.546 347.823 370.285 355.044 363.966C362.377 357.818 369.824 351.669 377.327 345.576C384.999 339.653 392.784 333.899 400.738 328.257C408.748 322.785 416.815 317.37 424.544 311.898C431.652 306.595 438.534 301.405 444.74 296.159C450.55 291.025 456.135 286.174 461.663 281.548C467.023 277.148 472.269 273.142 477.403 269.419C482.649 265.978 488.234 263.496 494.101 261.352C500.024 259.716 505.891 258.249 511.589 256.783C517.061 255.485 522.476 254.188 528.4 253.059C531.277 252.495 534.041 251.988 536.861 251.423C539.4 250.803 541.769 250.013 544.026 249.223C546.17 248.377 548.088 247.362 549.949 246.233C551.754 245.105 553.503 244.033 554.97 243.018C556.324 241.946 557.508 240.874 558.524 239.746C559.483 238.618 560.329 237.489 561.062 236.305C561.739 235.12 562.36 233.992 562.98 232.807C563.488 231.623 563.996 230.438 564.447 229.253C564.899 228.069 565.293 226.827 565.632 225.643C565.914 224.402 566.14 223.104 566.365 221.863C566.534 220.566 566.647 219.325 566.704 217.971C566.76 216.673 566.817 215.376 566.76 214.135C566.647 212.837 566.478 211.596 566.309 210.299C566.083 209.001 565.858 207.76 565.632 206.406C565.406 205.109 565.124 203.811 564.786 202.514C564.504 201.273 564.222 200.032 563.939 198.79C563.657 197.549 563.432 196.365 563.15 195.236C562.868 194.052 562.642 192.867 562.36 191.739C562.134 190.611 561.909 189.539 561.627 188.467C561.401 187.395 561.232 186.38 561.062 185.364C560.893 184.349 560.78 183.39 560.611 182.431C560.498 181.472 560.386 180.513 560.329 179.61C560.273 178.708 560.273 177.805 560.273 176.959C560.273 176.113 560.329 175.323 560.386 174.477C560.498 173.687 560.555 172.897 560.668 172.164C560.78 171.43 560.95 170.697 561.062 169.964C561.232 169.287 561.401 168.553 561.683 167.989C562.021 167.369 562.36 166.805 562.698 166.184C563.432 164.999 564.278 163.758 565.181 162.63C566.083 161.445 566.929 160.261 567.776 159.076C568.509 157.835 569.017 156.425 569.299 154.958C569.637 153.548 569.976 152.137 570.314 150.727C570.653 149.317 571.047 147.85 571.499 146.383C571.95 144.916 572.289 143.506 572.627 142.039C572.966 140.573 573.248 139.106 573.473 137.639C573.699 136.172 573.868 134.649 574.037 133.183C574.207 131.716 574.263 130.193 574.376 128.67C574.432 127.203 574.545 125.68 574.601 124.157C574.658 122.633 574.601 121.11 574.545 119.587C574.432 118.064 574.207 116.484 573.868 114.905C573.586 113.325 573.248 111.746 572.909 110.223C572.571 108.643 572.119 107.064 571.668 105.54C571.217 103.961 570.765 102.325 570.201 100.745C569.524 99.1094 568.847 97.417 568.058 95.781C567.268 94.1451 566.422 92.4527 565.463 90.6475C564.504 88.8423 563.488 87.1499 562.473 85.3447C561.401 83.5395 560.273 81.6779 559.088 79.8727C557.903 78.0675 556.606 76.2059 555.308 74.3443C553.954 72.4826 552.601 70.621 551.19 68.7594C549.667 66.8414 548.144 64.9798 546.621 63.0617C545.098 61.1437 543.575 59.2821 541.995 57.3641C540.415 55.4461 538.836 53.5844 537.256 51.7228C535.677 49.8612 534.041 47.9432 532.461 46.0816C530.825 44.2199 529.189 42.3583 527.553 40.4967C525.917 38.6351 524.112 36.7735 522.081 34.799C519.881 32.8246 517.568 30.7937 515.143 28.7629C512.66 26.732 510.178 24.7012 507.696 22.6703C505.27 20.6395 502.845 18.665 500.419 16.6341C497.937 14.6597 495.455 12.6853 492.972 10.7673C490.49 8.84926 487.952 6.93124 485.47 5.12603C482.931 3.26442 480.392 1.45919 477.797 -0.40243C475.259 -2.20763 472.664 -3.95644 470.125 -5.70523C467.587 -7.45402 464.992 -9.08998 462.453 -10.7824C459.858 -12.4183 457.263 -14.0543 454.668 -15.6902C452.073 -17.2698 449.478 -18.8494 446.827 -20.3725C444.176 -21.8956 441.581 -23.3624 438.929 -24.8291C436.278 -26.2958 433.626 -27.7061 430.975 -29.1165C428.324 -30.5268 425.672 -31.8806 422.964 -33.1781C420.313 -34.4756 417.662 -35.7731 414.954 -37.0142C412.302 -38.2553 409.595 -39.4964 406.887 -40.681C404.179 -41.8657 401.528 -42.9939 398.876 -44.1222C396.225 -45.2504 393.573 -46.3223 390.922 -47.3377C388.271 -48.3531 385.676 -49.3686 383.081 -50.3276C380.486 -51.2866 377.891 -52.1892 375.296 -53.0918C372.757 -53.9944 370.162 -54.8406 367.567 -55.6304C364.972 -56.4202 362.377 -57.2099 359.782 -57.9997C357.187 -58.733 354.592 -59.4664 351.941 -60.1434C349.346 -60.8203 346.695 -61.4409 344.043 -62.0614C341.392 -62.682 338.74 -63.1897 336.089 -63.7538C333.438 -64.2615 330.786 -64.7692 328.135 -65.2205C325.484 -65.6718 322.832 -66.0667 320.124 -66.4052C317.416 -66.8001 314.765 -67.0822 312.057 -67.4206C309.35 -67.7027 306.698 -67.9283 303.99 -68.154C301.282 -68.3796 298.575 -68.5489 295.867 -68.6617C293.159 -68.7745 290.451 -68.8873 287.743 -68.9437C285.036 -69.0002 282.328 -69.0001 279.62 -69.0001C276.912 -68.9437 274.261 -68.8873 271.553 -68.7745C268.902 -68.6617 266.25 -68.4925 263.542 -68.3232C260.891 -68.154 258.24 -67.9283 255.645 -67.6462C252.993 -67.3642 250.398 -67.0821 247.803 -66.7436C245.208 -66.4052 242.613 -66.0103 240.075 -65.6154C237.536 -65.2205 234.941 -64.7692 232.403 -64.2615C229.864 -63.7538 227.326 -63.2461 224.787 -62.682C222.248 -62.1178 219.766 -61.4973 217.284 -60.8767C214.802 -60.2562 212.32 -59.5792 209.894 -58.9023C207.412 -58.1689 204.986 -57.4356 202.56 -56.7022C200.135 -55.9125 197.709 -55.1227 195.34 -54.2765C192.914 -53.4303 190.545 -52.5841 188.175 -51.6815C185.806 -50.7789 183.437 -49.8199 181.124 -48.8609C178.811 -47.9019 176.498 -46.8864 174.185 -45.8146C171.872 -44.7427 169.616 -43.6709 167.359 -42.5991C165.103 -41.4708 162.846 -40.3425 160.646 -39.1579C158.389 -37.9732 156.189 -36.7886 153.989 -35.5475C151.789 -34.3064 149.645 -33.0089 147.445 -31.7114C145.302 -30.4139 143.158 -29.0601 141.071 -27.7062C138.983 -26.3523 136.953 -24.9419 134.865 -23.5316C132.834 -22.1213 130.804 -20.6546 128.829 -19.1879C126.855 -17.7211 124.937 -16.2544 123.019 -14.7313C121.213 -13.2645 119.521 -11.7978 117.942 -10.331C116.362 -8.86432 114.839 -7.39764 113.429 -5.93091C112.018 -4.46418 110.721 -2.99743 109.367 -1.5307C108.013 -0.00755794 106.715 1.51557 105.474 3.03871C104.233 4.61826 103.049 6.14144 101.92 7.66458C100.792 9.18772 99.6639 10.7672 98.5921 12.3468C97.4638 13.9263 96.4483 15.5059 95.3765 17.0855C94.3611 18.7214 93.3457 20.301 92.3303 21.9369C91.3713 23.5729 90.4686 25.1524 89.566 26.7884C88.6634 28.4244 87.7608 30.0604 86.9711 31.6963C86.1813 33.3323 85.5043 34.9683 85.053 36.435C84.6017 37.9017 84.2068 39.4248 83.8119 40.8915C83.417 42.4147 83.0221 43.9379 82.6837 45.461C82.3452 46.9842 82.0631 48.5072 82.0067 49.9176C81.8939 51.3843 81.8939 52.7947 81.9503 54.205C82.0632 55.5589 82.176 56.9127 82.3452 58.3231C82.5144 59.677 83.0222 60.9745 83.6991 62.1027C84.3197 63.2874 84.9966 64.4156 85.73 65.5439C86.5197 66.6157 87.3095 67.7439 88.1557 68.8158C89.0019 69.8876 89.8481 70.9595 90.7507 72.0313C91.5969 73.0468 92.4995 74.0058 93.4021 74.9648C94.3047 75.9238 95.2637 76.8828 96.5047 77.729C97.8022 78.4624 99.269 79.1393 100.849 79.7598C102.428 80.3804 104.008 81.001 105.587 81.5651C107.167 82.1292 108.916 82.6933 110.721 83.201C112.47 83.7087 114.331 84.16 116.249 84.6113C118.111 85.119 119.972 85.5703 121.778 85.9652C123.583 86.4165 125.444 86.8114 127.362 87.1499C129.224 87.5448 131.199 87.8832 133.229 88.2781C135.204 88.673 137.291 89.068 139.378 89.4628C141.466 89.9141 143.666 90.309 146.035 90.7039C148.292 91.1552 150.548 91.5501 152.748 92.0578C155.061 92.5091 157.43 92.9604 159.8 93.4117C162 93.9759 164.256 94.4835 166.569 94.9912C167.754 95.2733 168.939 95.5554 170.123 95.8374C171.308 96.1759 172.436 96.458 173.621 96.7965C174.862 97.0785 176.047 97.417 177.231 97.7555C178.359 98.0939 179.544 98.4324 180.672 98.8273C181.801 99.2222 182.929 99.6171 184.001 99.9556C185.073 100.294 186.144 100.689 187.216 101.084C188.288 101.479 189.303 101.874 190.319 102.268C191.278 102.72 192.237 103.115 193.14 103.566C193.76 104.074 194.324 104.638 194.945 105.202C195.509 105.766 196.017 106.33 196.524 106.951C196.976 107.571 197.427 108.192 197.765 108.869C198.047 109.546 198.217 110.166 198.442 110.9C198.612 111.577 198.612 112.31 198.442 113.043C198.16 113.946 197.878 114.736 197.596 115.525Z" stroke="#655454" stroke-opacity="0.08" stroke-width="3"/>
</svg>
