<svg width="272" height="21" viewBox="0 0 272 21" fill="none" xmlns="http://www.w3.org/2000/svg">
<g clip-path="url(#clip0_99_1512)">
<path d="M3.65701 10.1578C3.65701 15.8831 8.96703 19.7181 16.5301 19.7181C20.9231 19.7181 24.4329 18.7838 27.003 16.8174L27.2861 16.926L26.72 19.0879C26.6294 19.4465 26.4596 19.5007 25.8594 19.6855C22.9724 20.5112 20.006 21 16.4395 21C7.24608 21 0 17.1108 0 10.2447C0 3.37868 6.58942 0 16.4395 0C19.9494 0 22.9724 0.467149 25.8594 1.64046C26.1765 1.7491 26.5388 1.96637 26.6633 2.27056L27.1502 4.84532L26.8671 4.89964C25.2707 2.75944 21.5911 1.26022 16.3603 1.26022C9.27272 1.26022 3.65701 4.21521 3.65701 10.1578Z" fill="#DCBA62"/>
<path d="M46.7373 1.51007C50.6999 8.05017 54.3004 13.645 58.9764 20.3808C57.0969 20.2721 56.5194 20.2721 54.6401 20.3808C53.4965 18.3818 52.3529 16.3828 51.1868 14.3839H36.1172C34.7812 16.4371 33.4678 18.4904 32.2903 20.3808C31.7469 20.2721 30.2637 20.2721 29.7203 20.3808C33.9433 14.6881 39.0269 7.56129 43.0803 1.61871C42.7406 1.12984 42.2198 0.966878 41.3933 0.901695V0.630096C41.9594 0.630096 42.8538 0.717008 43.4199 0.717008C44.0766 0.717008 44.8239 0.630096 45.1861 0.630096C45.99 0.630096 46.3524 0.717008 46.7259 1.51007H46.7373ZM43.9068 2.8572C41.7329 5.97515 39.3666 9.46248 37.0909 12.9063H50.3038C48.311 9.59285 46.1938 6.24676 43.9068 2.8572Z" fill="#DCBA62"/>
<path d="M82.2657 4.10658L81.9827 4.16089C80.4428 2.4118 76.8198 1.28194 72.959 1.28194C66.3695 1.28194 64.6261 3.36782 64.6261 4.92137C64.6261 10.6141 83.262 6.18158 83.262 14.5577C83.262 20.359 75.4159 20.9891 71.3853 20.9891C67.3546 20.9891 63.9354 20.1418 61.5691 19.0445L60.7651 16.3611L61.0483 16.2742C62.2483 18.0776 67.4112 19.6963 71.3739 19.6963C77.5105 19.6963 80.6467 17.7842 80.6467 15.2313C80.6467 9.18003 62.0106 13.7211 62.0106 5.59493C62.0106 0.445421 68.8831 -0.0217285 72.9363 -0.0217285C76.9897 -0.0217285 80.2391 0.988618 81.7223 1.89032L82.2317 4.08484L82.2657 4.10658Z" fill="#DCBA62"/>
<path d="M102.6 1.51007C106.563 8.05017 110.163 13.645 114.839 20.3808C112.96 20.2721 112.382 20.2721 110.503 20.3808C109.359 18.3818 108.216 16.3828 107.05 14.3839H91.98C90.6441 16.4371 89.3307 18.4904 88.1532 20.3808C87.6097 20.2721 86.1266 20.2721 85.5831 20.3808C89.8062 14.6881 94.8898 7.56129 98.943 1.61871C98.6034 1.12984 98.0826 0.966878 97.256 0.901695V0.630096C97.8221 0.630096 98.7167 0.717008 99.2828 0.717008C99.9395 0.717008 100.687 0.630096 101.049 0.630096C101.853 0.630096 102.215 0.717008 102.589 1.51007H102.6ZM99.7695 2.8572C97.5958 5.97515 95.2294 9.46248 92.9537 12.9063H106.166C104.174 9.59285 102.057 6.24676 99.7695 2.8572Z" fill="#DCBA62"/>
<path d="M131.301 10.1578C131.301 15.8831 136.611 19.7181 144.174 19.7181C148.567 19.7181 152.077 18.7838 154.647 16.8174L154.931 16.926L154.364 19.0879C154.273 19.4465 154.104 19.5007 153.503 19.6855C150.617 20.5112 147.651 21 144.084 21C134.891 21 127.644 17.1108 127.644 10.2338C127.644 3.35696 134.245 0 144.084 0C147.594 0 150.617 0.467149 153.503 1.64046C153.82 1.7491 154.184 1.96637 154.308 2.27056L154.795 4.84532L154.511 4.89964C152.914 2.75944 149.236 1.26022 144.005 1.26022C136.928 1.26022 131.301 4.21521 131.301 10.1578Z" fill="#DCBA62"/>
<path d="M174.382 1.51007C178.344 8.05017 181.945 13.645 186.621 20.3808C184.742 20.2721 184.163 20.2721 182.284 20.3808C181.141 18.3818 179.997 16.3828 178.831 14.3839H163.761C162.426 16.4371 161.112 18.4904 159.934 20.3808C159.392 20.2721 157.909 20.2721 157.365 20.3808C161.588 14.6881 166.672 7.56129 170.724 1.61871C170.385 1.12984 169.865 0.966878 169.038 0.901695V0.630096C169.603 0.630096 170.498 0.717008 171.064 0.717008C171.721 0.717008 172.469 0.630096 172.831 0.630096C173.635 0.630096 173.997 0.717008 174.37 1.51007H174.382ZM171.551 2.8572C169.377 5.97515 167.011 9.46248 164.736 12.9063H177.948C175.955 9.59285 173.838 6.24676 171.551 2.8572Z" fill="#DCBA62"/>
<path d="M190.618 0.0542896C192.135 1.2276 198.577 6.19242 204.203 10.0491C207.601 12.298 210.77 14.6228 212.933 16.1003C213.023 10.7553 213.137 6.54007 212.82 0.630078C213.386 0.738718 214.416 0.738718 214.993 0.630078C214.597 6.84425 214.597 13.3409 214.881 21H214.54C213.023 19.8809 207.408 15.5789 202.924 12.4609C198.701 9.63629 194.762 6.73562 192.247 5.04084C192.135 10.0817 192.158 15.1225 192.475 20.3808C191.874 20.272 190.9 20.272 190.301 20.3808C190.618 14.7641 190.47 6.82252 190.21 0.0108337H190.606V0.0651534L190.618 0.0542896Z" fill="#DCBA62"/>
<path d="M235.588 1.51007C239.551 8.05017 243.152 13.645 247.828 20.3808C245.948 20.2721 245.37 20.2721 243.491 20.3808C242.348 18.3818 241.204 16.3828 240.038 14.3839H224.968C223.632 16.4371 222.32 18.4904 221.142 20.3808C220.598 20.2721 219.115 20.2721 218.572 20.3808C222.795 14.6881 227.878 7.56129 231.932 1.61871C231.592 1.12984 231.071 0.966878 230.244 0.901695V0.630096C230.81 0.630096 231.704 0.717008 232.271 0.717008C232.927 0.717008 233.675 0.630096 234.038 0.630096C234.841 0.630096 235.204 0.717008 235.578 1.51007H235.588ZM232.758 2.8572C230.585 5.97515 228.218 9.46248 225.942 12.9063H239.155C237.162 9.59285 235.045 6.24676 232.758 2.8572Z" fill="#DCBA62"/>
<path d="M254.553 20.2612C253.465 20.2612 252.13 20.3482 251.043 20.3699C251.156 18.5338 251.36 15.7419 251.36 10.375C251.36 3.74805 251.19 2.43351 251.043 0.630096C251.643 0.662688 252.299 0.738735 252.9 0.738735C253.5 0.738735 254.123 0.651824 254.757 0.630096C254.609 2.43351 254.44 3.74805 254.44 10.375C254.44 14.536 254.53 17.165 254.609 18.8924H268.366C269.826 18.8924 270.562 18.838 271.728 17.6647L271.988 17.806L270.676 20.1308C270.562 20.3264 270.472 20.3808 270.131 20.3808C254.688 20.3482 255.062 20.2721 254.553 20.2721V20.2612Z" fill="#DCBA62"/>
</g>
<defs>
<clipPath id="clip0_99_1512">
<rect width="272" height="21" fill="white"/>
</clipPath>
</defs>
</svg>
