<svg width="169" height="69" viewBox="0 0 169 69" fill="none" xmlns="http://www.w3.org/2000/svg">
<g clip-path="url(#clip0_99_1385)">
<mask id="mask0_99_1385" style="mask-type:luminance" maskUnits="userSpaceOnUse" x="0" y="0" width="169" height="69">
<path d="M169 0H0V69H169V0Z" fill="white"/>
</mask>
<g mask="url(#mask0_99_1385)">
<path d="M57.3197 68.1894C57.081 68.4819 56.6562 68.6148 56.298 68.6148C55.3423 68.6148 54.7982 67.6843 54.7982 66.7806C54.7982 65.8767 55.3556 65.0658 56.298 64.9727C56.5767 64.9462 56.9748 65.0525 57.187 65.2652C57.4127 65.4778 57.3995 65.8234 57.3995 66.1026V67.7376C57.3995 67.9236 57.426 68.0432 57.3065 68.1894M58.5144 68.6015H58.1295C57.9701 68.6015 57.9968 68.1496 57.9968 68.0432V62.8062C57.9968 62.7263 57.9968 62.7131 57.9038 62.7131C57.8373 62.7131 57.0543 62.6733 56.8156 62.7131C56.7624 62.7131 56.7226 62.8062 56.7226 62.8592C56.7226 62.9789 56.8288 63.0189 56.8951 63.0056C57.5057 62.939 57.3862 63.5106 57.3862 63.843V64.6937C57.3862 64.6937 57.426 65.026 57.3197 65.026C57.28 65.026 57.2005 64.986 57.1605 64.9727C56.8686 64.8531 56.5502 64.8 56.2315 64.7867C55.6742 64.76 55.1433 65.0525 54.7584 65.438C54.3736 65.8234 54.1479 66.3286 54.1479 66.8868C54.1479 67.9636 54.9177 68.9737 56.0193 68.9737C56.7226 68.9737 57.28 68.5483 57.3465 68.3756C57.373 68.2957 57.3862 68.6413 57.3862 68.6681C57.3862 68.7212 57.426 68.9073 57.5189 68.9073C57.5719 68.9073 58.5409 68.9339 58.5806 68.9073C58.5806 68.9073 58.6603 68.8143 58.6736 68.6946C58.6736 68.6946 58.5541 68.575 58.5011 68.575" fill="#DCBA62"/>
<path d="M59.5758 65.5708C59.828 65.1854 60.2529 64.9594 60.704 64.9594C60.9827 64.9594 61.2614 65.039 61.4605 65.2385C61.58 65.3714 61.686 65.5841 61.686 65.7703C61.686 65.9828 61.5533 66.0891 61.3676 66.1291C61.1154 66.1955 60.6375 66.1955 60.3589 66.1955H59.6556C59.5626 66.1955 59.3636 66.2222 59.3636 66.0759C59.3636 65.9297 59.4963 65.6506 59.5758 65.5575M59.6423 66.4215H62.2568C62.3363 66.4215 62.363 66.3419 62.363 66.262C62.363 65.9695 62.2303 65.5708 62.0576 65.3448C61.7525 64.9594 61.2746 64.7865 60.8102 64.7865C60.2262 64.7865 59.6821 64.9992 59.2574 65.3846C58.8063 65.7968 58.6336 66.2753 58.6336 66.8867C58.6336 68.0166 59.4698 68.9604 60.611 68.9604C61.1419 68.9604 61.5667 68.814 61.9781 68.4551C62.0444 68.4021 62.3098 68.1628 62.3098 68.0432C62.3098 68.0034 62.2833 67.9766 62.2436 67.9766C62.1241 67.9766 61.8055 68.5615 60.9694 68.5615C59.921 68.5615 59.2972 67.6843 59.2972 66.674C59.2972 66.3817 59.3769 66.3949 59.6556 66.3949" fill="#DCBA62"/>
<path d="M113.432 67.6843C112.994 68.2427 112.37 68.6016 111.667 68.6016C110.964 68.6016 110.327 68.309 109.889 67.7509C109.437 67.1926 109.278 66.4748 109.278 65.757C109.278 65.0393 109.437 64.348 109.849 63.803C110.287 63.2181 110.95 62.9125 111.654 62.9125C112.357 62.9125 112.941 63.2314 113.379 63.7764C113.83 64.3613 113.976 65.0125 113.976 65.757C113.976 66.5013 113.844 67.1127 113.406 67.6843M111.627 62.6598C109.982 62.6598 108.442 64.029 108.442 65.757C108.442 67.4849 109.982 68.8673 111.627 68.8673C113.366 68.8673 114.812 67.6045 114.812 65.757C114.812 63.9093 113.366 62.6598 111.627 62.6598Z" fill="#DCBA62"/>
<path d="M107.951 63.8562V68.7079C107.951 68.7079 107.964 68.8938 107.885 68.8938C107.778 68.8938 107.699 68.7477 107.659 68.6681L103.823 63.4573V67.7774C103.823 68.3622 103.77 68.575 104.421 68.575C104.5 68.575 104.646 68.5484 104.646 68.6681C104.646 68.7742 104.58 68.8142 104.487 68.8142H102.881C102.788 68.8142 102.722 68.7742 102.722 68.6681C102.722 68.5484 102.881 68.575 102.961 68.575C103.598 68.575 103.558 68.3755 103.558 67.7774V63.8695C103.558 63.2714 103.598 63.0719 102.961 63.0719C102.881 63.0719 102.735 63.0719 102.735 62.9656C102.735 62.8194 102.855 62.8061 102.948 62.8061H104.089C104.275 62.8592 104.354 62.9921 104.461 63.1385L107.699 67.5249V63.8562C107.699 63.2581 107.739 63.0586 107.102 63.0586C107.022 63.0586 106.876 63.0586 106.876 62.9523C106.876 62.8459 106.942 62.7928 107.035 62.7928H108.641C108.721 62.7928 108.8 62.8459 108.8 62.9523C108.8 63.0586 108.654 63.0586 108.561 63.0586C107.924 63.0586 107.964 63.2581 107.964 63.8562" fill="#DCBA62"/>
<path d="M101.355 67.6843C100.917 68.2427 100.293 68.6016 99.5896 68.6016C98.8862 68.6016 98.2492 68.309 97.8113 67.7509C97.3599 67.1926 97.2007 66.4748 97.2007 65.757C97.2007 65.0393 97.3599 64.348 97.7715 63.803C98.2094 63.2181 98.873 62.9125 99.5763 62.9125C100.28 62.9125 100.864 63.2314 101.302 63.7764C101.753 64.3613 101.899 65.0125 101.899 65.757C101.899 66.5013 101.766 67.1127 101.328 67.6843M99.5498 62.6598C97.9042 62.6598 96.3514 64.029 96.3514 65.757C96.3514 67.4849 97.9042 68.8673 99.5498 68.8673C101.288 68.8673 102.735 67.6045 102.735 65.757C102.735 63.9093 101.288 62.6598 99.5498 62.6598Z" fill="#DCBA62"/>
<path d="M96.0727 66.0096C96.0727 66.1292 95.98 66.1292 95.9003 66.1292L95.7278 66.1557C95.6481 66.1557 95.5021 66.1557 95.4489 66.2355C95.3297 66.3419 95.3429 66.621 95.3429 66.7671V67.8705C95.3429 68.123 95.3959 68.2294 95.1835 68.3623C94.6129 68.7477 93.9096 68.8806 93.2327 68.8806C92.4098 68.8806 91.64 68.6812 91.0031 68.1363C90.3261 67.5514 89.9412 66.8071 89.9412 65.8899C89.9412 63.9759 91.6667 62.6598 93.4185 62.6598C93.8831 62.6598 94.4537 62.7396 94.8916 62.9258C95.1969 63.0454 95.1437 63.2579 95.1702 63.5637V63.9759C95.1702 64.0688 95.1305 64.1619 95.0243 64.1619C94.7191 64.1619 94.8916 62.9258 93.2725 62.9258C92.5425 62.9258 91.9054 63.165 91.4278 63.7632C91.0031 64.308 90.7642 65.1189 90.7642 65.8101C90.7642 66.5411 90.9632 67.2058 91.4278 67.7509C91.9454 68.3756 92.6222 68.6016 93.4052 68.6016C93.7104 68.6016 94.1882 68.5615 94.4537 68.3358C94.6394 68.1761 94.6261 67.7642 94.6261 67.5382V66.7406C94.6261 66.2088 94.5332 66.1159 94.0023 66.1159C93.9096 66.1159 93.7769 66.1159 93.7769 65.9963C93.7769 65.8767 93.9096 65.8767 93.9891 65.8767H95.9135C95.9932 65.8767 96.0727 65.8899 96.0727 65.9963" fill="#DCBA62"/>
<path d="M88.2692 67.6843C87.8313 68.2427 87.2075 68.6016 86.5042 68.6016C85.8007 68.6016 85.1636 68.309 84.7257 67.7509C84.2746 67.1926 84.1151 66.4748 84.1151 65.757C84.1151 65.0393 84.2746 64.348 84.6992 63.803C85.1371 63.2181 85.8007 62.9125 86.5042 62.9125C87.2075 62.9125 87.7916 63.2314 88.2294 63.7764C88.6806 64.3613 88.8265 65.0125 88.8265 65.757C88.8265 66.5013 88.6938 67.1127 88.2559 67.6843M86.4777 62.6598C84.8319 62.6598 83.2924 64.029 83.2924 65.757C83.2924 67.4849 84.8319 68.8673 86.4777 68.8673C88.2162 68.8673 89.6628 67.6045 89.6628 65.757C89.6628 63.9093 88.2162 62.6598 86.4777 62.6598Z" fill="#DCBA62"/>
<path d="M82.443 65.8897C82.7085 66.1955 82.8809 66.6209 82.8809 67.0196C82.8809 67.5514 82.6288 68.0299 82.2439 68.3753C81.8325 68.7344 81.3149 68.8673 80.784 68.8673C80.3329 68.8673 79.7886 68.7344 79.4037 68.4951C79.2445 68.3888 79.3109 68.1628 79.3109 67.9899C79.3109 67.7374 79.2844 67.4716 79.3109 67.2323C79.3109 67.1525 79.3507 67.0461 79.4436 67.0461C79.5631 67.0461 79.5631 67.2854 79.5764 67.3652C79.6691 68.1893 80.094 68.7077 80.9167 68.7077C81.6068 68.7077 82.2836 68.2159 82.2836 67.4716C82.2836 66.7273 81.7927 66.3416 81.1689 66.0493L80.7043 65.8366C80.0408 65.5308 79.3772 65.1321 79.3772 64.2947C79.3772 63.2977 80.2532 62.6863 81.1424 62.6863C81.5006 62.6863 82.0317 62.7528 82.3633 62.899C82.5358 62.9656 82.5625 63.0984 82.5758 63.2712C82.5758 63.5237 82.5625 63.7497 82.5758 64.0022C82.5758 64.0687 82.5358 64.1218 82.4695 64.1218C82.3633 64.1218 82.3501 63.9624 82.3236 63.896C82.1244 63.2313 81.8457 62.8857 81.1292 62.8857C80.5319 62.8857 79.948 63.2048 79.948 63.9093C79.948 64.7334 80.9565 65.0656 81.5538 65.3316C81.859 65.4777 82.2439 65.6772 82.4563 65.9164" fill="#DCBA62"/>
<path d="M78.7536 63.0719C78.8333 63.0719 78.9925 63.0719 78.9925 62.9523C78.9925 62.8459 78.9261 62.8194 78.8333 62.8194H76.7629C76.67 62.8194 76.6037 62.8459 76.6037 62.9523C76.6037 63.0719 76.7497 63.0719 76.8292 63.0719C77.4662 63.0719 77.4265 63.2579 77.4265 63.856V67.7641C77.4265 68.3623 77.4662 68.5615 76.8292 68.5615C76.7497 68.5615 76.6037 68.5615 76.6037 68.6811C76.6037 68.7875 76.6832 68.8008 76.7629 68.8008H78.8333C78.9128 68.8008 78.9925 68.7875 78.9925 68.6811C78.9925 68.5615 78.8333 68.5615 78.7536 68.5615C78.1298 68.5615 78.1563 68.3755 78.1563 67.7641V63.856C78.1563 63.2579 78.1165 63.0719 78.7536 63.0719Z" fill="#DCBA62"/>
<path d="M72.8475 65.6506C72.6881 65.6506 72.3829 65.717 72.3829 65.4777V63.7764C72.3829 63.1117 72.3962 63.0054 73.0997 63.0054C73.9092 63.0054 74.4136 63.4839 74.4136 64.3613C74.4136 64.7467 74.2941 65.0923 73.9887 65.3316C73.6438 65.6106 73.2722 65.6506 72.8475 65.6506ZM75.7407 68.5482C75.3426 68.5482 75.1966 68.1894 75.0372 67.857L74.2941 66.3684C74.1614 66.1159 74.0287 65.7835 73.7368 65.7435C74.4931 65.6374 75.1834 65.1321 75.1834 64.2682C75.1834 63.2712 74.3206 62.8194 73.4579 62.8194C72.9403 62.8194 72.4227 62.8592 71.8918 62.8592C71.5999 62.8592 71.2947 62.8194 70.9896 62.8194C70.8966 62.8194 70.8301 62.8592 70.8301 62.9656C70.8301 63.0852 70.9761 63.0852 71.0558 63.0852C71.6929 63.0852 71.6531 63.2712 71.6531 63.8828V67.7907C71.6531 68.3888 71.6929 68.5882 71.0558 68.5882C70.9761 68.5882 70.8301 68.5882 70.8301 68.7079C70.8301 68.814 70.8966 68.8275 70.9896 68.8275C71.3345 68.8275 71.6796 68.7875 72.038 68.7875C72.3962 68.7875 72.7148 68.8275 73.0598 68.8275C73.1395 68.8275 73.2192 68.814 73.2192 68.7079C73.2192 68.5882 73.0598 68.5882 72.9803 68.5882C72.3432 68.5882 72.3829 68.4021 72.3829 67.7907V66.3151C72.3829 66.2355 72.3829 65.9963 72.4227 65.9297C72.4759 65.8766 72.5554 65.8766 72.6219 65.8766C73.3119 65.8766 73.3119 65.9562 73.6306 66.6209L74.5196 68.4819C74.5993 68.6281 74.6525 68.8008 74.825 68.8008H75.7937C75.8602 68.8008 75.9529 68.8008 75.9529 68.6944C75.9529 68.5615 75.7937 68.5615 75.7142 68.5615" fill="#DCBA62"/>
<path d="M70.4852 65.8899H68.561C68.4813 65.8899 68.3486 65.8899 68.3486 66.0096C68.3486 66.1292 68.4813 66.1292 68.5742 66.1292C69.1051 66.1292 69.1978 66.2088 69.1978 66.7539V67.5514C69.1978 67.7774 69.2113 68.1894 69.0254 68.349C68.7732 68.575 68.2955 68.6148 67.9769 68.6148C67.1939 68.6148 66.5303 68.3888 65.9995 67.7642C65.5349 67.2058 65.3359 66.5411 65.3359 65.8101C65.3359 65.1189 65.5616 64.308 65.9995 63.7632C66.4641 63.165 67.1144 62.9258 67.8442 62.9258C69.4633 62.9258 69.2908 64.1619 69.596 64.1619C69.7022 64.1619 69.7289 64.0688 69.7289 63.9759L69.6889 63.5372C69.6624 63.2181 69.7554 63.0454 69.45 62.9258C69.0121 62.7396 68.4415 62.6598 67.9769 62.6598C66.2251 62.6598 64.4999 63.9759 64.4999 65.8899C64.4999 66.8071 64.8848 67.5514 65.5616 68.1363C66.1986 68.6812 66.9682 68.8806 67.7912 68.8806C68.4548 68.8806 69.1713 68.7344 69.7421 68.349C69.9544 68.2027 69.9014 68.0963 69.9014 67.857V66.7539C69.9014 66.6077 69.8881 66.3284 70.0076 66.2223C70.0738 66.1557 70.2065 66.1557 70.2862 66.1425H70.4587C70.5384 66.1292 70.6312 66.1159 70.6312 65.9963C70.6312 65.9032 70.5517 65.8767 70.472 65.8767" fill="#DCBA62"/>
<path d="M149.875 40.6875C150.539 41.2724 151.866 42.4289 155.914 43.7713C156.75 44.0506 158.409 44.6222 159.922 45.2203C160.426 45.4196 161.435 45.8184 162.974 46.7222C163.479 47.028 164.501 47.6261 165.31 48.623C165.576 48.9553 166.12 49.6333 166.651 51.1088C166.823 51.6006 167.182 52.5841 167.248 54.5249C167.699 53.8735 168.588 52.5841 168.88 50.8428C168.987 50.2579 169.186 49.1017 168.562 47.8256C168.363 47.4001 167.951 46.5495 167.009 45.5259C166.704 45.1803 166.08 44.5026 164.7 43.7846C164.249 43.5453 163.333 43.0668 162.377 42.6549C162.059 42.522 161.422 42.2427 160.546 42.0034L159.351 41.618C157.069 40.8472 152.516 39.2918 150.977 35.7295C150.605 34.8789 149.849 33.1908 151.787 31.2501C152.477 30.5588 153.857 29.1631 157.772 29.2695L158.821 29.4158C159.179 29.4557 159.882 29.562 161.342 30.1601C161.833 30.3596 162.802 30.7583 163.585 31.6755C164.089 32.34 165.098 33.6561 166.226 36.9658V31.4362C165.364 30.7583 163.625 29.3891 158.237 29.0702C156.936 28.9904 154.335 28.8177 151.296 30.8912C150.287 31.5824 148.27 32.9516 148.097 35.9555C148.031 36.9526 147.885 38.9462 149.875 40.7008" fill="#DCBA62"/>
<path d="M150.38 52.9432C150.778 53.1958 151.574 53.7141 153.167 54.2191V52.7038C152.516 51.9995 151.229 50.5905 150.38 47.2009V52.9432Z" fill="#DCBA62"/>
<path d="M58.5278 29.4428H55.5284V54.1264H58.5278V29.4428Z" fill="#DCBA62"/>
<path d="M87.2207 42.2299L85.0043 44.9149L89.8218 44.9547C89.8218 45.8054 89.782 47.4934 88.1097 49.6602C87.5524 50.378 86.4377 51.8268 84.1151 52.97C83.3453 53.3554 81.7925 54.113 79.6027 54.113C78.1296 54.113 75.1701 54.1132 72.1175 50.5639C71.0958 49.3809 69.0651 47.0149 69.0651 41.871C69.0651 40.5416 69.0651 37.8833 71.0426 34.6399C71.6929 33.5632 73.0068 31.3966 76.0459 30.2004C77.2271 29.7086 79.6027 28.7248 82.9472 29.8548C83.3586 29.9744 84.1814 30.2004 85.0971 30.8118C85.4025 31.0112 86.0128 31.4099 86.6631 32.3139C86.8756 32.6195 87.3135 33.2176 87.6718 33.8823C87.7913 34.1083 88.0302 34.547 88.5213 35.7032C88.6805 36.0889 89.0122 36.8464 89.2644 37.3382L89.0919 31.1309C89.0919 31.1309 89.0522 31.1309 87.2207 30.4396C86.6101 30.2136 85.3892 29.7484 83.9426 29.4693C83.2391 29.3097 81.8323 28.9774 79.6824 29.0439C79.2577 29.0439 78.4215 29.0439 77.1076 29.2699C76.6697 29.3497 75.807 29.4959 74.9312 29.8015C74.6393 29.8946 74.0552 30.094 73.2192 30.4927C72.9405 30.6256 72.3962 30.8783 72.1308 31.0245C72.038 31.0776 71.8654 31.1707 71.7194 31.277C70.7506 31.8486 68.7997 33.0051 67.1939 35.7698C66.663 36.687 65.5879 38.5345 65.5879 41.8577C65.5879 43.014 65.5879 45.3136 67.4061 48.2112C68.0034 49.1684 69.2243 51.0957 72.4362 52.8103C73.5111 53.3819 75.661 54.5251 79.6027 54.5517C81.6731 54.5251 85.8006 54.4853 90.1006 50.604C90.3528 50.3114 90.8702 49.7266 91.2683 49.155C91.4011 48.969 91.6532 48.5968 92.0648 47.3606C92.1975 46.9486 92.4762 46.1245 92.5824 44.4762V42.2564H87.234L87.2207 42.2299Z" fill="#DCBA62"/>
<path d="M137.693 29.8548V54.1264H134.348V29.8548H124.992V29.4428H147.102V29.8548H137.693Z" fill="#DCBA62"/>
<path d="M48.8789 29.8548V29.4428H30.3254V54.1264H48.8789V53.701H33.5903V41.6715H47.605V41.2463H33.5903V29.8548H48.8789Z" fill="#DCBA62"/>
<path d="M116.869 54.1264V41.6715H101.235L101.196 54.1264H98.0237V29.4428H101.235V41.2463H116.869V29.4428H120.068V54.1264H116.869Z" fill="#DCBA62"/>
<path d="M22.044 54.1264V29.4428H18.8323V41.2463H3.19844V29.4428H0V54.1264H3.1719L3.19844 41.6715H18.8323V54.1264H22.044Z" fill="#DCBA62"/>
<path d="M108.588 16.403L115.635 4.20072L122.536 16.403H108.588ZM117.068 0.399139H112.49L115.383 3.81524L103.027 25.0828H103.584L108.269 16.8283H122.815L127.394 25.0429H131.401L117.068 0.399139Z" fill="#DCBA62"/>
<path d="M48.7334 16.403L55.7674 4.20072L62.6684 16.403H48.7201H48.7334ZM57.214 0.399139H52.6353L55.5284 3.81524L43.1725 25.0828H43.73L48.4147 16.8283H62.9604L67.5391 25.0429H71.5472L57.214 0.399139Z" fill="#DCBA62"/>
<path d="M154.561 24.6571V25.0693H136.405V0.385559H139.71V24.6571H154.561Z" fill="#DCBA62"/>
<path d="M98.0236 25.0695V0.399139H97.6787V20.4173L79.8283 0.399139H75.1436L76.8289 1.98092V25.0429H77.2538V2.47274L97.4663 25.0695H98.0236Z" fill="#DCBA62"/>
<path d="M18.2618 12.8139C18.2618 18.0378 20.1861 20.4038 21.155 21.6001C24.0481 25.1624 26.9811 25.1624 28.4411 25.1624C34.1478 25.1624 37.4791 21.4274 39.1379 19.5531C39.1778 19.5132 39.3503 19.3005 39.4432 19.1942C39.7087 18.8752 39.7484 18.8087 39.7749 18.7688V19.4733C38.753 20.5632 38.4743 20.8292 38.3283 20.9489C33.3647 25.4682 30.0602 25.4682 28.4012 25.4682C22.4556 25.4284 19.7747 22.9825 18.4343 21.7462C14.4263 18.0644 14.4263 14.5552 14.4263 12.8139C14.4263 9.50417 15.5013 7.64325 16.0454 6.71279C17.6645 3.92142 19.5889 2.80486 20.5576 2.23331C20.7038 2.12697 20.8763 2.03392 20.9692 1.98075C21.2347 1.83454 21.7788 1.58199 22.0574 1.44906C22.8802 1.06359 23.4643 0.864205 23.7695 0.757868C24.6454 0.452147 25.5212 0.305932 25.9593 0.226178C27.2465 0.000210811 28.096 0.000210806 28.5074 0.000210806C30.6575 -0.0662505 32.0641 0.252763 32.7676 0.425561C33.8293 0.638239 34.5062 0.850914 34.8513 0.957251C35.873 1.27627 36.4704 1.51553 36.7755 1.64845C37.678 2.02063 37.8372 2.0605 37.9169 2.0871L38.0894 8.29457C37.5586 6.77924 37.2666 6.14122 37.1207 5.8222C36.6828 4.86517 36.0058 4.08093 35.6608 3.68216C34.6389 2.49916 33.6966 1.95417 33.232 1.68832C29.078 -0.784031 25.9061 0.558484 24.3268 1.2231C21.4336 2.45927 20.3852 4.66578 19.8543 5.76905C18.275 9.0788 18.275 11.5512 18.275 12.7873" fill="#DCBA62"/>
</g>
</g>
<defs>
<clipPath id="clip0_99_1385">
<rect width="169" height="69" fill="white"/>
</clipPath>
</defs>
</svg>
