<svg width="202" height="65" viewBox="0 0 202 65" fill="none" xmlns="http://www.w3.org/2000/svg">
<g id="logo_chb_1682342178 1" clip-path="url(#clip0_99_1414)">
<g id="Clip path group">
<mask id="mask0_99_1414" style="mask-type:luminance" maskUnits="userSpaceOnUse" x="0" y="0" width="202" height="65">
<g id="clip0_44_86">
<path id="Vector" d="M202 0.5H0V64.5H202V0.5Z" fill="white"/>
</g>
</mask>
<g mask="url(#mask0_99_1414)">
<g id="Group">
<path id="Vector_2" d="M100.885 41.2347C125.85 41.2035 153.143 41.1644 176.251 40.7781V40.4658C176.251 40.4658 144.245 40.1536 100.885 40.1457C57.5195 40.1341 25.5181 40.4658 25.5181 40.4658V40.7781C48.6254 41.1644 75.9191 41.262 100.885 41.2347Z" fill="#DCBA62"/>
<path id="Vector_3" d="M59.0755 4.47707C59.0755 4.47707 47.7825 12.3532 47.3318 29.924H46.4694C46.6418 9.74211 59.0755 0.5 59.0755 0.5C59.0755 0.5 71.5092 9.74211 71.6817 29.924H70.8232C70.3685 12.3532 59.0795 4.47707 59.0795 4.47707" fill="#DCBA62"/>
<path id="Vector_4" d="M25.1417 4.39905H32.4404C34.9647 4.39905 41.4756 4.39905 41.4756 10.8155C41.4756 15.5653 37.74 17.2982 33.1498 17.2318V16.982C36.1367 16.982 38.6298 15.1048 38.6298 11.5961C38.6298 9.39868 37.7752 7.23647 35.9642 6.10072C35.1764 5.60895 34.1455 5.25378 31.7269 5.25378H29.9082V27.0828C29.9082 29.245 30.0884 29.5963 31.9034 29.6314V29.885H25.1417V29.6314C25.9609 29.5963 26.9604 29.4909 26.9604 28.0039V6.8813C26.9604 5.5348 26.9604 4.64883 25.1417 4.64883V4.39905Z" fill="#DCBA62"/>
<path id="Vector_5" d="M123.271 27.2232L113.874 4.01257H113.447L111.37 9.23077L103.781 28.2145C103.389 29.0264 102.883 29.6079 101.735 29.6352V29.885H105.541V29.6352C105.392 29.6352 104.796 29.721 104.973 29.2918L109.198 18.6719H116.646C116.646 18.6719 120.241 27.4769 120.311 27.6174C120.492 28.0429 120.703 28.6439 120.703 28.999C120.703 29.0693 120.664 29.6391 119.884 29.6391V29.8889H125.861V29.6391C124.258 29.6391 123.619 28.1834 123.262 27.231M116.046 17.2903H109.755L112.91 9.39469L116.05 17.2903H116.046Z" fill="#DCBA62"/>
<path id="Vector_6" d="M79.4939 4.39905V4.64883C81.3049 4.68396 81.3049 5.28891 81.3049 7.34184V26.9033C81.3049 28.7455 81.3049 29.6275 79.4939 29.6275V29.8773H97.1052V26.31H96.8551C96.5056 28.2029 95.8198 28.5659 94.8126 28.6323H86.6632C84.6171 28.5308 84.2996 28.2732 84.2604 26.7706V6.95155C84.2604 5.5348 84.2604 4.61371 86.2164 4.64883V4.40295H79.49L79.4939 4.39905Z" fill="#DCBA62"/>
<path id="Vector_7" d="M175.091 4.39905H159.023V4.64883C160.838 4.68396 160.838 5.28891 160.838 7.34184V26.9033C160.838 28.7455 160.838 29.6314 159.023 29.6314V29.8812H176.627V26.3139H176.376C176.024 28.2069 175.342 28.5698 174.334 28.6361L163.786 28.6244V17.7977H171.002C172.696 17.868 172.985 17.6963 173.401 19.3004H173.691V14.9057H173.401C172.985 16.5098 172.691 16.342 171.002 16.4083H163.782V5.6753H171.512C173.237 5.70652 174.357 5.36307 174.84 7.97412H175.091V4.39905Z" fill="#DCBA62"/>
<path id="Vector_8" d="M25.1417 4.39905H32.4404C34.9647 4.39905 41.4756 4.39905 41.4756 10.8155C41.4756 15.5653 37.74 17.2982 33.1498 17.2318V16.982C36.1367 16.982 38.6298 15.1048 38.6298 11.5961C38.6298 9.39868 37.7752 7.23647 35.9642 6.10072C35.1764 5.60895 34.1455 5.25378 31.7269 5.25378H29.9082V27.0828C29.9082 29.245 30.0884 29.5963 31.9034 29.6314V29.885H25.1417V29.6314C25.9609 29.5963 26.9604 29.4909 26.9604 28.0039V6.8813C26.9604 5.5348 26.9604 4.64883 25.1417 4.64883V4.39905Z" fill="#DCBA62"/>
<path id="Vector_9" d="M143.203 29.3348C137.069 29.3348 132.368 23.5311 132.368 16.947C132.368 9.49238 137.981 4.71131 142.971 4.71131C148.918 4.71131 149.713 8.06782 149.925 9.2387H150.172L150.196 5.42165C150.196 5.42165 148.373 3.51312 142.474 3.51312C134.701 3.51312 129.303 10.1988 129.303 17.0133C129.303 24.3469 134.956 30.6384 142.481 30.6384C150.007 30.6384 151.779 28.6245 151.779 28.6245V24.8035H151.465C151.235 26.0758 150.187 29.3348 143.203 29.3348Z" fill="#DCBA62"/>
<path id="Vector_10" d="M6.71073 64.2698C6.15411 63.3331 4.29612 60.2225 3.28089 58.4661C2.91634 58.4857 2.34013 58.5442 1.92071 58.4661L2.07358 58.3139C4.41372 58.3139 5.81309 56.7683 5.81309 54.9535C5.81309 53.369 4.54699 51.7492 1.55617 51.9756L1.46209 52.0888V64.2658H0C0 63.1379 0.0391982 53.404 0 51.4174H2.81835C5.78957 51.4174 7.16935 53.1152 7.16935 54.8169C7.16935 56.5186 6.28739 57.7753 4.69594 58.271C5.51911 59.8165 7.05175 62.1857 8.39625 64.2658H6.71073V64.2698Z" fill="#DCBA62"/>
<path id="Vector_11" d="M11.6575 64.2697V51.4213H18.137L18.3682 52.0341C17.447 51.9209 13.0765 51.9404 13.0765 51.9404V57.5138C14.0368 57.5138 16.4515 57.5333 17.5608 57.4007V58.1071C16.4475 58.0134 14.8952 57.9939 13.0569 58.029L13.0765 63.7351C13.0765 63.7351 18.3291 63.7936 19.2894 63.6219L19.0582 64.2697H11.6575Z" fill="#DCBA62"/>
<path id="Vector_12" d="M22.4683 61.8851C23.3503 63.5633 24.6164 63.8326 25.7453 63.8326C27.3171 63.8326 28.5244 62.8764 28.5244 61.4284C28.5244 57.7831 22.4643 58.7549 22.4643 54.4617C22.4643 52.3619 24.3812 51.2926 26.0314 51.2926C27.0662 51.2926 28.2931 51.636 28.9438 52.2293L28.4656 53.2791C27.7366 51.9794 26.7801 51.8663 25.9726 51.8663C24.7849 51.8663 23.5776 52.4595 23.5776 53.8724C23.5776 57.5373 29.7122 56.4483 29.7122 60.7454C29.7122 63.0755 27.8542 64.4298 25.7806 64.4298C24.1891 64.4298 23.0602 63.9731 22.041 63.1106L22.4643 61.889L22.4683 61.8851Z" fill="#DCBA62"/>
<path id="Vector_13" d="M33.7418 64.2697C33.7418 63.1418 33.8005 53.4079 33.7614 51.4213H35.1803C35.1803 55.0862 35.1999 60.6205 35.1999 64.2697H33.7418Z" fill="#DCBA62"/>
<path id="Vector_14" d="M39.99 64.2697C39.99 63.1417 40.0292 53.4079 39.99 51.4252H43.1925C44.247 51.4252 45.2621 51.4448 45.9912 51.5384C47.7159 51.7687 51.3575 53.3689 51.3575 57.5879C51.3575 63.0676 47.1006 64.0199 45.6267 64.1722C44.4782 64.3048 42.3497 64.2658 41.503 64.2658H39.99V64.2697ZM41.4678 63.5243C41.8323 63.6569 45.0544 63.8287 46.3558 63.294C47.5631 62.8178 49.7699 61.7484 49.9033 58.1773C49.9973 55.5428 48.2334 52.8498 45.4935 52.2409C44.439 51.9912 42.2321 52.0302 41.4482 52.0302C41.4482 55.695 41.4678 59.8555 41.4678 63.5203" fill="#DCBA62"/>
<path id="Vector_15" d="M54.9991 64.2697V51.4213H61.4785L61.7098 52.0341C60.7886 51.9209 56.418 51.9404 56.418 51.9404V57.5138C57.3784 57.5138 59.793 57.5333 60.9062 57.4007V58.1071C59.793 58.0134 58.2407 57.9939 56.4023 58.029L56.4219 63.7351C56.4219 63.7351 61.6744 63.7936 62.6349 63.6219L62.4036 64.2697H55.0029H54.9991Z" fill="#DCBA62"/>
<path id="Vector_16" d="M75.5505 62.0177C75.5505 60.8898 75.5505 53.4079 75.5114 51.4252H76.1228C76.1228 55.0901 76.0445 60.8351 76.1424 64.5C74.7627 62.9935 66.5584 53.1229 66.5584 53.1229L66.6918 53.5445V64.2736H66.0763C66.0763 63.2432 66.096 55.1681 66.0763 52.4009L65.9626 51.4291H66.7858C67.5737 52.4985 75.4134 61.6977 75.4134 61.6977L75.5466 62.0216L75.5505 62.0177Z" fill="#DCBA62"/>
<path id="Vector_17" d="M91.1397 63.5048C89.8931 64.0199 87.9568 64.4571 86.6161 64.4571C83.2804 64.4571 79.7918 62.2988 79.7918 58.0446C79.7918 54.4383 82.324 51.2887 86.4633 51.2887C88.3409 51.2887 89.799 51.7102 91.2925 52.8147L90.8339 54.0363C89.6462 52.2059 88.3016 51.878 86.769 51.878C83.1471 51.878 81.4185 55.1213 81.4185 58.0446C81.4185 61.6899 83.8331 63.9419 87.0747 63.9419C88.4545 63.9419 90.2576 63.2159 91.3317 62.2988L91.1397 63.5008V63.5048Z" fill="#DCBA62"/>
<path id="Vector_18" d="M95.3532 64.2697V51.4213H101.833L102.064 52.0341C101.143 51.9209 96.7726 51.9404 96.7726 51.9404V57.5138C97.733 57.5138 100.147 57.5333 101.257 57.4007V58.1071C100.144 58.0134 98.5912 57.9939 96.7529 58.029L96.7726 63.7351C96.7726 63.7351 102.025 63.7936 102.985 63.6219L102.754 64.2697H95.3532Z" fill="#DCBA62"/>
<path id="Vector_19" d="M106.168 61.8851C107.051 63.5633 108.316 63.8326 109.445 63.8326C111.018 63.8326 112.224 62.8764 112.224 61.4284C112.224 57.7831 106.168 58.7549 106.168 54.4617C106.168 52.3619 108.085 51.2926 109.735 51.2926C110.77 51.2926 111.998 51.636 112.648 52.2293L112.17 53.2791C111.44 51.9794 110.484 51.8663 109.677 51.8663C108.489 51.8663 107.281 52.4595 107.281 53.8724C107.281 57.5373 113.416 56.4483 113.416 60.7454C113.416 63.0755 111.558 64.4298 109.485 64.4298C107.893 64.4298 106.76 63.9731 105.745 63.1106L106.168 61.889V61.8851Z" fill="#DCBA62"/>
<path id="Vector_20" d="M127.602 59.4028H123V60.5307H127.602V59.4028Z" fill="#DCBA62"/>
<path id="Vector_21" d="M147.346 62.0177C147.346 60.8898 147.346 53.4079 147.306 51.4252H147.922C147.922 55.0901 147.844 60.8351 147.942 64.5C146.562 62.9935 138.358 53.1229 138.358 53.1229L138.491 53.5445V64.2736H137.875C137.875 63.2432 137.895 55.1681 137.875 52.4009L137.762 51.4291H138.585C139.373 52.4985 147.213 61.6977 147.213 61.6977L147.346 62.0216V62.0177Z" fill="#DCBA62"/>
<path id="Vector_22" d="M158.369 64.4415C154.535 64.4415 151.485 62.209 151.485 58.0485C151.485 54.4422 154.21 51.2926 158.349 51.2926C162.488 51.2926 165.134 54.3291 165.134 57.9354C165.134 62.0763 162.183 64.4453 158.365 64.4453M163.504 57.9354C163.504 55.016 161.951 51.8858 158.325 51.8858C154.7 51.8858 153.112 55.1331 153.112 58.0524C153.112 61.4323 155.374 63.8951 158.325 63.9146C161.296 63.9341 163.504 61.3191 163.504 57.9393" fill="#DCBA62"/>
<path id="Vector_23" d="M175.584 64.2698C175.028 63.3331 173.17 60.2225 172.154 58.4661C171.79 58.4857 171.214 58.5442 170.794 58.4661L170.947 58.3139C173.287 58.3139 174.687 56.7683 174.687 54.9535C174.687 53.369 173.42 51.7492 170.43 51.9756L170.336 52.0888V64.2658H168.877C168.877 63.1379 168.916 53.404 168.877 51.4174H171.696C174.667 51.4174 176.047 53.1152 176.047 54.8169C176.047 56.5186 175.165 57.7753 173.574 58.271C174.396 59.8165 175.933 62.1857 177.274 64.2658H175.588L175.584 64.2698Z" fill="#DCBA62"/>
<path id="Vector_24" d="M183.118 64.2697V51.9404H178.614L178.748 51.4252H189.311V51.9404H184.576C184.576 55.6247 184.556 60.6049 184.556 64.2697H183.118Z" fill="#DCBA62"/>
<path id="Vector_25" d="M200.566 64.2697C200.566 63.6609 200.546 60.32 200.566 58.0642H193.682C193.682 59.4574 193.702 62.2441 193.702 64.2697H192.283C192.283 63.1418 192.341 53.4079 192.302 51.4213H193.702V57.5099H200.566C200.566 55.7536 200.585 52.2605 200.566 51.4213H202.004V64.2697H200.566Z" fill="#DCBA62"/>
</g>
</g>
</g>
</g>
<defs>
<clipPath id="clip0_99_1414">
<rect width="202" height="64" fill="white" transform="translate(0 0.5)"/>
</clipPath>
</defs>
</svg>
