<svg width="627" height="62" viewBox="0 0 627 62" fill="none" xmlns="http://www.w3.org/2000/svg">
<g opacity="0.4">
<path d="M141.353 -150.436C142.224 -150.549 143.148 -150.662 144.071 -150.718C144.994 -150.718 145.866 -150.718 146.738 -150.662C147.61 -150.549 148.482 -150.38 149.354 -150.21C150.226 -150.041 151.149 -149.816 152.072 -149.703C152.944 -149.477 153.765 -149.251 154.688 -149.026C155.662 -148.857 156.637 -148.687 157.611 -148.574C158.637 -148.462 159.765 -148.518 160.945 -148.856C162.227 -149.251 163.561 -149.646 164.946 -150.041C166.382 -150.436 167.92 -150.775 169.51 -151.169C171.1 -151.451 172.69 -151.677 174.28 -151.79C175.922 -151.79 177.614 -151.79 179.307 -151.677C180.897 -151.339 182.487 -150.944 184.025 -150.38C185.359 -149.251 186.641 -147.615 187.923 -145.923C189.206 -143.723 190.488 -141.128 191.77 -138.251C193.155 -135.092 194.386 -131.594 195.617 -127.815C196.899 -123.753 198.181 -119.522 199.515 -115.235C200.848 -110.665 202.13 -105.701 203.361 -100.793C204.541 -95.7159 205.721 -90.6387 206.849 -85.5616C207.977 -80.428 209.26 -75.4073 210.388 -70.3866C211.67 -65.1402 212.901 -60.0067 214.081 -54.8167C215.312 -49.4011 216.645 -44.0983 217.876 -38.7391C219.21 -33.1543 220.595 -27.8515 222.031 -22.7179C223.569 -17.528 225.211 -12.4508 226.903 -7.65573C228.698 -2.80425 230.596 1.82158 232.494 6.16535C234.494 10.6219 236.546 14.7965 238.546 18.6889C240.7 22.6378 242.803 26.3046 244.854 29.633C247.009 33.0177 249.009 36.1204 251.009 38.8847C253.01 41.7053 254.907 44.2438 256.651 46.4439C258.446 48.7004 260.139 50.6185 261.575 52.1416C263.062 53.7212 264.396 54.9622 265.524 55.9213C266.704 56.8803 267.678 57.5572 268.448 57.9521C269.268 58.347 269.832 58.4034 270.191 58.065C270.602 57.7829 270.756 57.2187 270.704 56.2597C270.704 55.3571 270.448 54.1724 270.038 52.5929C269.627 51.0697 269.012 49.2646 268.191 47.1209C267.422 44.9772 266.396 42.5515 265.268 39.7872C264.139 37.0794 262.908 34.0331 261.472 30.6484C260.139 27.32 258.703 23.7096 257.164 19.8736C255.728 16.0375 254.24 11.9758 252.702 7.57567C251.368 3.34472 250.086 -1.16828 248.958 -5.96336C248.034 -10.5892 247.111 -15.3843 246.239 -20.4614C245.47 -25.3693 244.701 -30.5028 243.931 -35.8056C243.264 -41.052 242.546 -46.4676 241.88 -52.1089C241.316 -57.6373 240.803 -63.335 240.238 -69.0327C239.674 -74.5047 239.007 -79.9767 238.289 -85.5051C237.623 -90.8643 236.853 -96.3364 236.084 -101.978C235.161 -107.45 234.135 -113.034 233.212 -118.676C232.442 -124.091 231.673 -129.563 231.006 -135.092C230.442 -140.451 229.981 -145.867 229.519 -151.282C229.16 -156.529 228.801 -161.775 228.442 -166.965C228.083 -171.929 227.826 -176.781 227.519 -181.519C227.16 -185.976 226.698 -190.207 226.185 -194.325C225.672 -198.105 225.159 -201.828 224.236 -204.987C223.364 -208.033 222.492 -210.91 221.62 -213.675C220.748 -216.326 219.723 -218.808 218.594 -221.177C217.363 -223.208 216.081 -225.126 214.799 -226.932C213.568 -228.737 212.286 -230.373 211.004 -231.839C209.721 -233.08 208.439 -234.04 207.106 -234.886C205.721 -235.45 204.182 -235.506 202.592 -235.393C201.002 -235.224 199.463 -235.055 197.873 -234.829C196.386 -234.547 194.899 -234.209 193.36 -233.814C191.924 -233.419 190.385 -232.968 188.949 -232.516C187.564 -232.178 186.282 -232.009 185.154 -232.121C184.077 -232.347 183.051 -232.573 182.025 -232.798C180.999 -233.081 180.025 -233.419 179.05 -233.757C178.076 -234.096 177.153 -234.378 176.178 -234.491C175.204 -234.604 174.178 -234.66 173.203 -234.716C172.229 -234.773 171.306 -234.773 170.382 -234.829C169.51 -234.886 168.638 -234.886 167.767 -234.829C166.895 -234.829 166.074 -234.716 165.202 -234.604C164.33 -234.491 163.458 -234.265 162.586 -234.04C161.714 -233.814 160.791 -233.588 159.817 -233.25C158.893 -232.911 157.919 -232.573 156.996 -232.178C156.021 -231.727 155.047 -231.332 154.124 -230.88C153.2 -230.486 152.226 -230.034 151.354 -229.526C150.431 -229.019 149.405 -228.455 148.43 -227.891C147.456 -227.27 146.481 -226.649 145.456 -225.916C144.481 -225.183 143.507 -224.449 142.481 -223.547C141.455 -222.588 140.481 -221.572 139.455 -220.557C138.429 -219.485 137.455 -218.357 136.429 -217.229C135.454 -216.1 134.429 -214.916 133.505 -213.675C132.531 -212.433 131.556 -211.192 130.53 -209.895C129.505 -208.597 128.53 -207.3 127.556 -205.946C126.53 -204.592 125.555 -203.238 124.581 -201.828C123.606 -200.418 122.683 -199.007 121.709 -197.541C120.786 -196.074 119.811 -194.607 118.939 -193.084C118.016 -191.504 117.093 -189.981 116.272 -188.402C115.4 -186.822 114.528 -185.299 113.656 -183.719C112.836 -182.196 112.015 -180.617 111.246 -179.094C110.425 -177.57 109.656 -176.104 108.886 -174.637C108.117 -173.227 107.348 -171.76 106.63 -170.406C105.86 -168.996 105.142 -167.642 104.475 -166.288C103.809 -164.878 103.142 -163.524 102.527 -162.17C101.911 -160.816 101.347 -159.406 100.783 -158.052C100.27 -156.698 99.7056 -155.344 99.244 -153.99C98.7824 -152.636 98.3208 -151.282 97.9105 -149.985C97.5001 -148.631 97.1411 -147.333 96.8334 -146.092C96.4744 -144.795 96.2179 -143.554 95.9614 -142.369C95.705 -141.128 95.4999 -140 95.2947 -138.871C95.1408 -137.743 94.987 -136.671 94.8844 -135.656C94.7818 -134.584 94.6792 -133.625 94.6792 -132.666C94.6279 -131.707 94.6279 -130.861 94.6279 -130.015C94.6279 -129.168 94.6792 -128.379 94.7818 -127.589C94.8844 -126.856 94.987 -126.122 95.1408 -125.502C95.2947 -124.825 95.4998 -124.261 95.6537 -123.696C95.8589 -123.132 96.1153 -122.681 96.3718 -122.23C96.6282 -121.778 96.9359 -121.384 97.2437 -121.045C97.5514 -120.707 97.8591 -120.425 98.2695 -120.199C98.6285 -119.973 99.0388 -119.804 99.4491 -119.691C99.8595 -119.635 100.321 -119.635 100.783 -119.635C101.244 -119.691 101.757 -119.748 102.219 -119.917C102.732 -120.086 103.245 -120.255 103.809 -120.537C104.373 -120.763 104.937 -121.102 105.553 -121.44C106.168 -121.778 106.784 -122.23 107.45 -122.681C108.117 -123.132 108.784 -123.696 109.451 -124.204C110.117 -124.712 110.835 -125.276 111.605 -125.953C112.323 -126.574 113.041 -127.25 113.81 -127.984C114.58 -128.717 115.4 -129.451 116.169 -130.128C116.939 -130.748 117.708 -131.425 118.529 -131.989C119.349 -132.553 120.17 -133.174 120.991 -133.794C121.811 -134.415 122.683 -135.035 123.555 -135.712C124.427 -136.389 125.299 -137.01 126.171 -137.63C126.992 -138.364 127.863 -139.21 128.633 -140.056C129.453 -140.959 130.274 -141.918 131.146 -142.933C131.967 -143.892 132.838 -144.851 133.71 -145.754C134.582 -146.544 135.454 -147.221 136.326 -147.898C137.147 -148.462 137.967 -148.969 138.839 -149.477C139.557 -149.872 140.429 -150.154 141.353 -150.436Z" stroke="#ECE8DC" stroke-width="3"/>
<path d="M138.994 -126.404C139.61 -126.686 140.225 -126.912 140.841 -127.081C141.456 -127.25 142.072 -127.42 142.687 -127.532C143.251 -127.645 143.867 -127.815 144.431 -127.927C144.995 -128.04 145.611 -128.209 146.175 -128.379C146.79 -128.548 147.406 -128.717 147.97 -128.886C148.585 -129.112 149.201 -129.338 149.816 -129.507C150.483 -129.733 151.15 -129.902 151.817 -130.184C152.432 -130.41 153.099 -130.692 153.714 -130.974C154.33 -131.256 154.996 -131.538 155.663 -131.876C156.33 -132.215 156.997 -132.497 157.715 -132.835C158.433 -133.174 159.151 -133.512 159.972 -133.794C160.792 -134.02 161.664 -134.246 162.587 -134.415C163.511 -134.528 164.536 -134.697 165.562 -134.81C166.639 -134.866 167.716 -134.866 168.845 -134.866C169.973 -134.753 171.101 -134.528 172.127 -134.189C173.153 -133.851 174.23 -133.399 175.256 -132.948C176.333 -132.44 177.41 -131.82 178.384 -131.03C179.359 -130.071 180.333 -128.943 181.257 -127.532C182.18 -125.84 183.154 -124.035 184.129 -122.06C185.155 -119.748 186.18 -117.265 187.206 -114.67C188.129 -111.85 189.155 -108.86 190.13 -105.588C191.104 -102.203 192.079 -98.8185 193.053 -95.4337C193.976 -91.9361 194.951 -88.3821 195.874 -84.6024C196.695 -80.7664 197.567 -76.8739 198.439 -72.9815C199.362 -68.9198 200.285 -64.8016 201.106 -60.6835C201.978 -56.3961 202.901 -52.1088 203.875 -47.7086C204.798 -43.1392 205.824 -38.5134 206.85 -33.7183C207.876 -28.6976 208.953 -23.6205 210.081 -18.4305C211.363 -13.2406 212.8 -7.99414 214.287 -2.80418C215.877 2.44219 217.569 7.74497 219.365 12.9913C223.365 23.6533 227.981 34.1461 233.008 44.3567C238.598 54.6802 244.496 64.6088 250.6 74.0861C256.447 83.6199 261.986 92.7023 267.218 101.108C272.654 109.457 278.142 117.185 283.681 123.842C289.682 129.991 295.888 135.237 302.043 139.581C308.454 143.474 314.763 146.52 320.969 148.946C327.38 151.315 333.74 153.289 339.997 154.7C346.306 155.772 352.46 156.449 358.564 156.787C364.924 156.787 370.925 156.166 376.669 155.207C382.157 154.023 387.491 152.669 392.466 151.202C397.595 149.623 402.622 148.043 407.34 146.464C412.264 144.771 416.931 143.248 421.342 141.725C425.753 140.258 429.907 138.791 433.805 137.438C437.857 136.027 441.499 134.73 444.833 133.489C448.218 132.248 451.244 131.006 453.86 129.822C456.578 128.637 458.886 127.453 460.732 126.324C462.681 125.196 464.169 124.124 465.041 123.165C465.964 122.206 466.323 121.304 466.272 120.457C466.272 119.611 465.759 118.878 464.835 118.201C463.964 117.524 462.63 116.847 460.886 116.283C458.989 115.719 456.629 115.211 453.911 114.816C451.244 114.365 448.115 113.97 444.525 113.688C441.037 113.349 437.191 113.011 432.985 112.785C428.779 112.503 424.163 112.334 419.291 112.052C414.572 111.77 409.494 111.713 404.16 111.657C398.929 111.601 393.441 111.431 387.696 111.093C381.952 110.416 376.002 109.626 369.899 108.723C363.693 107.764 357.179 106.523 350.46 104.887C343.69 102.913 336.92 100.092 330.304 96.3691C324.046 91.9689 317.994 86.8354 312.198 80.7429C306.71 73.9169 301.428 66.2448 296.453 57.8958C290.657 49.2646 284.81 39.9565 279.271 29.7459C274.296 19.5916 269.731 9.04243 265.679 -1.56313C262.653 -11.5482 260.499 -21.5896 258.447 -31.631C257.524 -36.5953 256.601 -41.6161 255.729 -46.6932C254.959 -51.7139 254.293 -56.791 253.78 -61.7553C253.369 -66.6068 253.01 -71.4019 252.651 -76.1406C252.241 -80.7664 251.677 -85.3922 251.061 -89.9052C250.395 -94.4183 249.625 -98.9877 248.805 -103.444C247.676 -107.901 246.548 -112.414 245.471 -116.87C244.445 -121.271 243.471 -125.727 242.599 -130.184C241.829 -134.584 241.163 -138.984 240.547 -143.328C239.983 -147.615 239.47 -151.846 238.957 -156.134C238.598 -160.308 238.239 -164.483 237.983 -168.657C237.726 -172.719 237.47 -176.724 237.213 -180.73C236.957 -184.622 236.803 -188.402 236.598 -192.181C236.393 -195.792 236.188 -199.289 235.88 -202.561C235.521 -205.664 235.162 -208.71 234.7 -211.418C234.239 -214.069 233.726 -216.608 233.11 -218.977C232.495 -221.29 231.931 -223.49 231.315 -225.634C230.751 -227.665 230.135 -229.696 229.417 -231.557C228.648 -233.306 227.93 -234.998 227.058 -236.578C226.135 -237.932 225.212 -239.173 224.288 -240.358C223.314 -241.429 222.339 -242.445 221.416 -243.404C220.493 -244.25 219.57 -244.927 218.544 -245.491C217.569 -245.999 216.544 -246.45 215.518 -246.789C214.492 -247.071 213.415 -247.24 212.338 -247.296C211.261 -247.296 210.133 -247.296 209.004 -247.184C207.876 -247.071 206.799 -246.902 205.722 -246.676C204.645 -246.45 203.568 -246.168 202.49 -245.83C201.413 -245.491 200.336 -245.153 199.31 -244.758C198.233 -244.419 197.156 -244.024 196.079 -243.63C195.002 -243.235 194.028 -242.896 193.002 -242.614C192.13 -242.501 191.361 -242.558 190.591 -242.614C189.873 -242.727 189.206 -242.896 188.488 -243.065C187.822 -243.235 187.155 -243.46 186.488 -243.742C185.873 -244.024 185.206 -244.25 184.59 -244.532C183.975 -244.701 183.411 -244.814 182.795 -244.983C182.18 -245.096 181.564 -245.209 180.949 -245.322C180.333 -245.435 179.718 -245.491 179.102 -245.604C178.487 -245.717 177.923 -245.83 177.41 -245.999C176.846 -246.112 176.333 -246.225 175.769 -246.337C175.204 -246.45 174.692 -246.563 174.179 -246.676C173.666 -246.789 173.102 -246.845 172.589 -246.902C172.076 -246.958 171.512 -246.958 170.999 -246.958C170.435 -246.958 169.922 -246.902 169.357 -246.958C168.845 -247.014 168.28 -247.014 167.665 -246.958C167.049 -246.958 166.485 -246.958 165.87 -246.902C165.254 -246.845 164.69 -246.789 164.075 -246.732C163.511 -246.676 162.895 -246.563 162.28 -246.394C161.664 -246.225 161.049 -246.055 160.433 -245.942C159.818 -245.773 159.202 -245.66 158.587 -245.491C157.971 -245.266 157.305 -245.04 156.638 -244.814C155.971 -244.589 155.355 -244.306 154.689 -244.024C154.073 -243.742 153.407 -243.46 152.74 -243.122C152.073 -242.783 151.406 -242.388 150.739 -241.937C150.073 -241.486 149.355 -241.035 148.637 -240.583C147.97 -240.132 147.252 -239.681 146.534 -239.173C145.867 -238.665 145.149 -238.158 144.431 -237.593C143.713 -237.029 142.995 -236.465 142.328 -235.901C141.61 -235.281 140.943 -234.716 140.225 -234.096C139.507 -233.475 138.789 -232.798 138.122 -232.178C137.404 -231.501 136.737 -230.824 136.019 -230.147C135.301 -229.47 134.635 -228.737 133.968 -228.003C132.583 -226.537 131.147 -224.957 129.711 -223.377C128.275 -221.741 126.89 -219.993 125.454 -218.244C124.018 -216.326 122.582 -214.295 121.197 -212.264C119.761 -210.233 118.376 -208.202 117.042 -206.228C115.658 -204.254 114.324 -202.223 113.042 -200.192C111.708 -198.161 110.426 -196.187 109.144 -194.156C107.862 -192.125 106.631 -190.15 105.4 -188.176C104.169 -186.258 102.989 -184.284 101.758 -182.422C100.527 -180.617 99.3475 -178.755 98.1679 -176.95C97.0395 -175.088 95.9112 -173.17 94.7828 -171.196C93.7057 -169.165 92.6286 -167.191 91.6541 -165.16C90.6283 -163.072 89.7051 -161.042 88.7819 -158.898C87.8587 -156.811 86.9868 -154.667 86.1662 -152.467C85.3455 -150.154 84.5762 -147.897 83.8069 -145.528C83.0888 -143.159 82.3708 -140.733 81.704 -138.364C81.0885 -135.938 80.4731 -133.569 79.9089 -131.199C79.396 -128.83 78.8831 -126.461 78.4215 -124.148C78.0112 -121.778 77.6008 -119.465 77.2931 -117.209C76.9853 -114.952 76.6776 -112.752 76.4725 -110.665C76.2673 -108.521 76.0621 -106.547 75.9596 -104.629C75.857 -102.711 75.7544 -100.849 75.7544 -99.0441C75.7031 -97.2953 75.7544 -95.6029 75.8057 -93.9669C75.857 -92.3874 75.9596 -90.8643 76.1135 -89.5104C76.2673 -88.1001 76.4725 -86.8026 76.6776 -85.5615C76.9341 -84.3204 77.1905 -83.2486 77.4982 -82.1767C77.806 -81.1613 78.165 -80.2023 78.524 -79.3561C78.8831 -78.5099 79.2934 -77.8329 79.7037 -77.2688C80.114 -76.7047 80.5756 -76.197 81.0372 -75.8021C81.4988 -75.4072 82.0117 -75.1251 82.5246 -74.9559C83.0375 -74.7867 83.6017 -74.6174 84.1659 -74.6174C84.73 -74.6174 85.2942 -74.6174 85.9097 -74.7866C86.5252 -74.9559 87.1406 -75.238 87.8074 -75.5764C88.4742 -75.9149 89.1409 -76.3098 89.8077 -76.8176C90.5257 -77.3253 91.1925 -77.8329 91.9619 -78.4535C92.3209 -78.7355 92.6799 -79.074 93.0902 -79.4125C93.4493 -79.751 93.8595 -80.0895 94.2186 -80.4844C94.5776 -80.8228 94.9879 -81.2177 95.3982 -81.6126C95.8086 -82.0075 96.2189 -82.4024 96.6292 -82.8537C97.0395 -83.2486 97.4498 -83.6999 97.8602 -84.1512C98.2705 -84.6025 98.7321 -85.1102 99.1424 -85.5615C99.604 -86.0692 100.014 -86.5205 100.476 -87.0282C100.938 -87.5359 101.399 -88.0436 101.809 -88.6077C102.271 -89.1154 102.733 -89.6796 103.194 -90.2437C103.656 -90.8078 104.169 -91.3719 104.63 -91.9925C105.143 -92.613 105.605 -93.1772 106.118 -93.7977C106.631 -94.4183 107.144 -95.0388 107.656 -95.6593C108.169 -96.2798 108.682 -96.9004 109.195 -97.5209C109.708 -98.1415 110.221 -98.8184 110.734 -99.4954C111.247 -100.172 111.76 -100.849 112.324 -101.526C112.837 -102.203 113.401 -102.88 113.965 -103.614C114.529 -104.29 115.042 -105.024 115.606 -105.701C116.17 -106.378 116.735 -106.998 117.299 -107.562C117.863 -108.127 118.427 -108.691 118.991 -109.198C119.556 -109.706 120.12 -110.27 120.684 -110.834C121.248 -111.342 121.812 -111.906 122.376 -112.414C122.941 -113.034 123.556 -113.655 124.12 -114.332C124.684 -115.009 125.3 -115.629 125.864 -116.25C126.48 -116.87 127.044 -117.491 127.659 -118.168C128.275 -118.788 128.839 -119.409 129.454 -120.03C130.07 -120.594 130.685 -121.101 131.301 -121.666C131.916 -122.173 132.583 -122.681 133.198 -123.189C133.865 -123.64 134.532 -124.035 135.199 -124.43C135.814 -124.825 136.43 -125.163 137.045 -125.558C137.763 -125.784 138.379 -126.122 138.994 -126.404Z" stroke="#ECE8DC" stroke-width="3"/>
<path d="M138.994 -99.7213C139.814 -100.285 140.635 -100.85 141.456 -101.414C142.276 -101.921 143.148 -102.485 144.02 -103.05C144.892 -103.614 145.815 -104.121 146.739 -104.686C147.662 -105.25 148.585 -105.757 149.508 -106.378C150.431 -106.942 151.406 -107.506 152.329 -108.127C153.252 -108.691 154.227 -109.311 155.099 -109.876C155.919 -110.327 156.791 -110.835 157.612 -111.229C158.433 -111.624 159.304 -111.963 160.228 -112.301C161.202 -112.583 162.177 -112.753 163.202 -112.809C164.279 -112.753 165.408 -112.583 166.639 -112.358C167.87 -112.019 169.101 -111.568 170.434 -110.947C171.665 -110.045 172.947 -108.916 174.178 -107.45C175.409 -105.757 176.692 -103.783 177.974 -101.414C179.307 -98.593 180.641 -95.6595 181.923 -92.5004C183.154 -88.89 184.334 -85.1668 185.513 -81.3308C186.744 -77.3819 187.873 -73.3202 189.052 -69.2021C190.283 -64.9147 191.463 -60.5709 192.54 -55.9451C193.566 -51.0936 194.745 -46.0164 195.874 -40.6572C197.002 -35.1288 198.079 -29.4311 199.31 -23.677C200.592 -17.6973 201.977 -11.6048 203.465 -5.51222C205.106 0.805991 206.901 7.23703 208.85 13.6681C211.004 20.3247 213.363 27.0378 216.03 33.6945C218.903 40.5205 222.031 47.4028 225.314 54.2851C228.853 61.2239 232.597 68.1062 236.546 74.8757C240.701 81.5888 244.753 88.1891 248.651 94.7894C252.6 101.22 256.703 107.482 260.652 113.688C264.601 119.724 268.602 125.647 272.654 131.176C276.911 136.648 281.271 141.725 285.835 145.899C290.451 149.792 295.067 153.515 299.53 156.787C304.094 159.89 308.454 162.485 312.762 165.079C317.224 167.674 321.84 170.1 326.559 172.47C331.38 174.388 336.304 176.024 341.279 177.547C346.921 178.788 352.358 179.803 357.846 180.649C363.282 181.157 368.616 181.27 373.899 181.27C379.285 181.101 384.413 180.706 389.286 180.085C394.107 179.408 398.826 178.562 403.339 177.603C407.904 176.475 412.417 175.347 416.88 174.162C421.342 172.921 425.753 171.567 430.164 170.213C434.626 168.859 439.293 167.618 443.807 166.433C448.525 165.249 453.193 164.064 457.86 162.879C462.732 161.638 467.554 160.341 472.323 159.156C477.145 157.915 481.915 156.674 486.633 155.377C491.352 154.079 496.07 152.725 500.686 151.315C505.405 149.904 510.072 148.494 514.688 147.14C519.253 145.843 523.664 144.602 527.921 143.417C532.178 142.345 536.384 141.443 540.436 140.709C544.488 140.032 548.437 139.355 552.386 138.791C556.335 138.171 560.233 137.607 564.08 136.986C567.927 136.365 571.722 135.688 575.466 135.012C579.057 134.335 582.493 133.601 585.827 132.868C592.546 131.288 599.008 129.652 605.163 127.96C611.471 126.155 617.37 124.293 622.755 122.375C628.192 120.401 633.321 118.37 637.886 116.339C642.553 114.252 646.861 112.164 650.657 110.134C654.503 107.99 657.888 105.959 660.709 103.985C663.633 101.954 666.146 99.9793 668.249 98.0613C670.454 96.1433 672.198 94.2817 673.532 92.4765C674.916 90.6713 675.788 88.9789 676.147 87.3994C676.558 85.8198 676.506 84.353 676.096 83.0556C675.737 81.7017 674.814 80.5734 673.429 79.6144C672.147 78.599 670.403 77.7528 668.3 76.963C666.197 76.2297 663.581 75.6655 660.555 75.1578C657.581 74.6501 653.734 74.368 649.272 74.3116C644.758 74.1988 639.732 74.1988 634.09 74.368C631.269 74.4244 628.346 74.4244 625.268 74.5373C622.242 74.5937 619.114 74.6501 615.78 74.7065C612.446 74.8194 608.907 74.8758 605.214 74.9886C601.573 75.045 597.777 75.1578 593.879 75.2142C589.981 75.2706 585.981 75.327 581.878 75.3835C577.569 75.4963 573.158 75.5527 568.696 75.6655C564.183 75.7219 559.618 75.8348 554.848 75.9476C550.078 76.004 545.206 76.1732 540.282 76.3424C535.358 76.5681 530.332 76.7938 525.254 77.0758C520.279 77.3579 515.201 77.6964 510.072 78.0913C504.995 78.4862 499.815 78.881 494.378 79.3887C488.941 79.8965 483.402 80.4042 477.811 81.0247C472.221 81.6453 466.63 82.2094 460.937 82.8864C455.244 83.5069 449.551 84.071 443.755 84.7479C438.011 85.2556 432.369 85.6506 426.727 86.0455C421.188 86.3839 415.7 86.6659 410.109 86.7788C404.621 86.8352 399.185 87.0044 393.697 87.2865C388.209 87.5686 382.567 87.8506 376.72 87.907C370.976 87.6814 365.283 87.1737 359.538 86.4403C354.05 84.9172 348.613 82.7735 343.228 79.8965C338.202 76.6245 333.381 73.0141 328.713 68.896C324.2 64.4394 319.943 59.5879 316.199 54.8493C312.403 50.0542 307.941 45.0899 303.684 39.8999C299.683 34.5407 295.785 28.8995 292.093 22.8633C288.656 16.3759 285.476 9.4371 282.707 2.15988C280.501 -5.23017 278.86 -12.6766 277.526 -20.1231C276.295 -27.1747 274.911 -33.4929 273.423 -39.3598C272.09 -45.1139 271.013 -51.2064 270.089 -57.2425C269.269 -63.2787 268.551 -69.4276 267.884 -75.633C267.269 -81.7256 266.448 -87.7054 265.422 -93.5723C264.191 -99.3828 262.652 -105.306 260.909 -111.173C259.165 -116.983 257.472 -122.681 255.78 -128.266C254.241 -133.738 252.702 -139.154 251.369 -144.682C250.24 -150.38 249.317 -156.077 248.445 -161.662C247.727 -167.247 247.214 -172.888 246.804 -178.473C246.548 -184.058 246.291 -189.587 246.035 -195.002C245.83 -200.305 245.624 -205.269 245.471 -210.177C245.265 -214.859 244.752 -218.921 244.24 -222.757C243.727 -226.424 243.162 -229.922 242.444 -233.081C241.726 -236.127 241.008 -238.891 240.239 -241.486C239.367 -243.968 238.393 -246.168 237.367 -248.256C236.187 -250.004 234.956 -251.471 233.674 -252.769C232.443 -253.953 231.212 -255.025 229.981 -255.984C228.699 -256.83 227.468 -257.564 226.134 -258.128C224.801 -258.579 223.467 -258.918 222.083 -259.143C220.698 -259.312 219.313 -259.256 217.928 -259.2C216.595 -259.087 215.21 -258.918 213.774 -258.636C212.389 -258.297 211.004 -257.959 209.619 -257.564C208.234 -257.112 206.85 -256.661 205.465 -256.153C204.08 -255.589 202.695 -255.082 201.31 -254.63C200.028 -254.235 198.9 -254.01 197.874 -254.01C196.951 -254.123 196.028 -254.292 195.207 -254.517C194.386 -254.856 193.566 -255.138 192.745 -255.42C191.976 -255.646 191.258 -255.815 190.488 -255.984C189.77 -256.153 189.052 -256.379 188.283 -256.548C187.514 -256.718 186.796 -256.887 186.077 -257.112C185.411 -257.338 184.744 -257.564 184.077 -257.846C183.462 -258.128 182.795 -258.41 182.179 -258.692C181.564 -258.918 180.949 -259.2 180.282 -259.369C179.666 -259.595 179.051 -259.764 178.435 -259.933C177.82 -260.159 177.204 -260.328 176.589 -260.554C175.922 -260.723 175.204 -260.892 174.486 -261.005C173.768 -261.061 173.05 -261.118 172.332 -261.118C171.614 -261.118 170.896 -261.061 170.178 -261.061C169.408 -261.005 168.69 -260.948 167.921 -260.948C167.152 -260.892 166.382 -260.836 165.613 -260.723C164.844 -260.61 164.074 -260.497 163.254 -260.384C162.433 -260.271 161.612 -260.046 160.792 -259.764C159.971 -259.482 159.099 -259.143 158.279 -258.805C157.407 -258.41 156.535 -258.015 155.663 -257.564C154.791 -257.112 153.919 -256.661 153.047 -256.153C152.175 -255.646 151.303 -255.138 150.431 -254.63C149.559 -254.066 148.688 -253.502 147.816 -252.938C146.944 -252.317 146.02 -251.697 145.149 -251.02C144.277 -250.343 143.405 -249.666 142.533 -248.989C141.661 -248.312 140.789 -247.635 139.917 -246.958C139.045 -246.281 138.173 -245.548 137.301 -244.871C136.429 -244.137 135.557 -243.461 134.737 -242.671C133.865 -241.937 132.942 -241.148 132.019 -240.301C131.095 -239.399 130.172 -238.44 129.249 -237.481C128.326 -236.465 127.402 -235.45 126.479 -234.378C125.556 -233.363 124.633 -232.234 123.761 -231.219C122.838 -230.147 121.966 -229.075 121.043 -228.004C120.119 -226.875 119.247 -225.803 118.324 -224.675C117.452 -223.547 116.529 -222.419 115.657 -221.234C114.785 -220.106 113.913 -218.921 113.041 -217.793C112.17 -216.608 111.298 -215.423 110.426 -214.295C109.554 -213.111 108.733 -211.926 107.861 -210.741C106.989 -209.557 106.169 -208.316 105.348 -207.131C104.527 -205.946 103.707 -204.705 102.886 -203.52C102.065 -202.336 101.194 -201.151 100.373 -199.966C99.5523 -198.782 98.7317 -197.597 97.9624 -196.469C97.1417 -195.341 96.3211 -194.212 95.5004 -193.084C94.6798 -191.956 93.8592 -190.828 93.0899 -189.699C92.2692 -188.515 91.4999 -187.33 90.7306 -186.145C89.9612 -184.961 89.1919 -183.72 88.4225 -182.479C87.6532 -181.237 86.9351 -179.996 86.2171 -178.699C85.499 -177.401 84.781 -176.047 84.0629 -174.75C83.3449 -173.34 82.6781 -171.929 81.9601 -170.463C81.2933 -168.94 80.5753 -167.416 79.9085 -165.837C78.575 -162.621 77.2928 -159.406 76.0618 -156.134C74.8309 -152.806 73.6512 -149.477 72.5228 -146.036C71.3945 -142.595 70.3686 -139.041 69.3429 -135.487C68.3684 -131.876 67.3939 -128.266 66.5219 -124.656C65.65 -121.045 64.8807 -117.435 64.1626 -113.824C63.4446 -110.158 62.8291 -106.547 62.265 -102.937C61.7521 -99.3263 61.2391 -95.7159 60.8801 -92.162C60.5211 -88.608 60.1621 -85.1104 59.9057 -81.782C59.6492 -78.3973 59.4954 -75.1818 59.3928 -72.0227C59.2902 -68.8636 59.2901 -65.7609 59.3414 -62.771C59.3927 -59.7811 59.4953 -56.9605 59.7005 -54.2527C59.9057 -51.5449 60.1108 -48.9499 60.4186 -46.4677C60.7263 -43.9856 61.0853 -41.5599 61.4956 -39.3034C61.9059 -37.0469 62.3675 -34.9596 62.8804 -32.9851C63.1369 -32.0261 63.3933 -31.0671 63.6498 -30.1645C63.9062 -29.2619 64.2139 -28.3593 64.4704 -27.5131C64.7781 -26.6669 65.0346 -25.8771 65.3423 -25.1438C65.6501 -24.4104 65.9578 -23.7335 66.2655 -23.0565C66.5732 -22.3796 66.881 -21.759 67.24 -21.1949C67.599 -20.5743 67.9068 -20.0102 68.2658 -19.5025C68.6248 -18.9948 68.9838 -18.4871 69.3429 -18.0358C69.7019 -17.5845 70.061 -17.1896 70.42 -16.7947C70.779 -16.3999 71.1893 -16.0613 71.5483 -15.7793C71.9586 -15.4408 72.3176 -15.2152 72.6767 -15.046C73.0357 -14.8767 73.446 -14.7075 73.8051 -14.5946C74.2154 -14.4818 74.5744 -14.369 74.9847 -14.3126C75.395 -14.2562 75.7541 -14.2562 76.1644 -14.2562C76.5747 -14.2562 76.985 -14.3125 77.3953 -14.4254C77.8056 -14.5382 78.216 -14.7075 78.6263 -14.8767C79.0366 -15.0459 79.4469 -15.2716 79.8572 -15.4972C80.2675 -15.7229 80.6778 -16.0613 81.0881 -16.3998C81.4985 -16.7383 81.9088 -17.1896 82.3191 -17.6409C82.7294 -18.0922 83.1397 -18.5999 83.5501 -19.1076C83.9604 -19.6718 84.422 -20.2359 84.8323 -20.8564C85.2426 -21.477 85.7042 -22.0975 86.1145 -22.8309C86.5248 -23.5078 86.9864 -24.2412 87.3968 -25.031C87.8584 -25.7643 88.2687 -26.4977 88.7303 -27.2875C89.1919 -28.0772 89.6022 -28.867 90.0638 -29.7132C90.5254 -30.503 90.987 -31.2927 91.4486 -32.1389C91.9102 -32.9851 92.3718 -33.8313 92.8847 -34.7339C93.3463 -35.5801 93.8592 -36.4827 94.3208 -37.3853C94.7824 -38.2879 95.2953 -39.1906 95.7569 -40.1496C96.2698 -40.9958 96.7314 -41.8983 97.2443 -42.8009C97.7572 -43.7035 98.2701 -44.6625 98.783 -45.6216C99.2959 -46.5806 99.8087 -47.5396 100.373 -48.4986C100.886 -49.4576 101.45 -50.4166 101.963 -51.3756C102.527 -52.3346 103.091 -53.3501 103.604 -54.3091C104.168 -55.2681 104.733 -56.2271 105.297 -57.2425C105.861 -58.2016 106.476 -59.217 107.041 -60.2324C107.656 -61.2479 108.22 -62.2633 108.836 -63.2787C109.451 -64.2942 110.067 -65.3095 110.631 -66.325C111.246 -67.284 111.862 -68.2994 112.477 -69.3149C113.144 -70.2739 113.759 -71.2893 114.375 -72.3047C115.042 -73.2638 115.657 -74.2791 116.324 -75.2946C116.991 -76.2536 117.606 -77.2126 118.273 -78.1152C118.94 -78.9614 119.606 -79.864 120.325 -80.8794C121.043 -81.8384 121.709 -82.7974 122.427 -83.8129C123.145 -84.7719 123.915 -85.7309 124.633 -86.6335C125.351 -87.4797 126.069 -88.2695 126.736 -89.0593C127.454 -89.849 128.172 -90.6952 128.89 -91.5414C129.608 -92.3876 130.377 -93.121 131.147 -93.8543C131.916 -94.5313 132.737 -95.2082 133.506 -95.8852C134.327 -96.5057 135.147 -97.1827 135.968 -97.8596C137.353 -98.5366 138.173 -99.1571 138.994 -99.7213Z" stroke="#ECE8DC" stroke-width="3"/>
<path d="M140.892 -84.8281C141.866 -85.6743 142.79 -86.4641 143.764 -87.3103C144.739 -88.1 145.816 -88.8334 146.841 -89.6232C147.919 -90.3565 148.996 -90.9771 150.021 -91.4848C151.047 -91.9361 152.073 -92.331 153.15 -92.7259C154.227 -93.0643 155.304 -93.4028 156.381 -93.7413C157.51 -94.0234 158.689 -94.249 159.766 -94.4746C160.895 -94.6439 161.972 -94.7567 163.151 -94.8696C164.331 -94.8696 165.459 -94.7567 166.639 -94.531C167.819 -94.1361 168.998 -93.572 170.229 -92.8387C171.46 -91.7104 172.743 -90.3565 174.127 -88.6077C175.512 -86.464 176.948 -83.9819 178.231 -81.1049C179.513 -77.6637 180.795 -73.9969 182.077 -70.1608C183.308 -66.2119 184.539 -62.2631 185.821 -58.2578C187.206 -54.0268 188.488 -49.7394 189.719 -45.17C190.95 -39.9801 192.181 -34.4517 193.361 -28.6412C194.592 -22.605 195.874 -16.5688 197.156 -10.4763C198.592 -4.21447 200.131 1.93445 201.824 8.08342C203.721 14.3452 205.722 20.7199 207.927 27.1509C210.389 33.864 213.056 40.6335 216.031 47.6287C219.313 54.8495 222.955 62.1831 226.853 69.4604C231.11 76.9068 235.521 84.0712 239.983 91.292C244.496 98.682 248.959 105.903 253.626 112.954C258.242 119.95 262.755 126.776 267.32 133.037C272.039 139.073 276.86 144.771 281.835 149.905C286.964 154.643 292.042 159.156 297.068 163.162C301.94 166.772 306.71 169.988 311.48 173.147C316.455 176.306 322.097 179.352 327.893 182.003C333.945 184.26 340.202 186.347 346.665 188.209C353.127 189.788 359.487 191.086 365.539 191.763C371.694 192.158 377.797 192.383 383.696 192.383C389.44 192.158 395.031 191.763 400.467 191.199C405.904 190.409 411.136 189.394 416.264 188.322C421.445 187.193 426.522 185.896 431.6 184.598C436.78 183.301 442.063 181.891 447.038 180.537C452.064 179.126 457.142 177.773 462.322 176.419C467.656 175.065 472.888 173.767 478.119 172.357C483.402 170.947 488.736 169.48 494.122 167.957C499.61 166.434 505.046 164.91 510.432 163.444C515.92 161.977 521.356 160.51 526.485 159.156C531.666 157.859 536.692 156.731 541.616 155.772C546.591 154.869 551.463 154.023 556.233 153.233C561.003 152.5 565.773 151.71 570.543 150.977C575.364 150.187 580.134 149.341 584.801 148.438C589.469 147.535 593.982 146.576 598.444 145.561C602.906 144.546 607.369 143.53 611.728 142.458C616.139 141.386 620.499 140.202 624.807 139.074C629.167 137.889 633.372 136.648 637.527 135.407C641.681 134.109 645.631 132.812 649.426 131.514C653.221 130.16 656.965 128.75 660.556 127.396C664.249 125.986 667.839 124.519 671.326 123.052C674.865 121.529 678.251 120.062 681.482 118.539C684.764 117.016 687.944 115.493 691.022 113.914C694.048 112.334 696.971 110.811 699.792 109.175C702.613 107.539 705.331 105.959 707.998 104.323C710.665 102.687 713.23 100.995 715.64 99.359C717.846 97.7795 720 96.1435 722.052 94.564C724.103 92.928 726.052 91.3484 727.95 89.7689C729.848 88.1329 731.592 86.5534 733.284 84.9738C734.977 83.3378 736.618 81.7583 738.105 80.1787C739.644 78.5992 741.029 77.0197 742.311 75.5529C743.542 74.0298 744.722 72.5631 745.799 71.0963C746.876 69.6296 747.902 68.2193 748.825 66.809C749.748 65.3987 750.517 64.0447 751.235 62.7472C751.953 61.3933 752.569 60.1523 753.082 58.9112C753.595 57.6701 753.954 56.4854 754.21 55.4136C754.467 54.2853 754.672 53.2699 754.723 52.2545C754.826 51.2391 754.774 50.3365 754.723 49.4339C754.62 48.5313 754.467 47.7415 754.159 46.9517C753.8 46.2183 753.389 45.485 752.825 44.8645C752.312 44.2439 751.697 43.6234 751.03 43.0592C750.312 42.5515 749.543 42.1567 748.671 41.7618C747.85 41.3669 746.876 40.972 745.901 40.6899C744.875 40.3515 743.798 40.1258 742.567 39.9001C741.388 39.6745 740.106 39.5052 738.721 39.3924C737.336 39.2796 735.797 39.2796 734.207 39.3924C732.566 39.4488 730.873 39.5617 729.13 39.7309C727.386 39.8438 725.539 40.0129 723.59 40.2386C721.641 40.4642 719.641 40.7463 717.436 41.0848C715.281 41.3669 713.025 41.7054 710.665 42.1002C708.152 42.4951 705.485 43.0028 702.716 43.5106C699.946 43.9619 697.074 44.4696 694.15 44.9773C691.124 45.485 687.893 46.1055 684.508 46.726C681.123 47.3466 677.635 47.9671 674.045 48.6441C670.455 49.2646 666.71 49.8852 662.761 50.5621C658.761 51.2391 654.606 51.916 650.349 52.5366C645.938 53.1571 641.322 53.8341 636.604 54.4546C631.782 55.0752 626.705 55.6956 621.473 56.3162C616.088 56.8803 610.549 57.4444 604.804 58.0086C598.957 58.5163 593.059 58.9676 587.007 59.4189C580.903 59.8138 574.595 60.2087 568.184 60.6036C561.824 60.9421 555.361 61.2805 548.847 61.619C542.282 61.9575 535.666 62.296 528.999 62.6908C522.433 63.0857 515.766 63.5934 509.047 64.214C502.277 64.7781 495.404 65.455 488.429 66.1884C481.505 66.9218 474.632 67.7116 467.708 68.5014C460.938 69.2347 454.167 69.9117 447.295 70.5886C440.678 71.0399 434.216 71.2656 427.907 71.3784C421.701 71.322 415.495 71.3219 409.238 71.5476C403.134 72.1117 397.185 72.7323 391.389 73.24C385.799 73.5784 380.259 73.7477 374.618 73.4656C369.078 72.563 363.385 71.2656 357.897 69.4604C352.614 67.2038 347.639 64.4396 342.921 61.2805C338.407 57.8958 333.996 54.0597 329.637 50.0544C324.918 45.6542 319.635 40.69 314.455 35.2179C309.531 29.4638 304.659 23.2584 300.145 16.4889C296.196 8.47832 292.708 -0.209177 290.503 -9.34802C289.221 -18.5997 288.298 -27.9078 286.913 -35.8619C285.425 -42.9699 284.092 -49.9087 282.81 -56.5654C281.476 -62.6015 280.245 -68.7505 279.117 -75.1816C278.142 -81.669 277.065 -88.2128 275.68 -94.531C273.988 -101.018 271.731 -107.619 269.474 -114.219C267.32 -120.594 265.269 -126.799 263.217 -132.835C261.217 -138.646 259.37 -144.456 257.575 -150.041C255.985 -155.908 254.754 -161.888 253.728 -167.811C252.908 -173.904 252.241 -180.335 251.831 -186.766C251.626 -193.197 251.42 -199.571 251.215 -205.72C251.061 -211.587 250.908 -217.228 250.6 -222.362C250.189 -227.157 249.677 -231.557 249.112 -235.732C248.446 -239.511 247.676 -243.009 246.856 -246.168C245.984 -249.102 245.009 -251.753 243.83 -254.179C242.599 -256.266 241.214 -258.015 239.829 -259.481C238.444 -260.835 237.059 -262.02 235.675 -263.036C234.29 -263.995 232.854 -264.784 231.366 -265.461C229.879 -265.969 228.392 -266.364 226.853 -266.589C225.365 -266.702 223.827 -266.759 222.288 -266.646C220.749 -266.477 219.211 -266.251 217.672 -265.969C216.133 -265.574 214.543 -265.123 213.005 -264.615C211.466 -264.107 209.927 -263.543 208.337 -262.979C206.799 -262.415 205.311 -261.794 203.875 -261.287C202.644 -261.061 201.567 -261.174 200.541 -261.343C199.567 -261.569 198.644 -261.907 197.72 -262.076C196.849 -262.246 196.028 -262.471 195.156 -262.697C194.335 -262.923 193.566 -263.148 192.745 -263.374C191.925 -263.6 191.155 -263.825 190.386 -264.107C189.668 -264.446 188.95 -264.784 188.232 -265.066C187.514 -265.405 186.847 -265.687 186.129 -266.025C185.462 -266.307 184.796 -266.646 184.129 -266.984C183.462 -267.323 182.795 -267.605 182.128 -267.887C181.462 -268.225 180.744 -268.508 180.026 -268.733C179.256 -268.959 178.538 -269.128 177.769 -269.297C177 -269.41 176.23 -269.579 175.461 -269.636C174.692 -269.692 173.871 -269.749 173.05 -269.749C172.23 -269.805 171.358 -269.805 170.537 -269.805C169.716 -269.805 168.845 -269.861 167.921 -269.636C166.998 -269.467 166.075 -269.241 165.152 -269.015C164.229 -268.79 163.254 -268.451 162.331 -268.169C161.356 -267.831 160.433 -267.436 159.459 -267.041C158.484 -266.646 157.561 -266.251 156.586 -265.8C155.612 -265.348 154.689 -264.897 153.714 -264.446C152.74 -263.995 151.816 -263.543 150.842 -263.036C149.867 -262.528 148.944 -262.02 147.97 -261.512C146.995 -261.005 146.021 -260.441 145.046 -259.876C144.072 -259.312 143.149 -258.692 142.174 -258.071C141.2 -257.394 140.276 -256.774 139.302 -256.04C138.379 -255.363 137.404 -254.63 136.43 -253.784C135.455 -252.938 134.429 -252.035 133.404 -251.132C132.378 -250.117 131.352 -249.102 130.326 -248.086C129.3 -247.071 128.275 -245.999 127.249 -244.927C126.223 -243.855 125.197 -242.727 124.223 -241.655C123.248 -240.527 122.223 -239.399 121.197 -238.214C120.171 -237.029 119.196 -235.901 118.171 -234.716C117.145 -233.532 116.17 -232.347 115.145 -231.162C114.119 -229.921 113.144 -228.68 112.118 -227.439C111.144 -226.198 110.118 -224.957 109.144 -223.716C108.169 -222.475 107.195 -221.234 106.22 -219.993C105.246 -218.752 104.323 -217.454 103.348 -216.213C102.374 -214.972 101.45 -213.731 100.527 -212.49C99.6039 -211.249 98.6807 -210.008 97.7575 -208.767C96.8856 -207.469 95.9624 -206.228 95.0392 -204.987C94.116 -203.746 93.1927 -202.618 92.2695 -201.377C91.3463 -200.135 90.4231 -198.951 89.5512 -197.71C88.6793 -196.469 87.7561 -195.228 86.8842 -193.93C86.0122 -192.633 85.089 -191.222 84.2171 -189.756C83.3452 -188.176 82.4733 -186.596 81.55 -184.96C80.6781 -183.212 79.8062 -181.463 78.9343 -179.658C78.0624 -177.852 77.2417 -176.047 76.4211 -174.186C75.6005 -172.324 74.7798 -170.406 73.9592 -168.488C73.1386 -166.57 72.3692 -164.596 71.5999 -162.621C70.8306 -160.59 70.0612 -158.616 69.2919 -156.585C68.5738 -154.554 67.8558 -152.523 67.1377 -150.492C66.4197 -148.462 65.7529 -146.374 65.0862 -144.343C64.4194 -142.313 63.8039 -140.225 63.1884 -138.138C62.573 -136.051 61.9575 -133.963 61.3933 -131.876C60.8291 -129.789 60.265 -127.702 59.7521 -125.614C59.2392 -123.527 58.7263 -121.44 58.2647 -119.353C57.8031 -117.265 57.3415 -115.178 56.8799 -113.091C56.4696 -111.004 56.0592 -108.916 55.6489 -106.885C55.2386 -104.798 54.8796 -102.767 54.5206 -100.68C54.1616 -98.5928 53.8538 -96.5619 53.5461 -94.531C53.2383 -92.5002 52.9819 -90.4694 52.7254 -88.4385C52.469 -86.4077 52.2638 -84.3768 52.0074 -82.4023C51.8022 -80.3715 51.5971 -78.3971 51.4432 -76.3662C51.2893 -74.3354 51.1355 -72.3609 51.0329 -70.4429C50.9303 -68.4684 50.8277 -66.5504 50.7764 -64.6324C50.6738 -62.7143 50.6225 -60.7963 50.6225 -58.9347C50.5712 -57.0731 50.5712 -55.2115 50.6225 -53.3498C50.6225 -51.5446 50.6739 -49.7395 50.7252 -47.9342C50.7764 -46.1855 50.879 -44.4367 50.9816 -42.7443C51.0842 -41.0519 51.1867 -39.3031 51.3406 -37.6672C51.4945 -35.9748 51.6483 -34.3388 51.8022 -32.7028C51.9561 -31.0669 52.1612 -29.4873 52.3664 -27.9078C52.5715 -26.3282 52.828 -24.8051 53.0332 -23.282C53.2896 -21.7588 53.5461 -20.2921 53.8025 -18.8254C54.059 -17.3586 54.3667 -15.9483 54.6744 -14.538C54.9821 -13.1841 55.2899 -11.8302 55.5976 -10.4763C55.9054 -9.12237 56.2644 -7.82488 56.6234 -6.52739C56.9825 -5.28631 57.3415 -4.04525 57.7518 -2.80417C58.1621 -1.56309 58.5211 -0.434869 58.9314 0.693383C59.3418 1.82163 59.7521 2.89352 60.2137 3.90894C60.624 4.92437 61.0856 5.93975 61.5472 6.89877C62.0088 7.85778 62.4704 8.8168 62.932 9.7194C63.3936 10.622 63.8552 11.4118 64.3681 12.2016C64.8297 12.9349 65.2913 13.6683 65.7529 14.3453C66.2145 15.0222 66.7274 15.6427 67.189 16.2068C67.6506 16.771 68.1635 17.2787 68.6764 17.73C69.138 18.1813 69.6509 18.5762 70.1638 18.9147C70.6254 19.2532 71.1383 19.5916 71.6512 19.8173C72.1641 20.0429 72.677 20.2686 73.1386 20.3814C73.6002 20.4942 74.1131 20.6071 74.5747 20.6071C75.0363 20.6071 75.5492 20.6071 76.0621 20.5507C76.575 20.4942 77.0366 20.3814 77.5495 20.2121C78.0111 20.0429 78.524 19.8737 79.0369 19.648C79.5497 19.4224 80.0114 19.1403 80.5243 18.8583C80.9859 18.5762 81.4988 18.1813 81.9604 17.73C82.422 17.2787 82.8836 16.771 83.3452 16.2632C83.8068 15.7555 84.2684 15.1914 84.73 14.5709C85.1916 13.9503 85.6532 13.2734 86.1148 12.5964C86.5764 11.8631 87.038 11.0733 87.4483 10.2271C87.9099 9.38094 88.3202 8.53476 88.7818 7.63216C89.2434 6.72956 89.7051 5.82696 90.1667 4.81153C90.6283 3.85252 91.0899 2.83708 91.5515 1.76524C92.0131 0.693396 92.526 -0.378415 92.9876 -1.45025C93.4492 -2.57851 93.9621 -3.70676 94.4237 -4.83501C94.8853 -5.96326 95.3982 -7.14797 95.8598 -8.33263C96.3727 -9.5173 96.8343 -10.7019 97.3472 -11.8866C97.8601 -13.0712 98.373 -14.2559 98.8859 -15.497C99.3988 -16.7381 99.9117 -17.9791 100.425 -19.2202C100.937 -20.4613 101.502 -21.7024 102.015 -22.9435C102.579 -24.1846 103.092 -25.3693 103.656 -26.6103C104.22 -27.8514 104.784 -29.0925 105.348 -30.3899C105.913 -31.631 106.477 -32.9285 107.092 -34.1696C107.708 -35.4106 108.272 -36.6518 108.887 -37.9492C109.503 -39.1903 110.118 -40.4878 110.785 -41.7289C111.4 -42.9135 112.067 -44.1546 112.683 -45.3957C113.349 -46.6368 113.965 -47.8214 114.632 -49.0061C115.298 -50.1908 115.965 -51.3755 116.632 -52.5601C117.299 -53.7448 118.017 -54.9295 118.684 -56.2269C119.402 -57.5244 120.12 -58.7655 120.838 -60.1194C121.556 -61.3604 122.274 -62.4887 122.992 -63.6734C123.761 -64.8016 124.531 -65.9863 125.3 -67.2274C126.069 -68.4121 126.839 -69.6531 127.659 -70.8377C128.48 -72.0224 129.249 -73.2071 130.019 -74.279C130.839 -75.1816 131.66 -76.0277 132.532 -76.8739C133.404 -77.7201 134.276 -78.5099 135.147 -79.4125C136.071 -80.2587 136.994 -81.1613 137.917 -82.0075C138.994 -83.0793 139.917 -83.9255 140.892 -84.8281Z" stroke="#ECE8DC" stroke-width="3"/>
<path d="M156.073 -11.9432C157.253 -12.2253 158.484 -12.4509 159.715 -12.5637C160.997 -12.5073 162.331 -12.2817 163.716 -11.9996C165.152 -11.4919 166.588 -10.7585 167.921 -9.74312C169.306 -8.44563 170.742 -6.97889 172.178 -5.28651C173.717 -3.25566 175.204 -0.886328 176.743 1.76506C178.282 4.81134 179.872 8.2525 181.462 11.9757C183.257 16.2631 185.103 21.0018 187.052 26.2481C189.155 31.8894 191.309 37.4742 193.617 43.2283C196.13 49.2081 198.797 55.3006 201.67 61.4496C204.696 67.7678 207.927 73.9732 211.261 80.1222C214.8 86.2711 218.493 92.4201 222.391 98.4563C226.596 104.605 230.956 110.867 235.316 117.185C240.034 123.842 244.753 130.499 249.728 137.212C254.959 143.868 260.037 150.017 265.115 156.054C270.551 162.202 276.347 168.351 282.297 174.218C288.297 179.747 294.298 184.598 300.504 189.45C306.864 194.019 313.583 198.476 320.815 203.045C328.047 207.107 335.176 210.661 342.51 213.933C350.05 217.036 357.435 219.743 364.667 222.113C371.54 223.861 378.362 225.328 385.183 226.513C391.645 227.303 397.851 227.641 404.057 227.81C410.212 227.697 416.316 227.415 422.111 226.964C427.856 226.4 433.6 225.78 439.088 225.046C444.371 224.2 449.5 223.297 454.578 222.338C459.655 221.379 464.682 220.307 469.605 219.236C474.58 218.107 479.453 216.979 484.325 215.907C489.198 214.779 494.019 213.651 498.789 212.466C503.508 211.281 508.124 210.04 512.74 208.799C517.304 207.502 521.818 206.261 526.28 204.963C530.794 203.666 535.461 202.368 540.128 201.127C545.103 199.886 550.181 198.419 555.412 196.896C561.003 195.317 566.594 193.681 572.235 192.045C577.98 190.465 583.827 188.942 589.674 187.363C595.623 185.783 601.522 184.203 607.42 182.624C613.369 181.101 619.37 179.578 625.371 177.998C631.372 176.362 637.168 174.67 642.912 172.921C648.657 171.116 654.35 169.31 659.991 167.449C665.582 165.644 671.173 163.838 676.66 161.92C682.148 159.946 687.534 157.972 692.817 155.941C698.048 153.853 703.075 151.766 708.101 149.622C713.127 147.479 718.051 145.279 722.924 143.079C727.591 140.879 731.95 138.678 736.259 136.478C740.464 134.278 744.568 132.135 748.568 129.878C752.569 127.565 756.467 125.252 760.313 122.883C764.058 120.457 767.699 117.975 771.187 115.38C774.674 112.729 778.06 110.021 781.291 107.313C784.368 104.605 787.394 101.841 790.318 99.0768C793.19 96.2562 796.062 93.4919 798.883 90.6713C801.653 87.7943 804.422 84.9737 807.089 82.0966C809.756 79.1632 812.372 76.2861 814.885 73.3527C817.399 70.4192 819.912 67.4293 822.22 64.4958C824.528 61.5624 826.733 58.6289 828.887 55.6955C830.888 52.8184 832.837 49.9978 834.734 47.1772C836.632 44.3002 838.478 41.4231 840.222 38.6589C841.966 35.8383 843.659 32.9612 845.249 30.197C846.787 27.4328 848.275 24.725 849.711 21.9608C851.147 19.1966 852.532 16.4324 853.814 13.781C854.994 11.186 856.122 8.59097 857.199 6.05241C858.225 3.51384 859.251 0.918875 860.174 -1.61969C861.097 -4.15826 861.969 -6.69684 862.738 -9.17899C863.456 -11.6047 864.123 -14.0304 864.636 -16.3434C865.098 -18.5999 865.559 -20.8564 865.918 -23.0565C866.277 -25.313 866.636 -27.5131 866.893 -29.7132C867.149 -31.9133 867.354 -34.1134 867.56 -36.2006C867.713 -38.3443 867.816 -40.488 867.919 -42.5752C867.97 -44.6625 867.97 -46.7498 867.816 -48.6678C867.611 -50.473 867.354 -52.2782 866.995 -54.027C866.636 -55.7194 866.226 -57.3553 865.713 -58.9349C865.251 -60.5144 864.687 -62.094 864.123 -63.5607C863.508 -65.0275 862.892 -66.4942 862.174 -67.8481C861.456 -69.202 860.687 -70.5559 859.917 -71.8534C859.097 -73.1509 858.276 -74.3919 857.353 -75.5766C856.481 -76.8177 855.507 -78.0024 854.532 -79.1306C853.506 -80.2025 852.429 -81.2743 851.301 -82.2897C850.172 -83.3051 849.044 -84.3205 847.813 -85.2231C846.582 -86.1821 845.3 -86.9719 844.018 -87.6489C842.684 -88.213 841.299 -88.7207 839.863 -89.1156C838.427 -89.5669 836.94 -89.9618 835.452 -90.3003C833.914 -90.5823 832.324 -90.808 830.682 -90.9773C829.041 -91.1465 827.4 -91.3157 825.656 -91.3157C823.912 -91.2593 822.066 -91.09 820.168 -90.8644C818.27 -90.6387 816.321 -90.3567 814.27 -90.0182C812.27 -89.6797 810.269 -89.2849 808.218 -88.4951C806.166 -87.6489 804.012 -86.7463 801.858 -85.7309C799.652 -84.7154 797.344 -83.5872 795.036 -82.4025C792.728 -81.1614 790.266 -79.4691 787.753 -77.6639C785.24 -75.8587 782.727 -73.9406 780.111 -71.8534C777.444 -69.8225 774.674 -67.8481 771.854 -65.8737C768.93 -63.8992 765.853 -61.6991 762.673 -59.4426C759.493 -57.2989 756.313 -55.0988 752.979 -53.0116C749.645 -50.9807 746.209 -49.0627 742.772 -47.2011C739.336 -45.4523 735.848 -43.7599 732.207 -42.0111C728.514 -40.3187 724.77 -38.5135 720.872 -36.4262C716.923 -34.2826 712.922 -32.1389 708.665 -29.8824C704.305 -27.5131 699.741 -25.0309 695.022 -22.5488C690.15 -20.123 685.072 -17.6973 679.687 -15.2151C674.199 -12.7894 668.505 -10.4201 662.556 -8.10714C656.401 -5.96346 649.939 -3.8762 643.22 -1.90175C636.296 -0.0965516 628.756 1.65223 620.909 3.23178C612.959 4.58568 604.804 5.77036 596.444 6.8422C587.879 7.85762 578.903 8.81662 569.568 9.71923C559.977 10.5654 550.232 11.4116 540.333 12.2578C530.588 12.9912 520.895 13.7245 510.996 14.5707C500.943 15.3605 490.993 16.0939 480.735 16.7144C470.888 16.7708 461.143 16.4323 451.654 15.6989C442.73 14.4015 434.164 12.5963 426.061 10.2834C418.419 7.74479 411.135 4.86777 404.211 1.70867C397.595 -1.61968 391.389 -5.28652 385.491 -9.17899C380.003 -13.3535 374.874 -17.8665 370.001 -22.6051C365.488 -27.6823 361.231 -33.0415 357.333 -38.7956C353.743 -45.0574 350.409 -51.7141 347.229 -59.0477C344.459 -66.8327 341.69 -74.8996 338.766 -83.2487C335.432 -91.9362 331.688 -100.624 327.995 -109.255C324.354 -117.886 320.764 -126.348 316.917 -133.907C312.968 -140.733 308.916 -146.939 304.966 -152.862C301.12 -158.616 297.478 -164.088 293.991 -169.447C290.657 -174.637 287.528 -179.658 284.656 -184.679C281.938 -189.756 279.476 -195.51 277.937 -202.9C276.911 -210.854 276.296 -219.147 276.039 -227.665C275.578 -235.337 275.116 -242.501 274.654 -249.215C274.193 -255.589 273.629 -261.4 272.705 -266.251C271.474 -270.426 270.244 -274.544 268.961 -278.211C267.474 -281.257 265.884 -284.021 264.14 -286.39C262.294 -288.365 260.447 -290.114 258.652 -291.411C256.806 -292.483 254.908 -293.386 253.01 -294.119C251.113 -294.796 249.164 -295.247 247.163 -295.586C245.163 -295.755 243.111 -295.755 241.06 -295.642C239.008 -295.473 236.957 -295.134 234.956 -294.796C232.956 -294.345 230.905 -293.893 228.904 -293.329C227.007 -292.709 225.109 -292.088 223.314 -291.524C221.57 -291.129 219.98 -290.847 218.39 -290.621C216.954 -290.509 215.62 -290.509 214.338 -290.565C213.107 -290.678 211.876 -290.847 210.645 -291.016C209.466 -291.242 208.389 -291.524 207.26 -291.806C206.286 -292.257 205.362 -292.821 204.491 -293.329C203.619 -293.893 202.747 -294.457 201.926 -294.965C201.105 -295.529 200.182 -296.15 199.31 -296.827C198.387 -297.56 197.515 -298.35 196.643 -299.083C195.669 -299.704 194.643 -300.212 193.566 -300.663C192.489 -301.058 191.412 -301.453 190.283 -301.678C189.104 -301.848 187.975 -302.017 186.796 -302.13C185.616 -302.242 184.436 -302.299 183.257 -302.355C182.077 -302.355 180.846 -302.299 179.667 -302.299C178.436 -302.242 177.256 -302.242 176.076 -302.186C174.845 -302.13 173.666 -302.073 172.435 -302.073C171.204 -302.017 170.024 -301.96 168.793 -301.848C167.562 -301.735 166.331 -301.565 165.152 -301.396C163.921 -301.227 162.741 -300.945 161.51 -300.663C160.279 -300.324 159.048 -300.099 157.817 -299.76C156.535 -299.309 155.253 -298.858 153.971 -298.35C152.688 -297.842 151.406 -297.278 150.124 -296.714C148.842 -296.093 147.559 -295.36 146.277 -294.627C144.995 -293.837 143.713 -293.047 142.328 -292.145C140.943 -291.242 139.61 -290.339 138.276 -289.38C136.942 -288.478 135.558 -287.519 134.173 -286.503C132.788 -285.488 131.403 -284.416 130.018 -283.288C128.582 -282.16 127.197 -280.975 125.761 -279.734C124.325 -278.493 122.941 -277.252 121.504 -275.898C120.068 -274.544 118.632 -273.134 117.196 -271.723C115.76 -270.256 114.273 -268.79 112.836 -267.267C111.349 -265.687 109.913 -264.108 108.426 -262.472C106.938 -260.836 105.502 -259.2 104.015 -257.62C102.579 -255.984 101.143 -254.348 99.7064 -252.712C98.2703 -251.133 96.8342 -249.497 95.4494 -247.861C94.0646 -246.281 92.6285 -244.758 91.2437 -243.235C89.8076 -241.542 88.3715 -239.794 86.9354 -237.932C85.4993 -236.127 84.0119 -234.322 82.5245 -232.347C81.0371 -230.204 79.5497 -227.947 78.0623 -225.69C76.5749 -223.378 75.1388 -221.008 73.7027 -218.639C72.2666 -216.27 70.8818 -213.9 69.4457 -211.531C68.0609 -209.162 66.6761 -206.736 65.3426 -204.367C64.009 -201.941 62.7268 -199.571 61.4446 -197.146C60.1623 -194.72 58.9314 -192.294 57.7004 -189.868C56.4695 -187.443 55.2898 -185.017 54.1102 -182.535C52.9305 -180.053 51.8022 -177.571 50.6738 -175.088C49.5967 -172.55 48.4683 -170.068 47.4426 -167.529C46.3655 -164.991 45.3397 -162.452 44.3139 -159.857C43.3394 -157.262 42.3136 -154.667 41.3904 -152.072C40.4159 -149.477 39.4927 -146.882 38.6208 -144.287C37.7489 -141.692 36.877 -139.041 36.0563 -136.446C35.2357 -133.794 34.415 -131.199 33.6457 -128.548C32.8764 -125.897 32.1583 -123.302 31.4403 -120.65C30.7222 -117.999 30.0555 -115.347 29.44 -112.753C28.7732 -110.101 28.2091 -107.45 27.5936 -104.798C27.0294 -102.147 26.4652 -99.4956 25.9523 -96.8442C25.4394 -94.1928 24.9778 -91.5413 24.5162 -88.8899C24.0546 -86.2386 23.6443 -83.5872 23.2853 -80.9358C22.9262 -78.2844 22.5672 -75.633 22.2595 -72.9816C21.9517 -70.3302 21.644 -67.6789 21.3875 -65.0275C21.1311 -62.3761 20.926 -59.7247 20.7208 -57.0733C20.5669 -54.4219 20.4131 -51.7705 20.2592 -49.1191C20.1566 -46.4677 20.054 -43.8163 20.0027 -41.2213C19.9514 -38.5699 19.9515 -35.975 19.9515 -33.38C19.9515 -30.785 20.0027 -28.2464 20.1053 -25.7078C20.2079 -23.1693 20.3105 -20.6872 20.4644 -18.205C20.6182 -15.7793 20.8234 -13.2971 21.0285 -10.8714C21.2337 -8.44563 21.4901 -6.01986 21.7466 -3.65053C22.003 -1.2812 22.3107 1.08811 22.6185 3.45744C22.9262 5.77036 23.2852 8.13971 23.6955 10.3962C24.1059 12.7091 24.5162 14.9656 24.9265 17.2221C25.3368 19.4786 25.8498 21.7352 26.3114 23.9352C26.8242 26.1353 27.3371 28.3354 27.9013 30.5355C28.4655 32.7356 29.0297 34.8793 29.6452 37.0229C30.2606 39.1666 30.8761 41.3103 31.5428 43.3976C32.2096 45.4849 32.8764 47.5721 33.5944 49.603C34.3125 51.6338 35.0305 53.6083 35.7485 55.5827C36.4666 57.5571 37.236 59.4751 38.0053 61.3368C38.7746 63.1984 39.5953 65.0036 40.3646 66.7523C41.1852 68.5575 42.0059 70.3064 42.8778 71.9987C43.6984 73.6347 44.5191 75.2707 45.391 76.7938C46.2629 78.3734 47.1348 79.8965 48.0067 81.4196C48.8786 82.9428 49.8019 84.4095 50.7251 85.8198C51.6483 87.2301 52.5715 88.6405 53.546 90.0508C54.5205 91.4047 55.495 92.7586 56.4695 94.1125C57.444 95.4099 58.4698 96.7074 59.4956 98.0049C60.5213 99.246 61.5471 100.487 62.5729 101.672C63.5987 102.856 64.6245 104.041 65.7016 105.169C66.7273 106.298 67.8045 107.369 68.8815 108.441C69.9586 109.513 71.0356 110.529 72.1127 111.488C73.1898 112.447 74.2669 113.349 75.344 114.139C76.3698 114.872 77.3956 115.549 78.4213 116.17C79.4471 116.79 80.5242 117.411 81.55 118.031C82.6271 118.652 83.7042 119.216 84.7812 119.78C85.8583 120.344 86.9866 120.908 88.0637 121.416C89.1408 121.867 90.2179 122.262 91.2437 122.488C92.2695 122.77 93.3465 122.939 94.3723 123.052C95.3468 123.109 96.3213 123.109 97.2958 122.996C98.2703 122.827 99.1935 122.657 100.117 122.319C100.989 121.98 101.861 121.529 102.733 120.965C103.553 120.401 104.425 119.837 105.246 119.16C106.066 118.539 106.887 117.806 107.656 117.016C108.426 116.226 109.246 115.436 110.016 114.59C110.734 113.688 111.349 112.559 111.913 111.262C112.477 110.021 112.99 108.554 113.503 107.087C114.016 105.564 114.478 104.098 114.939 102.462C115.401 100.882 115.863 99.1896 116.273 97.4972C116.734 95.8612 117.145 94.1125 117.606 92.3073C118.068 90.5585 118.478 88.7533 118.889 86.8917C119.35 85.0865 119.761 83.2248 120.222 81.3632C120.684 79.5016 121.094 77.5272 121.556 75.6092C122.017 73.6911 122.479 71.7167 122.94 69.6858C123.351 67.7114 123.812 65.6805 124.223 63.6497C124.684 61.6752 125.146 59.6444 125.608 57.6699C126.12 55.6955 126.582 53.6647 127.044 51.6902C127.557 49.7722 128.018 47.9106 128.531 45.9926C129.044 44.1309 129.557 42.1 130.07 39.9564C130.583 37.8127 131.147 35.5562 131.66 33.2433C132.224 30.9868 132.839 28.6739 133.455 26.3045C134.122 24.048 134.788 21.7916 135.455 19.4222C136.173 17.1657 136.891 14.9092 137.661 12.7091C138.43 10.6219 139.199 8.47815 140.02 6.33447C140.84 4.36003 141.712 2.3292 142.584 0.29835C143.559 -1.33762 144.636 -2.63512 145.662 -3.8762C146.739 -5.06086 147.816 -6.24555 148.944 -7.43022C150.073 -8.44564 151.304 -9.2918 152.483 -10.0816C153.612 -10.8714 154.843 -11.4919 156.073 -11.9432Z" stroke="#ECE8DC" stroke-width="3"/>
<path d="M169.768 52.0287C170.486 52.4236 171.255 52.8185 171.973 53.3262C172.742 53.8904 173.563 54.5108 174.384 55.1878C175.255 55.9776 176.127 56.8238 176.999 57.67C177.923 58.629 178.846 59.588 179.769 60.6599C180.743 61.7881 181.769 63.0856 182.744 64.4395C183.77 65.9062 184.847 67.4293 185.924 69.0089C187.052 70.7013 188.18 72.3937 189.36 74.1989C190.591 76.0605 191.822 77.9785 193.104 79.9529C194.386 82.0402 195.771 84.1275 197.105 86.2712C198.541 88.4713 199.977 90.7277 201.464 92.9842C203.003 95.3536 204.593 97.6101 206.183 99.923C207.876 102.349 209.517 104.775 211.261 107.2C213.056 109.682 214.902 112.221 216.749 114.76C218.646 117.355 220.595 119.837 222.544 122.262C226.647 127.34 230.802 132.586 235.11 138.002C239.624 143.586 244.24 149.228 249.01 154.812C253.985 160.454 259.114 165.982 264.396 171.68C269.884 177.547 275.629 183.301 281.373 188.716C287.22 193.85 293.221 198.758 299.324 203.553C305.428 208.122 311.736 212.579 318.25 216.979C324.969 221.266 331.585 225.159 338.202 228.713C345.023 232.154 351.947 235.37 358.769 238.303C365.488 240.842 371.899 242.872 378.105 244.452C384.054 245.524 390.055 246.37 395.902 246.934C401.647 247.273 407.494 247.555 413.136 247.611C418.88 247.668 424.522 247.555 429.753 247.16C434.882 246.709 440.114 246.201 445.191 245.58C450.166 244.847 455.193 244.114 460.168 243.324C465.194 242.478 470.272 241.575 475.35 240.616C480.478 239.657 485.556 238.642 490.48 237.57C495.352 236.498 500.225 235.37 505.046 234.298C509.867 233.17 514.688 232.098 519.305 230.969C523.818 229.841 528.28 228.657 532.691 227.472C537.102 226.287 541.513 225.103 545.975 223.918C550.283 222.62 554.899 220.984 559.823 219.066C565.003 217.036 570.389 215.005 575.979 212.917C581.826 210.774 587.776 208.686 593.777 206.543C599.778 204.456 605.778 202.481 611.728 200.507C617.729 198.589 623.678 196.614 629.731 194.64C635.885 192.609 642.091 190.578 648.246 188.434C654.349 186.347 660.453 184.316 666.454 182.285C672.608 180.142 678.814 178.054 684.918 175.854C690.97 173.654 696.817 171.398 702.51 169.141C708.152 166.885 713.589 164.741 718.871 162.654C724.052 160.567 728.975 158.536 733.848 156.392C738.72 154.248 743.439 152.048 748.106 149.848C752.774 147.592 757.338 145.279 761.801 142.909C766.263 140.484 770.622 138.002 774.828 135.407C778.931 132.699 782.727 129.822 786.368 126.945C789.959 124.011 793.497 120.965 796.934 117.975C800.37 114.929 803.704 111.883 806.987 108.836C810.218 105.734 813.346 102.687 816.373 99.6409C819.399 96.5383 822.373 93.4355 825.297 90.3893C828.22 87.2302 831.041 84.1275 833.708 81.0248C836.273 77.9785 838.786 74.9887 841.197 71.9424C843.607 68.8961 846.018 65.7934 848.326 62.7471C850.634 59.6444 852.891 56.5417 855.096 53.439C857.301 50.3363 859.456 47.1772 861.558 44.0745C863.661 40.9719 865.662 37.8691 867.611 34.8229C869.508 31.7766 871.355 28.7867 873.15 25.7969C874.945 22.7506 876.586 19.8171 878.074 16.9965C879.561 14.1759 880.946 11.3552 882.279 8.53462C883.613 5.71399 884.946 2.89337 886.177 0.0163281C887.408 -2.8043 888.588 -5.68133 889.716 -8.50196C890.742 -11.2662 891.665 -13.974 892.589 -16.6254C893.46 -19.3332 894.281 -22.041 895.05 -24.7488C895.82 -27.4566 896.538 -30.1644 897.205 -32.8722C897.871 -35.58 898.487 -38.2878 899 -40.9392C899.513 -43.5906 899.974 -46.242 900.282 -48.7806C900.538 -51.2627 900.692 -53.6885 900.795 -56.1142C900.897 -58.5964 901 -61.0221 901 -63.4479C901 -65.8736 900.949 -68.2994 900.897 -70.6687C900.795 -73.0944 900.641 -75.4073 900.436 -77.7767C900.231 -80.146 899.974 -82.4589 899.666 -84.7154C899.359 -87.0284 899 -89.2848 898.589 -91.5413C898.128 -93.7414 897.615 -95.9415 896.999 -98.0288C896.384 -100.116 895.717 -102.203 894.999 -104.234C894.281 -106.265 893.512 -108.296 892.742 -110.327C891.922 -112.301 891.101 -114.163 890.178 -116.024C889.255 -117.773 888.332 -119.522 887.357 -121.158C886.383 -122.794 885.357 -124.43 884.28 -126.009C883.203 -127.589 882.074 -129.112 880.946 -130.522C879.766 -131.989 878.587 -133.399 877.356 -134.81C876.125 -136.22 874.791 -137.518 873.304 -138.646C871.816 -139.774 870.329 -140.902 868.739 -141.974C867.149 -143.046 865.559 -144.061 863.867 -145.02C862.225 -146.036 860.481 -146.995 858.738 -147.898C856.994 -148.8 855.147 -149.703 853.25 -150.493C851.403 -151.282 849.454 -151.903 847.454 -152.523C845.454 -153.031 843.402 -153.482 841.299 -153.877C839.196 -154.329 836.991 -154.554 834.734 -154.723C832.477 -154.893 830.169 -154.893 827.861 -154.893C825.502 -154.949 823.143 -154.949 820.681 -154.893C818.27 -154.893 815.757 -154.723 813.193 -154.498C810.628 -154.272 807.961 -153.934 805.345 -153.313C802.73 -152.693 800.114 -152.016 797.395 -151.169C794.677 -150.38 791.908 -149.59 789.292 -148.236C786.625 -146.826 783.958 -144.908 781.342 -142.425C778.675 -139.83 775.957 -137.236 772.982 -134.359C770.007 -131.425 766.93 -128.266 763.75 -125.107C760.467 -122.23 757.082 -119.24 753.646 -116.25C750.158 -113.542 746.619 -110.778 742.977 -107.957C739.285 -105.306 735.54 -102.655 731.796 -100.003C728.001 -97.3518 724.154 -94.362 720.205 -90.9208C716.256 -87.3668 712.101 -83.7 707.793 -80.0896C703.074 -76.9869 698.099 -73.997 692.97 -71.12C687.79 -68.3557 682.456 -65.5915 676.968 -62.9401C671.48 -60.4016 665.838 -57.863 659.94 -55.268C653.837 -52.6166 647.528 -49.9652 640.963 -47.3703C634.193 -44.9445 626.961 -42.688 619.268 -40.0366C611.215 -37.2724 602.598 -34.621 593.264 -32.1952C583.057 -30.3336 572.081 -29.149 560.592 -28.2464C548.847 -27.513 536.948 -26.7233 524.946 -25.8771C513.252 -25.0309 501.969 -24.2975 491.044 -23.7334C480.786 -23.4513 471.554 -24.2411 463.604 -27.4566C456.68 -32.3645 450.628 -38.175 445.089 -44.4932C439.806 -50.8114 434.574 -57.1297 429.292 -63.6735C424.111 -70.443 418.47 -77.1561 412.776 -84.0948C407.083 -91.09 401.39 -98.198 395.646 -105.419C390.055 -112.752 384.465 -120.199 378.926 -127.702C373.54 -135.374 368.309 -143.159 363.18 -151.113C358.205 -159.124 353.281 -167.191 348.306 -174.919C343.485 -182.027 338.766 -188.909 333.996 -195.115C329.329 -200.925 324.918 -206.51 320.712 -212.039C316.712 -217.398 313.07 -222.644 309.685 -227.778C306.556 -233.024 304.3 -238.609 302.351 -244.476C300.863 -250.399 299.53 -256.266 298.196 -261.964C297.016 -267.436 295.837 -272.851 294.811 -278.775C294.298 -281.652 293.837 -284.416 293.324 -287.237C292.759 -289.775 292.041 -292.145 291.323 -294.401C290.554 -296.545 289.631 -298.463 288.605 -300.324C287.579 -302.13 286.605 -303.878 285.681 -305.345C284.707 -306.699 283.732 -307.884 282.707 -308.899C281.681 -309.858 280.655 -310.704 279.578 -311.438C278.501 -312.115 277.475 -312.735 276.398 -313.356C275.321 -313.863 274.244 -314.371 273.167 -314.822C272.09 -315.274 270.961 -315.669 269.884 -316.007C268.756 -316.289 267.576 -316.515 266.448 -316.74C265.268 -316.91 264.14 -317.022 262.909 -317.079C261.729 -317.135 260.55 -317.192 259.421 -317.135C258.242 -317.022 257.113 -316.853 255.934 -316.684C254.754 -316.458 253.626 -316.233 252.395 -316.007C251.215 -315.781 250.035 -315.499 248.856 -315.161C247.727 -314.879 246.599 -314.597 245.471 -314.315C244.342 -314.033 243.265 -313.807 242.239 -313.525C241.162 -313.243 240.085 -313.017 239.059 -312.735C238.034 -312.509 237.059 -312.284 236.085 -312.002C235.11 -311.776 234.187 -311.607 233.264 -311.438C232.341 -311.268 231.469 -311.156 230.597 -310.986C229.725 -310.873 228.853 -310.761 228.032 -310.704C227.212 -310.648 226.391 -310.648 225.622 -310.648C224.852 -310.648 224.134 -310.704 223.365 -310.761C222.647 -310.873 221.929 -310.93 221.262 -311.043C220.595 -311.156 219.929 -311.325 219.262 -311.438C218.646 -311.607 217.98 -311.776 217.467 -312.058C216.902 -312.397 216.39 -312.735 215.825 -313.074C214.748 -313.807 213.62 -314.653 212.594 -315.556C211.517 -316.458 210.44 -317.305 209.363 -318.151C208.235 -318.884 206.952 -319.392 205.619 -319.674C204.337 -320.012 203.054 -320.351 201.772 -320.689C200.49 -321.028 199.156 -321.423 197.823 -321.874C196.489 -322.325 195.207 -322.664 193.874 -323.002C192.54 -323.341 191.206 -323.623 189.873 -323.848C188.539 -324.074 187.155 -324.243 185.821 -324.413C184.488 -324.582 183.103 -324.638 181.718 -324.751C180.384 -324.807 179 -324.92 177.615 -324.977C176.23 -325.033 174.845 -324.977 173.46 -324.92C172.076 -324.807 170.639 -324.582 169.203 -324.243C167.767 -323.961 166.331 -323.623 164.946 -323.284C163.51 -322.946 162.074 -322.494 160.689 -322.043C159.253 -321.592 157.766 -321.141 156.33 -320.576C154.842 -319.9 153.304 -319.223 151.816 -318.433C150.329 -317.643 148.79 -316.797 147.149 -315.838C145.508 -314.879 143.969 -313.863 142.328 -312.848C140.686 -311.776 138.994 -310.648 137.353 -309.463C135.711 -308.279 134.019 -306.981 132.326 -305.684C130.634 -304.33 128.941 -302.976 127.249 -301.565C125.505 -300.042 123.812 -298.519 122.068 -296.996C120.325 -295.473 118.632 -293.95 116.888 -292.37C115.144 -290.791 113.452 -289.211 111.759 -287.631C110.067 -286.052 108.323 -284.416 106.63 -282.836C104.938 -281.2 103.245 -279.564 101.553 -277.929C99.8601 -276.293 98.1676 -274.487 96.3724 -272.456C94.5773 -270.256 92.7309 -267.944 90.8844 -265.518C89.038 -263.036 87.1916 -260.553 85.3452 -258.071C83.4988 -255.646 81.7036 -253.22 79.8572 -250.794C78.0621 -248.312 76.267 -245.83 74.5232 -243.348C72.7793 -240.865 71.0355 -238.327 69.3942 -235.845C67.7017 -233.306 66.0604 -230.768 64.3679 -228.173C62.7266 -225.634 61.1366 -223.039 59.5466 -220.501C57.9567 -217.962 56.4693 -215.367 54.9306 -212.828C53.4432 -210.233 51.9558 -207.638 50.4685 -205.043C49.0324 -202.448 47.5962 -199.853 46.2114 -197.202C44.8266 -194.551 43.4931 -191.956 42.1595 -189.304C40.826 -186.653 39.5438 -184.002 38.2616 -181.35C36.9793 -178.699 35.7484 -176.047 34.5687 -173.34C33.3891 -170.688 32.2094 -168.037 31.081 -165.329C29.9527 -162.678 28.8243 -159.97 27.7472 -157.262C26.6702 -154.554 25.6444 -151.903 24.6186 -149.251C23.5928 -146.6 22.6183 -143.949 21.6951 -141.297C20.7719 -138.646 19.8487 -136.051 18.9768 -133.456C18.1048 -130.861 17.2842 -128.266 16.4636 -125.671C15.6429 -123.132 14.8736 -120.537 14.1556 -117.942C13.4375 -115.347 12.7195 -112.752 12.0014 -110.158C11.3347 -107.563 10.6679 -104.968 10.0524 -102.316C9.43693 -99.7212 8.87274 -97.0698 8.30856 -94.4184C7.74437 -91.767 7.28277 -89.1156 6.76987 -86.4642C6.30827 -83.8128 5.84668 -81.1614 5.43636 -78.5101C5.02605 -75.8587 4.66704 -73.2072 4.3593 -70.4994C4.00027 -67.7916 3.7438 -65.1403 3.43607 -62.4325C3.17962 -59.7247 2.9745 -57.0732 2.76934 -54.3654C2.56418 -51.6576 2.4103 -48.9498 2.30772 -46.242C2.20515 -43.5342 2.10257 -40.8264 2.05128 -38.1186C1.99999 -35.4108 2 -32.703 2 -29.9952C2.05129 -27.2874 2.10259 -24.636 2.20517 -21.9282C2.30775 -19.2768 2.46158 -16.6254 2.61545 -13.9176C2.76932 -11.2662 2.97451 -8.61484 3.23096 -6.01986C3.48741 -3.36847 3.74384 -0.773476 4.05158 1.8215C4.35931 4.41648 4.71834 7.0115 5.07736 9.55007C5.43639 12.0886 5.84672 14.6836 6.30832 17.2222C6.76992 19.7607 7.23149 22.2993 7.74439 24.8379C8.25728 27.3764 8.8215 29.8585 9.38568 32.3407C9.94987 34.8229 10.5653 37.3051 11.1808 39.7308C11.8476 42.213 12.5143 44.6387 13.181 47.0644C13.8991 49.4902 14.6172 51.9159 15.3865 54.2852C16.1559 56.711 16.9252 59.0803 17.7458 61.4497C18.5664 63.819 19.4384 66.1883 20.3103 68.5012C21.1822 70.8141 22.1054 73.127 23.0799 75.4399C24.0544 77.7528 25.0289 80.0093 26.0034 82.2658C27.0292 84.5223 28.055 86.7789 29.1321 88.979C30.2092 91.2355 31.2862 93.4356 32.4146 95.6357C33.5429 97.8358 34.7226 99.9794 35.9023 102.18C37.0819 104.323 38.3128 106.467 39.5438 108.554C40.7747 110.641 42.057 112.672 43.3392 114.76C44.6215 116.79 45.955 118.821 47.2885 120.796C48.622 122.77 49.9555 124.688 51.3403 126.606C52.6739 128.411 54.0074 130.104 55.3409 131.683C56.6745 133.263 58.008 134.786 59.3415 136.196C60.675 137.607 62.0085 138.904 63.3421 140.258C64.7269 141.612 66.1117 142.909 67.4965 144.15C68.9326 145.392 70.3175 146.576 71.7023 147.704C73.0871 148.833 74.5231 149.961 75.9592 151.033C77.3953 152.161 78.8315 153.177 80.2676 154.248C81.755 155.264 83.191 156.279 84.6784 157.295C86.1658 158.254 87.6019 159.156 89.0893 160.059C90.5767 160.961 92.0641 161.864 93.5515 162.654C95.0389 163.444 96.5263 164.121 97.8598 164.572C99.1934 165.023 100.578 165.418 101.912 165.813C103.296 166.208 104.681 166.603 106.066 166.941C107.451 167.28 108.836 167.562 110.118 167.618C111.451 167.731 112.734 167.731 114.016 167.675C115.247 167.562 116.478 167.449 117.76 167.28C118.991 167.11 120.171 166.603 121.197 165.926C122.274 165.305 123.299 164.628 124.325 163.895C125.3 163.105 126.325 162.315 127.3 161.469C128.274 160.623 129.249 159.777 130.223 158.874C131.147 158.028 132.019 157.125 132.89 156.223C133.762 155.32 134.634 154.361 135.404 153.12C136.07 151.823 136.686 150.356 137.25 148.776C137.814 147.197 138.378 145.617 138.891 144.038C139.404 142.458 139.917 140.709 140.379 138.904C140.84 137.155 141.251 135.294 141.661 133.376C142.123 131.514 142.533 129.652 142.892 127.847C143.302 126.042 143.661 124.18 143.969 122.262C144.328 120.401 144.636 118.426 144.995 116.395C145.354 114.421 145.713 112.334 146.072 110.247C146.482 108.159 146.841 105.959 147.2 103.59C147.611 101.333 147.97 99.0768 148.431 96.8767C148.841 94.5638 149.252 92.1945 149.662 89.8251C150.175 87.6251 150.637 85.3685 151.098 83.0556C151.355 81.871 151.611 80.6863 151.868 79.5017C152.175 78.317 152.432 77.1887 152.739 76.0041C152.996 74.763 153.304 73.5783 153.611 72.3936C153.919 71.2654 154.227 70.0807 154.586 68.9525C154.945 67.8242 155.304 66.696 155.612 65.6241C155.919 64.5523 156.278 63.4805 156.637 62.4086C156.996 61.3368 157.355 60.3214 157.715 59.3059C158.125 58.3469 158.484 57.3879 158.894 56.4853C159.356 55.8648 159.869 55.3007 160.382 54.6801C160.894 54.116 161.407 53.6083 161.972 53.1006C162.536 52.6493 163.1 52.198 163.715 51.8595C164.331 51.5774 164.895 51.4082 165.562 51.1825C166.177 51.0133 166.844 51.0133 167.511 51.1825C168.331 51.4646 169.049 51.7466 169.768 52.0287Z" stroke="#ECE8DC" stroke-width="3"/>
</g>
</svg>
