<svg width="169" height="64" viewBox="0 0 169 64" fill="none" xmlns="http://www.w3.org/2000/svg">
<path d="M3.64193 59.9785V64.0001H2.396V54.8887H6.06991C8.01868 54.8887 9.04099 55.8941 9.04099 57.3393C9.04099 58.5333 8.33815 59.2559 7.44363 59.4758C8.21036 59.6643 8.88125 60.2299 8.88125 61.8008V62.2092C8.88125 62.8376 8.8493 63.6231 9.00904 64.0001H7.79505C7.63531 63.5917 7.63531 62.9005 7.63531 62.0522V61.8636C7.63531 60.5755 7.25195 60.0099 5.5907 60.0099L3.64193 59.9785ZM3.64193 58.9417H5.68655C7.12416 58.9417 7.7631 58.4076 7.7631 57.4022C7.7631 56.4282 7.12416 55.8941 5.84628 55.8941H3.67388V58.9417H3.64193Z" fill="#DCBA62"/>
<path d="M40.6048 59.7272H35.9405V62.9633H41.084L40.9243 64.0001H34.7266V54.8887H40.8284V55.9255H35.9405V58.7218H40.6048V59.7272Z" fill="#DCBA62"/>
<path d="M67.8877 61.2352L66.8973 63.9686H65.6514L69.0058 54.8572H70.5393L74.0215 63.9686H72.7117L71.6574 61.2352H67.8877ZM71.3379 60.2298C70.4434 57.842 69.9323 56.5538 69.7406 55.8626C69.517 56.648 68.9739 58.1876 68.2391 60.2298H71.3379Z" fill="#DCBA62"/>
<path d="M99.0999 54.8572H100.346V62.9632H105.234L105.074 64H99.0999V54.8572Z" fill="#DCBA62"/>
<path d="M130.727 55.894H127.692V54.8572H135.008V55.894H131.973V63.9686H130.727V55.894Z" fill="#DCBA62"/>
<path d="M162.802 63.9686V60.6382C162.802 60.544 162.77 60.4497 162.738 60.3869L159.448 54.8572H160.853C161.716 56.3339 163.058 58.6903 163.505 59.5071C163.92 58.7217 165.326 56.3339 166.189 54.8572H167.53L164.112 60.4183C164.08 60.4811 164.048 60.5125 164.048 60.6382V63.9686H162.802Z" fill="#DCBA62"/>
<path d="M51.9459 6.78645L51.3708 6.8807C47.9844 7.41482 45.3648 10.054 44.9495 13.3844L44.9175 13.6357L44.8856 13.4786C44.5022 10.1168 41.8825 7.44624 38.4323 6.91212L37.8892 6.81787C41.595 6.50368 44.5341 3.70741 44.8856 0.125673V0L44.9175 0.18851C45.3648 3.70741 48.272 6.47226 51.9459 6.78645Z" fill="#DCBA62"/>
<path d="M20.8614 23.1871C22.2671 22.5273 23.4172 21.5533 24.3756 20.2651C25.4299 18.8199 25.973 17.2175 25.973 15.5523C25.973 13.353 25.0785 11.3736 23.3533 9.6456C21.6282 7.91757 19.5516 7.03784 17.1875 7.03784H0V8.07466L0.159735 8.10608C1.66125 8.51452 2.39603 9.61418 2.39603 11.4365V39.7448C2.39603 41.5985 1.66125 42.6667 0.159735 43.0752L0 43.1694V44.2062H17.9543C20.7975 43.9863 23.2575 42.7924 25.3021 40.6245C27.3467 38.4566 28.369 36.0373 28.369 33.3668C28.369 31.0732 27.6023 28.9367 26.0688 26.9887C24.6951 25.2293 22.938 23.9411 20.8614 23.1871ZM22.4588 36.6343C22.1393 37.6711 21.5962 38.6765 20.9253 39.6191C20.2544 40.5302 19.296 41.2843 18.114 41.8498C16.9319 42.4154 15.5263 42.6981 13.9928 42.6981H6.96446V26.8317C6.96446 26.0462 7.22004 25.4178 7.79508 24.8837C8.33818 24.3496 9.00908 24.0982 9.77581 24.0982H13.9928C15.2388 24.0982 16.3888 24.2867 17.4112 24.6638C18.4335 25.0408 19.296 25.5121 19.9669 26.1404C20.6378 26.7374 21.2129 27.46 21.6601 28.2769C22.1393 29.0938 22.4588 29.9421 22.6505 30.7904C22.8422 31.6387 22.938 32.5184 22.938 33.3982C22.938 34.4664 22.7783 35.5661 22.4588 36.6343ZM20.2864 13.0388C20.51 13.8243 20.6378 14.6726 20.6378 15.5523C20.6378 16.432 20.51 17.2804 20.2864 18.0658C20.0628 18.8513 19.6794 19.5739 19.2002 20.2651C18.721 20.9563 18.0182 21.4905 17.1236 21.8989C16.2291 22.3074 15.1749 22.5273 13.9609 22.5273H9.74386C8.97713 22.5273 8.33819 22.2759 7.76314 21.7418C7.18809 21.2077 6.93251 20.5793 6.93251 19.8253V8.57736H13.9609C15.1749 8.57736 16.2291 8.79729 17.1236 9.20573C18.0182 9.61418 18.721 10.1483 19.2002 10.8395C19.6794 11.4993 20.0628 12.2534 20.2864 13.0388Z" fill="#DCBA62"/>
<path d="M44.9177 17.5317C41.1479 17.5317 37.8893 18.8513 35.2058 21.4277C32.5541 24.004 31.1804 27.2087 31.1804 30.8533C31.1804 34.5293 32.5222 37.7026 35.2058 40.2789C37.8574 42.8552 41.1479 44.1748 44.9177 44.1748C48.6874 44.1748 51.946 42.8552 54.6296 40.2789C57.2812 37.7026 58.6549 34.4979 58.6549 30.8533C58.6549 27.1773 57.3131 24.004 54.6296 21.4277C51.946 18.8513 48.6874 17.5317 44.9177 17.5317ZM49.2625 41.3157C46.4831 43.4208 43.3523 43.4208 40.5409 41.3157C39.1352 40.2475 37.9532 38.7708 37.0587 36.9171C36.1642 35.0634 35.7169 33.0212 35.7169 30.8847C35.7169 28.7482 36.1642 26.706 37.0587 24.8523C37.9532 22.9986 39.1033 21.5219 40.5409 20.4537C43.3523 18.3486 46.4831 18.3486 49.2625 20.4537C50.6681 21.5219 51.8182 22.9986 52.7127 24.8523C53.6073 26.706 54.0545 28.7482 54.0545 30.8847C54.0545 33.0212 53.6073 35.0634 52.7127 36.9171C51.8502 38.7708 50.6681 40.2475 49.2625 41.3157Z" fill="#DCBA62"/>
<path d="M86.8003 39.7762V29.3452C86.8003 25.732 85.778 22.8101 83.7334 20.705C81.6887 18.6 78.9093 17.5317 75.523 17.5317C71.4657 17.5317 68.4627 19.1027 66.5458 22.2131V17.5317H65.5874L59.8689 20.8935V22.056L60.2523 21.8047C60.6995 21.4905 61.0829 21.3648 61.4024 21.3648C61.8177 21.3648 62.2969 21.4905 62.2969 22.5273V44.2063H68.9419V43.1694L68.7821 43.138C67.3126 42.7296 66.5778 41.6299 66.5778 39.8076V25.2293C66.9931 23.3128 67.9835 21.7419 69.5169 20.5794C71.0504 19.4169 72.9353 18.8199 75.1396 18.8199C76.3216 18.8199 77.3759 19.0084 78.2704 19.3854C79.1649 19.7625 79.8997 20.2652 80.4109 20.8621C80.954 21.4905 81.3693 22.276 81.6887 23.1871C82.0082 24.1297 82.2318 25.1037 82.3596 26.0776C82.4874 27.0516 82.5513 28.1513 82.5513 29.3766V39.7762C82.5513 39.8705 82.4555 42.164 83.7014 43.4208C84.2126 43.9549 84.9154 44.2063 85.7141 44.2063H89.2282V43.1694L89.0685 43.138C87.5351 42.6982 86.8003 41.6299 86.8003 39.7762Z" fill="#DCBA62"/>
<path d="M115.297 17.5317L109.61 20.8935V22.0875L109.994 21.8047C110.728 21.2706 111.367 21.2077 111.719 21.679C111.879 21.8989 111.974 22.2131 111.974 22.5902V36.5401C111.208 38.6766 110.121 40.3103 108.748 41.3472C107.374 42.384 105.553 42.9495 103.381 42.9495C102.199 42.9495 101.144 42.761 100.25 42.384C99.3553 42.0069 98.6525 41.5042 98.1094 40.9073C97.5663 40.2789 97.1509 39.4934 96.7995 38.5823C96.4481 37.6397 96.2245 36.6658 96.1286 35.6918C96.0008 34.7178 95.9689 33.6181 95.9689 32.3928V17.6574H89.26V18.7571H89.5156C90.2823 18.7571 91.3046 19.2912 91.5283 20.0767C91.7519 20.8621 91.7199 21.7419 91.688 22.276C91.688 22.4016 91.688 22.5273 91.688 22.6216V32.4242C91.688 36.0374 92.7103 38.9593 94.7549 41.0644C96.7995 43.1694 99.5789 44.2377 102.965 44.2377C106.991 44.2377 110.026 42.6667 111.942 39.5563V42.6353C111.942 43.2323 112.07 43.6407 112.358 43.8921C112.613 44.112 113.029 44.2377 113.572 44.2377H116.223L116.191 17.5632L115.297 17.5317Z" fill="#DCBA62"/>
<path d="M168.808 43.1066C167.339 42.6982 166.604 41.5985 166.604 39.7762V29.3452C166.604 25.7635 165.55 22.8415 163.505 20.7365C161.429 18.6 158.777 17.5317 155.614 17.5317C154.304 17.5317 153.09 17.7203 151.94 18.0659C150.79 18.4115 149.8 18.9142 148.969 19.5111C148.139 20.1081 147.436 20.7679 146.829 21.4277C146.35 21.9618 145.902 22.5587 145.519 23.1871C144.688 21.4905 143.411 20.1081 141.781 19.1341C140.024 18.0973 137.916 17.5317 135.552 17.5317C131.494 17.5317 128.491 19.1027 126.574 22.2131V17.5317H125.616L119.897 20.8935V22.056L120.281 21.8047C120.728 21.4905 121.111 21.3648 121.431 21.3648C121.846 21.3648 122.325 21.4905 122.325 22.5273V39.7762C122.325 41.6299 121.591 42.6982 120.089 43.1066L119.929 43.138V44.1748H129.002V43.138L128.843 43.1066C127.373 42.6982 126.638 41.5985 126.638 39.7762V25.1979C127.405 23.0614 128.491 21.4277 129.865 20.3908C131.239 19.354 133.028 18.7885 135.232 18.7885C136.414 18.7885 137.468 18.977 138.363 19.354C139.257 19.7311 139.992 20.2338 140.503 20.8307C141.046 21.4591 141.462 22.2445 141.781 23.1557C142.101 24.0983 142.324 25.0722 142.452 26.0462C142.58 27.0202 142.644 28.1199 142.644 29.3452V39.7448C142.644 41.5671 141.941 42.6667 140.439 43.0752L140.28 43.1066V44.1434H149.353V43.1066L149.193 43.0752C147.691 42.6667 146.957 41.5985 146.957 39.7448V29.3452C146.957 27.5543 146.701 25.9205 146.158 24.4753C147.084 22.8101 148.33 21.4277 149.864 20.3908C151.397 19.3226 153.218 18.7885 155.231 18.7885C160.087 18.7885 162.451 22.2446 162.451 29.3452V39.7448C162.451 41.5985 161.716 42.6667 160.215 43.0752L160.055 43.1066V44.1434H169V43.1066H168.808Z" fill="#DCBA62"/>
</svg>
