<svg width="0" height="0" class="hidden">
    <symbol xmlns="http://www.w3.org/2000/svg" viewBox="0 0 34 34" id="wa">
        <path fill-rule="evenodd" clip-rule="evenodd"
              d="M15.1071 0.542349C12.8818 0.868523 11.2815 1.36676 9.43861 2.30718C4.95344 4.59569 1.83607 8.71568 0.736479 13.8083C0.420336 15.2721 0.421369 18.7071 0.738417 20.1876C2.22934 27.1513 7.63504 32.2946 14.5809 33.358C16.1255 33.5945 18.8768 33.5271 20.2749 33.2185C25.3018 32.1091 29.4037 28.9855 31.6733 24.5387C32.8621 22.2096 33.3688 20.2754 33.4829 17.6313C33.6033 14.8383 33.09 12.3803 31.8535 9.82855C29.5898 5.15748 25.4508 1.90737 20.3395 0.787399C19.4017 0.581878 15.9425 0.419889 15.1071 0.542349ZM19.0778 8.59258C23.7294 9.78205 26.5628 14.4985 25.387 19.095C24.0025 24.5077 17.8849 27.2798 13.0223 24.6982L12.1892 24.2559L10.6162 24.754C9.75114 25.028 9.02157 25.2304 8.99495 25.2038C8.96834 25.1772 9.16743 24.4843 9.43745 23.664L9.9284 22.1725L9.38293 21.1489C6.28093 15.328 10.3709 8.38977 16.9275 8.35011C17.6868 8.34546 18.4468 8.43123 19.0778 8.59258ZM12.9301 12.8574L12.1356 13.6256L12.1398 14.3936C12.1547 17.0482 16.6138 21.6164 19.4401 21.8727L20.1935 21.941L20.9803 21.1906C21.4132 20.7779 21.7996 20.3113 21.8391 20.1539C21.944 19.7357 21.6294 19.2251 20.75 18.3866C19.8018 17.4823 19.3862 17.4112 18.8633 18.0636C18.6783 18.2945 18.4674 18.5562 18.3945 18.6449C18.0189 19.1033 16.6748 18.5599 15.8916 17.6332C14.9699 16.5427 14.895 15.6643 15.6885 15.254C16.1591 15.0106 16.3984 14.5575 16.2882 14.1184C16.1678 13.6386 14.465 12.0892 14.0583 12.0892C13.8262 12.0892 13.4831 12.3228 12.9301 12.8574Z"></path>
    </symbol>
    <symbol xmlns="http://www.w3.org/2000/svg" viewBox="0 0 34 34" id="phone">
        <path fill-rule="evenodd" clip-rule="evenodd"
              d="M14.4192 0.681621C12.7131 0.971232 11.3894 1.39675 9.82462 2.15856C6.37446 3.83833 3.82616 6.39248 2.16115 9.83957C1.01866 12.2051 0.5 14.4394 0.5 16.996C0.5 19.5526 1.01866 21.787 2.16115 24.1525C3.83132 27.6103 6.38722 30.1673 9.84356 31.8382C12.2081 32.9811 14.4415 33.5 16.997 33.5C19.5525 33.5 21.786 32.9811 24.1505 31.8382C27.6068 30.1673 30.1627 27.6103 31.8329 24.1525C33.6385 20.4141 33.9788 16.4559 32.847 12.354C32.2162 10.0678 30.4668 7.1276 28.6641 5.32404C26.8613 3.52061 23.9223 1.77043 21.6371 1.13938C19.3314 0.502645 16.5227 0.324572 14.4192 0.681621ZM13.1664 7.97064C13.4515 8.195 13.5057 8.3616 13.5756 9.22786C13.6848 10.5819 14.0976 12.4 14.486 13.2372C14.8356 13.991 14.8845 14.4964 14.6391 14.8188C14.5519 14.9334 14.1043 15.2159 13.6443 15.4466C13.1844 15.6773 12.787 15.885 12.7613 15.9084C12.625 16.0315 14.1038 17.9798 15.0587 18.9351C16.0137 19.8905 17.9611 21.3699 18.0842 21.2336C18.1075 21.2078 18.3152 20.8102 18.5458 20.3502C19.2041 19.0366 19.3966 18.9719 20.8862 19.5624C21.9901 20.0002 23.3616 20.3027 24.7619 20.4176C26.2475 20.5395 26.2772 20.5949 26.2772 23.2612C26.2772 24.5504 26.2207 25.4891 26.1315 25.685C25.875 26.2482 25.3914 26.3466 23.7081 26.1782C19.46 25.7534 15.8238 24.0508 12.8845 21.1103C9.94526 18.1697 8.24338 14.532 7.81869 10.2821C7.65332 8.62813 7.74921 8.11893 8.2738 7.86529C8.43337 7.78805 9.47919 7.72564 10.6962 7.72074C12.6522 7.71275 12.8662 7.73441 13.1664 7.97064Z"></path>
    </symbol>
    <symbol xmlns="http://www.w3.org/2000/svg" viewBox="0 0 34 34" id="telegram">
        <path fill-rule="evenodd" clip-rule="evenodd"
              d="M14.4007 0.633112C7.38185 1.89408 2.22562 6.84957 0.746332 13.7561C0.417889 15.2895 0.417889 18.6825 0.746332 20.2159C2.25598 27.2646 7.76043 32.3923 14.904 33.4048C16.2404 33.5942 18.9975 33.4888 20.3442 33.1968C27.2794 31.6932 32.4002 26.1529 33.4048 19.0667C33.5942 17.7304 33.4888 14.9735 33.1968 13.6269C31.7927 7.15164 26.8414 2.19963 20.3442 0.772517C19.0263 0.482985 15.6737 0.404433 14.4007 0.633112ZM24.8664 10.6553C25.0086 10.7975 25.1251 11.0735 25.1255 11.269C25.1263 11.7021 22.4555 24.3959 22.2552 24.9102C22.066 25.3965 21.5916 25.5741 21.1158 25.3368C20.9166 25.2373 19.8835 24.5096 18.8201 23.7195C17.7567 22.9295 16.8399 22.2831 16.7826 22.2831C16.7254 22.2831 16.1736 22.7773 15.5564 23.3813C13.9923 24.9116 13.9641 24.8995 14.0798 22.7402C14.1311 21.7835 14.2096 20.8343 14.2546 20.6307C14.3155 20.3542 15.3103 19.3808 18.18 16.7899C20.2942 14.8811 22.0239 13.2655 22.0239 13.1998C22.0239 12.8907 21.1076 13.404 16.6798 16.193L11.917 19.193L9.76726 18.53C6.54989 17.5381 6.44627 17.2576 8.94021 16.2904C19.2276 12.3007 24.1951 10.4065 24.3819 10.4021C24.5062 10.3993 24.7243 10.5132 24.8664 10.6553Z"></path>
    </symbol>
    <symbol xmlns="http://www.w3.org/2000/svg" viewBox="0 0 6 10" id="arrow">
        <path fill-rule="evenodd" clip-rule="evenodd"
              d="M5.47125 0.119186C5.91478 0.307321 6.13013 0.866213 5.91727 1.2764C5.86512 1.37673 5.0082 2.25776 4.01291 3.23411L2.20318 5.00936L4.01291 6.78461C5.0082 7.76104 5.86512 8.64198 5.91727 8.74232C6.23073 9.3464 5.59361 10.1289 4.90794 9.98199C4.57195 9.90997 0.0336489 5.45773 0.00958871 5.17644C-0.0369048 4.63317 -0.00119949 4.58831 2.21431 2.41206C4.22346 0.438398 4.75578 -0.00913296 5.08304 0.000140113C5.14657 0.00197802 5.32124 0.0555279 5.47125 0.119186Z"></path>
    </symbol>
    <symbol xmlns="http://www.w3.org/2000/svg" viewBox="0 0 33 33" id="tg">
        <path fill-rule="evenodd" clip-rule="evenodd"
              d="M13.9007 0.133112C6.88185 1.39408 1.72562 6.34957 0.246332 13.2561C-0.0821106 14.7895 -0.0821106 18.1825 0.246332 19.7159C1.75598 26.7646 7.26043 31.8923 14.404 32.9048C15.7404 33.0942 18.4975 32.9888 19.8442 32.6968C26.7794 31.1932 31.9002 25.6529 32.9048 18.5667C33.0942 17.2304 32.9888 14.4735 32.6968 13.1269C31.2927 6.65164 26.3414 1.69963 19.8442 0.272517C18.5263 -0.0170147 15.1737 -0.095567 13.9007 0.133112ZM24.3664 10.1553C24.5086 10.2975 24.6251 10.5735 24.6255 10.769C24.6263 11.2021 21.9555 23.8959 21.7552 24.4102C21.566 24.8965 21.0916 25.0741 20.6158 24.8368C20.4166 24.7373 19.3835 24.0096 18.3201 23.2195C17.2567 22.4295 16.3399 21.7831 16.2826 21.7831C16.2254 21.7831 15.6736 22.2773 15.0564 22.8813C13.4923 24.4116 13.4641 24.3995 13.5798 22.2402C13.6311 21.2835 13.7096 20.3343 13.7546 20.1307C13.8155 19.8542 14.8103 18.8808 17.68 16.2899C19.7942 14.3811 21.5239 12.7655 21.5239 12.6998C21.5239 12.3907 20.6076 12.904 16.1798 15.693L11.417 18.693L9.26726 18.03C6.04989 17.0381 5.94627 16.7576 8.44021 15.7904C18.7276 11.8007 23.6951 9.9065 23.8819 9.90211C24.0062 9.89927 24.2243 10.0132 24.3664 10.1553Z"
              ></path>
    </symbol>
    <symbol xmlns="http://www.w3.org/2000/svg" viewBox="0 0 33 33" id="wa">
        <path fill-rule="evenodd" clip-rule="evenodd"
              d="M14.6071 0.0423493C12.3818 0.368523 10.7815 0.866762 8.93861 1.80718C4.45344 4.09569 1.33607 8.21568 0.236479 13.3083C-0.0796642 14.7721 -0.0786307 18.2071 0.238417 19.6876C1.72934 26.6513 7.13504 31.7946 14.0809 32.858C15.6255 33.0945 18.3768 33.0271 19.7749 32.7185C24.8018 31.6091 28.9037 28.4855 31.1733 24.0387C32.3621 21.7096 32.8688 19.7754 32.9829 17.1313C33.1033 14.3383 32.59 11.8803 31.3535 9.32855C29.0898 4.65748 24.9508 1.40737 19.8395 0.287399C18.9017 0.0818776 15.4425 -0.0801112 14.6071 0.0423493ZM18.5778 8.09258C23.2294 9.28205 26.0628 13.9985 24.887 18.595C23.5025 24.0077 17.3849 26.7798 12.5223 24.1982L11.6892 23.7559L10.1162 24.254C9.25114 24.528 8.52157 24.7304 8.49495 24.7038C8.46834 24.6772 8.66743 23.9843 8.93745 23.164L9.4284 21.6725L8.88293 20.6489C5.78093 14.828 9.87089 7.88977 16.4275 7.85011C17.1868 7.84546 17.9468 7.93123 18.5778 8.09258ZM12.4301 12.3574L11.6356 13.1256L11.6398 13.8936C11.6547 16.5482 16.1138 21.1164 18.9401 21.3727L19.6935 21.441L20.4803 20.6906C20.9132 20.2779 21.2996 19.8113 21.3391 19.6539C21.444 19.2357 21.1294 18.7251 20.25 17.8866C19.3018 16.9823 18.8862 16.9112 18.3633 17.5636C18.1783 17.7945 17.9674 18.0562 17.8945 18.1449C17.5189 18.6033 16.1748 18.0599 15.3916 17.1332C14.4699 16.0427 14.395 15.1643 15.1885 14.754C15.6591 14.5106 15.8984 14.0575 15.7882 13.6184C15.6678 13.1386 13.965 11.5892 13.5583 11.5892C13.3262 11.5892 12.9831 11.8228 12.4301 12.3574Z"
              ></path>
    </symbol>
    <symbol xmlns="http://www.w3.org/2000/svg" viewBox="0 0 20 20" id="close">
        <path fill-rule="evenodd" clip-rule="evenodd" d="M11.708 0.111385C16.0681 0.940383 19.2922 4.29715 19.9302 8.67184C20.0731 9.65176 19.9887 11.3625 19.7496 12.3336C18.8318 16.0612 16.0384 18.8505 12.2677 19.8047C11.5982 19.9741 11.2455 20.0038 9.95796 19.9996C8.61383 19.9951 8.33861 19.9677 7.57398 19.762C3.53955 18.6769 0.674047 15.466 0.0751488 11.3596C-0.0804754 10.2925 0.012487 8.65965 0.290394 7.5807C1.22047 3.9695 3.96209 1.22 7.57398 0.27593C8.66809 -0.009962 10.6538 -0.0890081 11.708 0.111385ZM6.46781 6.47164C6.32559 6.61414 6.24836 6.7932 6.24836 6.98042C6.24836 7.23288 6.41945 7.44206 7.60911 8.64379L8.96986 10.0184L7.60911 11.3849C6.38468 12.6144 6.24836 12.782 6.24836 13.0581C6.24836 13.478 6.54191 13.7798 6.95023 13.7798C7.23431 13.7798 7.39011 13.6536 8.63296 12.4169L10.0027 11.0539L11.3723 12.4169C12.5407 13.5795 12.7823 13.7798 13.0161 13.7798C13.3728 13.7798 13.6528 13.5397 13.7235 13.1732C13.7768 12.8965 13.7283 12.8267 12.8522 11.9179C12.3419 11.3886 11.725 10.7442 11.4811 10.4859L11.0379 10.0163L12.3527 8.68735C13.5673 7.4598 13.6676 7.33335 13.6676 7.02908C13.6676 6.59379 13.4157 6.34124 12.9815 6.34124C12.6781 6.34124 12.552 6.4417 11.329 7.65814L10.005 8.97503L8.62894 7.61332C7.4382 6.43498 7.21482 6.25162 6.97008 6.25162C6.78889 6.25162 6.60824 6.33075 6.46781 6.47164Z" ></path>
    </symbol>
    <symbol xmlns="http://www.w3.org/2000/svg" viewBox="0 0 40 40" id="phone">
        <path fill-rule="evenodd" clip-rule="evenodd" d="M16.8717 0.220147C14.8037 0.571191 13.1992 1.08697 11.3026 2.01038C7.12056 4.04646 4.03171 7.1424 2.01351 11.3207C0.628675 14.188 0 16.8963 0 19.9952C0 23.0941 0.628675 25.8024 2.01351 28.6697C4.03796 32.861 7.13603 35.9603 11.3255 37.9856C14.1916 39.3711 16.8988 40 19.9964 40C23.094 40 25.8012 39.3711 28.6672 37.9856C32.8567 35.9603 35.9548 32.861 37.9792 28.6697C40.1679 24.1383 40.5803 19.3405 39.2085 14.3685C38.4439 11.5973 36.3233 8.03345 34.1383 5.84732C31.9531 3.66134 28.3907 1.53992 25.6207 0.775002C22.8259 0.00320606 19.4214 -0.21264 16.8717 0.220147ZM15.3532 9.05532C15.6988 9.32728 15.7645 9.52921 15.8492 10.5792C15.9815 12.2205 16.482 14.4243 16.9527 15.439C17.3765 16.3527 17.4357 16.9654 17.1383 17.3561C17.0327 17.4951 16.4901 17.8375 15.9325 18.1171C15.3751 18.3967 14.8934 18.6485 14.8621 18.6768C14.697 18.8261 16.4894 21.1876 17.647 22.3456C18.8045 23.5036 21.165 25.2968 21.3142 25.1316C21.3425 25.1003 21.5942 24.6185 21.8737 24.0608C22.6717 22.4686 22.9049 22.3901 24.7105 23.106C26.0486 23.6366 27.7111 24.0033 29.4084 24.1425C31.2091 24.2902 31.245 24.3575 31.245 27.5894C31.245 29.152 31.1766 30.2899 31.0685 30.5273C30.7576 31.21 30.1714 31.3293 28.131 31.1251C22.9818 30.6101 18.5744 28.5464 15.0115 24.9822C11.4488 21.4178 9.38592 17.0085 8.87113 11.8571C8.67069 9.85228 8.78693 9.23506 9.42279 8.92763C9.6162 8.834 10.8839 8.75836 12.359 8.75242C14.73 8.74273 14.9893 8.76898 15.3532 9.05532Z"></path>
    </symbol>
</svg>