<svg width="15" height="12" viewBox="0 0 15 12" fill="none" xmlns="http://www.w3.org/2000/svg">
<path fill-rule="evenodd" clip-rule="evenodd" d="M9.15061 0.141902C8.90803 0.351518 8.81948 0.703459 8.93552 0.996978C8.98844 1.13086 9.80242 2.07891 10.8293 3.20266L12.6302 5.17353L6.50556 5.20872L0.380848 5.24392L0.193948 5.4738C-0.0646494 5.79175 -0.0646494 6.17424 0.193948 6.49218L0.380912 6.72207L6.51869 6.74072L12.6565 6.75937L10.7891 8.81717C9.57298 10.1572 8.90656 10.9425 8.87843 11.0685C8.75823 11.6062 9.19616 12.092 9.70471 11.9851C9.79672 11.9658 10.8597 10.8492 12.4278 9.12456L15 6.29573V5.98194V5.66822L12.4202 2.83411C9.86182 0.0235805 9.83817 0 9.57759 0C9.41113 0 9.2546 0.0520168 9.15061 0.141902Z" fill="#DCBA62"/>
</svg>
