<svg width="15" height="13" viewBox="0 0 15 13" fill="none" xmlns="http://www.w3.org/2000/svg">
<path fill-rule="evenodd" clip-rule="evenodd" d="M9.15061 0.641902C8.90803 0.851518 8.81948 1.20346 8.93552 1.49698C8.98844 1.63086 9.80242 2.57891 10.8293 3.70266L12.6302 5.67353L6.50556 5.70872L0.380848 5.74392L0.193948 5.9738C-0.0646494 6.29175 -0.0646494 6.67424 0.193948 6.99218L0.380912 7.22207L6.51869 7.24072L12.6565 7.25937L10.7891 9.31717C9.57298 10.6572 8.90656 11.4425 8.87843 11.5685C8.75823 12.1062 9.19616 12.592 9.70471 12.4851C9.79672 12.4658 10.8597 11.3492 12.4278 9.62456L15 6.79573V6.48194V6.16822L12.4202 3.33411C9.86182 0.523581 9.83817 0.5 9.57759 0.5C9.41113 0.5 9.2546 0.552017 9.15061 0.641902Z" fill="white"/>
</svg>
