<svg width="33" height="33" viewBox="0 0 33 33" fill="none" xmlns="http://www.w3.org/2000/svg">
<g clip-path="url(#clip0_136_4403)">
<path fill-rule="evenodd" clip-rule="evenodd" d="M16.5 33C25.6127 33 33 25.6127 33 16.5C33 7.3873 25.6127 0 16.5 0C7.3873 0 0 7.3873 0 16.5C0 25.6127 7.3873 33 16.5 33ZM11.0472 13.9867C12.3876 13.1742 14.0787 12.3611 14.9224 12.1235C15.6939 11.9062 18.6377 11.9869 20.5598 12.2779C23.1206 12.6657 24.0026 12.8954 25.5706 13.5828C27.0346 14.2245 27.8252 14.5109 28.5027 14.645C28.9605 14.7357 29.2574 15.0706 29.5801 15.8606C30.0955 17.1219 30.1473 19.2487 29.6752 19.7679C29.4386 20.0281 28.8279 20.3451 28.3789 20.4407L28.0485 20.5111L28.0451 19.5505C28.0426 18.8338 27.9902 18.4927 27.8386 18.2066C26.6922 16.0419 24.0864 15.5266 22.3351 17.1184C21.5134 17.8652 21.2249 18.5393 21.2243 19.7126L21.2239 20.6162H16.3179H11.4119L11.4549 19.8587C11.538 18.3969 10.8472 17.1922 9.56608 16.565C8.24773 15.9196 6.79557 16.1278 5.70563 17.1184C4.88396 17.8652 4.59542 18.5393 4.59487 19.7126C4.59443 20.5596 4.57978 20.6162 4.36129 20.6162C4.01758 20.6162 3.43224 20.1779 3.19084 19.74C2.87896 19.1741 2.96089 17.8099 3.3524 17.0497C3.86395 16.0562 4.28673 15.7814 5.91542 15.3835C7.42397 15.0151 9.10949 14.7019 9.58381 14.7019C9.73975 14.7019 10.3982 14.38 11.0472 13.9867ZM16.8429 14.8573C17.0733 14.8107 17.0907 14.7497 17.0907 13.9879V13.1685L16.2372 13.1812C15.7679 13.1883 15.2846 13.2167 15.1635 13.2445C14.6718 13.3576 11.7983 14.8221 11.8633 14.9267C11.93 15.0343 16.2664 14.9738 16.8429 14.8573ZM23.3428 13.9831C23.2771 13.9178 21.0955 13.5088 20.2294 13.3994C18.6581 13.201 18.3319 13.1754 18.2614 13.2456C18.2232 13.2835 18.192 13.6523 18.192 14.0651V14.8157L20.2019 14.7538C22.9393 14.6693 23.0872 14.6473 23.2464 14.3C23.3179 14.1441 23.3612 14.0015 23.3428 13.9831ZM6.7611 21.5587C5.09144 20.4351 5.53691 17.8803 7.48982 17.3796C8.80432 17.0425 10.0879 17.8282 10.3859 19.1524C10.5728 19.9831 10.3685 20.6309 9.71464 21.2812C8.86126 22.1299 7.76327 22.2331 6.7611 21.5587ZM22.953 18.1557C23.3196 17.7134 23.7922 17.4351 24.3592 17.3278C25.211 17.1665 26.1773 17.5644 26.7082 18.2951C26.9938 18.6883 27.0575 18.8891 27.0901 19.4999C27.1402 20.4346 26.8386 21.0609 26.0988 21.5587C25.1474 22.1989 24.0814 22.129 23.214 21.3697C22.2305 20.5088 22.121 19.1596 22.953 18.1557Z" fill="#DCBA62"/>
</g>
<defs>
<clipPath id="clip0_136_4403">
<rect width="33" height="33" fill="white"/>
</clipPath>
</defs>
</svg>
