<svg width="9" height="7" viewBox="0 0 9 7" fill="none" xmlns="http://www.w3.org/2000/svg">
<path fill-rule="evenodd" clip-rule="evenodd" d="M8.27253 0.0767227C8.21174 0.119636 7.03413 1.4271 5.65564 2.98215C4.27715 4.5372 3.1368 5.80952 3.12154 5.80952C3.1063 5.80952 2.56855 5.25761 1.92655 4.58303C1.12346 3.73923 0.720486 3.34055 0.634924 3.3053C0.467001 3.23613 0.299114 3.27224 0.146214 3.41042C0.0489366 3.49829 0.0185748 3.55616 0.00436142 3.68049C-0.00700229 3.77978 0.00415032 3.87206 0.0341955 3.92809C0.118526 4.08521 2.84413 6.92868 2.95308 6.97319C3.08428 7.02675 3.32003 6.99653 3.41534 6.91393C3.45573 6.87893 4.72065 5.46302 6.22629 3.7675C9.1627 0.460759 9.0561 0.595259 8.96881 0.307943C8.88497 0.0320051 8.51149 -0.0920177 8.27253 0.0767227Z" fill="white"/>
</svg>
