<svg width="14" height="15" viewBox="0 0 14 15" fill="none" xmlns="http://www.w3.org/2000/svg">
<path fill-rule="evenodd" clip-rule="evenodd" d="M3.12014 0.113453C2.84653 0.292731 2.79475 0.502745 2.79475 1.4332V2.24959L2.17711 2.2684C1.61145 2.28569 1.52982 2.30236 1.20722 2.46661C0.7591 2.69481 0.414217 3.06552 0.201904 3.54719C0.0490962 3.89394 0.0335894 3.98168 0.0175043 4.58969L0 5.25358H7H14L13.9825 4.58969C13.9664 3.98168 13.9509 3.89394 13.7981 3.54719C13.5858 3.06552 13.2409 2.69481 12.7928 2.46661C12.4702 2.30236 12.3885 2.28569 11.8229 2.2684L11.2052 2.24959V1.4332C11.2052 0.850565 11.1836 0.56111 11.1296 0.422174C10.9316 -0.0871823 10.2073 -0.147356 9.91203 0.320981C9.82677 0.456244 9.80968 0.608515 9.79449 1.36913L9.77672 2.25902H7H4.22328L4.20551 1.36913C4.19032 0.608515 4.17323 0.456244 4.08797 0.320981C3.88276 -0.00440827 3.44362 -0.0985953 3.12014 0.113453ZM0.0207109 10.0703L0.0350612 13.3615L0.201904 13.7401C0.414217 14.2218 0.7591 14.5925 1.20722 14.8207L1.55946 15H7H12.4405L12.7928 14.8207C13.2409 14.5925 13.5858 14.2218 13.7981 13.7401L13.9649 13.3615L13.9793 10.0703L13.9937 6.7791H7H0.00630781L0.0207109 10.0703Z" fill="#DCBA62"/>
</svg>
