<svg width="18" height="18" viewBox="0 0 18 18" fill="none" xmlns="http://www.w3.org/2000/svg">
<path fill-rule="evenodd" clip-rule="evenodd" d="M7.6867 0.0479034C5.78389 0.346891 4.10997 1.18112 2.71544 2.52544C1.44573 3.74948 0.684065 5.06849 0.19396 6.89194C0.0186267 7.54444 0 7.74771 0 9.00707C0 10.2664 0.0186267 10.4697 0.19396 11.1222C0.684065 12.9457 1.44573 14.2647 2.71544 15.4887C4.00009 16.7271 5.43443 17.4823 7.30323 17.9043C7.59892 17.971 8.213 18.004 9.07541 17.9996C10.2388 17.9935 10.4807 17.9699 11.118 17.8002C12.9382 17.3152 14.2637 16.5522 15.4903 15.2833C16.6716 14.061 17.338 12.8636 17.8062 11.1214C17.9814 10.4699 18 10.2661 18 9.00707C18 7.74771 17.9814 7.54444 17.806 6.89194C17.3159 5.06849 16.5543 3.74948 15.2846 2.52544C14.0549 1.3401 12.8307 0.662674 11.1171 0.219313C10.5458 0.0715514 10.1591 0.0268161 9.26394 0.00512627C8.64179 -0.00993609 7.93201 0.00934379 7.6867 0.0479034ZM13.5059 5.36424C13.5992 5.38924 13.6744 5.43112 13.6729 5.4574C13.6715 5.48361 12.6512 6.29306 11.4057 7.25607C9.70978 8.5674 9.08906 9.00707 8.93386 9.00707C8.77859 9.00707 8.18773 8.58872 6.58206 7.34178C5.40261 6.42591 4.38907 5.63062 4.32972 5.57459C4.23704 5.48692 4.2476 5.4623 4.40513 5.39949C4.60452 5.31988 13.2156 5.28659 13.5059 5.36424ZM5.71957 7.34735C6.42467 7.89705 7.01017 8.3685 7.02058 8.39501C7.03106 8.42152 6.32686 9.15438 5.45578 10.0236L3.87197 11.604V8.75531V5.90664L4.15476 6.12722C4.31034 6.24863 5.01446 6.79765 5.71957 7.34735ZM14.128 8.83694V11.7547L12.4732 10.1033C11.563 9.19505 10.8343 8.42604 10.8539 8.39449C10.918 8.29071 13.9894 5.91929 14.0596 5.91929C14.0994 5.91929 14.128 7.13874 14.128 8.83694ZM8.01806 9.13096C8.3774 9.40969 8.54383 9.48794 8.83666 9.51603C9.2475 9.55549 9.37156 9.50511 9.96701 9.05693L10.3684 8.75478L12.183 10.567L13.9976 12.3792L13.7834 12.5195C13.5814 12.6517 13.3124 12.6608 9.07881 12.6794C4.91695 12.6976 4.56938 12.6893 4.32897 12.5664C4.18621 12.4934 4.05763 12.3957 4.04308 12.3493C4.0151 12.2599 7.3852 8.78114 7.49982 8.78114C7.53678 8.78114 7.76995 8.93854 8.01806 9.13096Z" fill="white"/>
</svg>
