<svg width="20" height="20" viewBox="0 0 20 20" fill="none" xmlns="http://www.w3.org/2000/svg">
<path id="image 13 (Traced)" fill-rule="evenodd" clip-rule="evenodd" d="M8.54077 0.053226C6.42655 0.385435 4.56663 1.31236 3.01716 2.80604C1.60637 4.16609 0.760072 5.63166 0.215511 7.65771C0.0206964 8.38271 0 8.60856 0 10.0079C0 11.4072 0.0206964 11.633 0.215511 12.358C0.760072 14.3841 1.60637 15.8496 3.01716 17.2097C4.44455 18.5856 6.03826 19.4248 8.11469 19.8936C8.44324 19.9678 9.12555 20.0045 10.0838 19.9996C11.3764 19.9928 11.6452 19.9666 12.3533 19.778C14.3758 19.2392 15.8486 18.3913 17.2114 16.9814C18.524 15.6234 19.2644 14.2928 19.7847 12.3571C19.9793 11.6332 20 11.4067 20 10.0079C20 8.60856 19.9793 8.38271 19.7845 7.65771C19.2399 5.63166 18.3936 4.16609 16.9828 2.80604C15.6165 1.489 14.2564 0.736304 12.3524 0.243681C11.7176 0.0795016 11.2879 0.0297956 10.2933 0.00569586C9.60199 -0.0110401 8.81335 0.010382 8.54077 0.053226ZM15.0065 5.96027C15.1103 5.98805 15.1937 6.03457 15.1921 6.06378C15.1905 6.0929 14.0569 6.99229 12.673 8.0623C10.7886 9.51934 10.099 10.0079 9.92652 10.0079C9.75399 10.0079 9.09748 9.54302 7.3134 8.15753C6.0029 7.1399 4.87674 6.25624 4.8108 6.19398C4.70782 6.09658 4.71955 6.06922 4.89459 5.99943C5.11614 5.91098 14.684 5.87399 15.0065 5.96027ZM6.35507 8.16372C7.13852 8.7745 7.78908 9.29834 7.80064 9.32779C7.81229 9.35725 7.02985 10.1715 6.06197 11.1374L4.30219 12.8933V9.72812V6.56293L4.6164 6.80803C4.78927 6.94292 5.57163 7.55294 6.35507 8.16372ZM15.6978 9.81883V13.0607L13.8591 11.2259C12.8477 10.2167 12.0381 9.36227 12.0598 9.32721C12.1312 9.2119 15.5437 6.57699 15.6217 6.57699C15.666 6.57699 15.6978 7.93193 15.6978 9.81883ZM8.90895 10.1455C9.30822 10.4552 9.49315 10.5422 9.81851 10.5734C10.275 10.6172 10.4128 10.5612 11.0745 10.0633L11.5204 9.72753L13.5367 11.7411L15.5529 13.7547L15.3149 13.9105C15.0905 14.0575 14.7915 14.0676 10.0876 14.0882C5.46328 14.1084 5.07709 14.0992 4.80996 13.9626C4.65134 13.8816 4.50848 13.773 4.49231 13.7215C4.46122 13.6221 8.20578 9.75682 8.33314 9.75682C8.3742 9.75682 8.63328 9.93171 8.90895 10.1455Z" fill="#DCBA62"/>
</svg>
