<svg width="15" height="16" viewBox="0 0 15 16" fill="none" xmlns="http://www.w3.org/2000/svg">
<path fill-rule="evenodd" clip-rule="evenodd" d="M6.63202 0.631385C6.05486 0.919722 5.36986 1.7388 4.97699 2.61019C4.77744 3.05285 4.51886 3.78568 4.51886 3.90854C4.51886 3.97112 4.77644 3.98676 5.80559 3.98676H7.09231V2.24517C7.09231 0.278815 7.1229 0.386086 6.63202 0.631385ZM7.91114 2.24517V3.98676H9.19786C10.0817 3.98676 10.4846 3.96675 10.4846 3.92288C10.4846 3.78261 10.1634 2.92645 9.94376 2.48131C9.49592 1.57368 8.95935 0.949064 8.36635 0.645023C7.87956 0.395414 7.91114 0.284365 7.91114 2.24517ZM4.50214 1.06076C3.64406 1.4373 2.84296 2.00252 2.1369 2.72951C1.75837 3.11927 1.18507 3.85434 1.18507 3.94998C1.18507 3.97023 1.72544 3.98676 2.38588 3.98676C3.29682 3.98676 3.5916 3.96893 3.60693 3.91296C3.89316 2.86576 4.30872 1.89023 4.7241 1.29042C4.87172 1.07729 4.98355 0.893923 4.97267 0.882942C4.96179 0.871962 4.75006 0.951957 4.50214 1.06076ZM10.1137 1.07174C10.5357 1.61742 10.8933 2.35899 11.2205 3.36687L11.4121 3.95724L12.6152 3.97318C13.277 3.98198 13.8184 3.97206 13.8184 3.95116C13.8184 3.8394 13.2002 3.06478 12.7554 2.61922C12.0375 1.90003 10.8297 1.11821 10.079 0.886839C9.93849 0.843505 9.9389 0.845808 10.1137 1.07174ZM0.554696 5.15274C0.294192 5.76992 0.0153238 6.94198 0.0153238 7.41959V7.58998L1.57986 7.57421L3.14441 7.55851L3.18517 6.85006C3.22465 6.16352 3.32215 5.27678 3.38806 5.00515L3.42029 4.87232H2.04671H0.673074L0.554696 5.15274ZM4.26146 5.03467C4.1584 5.54511 4.10237 6.05442 4.06968 6.77727L4.03289 7.59003L5.54801 7.57427L7.06307 7.55851L7.0788 6.21541L7.09453 4.87232H5.69434H4.29421L4.26146 5.03467ZM7.92465 6.21541L7.94038 7.55851L9.44643 7.57427L10.9525 7.59003V7.13114C10.9525 6.68948 10.815 5.31144 10.7415 5.0156L10.7058 4.87232H9.30741H7.90892L7.92465 6.21541ZM11.6191 5.03467C11.686 5.36929 11.7781 6.22321 11.8179 6.87958L11.859 7.55851L13.4236 7.57421L14.9881 7.58998V7.41959C14.9881 6.94198 14.7093 5.76992 14.4488 5.15274L14.3304 4.87232H12.9584H11.5866L11.6191 5.03467ZM0.0415261 8.83749C0.0897783 9.33181 0.292906 10.1687 0.497787 10.717L0.641198 11.1007L2.02928 11.1166L3.41737 11.1324L3.38461 10.969C3.31741 10.6336 3.22541 9.78031 3.18558 9.12299L3.14441 8.44407L1.5722 8.4283L0 8.4126L0.0415261 8.83749ZM4.05096 8.87144C4.05096 9.31386 4.18847 10.6913 4.26222 10.988L4.29813 11.1324L5.6806 11.1166L7.06307 11.1007V9.7724V8.44407L5.55702 8.4283L4.05096 8.41254V8.87144ZM7.93734 8.48982C7.92161 8.5312 7.91588 9.13557 7.92453 9.83291L7.94038 11.1007L9.32461 11.1166L10.7088 11.1324L10.7418 10.969C10.8449 10.458 10.901 9.94886 10.9337 9.22631L10.9704 8.41455H9.46819C8.30482 8.41455 7.95951 8.43155 7.93734 8.48982ZM11.8621 8.48834C11.8497 8.52896 11.8241 8.87456 11.8052 9.25636C11.7731 9.90417 11.6992 10.5869 11.6199 10.969L11.5861 11.1324L12.9742 11.1166L14.3623 11.1007L14.5057 10.717C14.7093 10.172 14.9096 9.34267 14.9583 8.84257L15 8.41455H13.4423C12.2472 8.41455 11.8794 8.43173 11.8621 8.48834ZM1.18507 12.0514C1.18507 12.1632 1.80329 12.9378 2.24803 13.3833C2.96596 14.1025 4.17379 14.8844 4.92441 15.1157C5.06496 15.1591 5.06455 15.1568 4.88979 14.9308C4.46774 14.3852 4.11015 13.6436 3.78297 12.6357L3.59137 12.0453L2.38822 12.0294C1.72649 12.0206 1.18507 12.0305 1.18507 12.0514ZM4.51886 12.0797C4.51886 12.22 4.84008 13.0761 5.0597 13.5213C5.50753 14.4289 6.0441 15.0535 6.6371 15.3576C7.1239 15.6072 7.09231 15.7182 7.09231 13.7574V12.0158H5.80559C4.92172 12.0158 4.51886 12.0358 4.51886 12.0797ZM7.91114 13.7574C7.91114 15.7202 7.88026 15.6103 8.36541 15.3733C8.94023 15.0924 9.63196 14.2675 10.0265 13.3924C10.226 12.9497 10.4846 12.2169 10.4846 12.094C10.4846 12.0315 10.227 12.0158 9.19786 12.0158H7.91114V13.7574ZM11.3965 12.0896C11.111 13.1342 10.6948 14.1123 10.2822 14.708C10.1362 14.9189 10.0167 15.103 10.0167 15.1172C10.0167 15.1533 10.5472 14.9384 10.8855 14.7654C11.8121 14.2915 12.9619 13.3026 13.5422 12.4806C13.6941 12.2654 13.8184 12.0728 13.8184 12.0526C13.8184 12.0323 13.278 12.0158 12.6176 12.0158C11.7066 12.0158 11.4118 12.0336 11.3965 12.0896Z" fill="#DCBA62"/>
</svg>
