<svg width="21" height="22" viewBox="0 0 21 22" fill="none" xmlns="http://www.w3.org/2000/svg">
<path id="image 13 (Traced)" fill-rule="evenodd" clip-rule="evenodd" d="M8.8416 0.583653C7.72705 0.78211 6.90013 1.04927 5.91206 1.53008C2.91578 2.98823 0.864679 5.62586 0.15668 8.93159C-0.0522267 9.90695 -0.0522267 12.0651 0.15668 13.0404C0.71782 15.6603 2.13858 17.8821 4.26718 19.4685C5.0535 20.0545 6.65038 20.8496 7.52669 21.0915C11.8884 22.2954 16.3027 20.7922 18.9728 17.1936C19.5548 16.4094 20.3587 14.7965 20.5924 13.9444C21.1362 11.962 21.1359 10.0001 20.5913 8.02764C20.3466 7.14095 19.552 5.55149 18.9487 4.74197C17.3977 2.66075 15.1815 1.23556 12.622 0.673307C11.7869 0.489889 9.65241 0.439268 8.8416 0.583653ZM11.5918 5.60614C12.3075 5.79251 12.845 6.11243 13.4495 6.71175C14.6636 7.91555 14.9905 9.49869 14.3591 11.1163C13.8791 12.3459 12.0323 15.3226 11.2171 16.1808C10.9475 16.4646 10.8833 16.4919 10.4852 16.4919C10.0872 16.4919 10.023 16.4646 9.75341 16.1808C8.93817 15.3226 7.09137 12.3459 6.61134 11.1163C5.97994 9.49869 6.30686 7.91555 7.52102 6.71175C8.39691 5.84322 9.22671 5.49553 10.4474 5.48558C10.8108 5.48263 11.3258 5.53686 11.5918 5.60614ZM10.0111 7.80182C9.65537 7.91588 9.20115 8.4299 9.08938 8.84473C8.82237 9.83644 9.83444 10.8389 10.8316 10.5704C11.5678 10.3721 12.07 9.54644 11.8811 8.84473C11.7619 8.40229 11.3114 7.91523 10.9102 7.795C10.5362 7.68299 10.3782 7.68423 10.0111 7.80182Z" fill="#DCBA62"/>
</svg>
