<svg width="18" height="18" viewBox="0 0 18 18" fill="none" xmlns="http://www.w3.org/2000/svg">
<path fill-rule="evenodd" clip-rule="evenodd" d="M7.57852 0.0717022C6.62318 0.241808 5.9144 0.4708 5.06748 0.882928C2.49924 2.13277 0.741153 4.39359 0.134297 7.22708C-0.0447658 8.0631 -0.0447658 9.91292 0.134297 10.7489C0.615274 12.9946 1.83307 14.899 3.65758 16.2587C4.33157 16.761 5.70033 17.4425 6.45145 17.6498C10.1901 18.6817 13.9737 17.3933 16.2624 14.3088C16.7612 13.6366 17.4503 12.2541 17.6506 11.5238C18.1167 9.82459 18.1165 8.14297 17.6497 6.45227C17.4399 5.69225 16.7588 4.32985 16.2417 3.63597C14.9124 1.85208 13.0127 0.630481 10.8188 0.148549C10.1031 -0.00866686 8.27349 -0.0520562 7.57852 0.0717022ZM9.93585 4.37669C10.5493 4.53644 11.01 4.81065 11.5281 5.32435C12.5688 6.35619 12.849 7.71316 12.3078 9.09965C11.8964 10.1536 10.3134 12.7051 9.61464 13.4407C9.38359 13.6839 9.32857 13.7073 8.98735 13.7073C8.64613 13.7073 8.59112 13.6839 8.36007 13.4407C7.66129 12.7051 6.07832 10.1536 5.66687 9.09965C5.12566 7.71316 5.40588 6.35619 6.44659 5.32435C7.19736 4.5799 7.90861 4.28188 8.95495 4.27336C9.26644 4.27082 9.70783 4.31731 9.93585 4.37669ZM8.58097 6.2587C8.27603 6.35647 7.8867 6.79706 7.7909 7.15262C7.56203 8.00266 8.42952 8.86193 9.28419 8.63174C9.91528 8.46184 10.3458 7.75409 10.1838 7.15262C10.0817 6.77339 9.6955 6.35591 9.35161 6.25286C9.03103 6.15685 8.89557 6.15791 8.58097 6.2587Z" fill="white"/>
</svg>
