<svg width="22" height="22" viewBox="0 0 22 22" fill="none" xmlns="http://www.w3.org/2000/svg">
<path id="image 13 (Traced)" fill-rule="evenodd" clip-rule="evenodd" d="M7.19423 0.131514C5.35314 0.400489 3.67665 0.924237 2.44262 1.61614C1.62606 2.07396 0.70547 2.93703 0.352031 3.57608C0.100191 4.03137 0.0753079 4.15654 0.0753079 4.96977C0.0753079 5.78299 0.100191 5.90817 0.352031 6.36345C1.28521 8.05085 3.85638 9.33374 7.25649 9.80877C8.59907 9.9963 11.3234 9.99875 12.733 9.81366C16.1461 9.36562 18.7328 8.0768 19.6612 6.36195C19.9549 5.81948 19.9821 5.70136 19.9821 4.96977C19.9821 4.23818 19.9549 4.12005 19.6612 3.57759C18.7286 1.85502 16.172 0.582658 12.7176 0.122109C11.4656 -0.0448242 8.36507 -0.0395577 7.19423 0.131514ZM0.0520206 9.46908C0.197847 10.5579 1.20953 11.6981 2.70807 12.4626C4.92956 13.5959 7.44504 14.071 10.686 13.9695C13.637 13.8772 16.0239 13.2853 17.8411 12.1955C18.9437 11.5341 19.8475 10.3796 20.0002 9.43738L20.0586 9.07728L19.4569 9.50481C16.3874 11.6865 10.9576 12.5472 5.9556 11.6451C3.89797 11.2739 1.62306 10.366 0.476355 9.45807L0 9.08104L0.0520206 9.46908ZM21.13 11.7749C19.6889 13.9488 16.4496 15.4603 12.3428 15.8751C10.9441 16.0164 8.47259 15.9959 7.23996 15.833C5.98781 15.6674 4.60156 15.3417 3.45354 14.9433C2.99869 14.7855 2.60375 14.6792 2.57577 14.7072C2.54779 14.7351 2.83127 15.0529 3.20565 15.4133C5.11708 17.2534 9.25045 18.2823 13.4414 17.9613C15.216 17.8254 16.3869 17.6048 17.7427 17.151C20.4573 16.2424 21.9975 14.7574 22 13.0462C22.0009 12.4272 21.844 11.8104 21.5953 11.4547C21.4721 11.2784 21.4482 11.2948 21.13 11.7749ZM2.03528 17.4714C2.30768 19.1779 4.29639 20.6896 7.29583 21.4701C9.95217 22.1614 13.9621 22.1782 16.5988 21.5093C19.6158 20.7438 21.7019 19.2195 21.962 17.5902C21.9966 17.3734 21.9959 17.1959 21.9604 17.1959C21.9249 17.1959 21.6976 17.3482 21.4554 17.5343C20.7495 18.0766 18.8678 18.9481 17.7285 19.2602C13.8456 20.3242 9.10932 20.2294 5.58357 19.0171C4.67021 18.7031 3.19269 17.965 2.65183 17.5525C1.95415 17.0205 1.96345 17.0217 2.03528 17.4714Z" fill="#DCBA62"/>
</svg>
