<svg width="20" height="20" viewBox="0 0 20 20" fill="none" xmlns="http://www.w3.org/2000/svg">
<path id="image 13 (Traced)" fill-rule="evenodd" clip-rule="evenodd" d="M8.43587 0.110073C7.40186 0.285595 6.59961 0.543486 5.65128 1.00519C3.56028 2.02323 2.01585 3.5712 1.00676 5.66035C0.314338 7.09398 0 8.44814 0 9.9976C0 11.5471 0.314338 12.9012 1.00676 14.3348C2.01898 16.4305 3.56801 17.9802 5.66277 18.9928C7.0958 19.6855 8.44939 20 9.99819 20C11.547 20 12.9006 19.6855 14.3336 18.9928C16.4284 17.9802 17.9774 16.4305 18.9896 14.3348C20.0839 12.0692 20.2902 9.67023 19.6042 7.18425C19.2219 5.79867 18.1617 4.01672 17.0691 2.92366C15.9765 1.83067 14.1953 0.769961 12.8104 0.387501C11.4129 0.00160303 9.71072 -0.10632 8.43587 0.110073ZM7.67659 4.52766C7.84938 4.66364 7.88227 4.76461 7.92461 5.28961C7.99077 6.11025 8.24098 7.21214 8.47634 7.71949C8.68827 8.17634 8.71787 8.48269 8.56914 8.67806C8.51633 8.74753 8.24504 8.91875 7.96624 9.05856C7.68753 9.19837 7.44669 9.32427 7.43107 9.33841C7.3485 9.41305 8.24472 10.5938 8.82348 11.1728C9.40224 11.7518 10.5825 12.6484 10.6571 12.5658C10.6712 12.5502 10.7971 12.3092 10.9368 12.0304C11.3358 11.2343 11.4525 11.1951 12.3553 11.553C13.0243 11.8183 13.8555 12.0016 14.7042 12.0713C15.6046 12.1451 15.6225 12.1787 15.6225 13.7947C15.6225 14.576 15.5883 15.1449 15.5342 15.2636C15.3788 15.605 15.0857 15.6646 14.0655 15.5626C11.4909 15.3051 9.28718 14.2732 7.50575 12.4911C5.7244 10.7089 4.69296 8.50426 4.43557 5.92855C4.33534 4.92614 4.39346 4.61753 4.71139 4.46381C4.8081 4.417 5.44193 4.37918 6.1795 4.37621C7.36498 4.37136 7.49466 4.38449 7.67659 4.52766Z" fill="#DCBA62"/>
</svg>
