<svg width="18" height="18" viewBox="0 0 18 18" fill="none" xmlns="http://www.w3.org/2000/svg">
<path fill-rule="evenodd" clip-rule="evenodd" d="M7.59229 0.0990661C6.66167 0.257036 5.93965 0.489137 5.08615 0.904669C3.20425 1.82091 1.81427 3.21408 0.90608 5.09431C0.282904 6.38459 0 7.60333 0 8.99784C0 10.3923 0.282904 11.6111 0.90608 12.9014C1.81708 14.7874 3.21121 16.1822 5.09649 17.0935C6.38622 17.717 7.60445 18 8.99837 18C10.3923 18 11.6105 17.717 12.9003 17.0935C14.7855 16.1822 16.1797 14.7874 17.0907 12.9014C18.0756 10.8622 18.2612 8.70321 17.6438 6.46582C17.2997 5.2188 16.3455 3.61505 15.3622 2.63129C14.3789 1.64761 12.7758 0.692965 11.5293 0.348751C10.2716 0.00144273 8.73965 -0.0956882 7.59229 0.0990661ZM6.90893 4.07489C7.06444 4.19727 7.09404 4.28815 7.13215 4.76065C7.19169 5.49922 7.41688 6.49093 7.6287 6.94754C7.81944 7.35871 7.84608 7.63442 7.71222 7.81025C7.6647 7.87278 7.42053 8.02688 7.16962 8.15271C6.91877 8.27853 6.70202 8.39184 6.68796 8.40457C6.61365 8.47174 7.42025 9.53441 7.94114 10.0555C8.46202 10.5766 9.52424 11.3836 9.59138 11.3092C9.60411 11.2951 9.71737 11.0783 9.84315 10.8274C10.2023 10.1109 10.3072 10.0756 11.1197 10.3977C11.7219 10.6365 12.47 10.8015 13.2338 10.8641C14.0441 10.9306 14.0603 10.9609 14.0603 12.4152C14.0603 13.1184 14.0295 13.6304 13.9808 13.7373C13.8409 14.0445 13.5771 14.0982 12.659 14.0063C10.3418 13.7746 8.35846 12.8459 6.75518 11.242C5.15196 9.63801 4.22366 7.65383 3.99201 5.3357C3.90181 4.43353 3.95412 4.15578 4.24025 4.01743C4.32729 3.9753 4.89774 3.94126 5.56155 3.93859C6.62849 3.93423 6.74519 3.94604 6.90893 4.07489Z" fill="white"/>
</svg>
