<svg width="12" height="17" viewBox="0 0 12 17" fill="none" xmlns="http://www.w3.org/2000/svg">
<path fill-rule="evenodd" clip-rule="evenodd" d="M5.19751 0.0492592C2.60522 0.381666 0.443829 2.58527 0.0699729 5.27705C-0.0298981 5.99617 -0.0242031 6.40431 0.0957042 7.12434C0.491305 9.49965 2.33869 12.8418 5.15822 16.2833C5.94113 17.2389 6.05887 17.2389 6.84179 16.2833C9.66132 12.8418 11.5087 9.49965 11.9043 7.12434C12.0242 6.40431 12.0299 5.99617 11.93 5.27705C11.4678 1.94879 8.47959 -0.371523 5.19751 0.0492592ZM7.06136 3.25572C7.81228 3.56464 8.35901 4.08182 8.69212 4.79829C8.92256 5.294 9.00286 5.64426 9.00286 6.1539C9.00286 6.67422 8.92178 7.01864 8.67886 7.52976C8.18349 8.57236 7.1414 9.23617 6 9.23617C4.8586 9.23617 3.81651 8.57236 3.32114 7.52976C3.07822 7.01864 2.99714 6.67422 2.99714 6.1539C2.99714 5.64426 3.07744 5.294 3.30788 4.79829C3.54257 4.29349 3.82417 3.94944 4.25829 3.63718C4.87812 3.19131 5.28672 3.07047 6.10355 3.09135C6.61409 3.10448 6.75056 3.12786 7.06136 3.25572Z" fill="white"/>
</svg>
