<svg width="20" height="20" viewBox="0 0 20 20" fill="none" xmlns="http://www.w3.org/2000/svg">
<path fill-rule="evenodd" clip-rule="evenodd" d="M9.19751 1.54926C6.60522 1.88167 4.44383 4.08527 4.06997 6.77705C3.9701 7.49617 3.9758 7.90431 4.0957 8.62434C4.49131 10.9996 6.33869 14.3418 9.15822 17.7833C9.94113 18.7389 10.0589 18.7389 10.8418 17.7833C13.6613 14.3418 15.5087 10.9996 15.9043 8.62434C16.0242 7.90431 16.0299 7.49617 15.93 6.77705C15.4678 3.44879 12.4796 1.12848 9.19751 1.54926ZM11.0614 4.75572C11.8123 5.06464 12.359 5.58182 12.6921 6.29829C12.9226 6.794 13.0029 7.14426 13.0029 7.6539C13.0029 8.17422 12.9218 8.51864 12.6789 9.02976C12.1835 10.0724 11.1414 10.7362 10 10.7362C8.8586 10.7362 7.81651 10.0724 7.32114 9.02976C7.07822 8.51864 6.99714 8.17422 6.99714 7.6539C6.99714 7.14426 7.07744 6.794 7.30788 6.29829C7.54257 5.79349 7.82417 5.44944 8.25829 5.13718C8.87812 4.69131 9.28672 4.57047 10.1035 4.59135C10.6141 4.60448 10.7506 4.62786 11.0614 4.75572Z" fill="#DCBA62"/>
</svg>
