<svg width="17" height="18" viewBox="0 0 17 18" fill="none" xmlns="http://www.w3.org/2000/svg">
<g id="image 13 (Traced)">
<path id="image 15 (Traced)" fill-rule="evenodd" clip-rule="evenodd" d="M6.68962 3.47292C6.37907 3.64691 6.37907 3.66274 6.69461 6.56808C6.85398 8.03576 6.96885 9.30022 6.94997 9.37798C6.82736 9.88153 6.10163 9.94167 5.91923 9.46342C5.88651 9.37763 5.75527 8.33257 5.62756 7.14112C5.49986 5.94968 5.38655 4.96521 5.37579 4.95343C5.32435 4.89722 4.54046 5.54138 4.0902 6.00982C2.75603 7.39796 2.04033 9.1349 1.95191 11.1993L1.91537 12.0513H8.65678H15.3982L15.3655 11.257C15.3129 9.9761 15.0728 8.9795 14.5657 7.93675C14.1919 7.16833 13.8008 6.60949 13.1963 5.98018C12.7367 5.50164 11.9915 4.8952 11.9368 4.95522C11.927 4.96602 11.8145 5.94968 11.6868 7.14112C11.5591 8.33257 11.4268 9.38012 11.3929 9.46896C11.3215 9.65567 11.0879 9.79841 10.8536 9.79841C10.6636 9.79841 10.4147 9.5845 10.3644 9.37798C10.3455 9.30022 10.4604 8.03576 10.6197 6.56808C10.9368 3.64818 10.9368 3.64264 10.6134 3.4702C10.3847 3.34832 6.90772 3.35068 6.68962 3.47292ZM1.27258 13.3027C0.981076 13.4508 0.840088 13.702 0.840088 14.0732C0.840088 14.3093 0.872197 14.4373 0.965049 14.5715C1.23739 14.9651 0.706609 14.9397 8.65717 14.9397C16.6077 14.9397 16.077 14.9651 16.3493 14.5715C16.5237 14.3194 16.5237 13.8269 16.3493 13.5748C16.0769 13.1812 16.6091 13.2065 8.64871 13.208C2.13812 13.2091 1.43906 13.2182 1.27258 13.3027Z" fill="#DCBA62"/>
</g>
</svg>
