<svg width="23" height="22" viewBox="0 0 23 22" fill="none" xmlns="http://www.w3.org/2000/svg">
<path id="image 13 (Traced)" fill-rule="evenodd" clip-rule="evenodd" d="M1.1162 1.06074C-0.0537426 2.18021 -0.195494 2.4455 0.195376 2.78395C0.517063 3.06259 0.837212 2.98029 1.36419 2.4837L1.85524 2.02081L1.85637 9.92361C1.85698 14.2701 1.88624 17.9929 1.92145 18.1964C2.03302 18.8426 2.55866 19.5402 3.18962 19.8797L3.75416 20.1835L12.3037 20.2326L20.8533 20.2817L20.387 20.7196C19.8744 21.2009 19.7854 21.5583 20.1084 21.838C20.4916 22.1699 20.733 22.0483 21.8914 20.9398C22.7112 20.1554 23 19.8149 23 19.633C23 19.4495 22.7041 19.1076 21.8354 18.2875C21.1948 17.6827 20.6046 17.1879 20.5238 17.1879C20.2233 17.1879 19.9207 17.4885 19.9207 17.787C19.9207 18.0006 20.0506 18.2132 20.3988 18.5693L20.8769 19.0585L12.4182 19.0317C4.73339 19.0074 3.93749 18.99 3.71906 18.8421C3.10258 18.4243 3.14086 18.9725 3.11027 10.1254L3.08235 2.03151L3.59352 2.48901C4.26831 3.09304 4.79375 3.08715 4.98456 2.47368C5.04502 2.27912 4.88838 2.08445 3.89715 1.12321C3.03278 0.284828 2.67383 0 2.48188 0C2.29179 0 1.93592 0.276382 1.1162 1.06074ZM5.55044 0.196433C5.29075 0.444921 5.29198 0.596273 5.55639 0.917933L5.76764 1.17497L13.4067 1.20129L21.0459 1.22771L21.3814 1.54878L21.7169 1.86975L21.7683 9.24219C21.818 16.3968 21.8254 16.6186 22.0188 16.7539C22.2949 16.9471 22.5531 16.928 22.7947 16.6968C22.9963 16.5039 23 16.3695 23 9.26831C23 3.8772 22.9682 1.9333 22.8752 1.63197C22.7086 1.09246 21.8583 0.278837 21.2945 0.119431C20.9795 0.0304471 18.948 0 13.3139 0C5.89255 0 5.75203 0.0035358 5.55044 0.196433ZM16.8927 4.21399C16.2927 4.46856 15.8194 5.38306 16.0438 5.8542C16.173 6.12577 16.5863 6.26495 16.8316 6.11958C16.9216 6.06625 17.0779 5.85794 17.1788 5.65679C17.3206 5.37442 17.4142 5.2981 17.5894 5.32187C18.1743 5.40152 17.7436 6.44036 16.5809 7.7546C15.9772 8.43701 15.8786 8.78469 16.2079 9.06982C16.476 9.302 18.6971 9.30868 18.9383 9.07807C19.3753 8.65976 19.0292 8.05377 18.3533 8.05377H17.9468L18.1337 7.78367C19.3011 6.09631 19.4307 5.28013 18.6498 4.5329C18.3321 4.22901 18.2172 4.18383 17.6934 4.15722C17.3658 4.14052 17.0056 4.16615 16.8927 4.21399ZM6.95205 6.4655C6.79993 6.62638 6.78217 7.05706 6.78217 10.5906C6.78217 14.4051 6.78895 14.5425 6.98746 14.7325C7.2488 14.9826 7.54729 14.9826 7.80862 14.7325C8.00498 14.5446 8.01391 14.4051 8.01391 11.534C8.01391 9.51641 8.05148 8.46156 8.12856 8.31738C8.32646 7.9472 8.65544 7.76363 9.12524 7.76128C9.48101 7.75951 9.62902 7.81628 9.86941 8.0462L10.1694 8.33329V11.4347C10.1694 14.4051 10.1781 14.5443 10.3747 14.7325C10.6276 14.9745 10.9005 14.9828 11.183 14.7571C11.3919 14.5901 11.3988 14.4963 11.4253 11.4586L11.4525 8.33211L11.7877 8.04561C12.4223 7.50336 13.3275 7.7491 13.5526 8.52471C13.6138 8.73559 13.6584 10.0908 13.6587 11.7462C13.6594 14.3895 13.6734 14.616 13.8471 14.7664C14.1197 15.0025 14.4351 14.966 14.6783 14.6701C14.8822 14.4221 14.8911 14.2951 14.8911 11.6302C14.8911 10.0176 14.8447 8.64228 14.7807 8.35686C14.5535 7.34287 13.7706 6.67117 12.7326 6.59928C12.0502 6.55213 11.3493 6.7466 11.0459 7.06738C10.8754 7.2476 10.8589 7.24436 10.4135 6.94402C10.0327 6.68718 9.83913 6.62933 9.25519 6.5977C8.82172 6.57423 8.4639 6.60595 8.31784 6.6808C8.10803 6.78824 8.05969 6.77292 7.88519 6.54378C7.65085 6.23597 7.20456 6.19855 6.95205 6.4655Z" fill="#DCBA62"/>
</svg>
