<svg width="33" height="33" viewBox="0 0 33 33" fill="none" xmlns="http://www.w3.org/2000/svg">
<path fill-rule="evenodd" clip-rule="evenodd" d="M13.9007 0.133112C6.88185 1.39408 1.72562 6.34957 0.246332 13.2561C-0.0821106 14.7895 -0.0821106 18.1825 0.246332 19.7159C1.75598 26.7646 7.26043 31.8923 14.404 32.9048C15.7404 33.0942 18.4975 32.9888 19.8442 32.6968C26.7794 31.1932 31.9002 25.6529 32.9048 18.5667C33.0942 17.2304 32.9888 14.4735 32.6968 13.1269C31.2927 6.65164 26.3414 1.69963 19.8442 0.272517C18.5263 -0.0170147 15.1737 -0.095567 13.9007 0.133112ZM24.3664 10.1553C24.5086 10.2975 24.6251 10.5735 24.6255 10.769C24.6263 11.2021 21.9555 23.8959 21.7552 24.4102C21.566 24.8965 21.0916 25.0741 20.6158 24.8368C20.4166 24.7373 19.3835 24.0096 18.3201 23.2195C17.2567 22.4295 16.3399 21.7831 16.2826 21.7831C16.2254 21.7831 15.6736 22.2773 15.0564 22.8813C13.4923 24.4116 13.4641 24.3995 13.5798 22.2402C13.6311 21.2835 13.7096 20.3343 13.7546 20.1307C13.8155 19.8542 14.8103 18.8808 17.68 16.2899C19.7942 14.3811 21.5239 12.7655 21.5239 12.6998C21.5239 12.3907 20.6076 12.904 16.1798 15.693L11.417 18.693L9.26726 18.03C6.04989 17.0381 5.94627 16.7576 8.44021 15.7904C18.7276 11.8007 23.6951 9.9065 23.8819 9.90211C24.0062 9.89927 24.2243 10.0132 24.3664 10.1553Z" fill="#DCBA62"/>
</svg>
