<svg width="43" height="43" viewBox="0 0 43 43" fill="none" xmlns="http://www.w3.org/2000/svg">
<g clip-path="url(#clip0_164_3482)">
<circle cx="21.5" cy="21.5" r="21.5" fill="#DCBA62"/>
<path fill-rule="evenodd" clip-rule="evenodd" d="M31.7497 25.9425C31.3546 26.8296 30.181 27.2603 29.3196 26.8345C29.1089 26.7302 27.2587 25.0164 25.2084 23.0258L21.4803 19.4064L17.7523 23.0258C15.7018 25.0164 13.8518 26.7302 13.6411 26.8345C12.3725 27.4615 10.7292 26.1872 11.0378 24.8159C11.1891 24.1439 20.5388 15.0673 21.1295 15.0192C22.2703 14.9262 22.3645 14.9976 26.9347 19.4286C31.0794 23.4469 32.0192 24.5116 31.9997 25.1661C31.9958 25.2931 31.8834 25.6425 31.7497 25.9425Z" fill="white"/>
</g>
<defs>
<clipPath id="clip0_164_3482">
<rect width="43" height="43" fill="white"/>
</clipPath>
</defs>
</svg>
