<svg width="630" height="469" viewBox="0 0 630 469" fill="none" xmlns="http://www.w3.org/2000/svg">
<g opacity="0.03">
<path d="M297.87 227.813C296.983 228.195 296.047 228.605 295.139 229.064C294.26 229.572 293.43 230.051 292.627 230.58C291.853 231.157 291.107 231.783 290.361 232.409C289.615 233.035 288.849 233.738 288.026 234.344C287.308 235.018 286.639 235.665 285.873 236.368C285.029 237.051 284.185 237.733 283.314 238.367C282.393 239.029 281.29 239.6 279.997 239.956C278.578 240.319 277.111 240.711 275.594 241.13C274.029 241.578 272.394 242.131 270.682 242.663C269.026 243.294 267.399 243.973 265.828 244.749C264.265 245.652 262.653 246.583 261.097 247.611C259.751 248.779 258.434 249.995 257.251 251.33C256.545 253.04 256.141 255.162 255.766 257.333C255.645 259.943 255.721 262.896 255.938 266.093C256.199 269.59 256.775 273.296 257.492 277.246C258.302 281.469 259.196 285.838 260.069 290.285C261.084 294.975 262.345 299.98 263.626 304.907C265.041 309.953 266.456 314.998 267.919 320.016C269.411 325.082 270.701 330.135 272.136 335.104C273.538 340.352 274.932 345.475 276.403 350.619C277.939 355.986 279.32 361.311 280.827 366.629C282.349 372.199 283.681 377.553 284.88 382.789C286.01 388.13 286.985 393.429 287.77 398.513C288.486 403.701 288.991 408.751 289.356 413.557C289.679 418.516 289.812 423.26 289.853 427.731C289.775 432.335 289.605 436.667 289.315 440.678C288.956 444.794 288.602 448.581 288.079 452.075C287.584 455.618 287.045 458.86 286.484 461.724C285.903 464.665 285.249 467.257 284.643 469.366C284.016 471.552 283.366 473.36 282.771 474.811C282.127 476.291 281.537 477.413 281.002 478.178C280.418 478.971 279.908 479.33 279.397 479.235C278.865 479.216 278.437 478.812 278.006 477.953C277.555 477.172 277.207 476.005 276.808 474.411C276.437 472.866 276.121 470.965 275.83 468.657C275.491 466.377 275.256 463.712 274.948 460.698C274.669 457.732 274.319 454.417 273.994 450.696C273.6 447.08 273.163 443.164 272.711 438.996C272.16 434.884 271.546 430.548 270.812 425.891C269.967 421.494 268.932 416.88 267.609 412.107C266.175 407.593 264.657 402.933 262.949 398.056C261.228 393.383 259.394 388.514 257.476 383.499C255.487 378.589 253.464 373.504 251.278 368.251C249.051 363.153 246.691 357.937 244.38 352.692C242.181 347.643 240.08 342.538 238 337.355C235.955 332.347 233.952 327.185 231.864 321.877C230.008 316.63 228.192 311.229 226.251 305.836C224.276 300.723 222.273 295.561 220.144 290.406C218.002 285.455 215.733 280.511 213.465 275.567C211.184 270.826 208.903 266.085 206.65 261.393C204.51 256.897 202.328 252.554 200.252 248.281C198.366 244.224 196.69 240.306 195.12 236.458C193.718 232.902 192.345 229.396 191.645 226.152C190.952 223.034 190.344 220.063 189.793 217.19C189.298 214.414 189.034 211.701 188.924 209.028C189.081 206.592 189.343 204.226 189.662 201.958C189.932 199.717 190.335 197.595 190.823 195.62C191.424 193.84 192.166 192.304 193.013 190.838C194.05 189.588 195.488 188.693 197.059 187.916C198.658 187.189 200.208 186.489 201.835 185.81C203.393 185.236 204.979 184.711 206.642 184.207C208.208 183.759 209.899 183.304 211.492 182.905C212.981 182.437 214.287 181.878 215.305 181.16C216.218 180.372 217.082 179.612 217.947 178.853C218.783 178.045 219.542 177.216 220.301 176.386C221.06 175.557 221.798 174.805 222.67 174.172C223.542 173.538 224.491 172.925 225.391 172.34C226.291 171.756 227.17 171.248 228.021 170.691C228.824 170.163 229.654 169.683 230.513 169.253C231.344 168.773 232.182 168.42 233.069 168.038C233.955 167.656 234.899 167.372 235.842 167.088C236.786 166.804 237.778 166.492 238.875 166.249C239.924 166.034 241.021 165.791 242.098 165.626C243.252 165.481 244.378 165.287 245.483 165.17C246.56 165.004 247.714 164.859 248.798 164.819C249.931 164.751 251.19 164.676 252.401 164.628C253.639 164.63 254.878 164.631 256.221 164.702C257.516 164.801 258.811 164.901 260.24 165.118C261.696 165.384 263.132 165.728 264.617 166.043C266.13 166.407 267.622 166.849 269.164 167.261C270.656 167.703 272.225 168.164 273.725 168.732C275.274 169.27 276.823 169.809 278.449 170.369C280.075 170.928 281.652 171.516 283.257 172.153C284.911 172.761 286.516 173.398 288.149 174.083C289.783 174.769 291.367 175.482 293.029 176.217C294.642 176.979 296.303 177.713 297.895 178.553C299.564 179.413 301.205 180.225 302.777 181.141C304.397 182.03 305.989 182.869 307.61 183.758C309.153 184.625 310.724 185.542 312.219 186.438C313.762 187.306 315.228 188.153 316.694 189C318.132 189.798 319.599 190.645 320.959 191.423C322.397 192.221 323.758 192.999 325.07 193.805C326.411 194.659 327.723 195.465 328.986 196.299C330.249 197.133 331.492 198.044 332.706 198.907C333.872 199.797 335.086 200.659 336.203 201.578C337.319 202.497 338.436 203.415 339.475 204.313C340.543 205.26 341.534 206.186 342.448 207.092C343.438 208.018 344.303 208.952 345.14 209.837C346.005 210.771 346.764 211.635 347.524 212.499C348.234 213.392 348.917 214.235 349.522 215.058C350.156 215.93 350.733 216.704 351.213 217.535C351.741 218.337 352.164 219.07 352.587 219.803C353.01 220.536 353.356 221.248 353.653 221.988C353.922 222.68 354.191 223.371 354.355 223.993C354.547 224.664 354.634 225.265 354.769 225.839C354.856 226.44 354.837 226.972 354.819 227.504C354.8 228.036 354.704 228.547 354.58 229.009C354.456 229.472 354.304 229.885 354.026 230.306C353.797 230.699 353.491 231.071 353.157 231.395C352.794 231.669 352.354 231.923 351.915 232.177C351.447 232.382 350.93 232.615 350.406 232.722C349.832 232.858 349.259 232.993 348.581 233.059C347.931 233.174 347.224 233.191 346.468 233.237C345.713 233.282 344.901 233.23 344.04 233.205C343.18 233.181 342.262 233.059 341.373 232.986C340.484 232.913 339.518 232.82 338.447 232.657C337.453 232.514 336.43 232.323 335.331 232.111C334.231 231.899 333.083 231.715 332.012 231.552C330.969 231.437 329.897 231.274 328.834 231.237C327.77 231.2 326.678 231.114 325.586 231.028C324.494 230.941 323.353 230.884 322.184 230.777C321.015 230.67 319.874 230.612 318.734 230.554C317.585 230.37 316.332 230.117 315.176 229.807C313.943 229.477 312.682 229.098 311.343 228.698C310.082 228.319 308.772 227.968 307.49 227.665C306.265 227.461 305.096 227.354 303.927 227.248C302.863 227.21 301.828 227.222 300.743 227.262C299.862 227.315 298.89 227.55 297.87 227.813Z" stroke="#ECE8DC" stroke-width="3"/>
<path d="M312.133 247.328C311.406 247.422 310.707 247.565 310.036 247.757C309.365 247.949 308.694 248.141 308.052 248.382C307.458 248.594 306.787 248.786 306.193 248.999C305.599 249.211 304.928 249.403 304.306 249.567C303.635 249.759 302.965 249.951 302.342 250.114C301.643 250.257 300.944 250.401 300.273 250.592C299.526 250.764 298.806 250.984 298.03 251.106C297.331 251.249 296.554 251.372 295.827 251.466C295.1 251.56 294.324 251.682 293.519 251.756C292.715 251.83 291.939 251.952 291.086 252.054C290.232 252.156 289.379 252.257 288.457 252.464C287.562 252.72 286.619 253.004 285.655 253.365C284.719 253.775 283.657 254.193 282.624 254.659C281.569 255.203 280.544 255.795 279.469 256.416C278.45 257.134 277.488 257.95 276.681 258.807C275.873 259.664 275.072 260.648 274.321 261.603C273.549 262.635 272.833 263.764 272.3 264.984C271.851 266.351 271.487 267.864 271.313 269.593C271.28 271.566 271.254 273.665 271.313 275.911C271.492 278.478 271.756 281.192 272.077 284.004C272.608 286.954 273.125 290.107 273.833 293.477C274.597 296.944 275.361 300.411 276.125 303.879C276.995 307.415 277.844 311.029 278.854 314.81C279.99 318.584 281.106 322.434 282.222 326.284C283.373 330.31 284.553 334.384 285.83 338.402C287.144 342.594 288.408 346.815 289.68 351.161C291.085 355.626 292.421 360.196 293.841 364.913C295.375 369.825 296.887 374.815 298.407 379.93C299.781 385.13 301.036 390.463 302.214 395.776C303.323 401.193 304.362 406.717 305.276 412.247C306.796 423.681 307.645 435.306 307.963 446.913C307.799 458.928 307.145 470.77 306.07 482.335C305.268 493.806 304.533 504.718 303.752 514.875C302.748 525.095 301.385 534.806 299.437 543.618C296.796 552.243 293.507 560.199 289.817 567.346C285.656 574.243 281.17 580.35 276.471 585.864C271.549 591.442 266.479 596.649 261.223 601.312C255.75 605.709 250.226 609.68 244.582 613.33C238.524 616.827 232.497 619.59 226.546 621.919C220.726 623.911 214.968 625.672 209.496 627.138C203.821 628.59 198.243 629.987 192.959 631.214C187.423 632.456 182.215 633.703 177.252 634.81C172.317 635.966 167.627 636.98 163.237 637.951C158.672 638.958 154.555 639.837 150.759 640.596C146.914 641.383 143.411 641.972 140.327 642.385C137.145 642.854 134.355 643.097 132.032 643.135C129.611 643.23 127.658 643.12 126.348 642.769C124.989 642.446 124.196 641.862 123.822 641.101C123.399 640.368 123.521 639.451 124.062 638.357C124.554 637.291 125.485 635.971 126.864 634.524C128.39 632.992 130.383 631.254 132.775 629.417C135.09 627.56 137.873 625.497 141.151 623.279C144.304 621.067 147.799 618.659 151.692 616.151C155.558 613.593 159.87 610.908 164.37 607.984C168.724 605.145 173.532 602.304 178.585 599.321C183.54 596.396 188.683 593.231 193.985 589.779C199.118 586.033 204.391 582.077 209.753 577.939C215.185 573.696 220.769 569.039 226.351 563.927C231.812 558.494 236.851 552.328 241.292 545.465C245.052 538.213 248.25 530.439 250.724 521.975C252.539 513.046 253.735 503.496 254.299 493.53C255.504 482.868 256.419 471.591 256.59 459.702C256.252 448.172 255.326 436.526 253.882 425.113C251.772 414.802 248.804 404.921 245.737 395.096C244.134 390.289 242.503 385.434 240.795 380.557C239.018 375.786 237.114 371.022 235.121 366.441C233.086 362.014 231.03 357.664 229.003 353.363C227.081 349.131 225.305 344.815 223.635 340.568C222.014 336.293 220.462 331.912 219.015 327.601C217.862 323.121 216.68 318.592 215.478 314.141C214.255 309.766 212.955 305.37 211.557 301.031C210.089 296.798 208.525 292.62 206.939 288.52C205.333 284.497 203.706 280.551 202.051 276.556C200.305 272.743 198.56 268.93 196.717 265.174C194.93 261.515 193.172 257.906 191.414 254.296C189.712 250.784 187.968 247.426 186.274 244.04C184.664 240.8 183.111 237.659 181.768 234.656C180.559 231.771 179.378 228.936 178.463 226.337C177.577 223.787 176.797 221.306 176.198 218.916C175.628 216.574 175.065 214.359 174.58 212.164C174.102 210.095 173.673 207.997 173.426 205.99C173.284 204.053 173.122 202.192 173.163 200.345C173.365 198.665 173.624 197.082 173.911 195.548C174.303 194.084 174.724 192.669 175.124 191.331C175.58 190.09 176.121 188.996 176.816 187.943C177.49 186.968 178.242 186.013 179.05 185.156C179.886 184.347 180.827 183.608 181.825 182.967C182.851 182.375 183.926 181.754 185.057 181.231C186.188 180.709 187.299 180.263 188.437 179.866C189.576 179.469 190.743 179.121 191.938 178.822C193.133 178.523 194.329 178.223 195.503 178.001C196.698 177.702 197.922 177.452 199.145 177.201C200.368 176.951 201.466 176.708 202.584 176.388C203.471 176.007 204.176 175.535 204.88 175.063C205.508 174.57 206.058 174.057 206.658 173.515C207.208 173.002 207.73 172.44 208.225 171.829C208.67 171.246 209.192 170.684 209.637 170.102C210.139 169.616 210.62 169.208 211.122 168.723C211.651 168.287 212.181 167.851 212.711 167.415C213.241 166.979 213.799 166.591 214.329 166.155C214.859 165.719 215.34 165.311 215.744 164.882C216.225 164.474 216.657 164.095 217.138 163.687C217.619 163.279 218.051 162.899 218.483 162.519C218.915 162.139 219.424 161.78 219.885 161.449C220.345 161.118 220.882 160.808 221.371 160.526C221.908 160.216 222.425 159.983 222.934 159.623C223.395 159.293 223.932 158.982 224.546 158.693C225.133 158.354 225.67 158.044 226.285 157.754C226.899 157.465 227.465 157.203 228.079 156.914C228.645 156.652 229.287 156.411 229.958 156.22C230.629 156.028 231.3 155.836 231.943 155.595C232.614 155.403 233.256 155.162 233.927 154.97C234.626 154.827 235.374 154.656 236.122 154.485C236.87 154.314 237.597 154.219 238.373 154.097C239.101 154.003 239.877 153.88 240.681 153.807C241.486 153.733 242.318 153.708 243.179 153.733C244.04 153.757 244.949 153.753 245.859 153.749C246.72 153.773 247.629 153.769 248.567 153.814C249.456 153.887 250.394 153.931 251.36 154.025C252.326 154.119 253.292 154.212 254.209 154.334C255.203 154.477 256.121 154.599 257.115 154.741C258.109 154.884 259.131 155.075 260.077 155.246C261.099 155.437 262.073 155.657 263.095 155.848C264.118 156.039 265.12 156.308 266.121 156.576C268.174 157.085 270.332 157.663 272.489 158.241C274.675 158.868 276.869 159.621 279.111 160.346C281.438 161.217 283.821 162.186 286.156 163.183C288.539 164.152 290.874 165.15 293.131 166.126C295.437 167.075 297.723 168.1 299.96 169.154C302.245 170.179 304.454 171.184 306.691 172.237C308.928 173.291 311.087 174.324 313.247 175.357C315.379 176.341 317.489 177.402 319.593 178.337C321.668 179.224 323.722 180.187 325.749 181.102C327.754 182.094 329.788 183.134 331.85 184.223C333.891 185.39 335.905 186.507 337.848 187.73C339.869 188.974 341.764 190.225 343.715 191.574C345.638 192.873 347.54 194.25 349.422 195.705C351.36 197.256 353.221 198.787 355.139 200.416C357.008 202.073 358.904 203.779 360.724 205.464C362.523 207.227 364.294 208.94 366.016 210.682C367.689 212.451 369.363 214.221 370.959 215.97C372.534 217.797 374.082 219.574 375.503 221.359C376.924 223.144 378.318 224.88 379.557 226.575C380.824 228.319 382.007 229.916 383.063 231.52C384.12 233.125 385.149 234.681 386.051 236.244C386.974 237.73 387.772 239.224 388.541 240.669C389.282 242.065 389.946 243.441 390.476 244.698C391.035 246.004 391.488 247.24 391.913 248.428C392.289 249.644 392.581 250.713 392.824 251.811C393.038 252.859 393.176 253.887 393.257 254.818C393.338 255.748 393.286 256.56 393.177 257.274C393.068 257.988 392.882 258.682 392.64 259.277C392.398 259.873 392.05 260.4 391.646 260.828C391.242 261.257 390.79 261.714 390.252 262.024C389.715 262.334 389.177 262.645 388.507 262.837C387.836 263.028 387.108 263.123 386.304 263.196C385.5 263.27 384.667 263.294 383.778 263.221C382.84 263.177 381.951 263.104 380.908 262.989C380.425 262.942 379.914 262.847 379.354 262.779C378.843 262.684 378.283 262.616 377.743 262.472C377.232 262.376 376.644 262.26 376.055 262.143C375.467 262.027 374.879 261.911 374.262 261.745C373.674 261.629 373.058 261.464 372.441 261.299C371.825 261.133 371.131 260.948 370.515 260.782C369.821 260.597 369.205 260.431 368.511 260.246C367.817 260.06 367.124 259.874 366.451 259.611C365.758 259.425 365.036 259.19 364.314 258.956C363.592 258.721 362.822 258.515 362.072 258.231C361.273 257.976 360.551 257.741 359.752 257.486C358.953 257.23 358.155 256.975 357.356 256.72C356.557 256.464 355.758 256.209 354.959 255.954C354.161 255.698 353.334 255.394 352.506 255.09C351.679 254.786 350.852 254.482 349.977 254.206C349.15 253.901 348.274 253.625 347.37 253.301C346.494 253.025 345.638 252.672 344.763 252.396C343.887 252.12 343.039 251.892 342.22 251.714C341.4 251.536 340.581 251.358 339.789 251.228C338.998 251.099 338.179 250.92 337.359 250.742C336.568 250.613 335.749 250.434 334.957 250.305C334.11 250.078 333.213 249.879 332.337 249.603C331.461 249.327 330.565 249.128 329.717 248.901C328.821 248.702 327.973 248.475 327.048 248.227C326.152 248.028 325.304 247.801 324.407 247.602C323.539 247.452 322.699 247.351 321.831 247.201C320.991 247.1 320.102 247.027 319.262 246.925C318.401 246.901 317.568 246.926 316.736 246.951C315.952 246.947 315.196 246.992 314.413 246.989C313.616 247.188 312.86 247.234 312.133 247.328Z" stroke="#ECE8DC" stroke-width="3"/>
<path d="M325.474 270.436C324.411 270.399 323.347 270.362 322.283 270.324C321.248 270.336 320.135 270.327 319.022 270.318C317.91 270.309 316.777 270.377 315.615 270.396C314.454 270.415 313.32 270.483 312.131 270.454C310.969 270.473 309.759 270.52 308.569 270.49C307.408 270.51 306.169 270.508 305.057 270.499C304.049 270.56 302.965 270.599 301.986 270.709C301.007 270.818 300.007 271.004 298.958 271.219C297.889 271.511 296.876 271.9 295.871 272.415C294.873 273.056 293.883 273.824 292.823 274.696C291.82 275.666 290.873 276.734 289.913 278.005C289.192 279.463 288.535 281.145 288.096 283.093C287.769 285.235 287.535 287.65 287.499 290.407C287.639 293.583 287.835 296.857 288.193 300.298C288.826 304.102 289.564 307.975 290.358 311.946C291.16 316.043 292.116 320.181 293.052 324.396C294.023 328.786 295.071 333.196 296.358 337.795C297.807 342.56 299.222 347.606 300.826 352.868C302.516 358.276 304.339 363.803 306.043 369.463C307.812 375.347 309.539 381.385 311.168 387.479C312.764 393.853 314.27 400.41 315.629 407.051C316.905 414.001 318.015 421.112 318.802 428.343C319.48 435.834 319.941 443.515 320.255 451.281C320.353 459.236 320.228 467.256 319.851 475.29C319.25 483.388 318.691 491.333 318.278 499.192C317.732 506.934 316.954 514.613 316.295 522.159C315.552 529.558 314.703 536.888 313.607 543.904C312.288 550.984 310.674 557.779 308.413 563.904C305.963 569.814 303.427 575.577 300.813 580.864C298.016 586.062 295.161 590.707 292.355 595.323C289.402 600.025 286.218 604.664 282.908 609.311C279.275 613.623 275.403 617.748 271.425 621.803C266.672 625.98 262.001 629.85 257.196 633.601C252.272 637.03 247.247 640.061 242.215 642.966C237.001 645.782 231.918 648.26 226.966 650.402C222.036 652.468 217.118 654.33 212.339 655.981C207.427 657.515 202.564 659.02 197.721 660.448C192.85 661.827 187.972 663.08 183.093 664.333C178.166 665.615 173.099 667.107 168.208 668.563C163.121 670.132 158.083 671.673 153.045 673.214C147.783 674.818 142.542 676.346 137.406 677.943C132.193 679.52 127.029 681.068 121.886 682.54C116.742 684.011 111.571 685.433 106.469 686.751C101.269 688.124 96.118 689.47 91.0441 690.836C86.0473 692.222 81.2253 693.573 76.578 694.888C71.9871 696.301 67.5297 697.833 63.3035 699.426C59.1055 701.068 55.0052 702.653 50.9614 704.337C46.8893 705.971 42.8942 707.626 38.9199 709.204C34.9455 710.783 30.9918 712.284 27.0869 713.756C23.3286 715.145 19.6887 716.399 16.1464 717.598C8.95666 719.925 1.98296 722.062 -4.7258 723.981C-11.6375 725.887 -18.1866 727.519 -24.2754 728.819C-30.4412 730.099 -36.3421 731.161 -41.7056 731.913C-47.195 732.672 -52.3425 733.233 -56.9731 733.562C-61.7091 733.821 -65.9489 733.924 -69.6232 733.765C-73.4233 733.614 -76.8044 733.286 -79.7665 732.782C-82.8262 732.333 -85.4181 731.68 -87.5909 730.85C-89.8126 730.049 -91.4893 729.062 -92.621 727.892C-93.8017 726.75 -94.4862 725.451 -94.7441 724.102C-95.0791 722.732 -94.7638 721.247 -93.9242 719.655C-93.2106 718.071 -91.9726 716.379 -90.3644 714.538C-88.7281 712.747 -86.5186 710.82 -83.89 708.716C-81.3103 706.64 -77.7872 704.28 -73.565 701.778C-69.3222 699.198 -64.5345 696.433 -59.0758 693.477C-56.3606 691.975 -53.5759 690.367 -50.5882 688.772C-47.6776 687.157 -44.6692 685.485 -41.4654 683.701C-38.2335 681.965 -34.8343 680.068 -31.2603 678.135C-27.7634 676.181 -24.0918 674.191 -20.3506 672.096C-16.6095 670.002 -12.7706 667.85 -8.83399 665.643C-4.67378 663.371 -0.444061 660.994 3.86271 658.638C8.19014 656.205 12.5946 653.792 17.1945 651.267C21.7662 648.692 26.492 646.159 31.2667 643.598C36.0696 641.086 40.9702 638.517 45.9478 635.969C50.8278 633.477 55.8336 630.978 60.9166 628.499C65.9506 626.048 71.0824 623.542 76.5148 620.991C81.9473 618.441 87.4775 615.835 93.1129 613.298C98.7483 610.761 104.356 608.175 110.117 605.63C115.85 603.036 121.555 600.394 127.414 597.793C133.14 595.074 138.711 592.313 144.283 589.552C149.728 586.799 155.097 584.025 160.478 581.048C165.734 578.079 170.997 575.236 176.366 572.462C181.734 569.688 187.249 566.83 192.847 563.663C198.206 560.309 203.375 556.738 208.48 552.944C212.946 548.607 217.052 543.76 220.744 538.307C223.895 532.709 226.683 526.931 229.069 520.798C231.14 514.456 232.769 507.914 233.966 501.751C235.184 495.511 236.952 488.758 238.412 481.922C239.543 475.081 240.436 468.052 240.935 460.793C240.965 453.285 240.524 445.527 239.524 437.702C237.93 430.089 235.77 422.738 233.317 415.555C230.964 408.772 229.123 402.538 227.607 396.639C226 390.923 223.98 385.054 221.841 379.319C219.605 373.64 217.214 367.92 214.746 362.18C212.286 356.565 210.078 350.935 208.122 345.29C206.389 339.581 204.893 333.605 203.621 327.565C202.377 321.574 201.14 315.709 199.96 309.941C198.689 304.356 197.447 298.82 195.953 293.299C194.179 287.744 192.21 282.302 190.248 276.986C188.139 271.754 185.807 266.587 183.406 261.525C180.858 256.547 178.338 251.618 175.874 246.787C173.418 242.082 171.131 237.67 168.824 233.335C166.678 229.167 165.136 225.368 163.707 221.763C162.362 218.306 161.15 214.966 160.255 211.836C159.415 208.803 158.717 206.014 158.153 203.344C157.742 200.714 157.57 198.273 157.504 195.901C157.753 193.738 158.192 191.791 158.765 189.962C159.345 188.259 159.982 186.654 160.675 185.147C161.473 183.709 162.279 182.397 163.267 181.175C164.311 180.05 165.412 179.024 166.619 178.067C167.853 177.159 169.2 176.446 170.548 175.733C171.874 175.098 173.278 174.483 174.787 173.937C176.275 173.469 177.764 173 179.28 172.581C180.825 172.21 182.37 171.839 183.943 171.517C185.544 171.244 187.117 170.922 188.661 170.552C190.08 170.189 191.268 169.763 192.245 169.199C193.068 168.594 193.863 167.94 194.531 167.293C195.144 166.548 195.785 165.853 196.425 165.157C197.045 164.539 197.645 163.997 198.293 163.428C198.892 162.886 199.463 162.296 200.111 161.726C200.76 161.157 201.359 160.615 201.93 160.025C202.452 159.463 202.975 158.901 203.469 158.29C203.914 157.707 204.408 157.096 204.853 156.513C205.327 155.979 205.772 155.397 206.322 154.883C206.796 154.349 207.298 153.864 207.799 153.379C208.273 152.845 208.774 152.36 209.248 151.827C209.798 151.313 210.398 150.772 211.025 150.279C211.681 149.835 212.337 149.392 213.021 148.997C213.705 148.602 214.417 148.256 215.101 147.861C215.862 147.487 216.574 147.141 217.307 146.718C218.068 146.343 218.829 145.969 219.618 145.644C220.407 145.318 221.196 144.993 222.035 144.64C222.873 144.286 223.767 144.03 224.69 143.823C225.613 143.616 226.612 143.43 227.563 143.271C228.591 143.134 229.619 142.996 230.675 142.908C231.732 142.819 232.788 142.73 233.872 142.691C234.956 142.651 236.041 142.611 237.125 142.571C238.238 142.58 239.35 142.589 240.463 142.598C241.604 142.656 242.793 142.686 243.962 142.793C245.131 142.899 246.3 143.006 247.469 143.113C248.638 143.22 249.807 143.326 250.976 143.433C252.145 143.54 253.343 143.695 254.512 143.802C255.709 143.958 256.878 144.064 258.055 144.297C259.252 144.453 260.526 144.629 261.828 144.854C263.159 145.128 264.518 145.451 265.877 145.774C267.264 146.145 268.651 146.517 270.066 146.938C271.454 147.309 272.897 147.779 274.235 148.179C275.651 148.599 277.017 149.048 278.432 149.468C279.876 149.938 281.242 150.386 282.686 150.856C284.081 151.353 285.524 151.823 286.947 152.369C288.342 152.867 289.764 153.413 291.159 153.911C292.582 154.457 294.005 155.004 295.399 155.501C296.822 156.048 298.196 156.622 299.619 157.169C301.042 157.715 302.444 158.339 303.818 158.913C305.192 159.488 306.594 160.112 307.968 160.686C309.342 161.261 310.765 161.807 312.139 162.382C313.513 162.957 314.887 163.531 316.184 164.085C317.53 164.611 318.876 165.137 320.222 165.663C321.568 166.188 322.913 166.714 324.21 167.268C325.584 167.843 326.909 168.446 328.235 169.049C329.56 169.652 330.913 170.303 332.266 170.955C333.62 171.607 334.924 172.287 336.257 173.015C337.59 173.744 338.951 174.522 340.283 175.25C341.672 176.077 343.013 176.932 344.43 177.807C345.827 178.759 347.272 179.684 348.697 180.685C351.575 182.736 354.404 184.816 357.213 186.972C360.049 189.178 362.837 191.412 365.633 193.771C368.428 196.131 371.182 198.644 373.936 201.158C376.67 203.749 379.403 206.34 382.039 208.987C384.675 211.634 387.213 214.338 389.702 217.07C392.219 219.85 394.611 222.638 396.953 225.455C399.247 228.3 401.541 231.144 403.66 234.025C405.779 236.905 407.869 239.737 409.778 242.478C411.715 245.268 413.469 247.968 415.146 250.648C416.823 253.327 418.375 256.014 419.821 258.632C421.267 261.249 422.58 263.748 423.738 266.206C424.896 268.664 425.999 271.024 426.947 273.343C427.894 275.662 428.765 277.96 429.503 280.14C430.24 282.32 430.844 284.381 431.343 286.373C431.578 287.345 431.813 288.316 432.02 289.239C432.227 290.162 432.386 291.113 432.564 291.987C432.694 292.889 432.845 293.714 432.918 294.518C432.992 295.322 433.037 296.078 433.083 296.833C433.128 297.589 433.145 298.295 433.085 298.981C433.054 299.716 433.043 300.374 432.954 301.011C432.866 301.648 432.778 302.285 432.662 302.874C432.545 303.462 432.401 304.001 432.256 304.541C432.112 305.08 431.89 305.599 431.689 306.041C431.468 306.56 431.239 306.952 430.981 307.296C430.724 307.64 430.418 308.013 430.132 308.308C429.798 308.631 429.512 308.926 429.149 309.201C428.787 309.475 428.445 309.673 428.054 309.898C427.663 310.124 427.244 310.301 426.797 310.429C426.35 310.557 425.874 310.636 425.399 310.715C424.923 310.794 424.42 310.824 423.916 310.854C423.412 310.885 422.852 310.817 422.292 310.75C421.732 310.682 421.115 310.517 420.499 310.352C419.882 310.187 419.238 309.973 418.593 309.759C417.92 309.496 417.198 309.261 416.497 308.949C415.796 308.638 415.046 308.354 414.289 307.945C413.559 307.584 412.753 307.203 411.967 306.744C411.161 306.363 410.403 305.954 409.569 305.524C408.734 305.093 407.949 304.635 407.086 304.156C406.251 303.726 405.417 303.296 404.554 302.817C403.691 302.338 402.828 301.859 401.888 301.359C401.026 300.88 400.086 300.381 399.195 299.853C398.304 299.325 397.364 298.826 396.445 298.249C395.533 297.798 394.642 297.27 393.702 296.771C392.762 296.271 391.794 295.723 390.826 295.174C389.858 294.626 388.89 294.077 387.873 293.557C386.905 293.009 385.888 292.488 384.92 291.94C383.903 291.42 382.858 290.85 381.89 290.302C380.873 289.782 379.856 289.261 378.811 288.692C377.794 288.172 376.7 287.631 375.655 287.062C374.561 286.521 373.516 285.952 372.422 285.411C371.328 284.87 370.234 284.329 369.189 283.76C368.123 283.268 367.029 282.727 365.935 282.186C364.821 281.722 363.727 281.181 362.633 280.641C361.518 280.177 360.424 279.636 359.281 279.123C358.167 278.659 357.101 278.167 356.015 277.752C354.956 277.386 353.87 276.971 352.678 276.487C351.515 276.051 350.4 275.587 349.209 275.103C348.045 274.667 346.833 274.26 345.698 273.873C344.59 273.535 343.512 273.246 342.482 272.928C341.403 272.639 340.296 272.301 339.189 271.964C338.082 271.626 336.982 271.414 335.883 271.202C334.811 271.038 333.691 270.903 332.62 270.74C331.528 270.654 330.408 270.519 329.288 270.384C327.63 270.56 326.538 270.473 325.474 270.436Z" stroke="#ECE8DC" stroke-width="3"/>
<path d="M331.114 284.377C329.762 284.181 328.488 284.004 327.137 283.807C325.814 283.659 324.421 283.617 323.049 283.497C321.656 283.454 320.32 283.509 319.089 283.633C317.886 283.807 316.712 284.029 315.488 284.279C314.293 284.578 313.098 284.878 311.903 285.177C310.687 285.553 309.451 286.006 308.312 286.403C307.152 286.877 306.07 287.372 304.89 287.923C303.766 288.572 302.748 289.29 301.737 290.134C300.811 291.125 299.969 292.262 299.163 293.574C298.555 295.228 298.011 297.106 297.566 299.382C297.319 302 297.192 304.939 297.409 308.136C297.908 311.821 298.52 315.702 299.217 319.729C300.019 323.826 300.821 327.923 301.602 332.097C302.398 336.522 303.321 340.941 304.433 345.575C305.855 350.746 307.447 356.211 309.229 361.892C311.074 367.796 312.871 373.729 314.696 379.71C316.459 385.923 318.068 392.094 319.53 398.35C320.853 404.817 322.135 411.437 323.25 418.22C324.261 425.387 325.106 432.717 325.77 440.411C326.254 448.469 326.452 456.823 326.377 465.269C326.046 474.059 325.426 482.689 324.786 491.397C324.182 500.279 323.542 508.986 322.622 517.66C321.723 526.256 320.837 534.65 319.619 542.583C318.143 550.405 316.399 557.991 314.227 565.173C311.711 572.097 309.131 578.798 306.346 585.031C303.51 590.837 300.574 596.245 297.61 601.604C294.451 607.076 290.6 612.817 286.405 618.301C281.768 623.583 276.852 628.832 271.627 633.998C266.261 638.92 260.852 643.541 255.425 647.456C249.76 651.183 244.059 654.735 238.441 657.978C232.856 660.942 227.334 663.675 221.873 666.176C216.3 668.482 210.809 670.479 205.387 672.372C199.889 674.243 194.404 675.912 188.918 677.581C183.335 679.306 177.598 680.99 172.182 682.554C166.689 684.096 161.176 685.716 155.564 687.393C149.806 689.154 144.175 690.907 138.486 692.563C132.749 694.247 126.935 695.91 121.043 697.552C115.054 699.251 109.114 700.922 103.251 702.614C97.2903 704.361 91.3783 706.081 85.8159 707.729C80.2328 709.454 74.8809 711.241 69.7114 713.119C64.5212 715.073 59.4569 717.02 54.5185 718.959C49.6083 720.947 44.6699 722.886 39.7598 724.874C34.7725 726.842 29.8059 728.732 24.9089 730.517C20.0118 732.302 15.2331 733.954 10.475 735.529C5.71693 737.103 0.95884 738.678 -3.72973 740.147C-8.46716 741.645 -13.2122 743.016 -17.8801 744.408C-22.6251 745.78 -27.2517 747.018 -31.8295 748.228C-36.4354 749.389 -40.846 750.437 -45.11 751.401C-49.4022 752.316 -53.6738 753.153 -57.7705 753.955C-61.9932 754.765 -66.1464 755.469 -70.2019 756.117C-74.3345 756.744 -78.2922 757.335 -82.1317 757.793C-86.0199 758.279 -89.8105 758.709 -93.5315 759.034C-97.2037 759.33 -100.75 759.618 -104.255 759.753C-107.76 759.888 -111.139 760.015 -114.498 760.064C-117.856 760.114 -121.145 760.059 -124.259 759.968C-127.15 759.813 -130.019 759.581 -132.763 759.341C-135.536 759.053 -138.182 758.756 -140.779 758.432C-143.405 758.059 -145.856 757.65 -148.258 757.213C-150.688 756.727 -153.041 756.262 -155.248 755.712C-157.503 755.19 -159.612 754.584 -161.567 754.019C-163.501 753.376 -165.358 752.755 -167.117 752.077C-168.876 751.399 -170.559 750.742 -172.143 750.028C-173.728 749.315 -175.137 748.565 -176.47 747.836C-177.831 747.059 -179.038 746.322 -180.147 745.53C-181.256 744.737 -182.19 743.908 -182.971 743.121C-183.779 742.285 -184.482 741.519 -185.039 740.667C-185.644 739.845 -186.046 739.035 -186.449 738.225C-186.803 737.387 -187.051 736.618 -187.153 735.765C-187.177 734.932 -187.153 734.072 -186.926 733.224C-186.748 732.404 -186.472 731.529 -186.119 730.673C-185.689 729.839 -185.153 729.074 -184.52 728.252C-183.936 727.459 -183.205 726.581 -182.418 725.801C-181.61 724.944 -180.697 724.156 -179.637 723.283C-178.626 722.439 -177.49 721.587 -176.227 720.728C-174.964 719.869 -173.499 719.023 -171.928 718.246C-170.336 717.392 -168.668 716.559 -166.922 715.747C-165.204 714.886 -163.361 714.017 -161.392 713.14C-159.422 712.264 -157.376 711.408 -155.106 710.488C-152.913 709.548 -150.594 708.6 -148.15 707.644C-145.558 706.604 -142.764 705.577 -139.872 704.494C-137.008 703.362 -134.018 702.222 -130.98 701.054C-127.844 699.829 -124.455 698.589 -120.921 697.265C-117.386 695.941 -113.754 694.56 -109.995 693.172C-106.265 691.735 -102.389 690.214 -98.2883 688.628C-94.1391 687.014 -89.8434 685.316 -85.4782 683.512C-80.9664 681.624 -76.231 679.671 -71.4261 677.614C-66.5235 675.5 -61.3766 673.245 -56.0832 670.905C-50.6714 668.432 -45.113 665.874 -39.3592 663.204C-33.5359 660.428 -27.6919 657.575 -21.7014 654.637C-15.6903 651.623 -9.48366 648.495 -3.17938 645.312C3.04785 642.107 9.37277 638.846 15.7466 635.557C22.1692 632.24 28.6407 628.895 35.1892 625.57C41.6401 622.301 48.2451 619.074 54.9553 615.916C61.6862 612.682 68.5712 609.488 75.5821 606.287C82.5442 603.115 89.4856 600.019 96.4759 596.895C103.291 593.807 110.079 590.67 116.964 587.477C123.492 584.229 129.76 580.87 135.826 577.499C141.709 574.037 147.62 570.624 153.693 567.378C159.789 564.51 165.767 561.776 171.541 559.028C177.036 556.247 182.396 553.347 187.629 550C192.454 546.172 197.229 541.917 201.553 537.336C205.457 532.477 208.814 527.347 211.729 522.016C214.336 516.602 216.619 510.855 218.769 504.988C221.064 498.583 223.614 491.378 225.812 483.791C227.625 476.1 229.164 468.046 230.078 459.701C229.835 450.592 228.813 441.15 226.344 432.023C222.94 423.306 219.165 414.737 216.507 407.087C214.37 400.113 212.171 393.371 210.064 386.901C208.316 380.94 206.414 374.938 204.273 368.748C201.958 362.593 199.712 356.334 197.872 350.101C196.24 343.552 195.09 336.594 193.939 329.637C192.804 322.932 191.655 316.43 190.592 310.074C189.592 303.942 188.445 297.895 187.363 292.071C185.944 286.115 184.126 280.26 182.142 274.566C179.877 268.838 177.297 262.902 174.472 257.107C171.452 251.425 168.46 245.792 165.581 240.354C162.794 235.188 160.12 230.218 157.846 225.603C155.84 221.225 154.128 217.132 152.578 213.206C151.324 209.566 150.308 206.114 149.51 202.927C148.873 199.907 148.476 197.075 148.387 194.326C148.516 191.841 148.96 189.565 149.546 187.533C150.188 185.599 150.915 183.812 151.726 182.171C152.566 180.578 153.539 179.105 154.617 177.701C155.78 176.443 157 175.283 158.352 174.241C159.713 173.326 161.15 172.431 162.672 171.682C164.222 170.982 165.801 170.332 167.408 169.73C169.071 169.226 170.811 168.742 172.53 168.336C174.25 167.929 175.998 167.571 177.794 167.185C179.542 166.828 181.269 166.547 182.891 166.197C184.176 165.716 185.146 165.026 186.038 164.315C186.853 163.584 187.564 162.783 188.358 162.128C189.104 161.502 189.773 160.856 190.491 160.181C191.16 159.534 191.78 158.916 192.449 158.269C193.117 157.622 193.737 157.004 194.329 156.336C194.844 155.648 195.359 154.96 195.902 154.321C196.416 153.633 196.91 153.022 197.425 152.334C197.919 151.723 198.385 151.063 198.851 150.403C199.317 149.744 199.811 149.133 200.305 148.522C200.771 147.862 201.314 147.223 201.885 146.632C202.505 146.014 203.104 145.472 203.752 144.903C204.429 144.382 205.077 143.812 205.782 143.34C206.486 142.868 207.24 142.368 208.021 141.917C208.775 141.417 209.605 140.937 210.387 140.486C211.169 140.035 211.971 139.506 212.963 139.194C213.927 138.833 214.92 138.521 215.912 138.208C216.904 137.896 218.001 137.653 219.022 137.39C220.119 137.147 221.196 136.981 222.322 136.787C223.448 136.593 224.524 136.428 225.678 136.283C226.832 136.138 227.937 136.021 229.091 135.876C230.245 135.73 231.35 135.614 232.532 135.517C233.714 135.421 234.847 135.353 236.03 135.257C237.212 135.161 238.422 135.113 239.632 135.066C240.842 135.019 242.032 135.048 243.271 135.05C244.537 135.1 245.727 135.13 247.022 135.229C248.24 135.307 249.535 135.407 250.886 135.604C252.237 135.8 253.666 136.018 255.094 136.236C256.579 136.551 258.064 136.866 259.549 137.181C261.033 137.497 262.546 137.861 264.059 138.225C265.573 138.589 267.114 139.002 268.578 139.394C270.07 139.835 271.611 140.248 273.181 140.71C274.75 141.172 276.243 141.613 277.812 142.075C279.382 142.537 280.902 143.027 282.472 143.489C284.069 143.999 285.618 144.538 287.216 145.049C288.764 145.588 290.362 146.099 291.911 146.637C293.46 147.176 295.008 147.715 296.557 148.254C298.106 148.793 299.634 149.409 301.183 149.948C302.732 150.487 304.231 151.054 305.731 151.621C307.231 152.188 308.731 152.755 310.231 153.322C311.711 153.966 313.21 154.533 314.71 155.1C316.21 155.668 317.654 156.137 319.154 156.704C320.654 157.271 322.125 157.789 323.576 158.385C325.027 158.98 326.527 159.547 328.007 160.191C329.486 160.835 331.071 161.549 332.634 162.34C334.255 163.228 335.875 164.117 337.572 165.026C339.277 166.061 340.982 167.096 342.715 168.179C344.448 169.263 346.133 170.375 347.845 171.536C349.558 172.697 351.298 173.907 353.039 175.117C354.78 176.326 356.5 177.613 358.22 178.9C359.968 180.236 361.688 181.523 363.436 182.858C365.136 184.222 366.835 185.586 368.535 186.95C370.234 188.314 371.913 189.755 373.563 191.147C375.214 192.539 376.844 194.008 378.474 195.477C380.103 196.946 381.733 198.415 383.314 199.913C384.895 201.41 386.476 202.908 388.009 204.433C389.541 205.959 391.073 207.484 392.556 209.038C394.04 210.592 395.523 212.146 397.006 213.699C398.441 215.281 399.875 216.863 401.282 218.396C402.716 219.978 404.073 221.54 405.459 223.15C406.845 224.76 408.153 226.35 409.462 227.939C410.77 229.529 412.03 231.146 413.29 232.764C414.549 234.382 415.76 236.028 416.992 237.597C418.203 239.243 419.385 240.84 420.547 242.514C421.709 244.188 422.843 245.813 423.9 247.418C424.985 249.072 426.041 250.676 427.049 252.309C428.106 253.914 429.114 255.547 430.045 257.159C431.024 258.743 431.955 260.355 432.837 261.995C433.74 263.559 434.593 265.15 435.447 266.742C436.273 268.285 437.049 269.855 437.798 271.377C438.546 272.9 439.323 274.47 439.994 275.972C440.694 277.522 441.365 279.024 442.037 280.525C442.708 282.026 443.303 283.507 443.897 284.988C444.491 286.469 445.009 287.929 445.575 289.361C446.092 290.821 446.581 292.232 447.07 293.643C447.559 295.054 447.971 296.445 448.383 297.836C448.767 299.177 449.151 300.519 449.535 301.861C449.919 303.203 450.226 304.524 450.532 305.845C450.811 307.117 451.089 308.389 451.319 309.69C451.549 310.99 451.771 312.165 451.944 313.368C452.117 314.57 452.263 315.724 452.331 316.858C452.447 317.963 452.516 319.096 452.555 320.18C452.595 321.265 452.635 322.349 452.647 323.384C452.658 324.42 452.613 325.358 452.52 326.324C452.447 327.213 452.374 328.102 452.273 328.942C452.171 329.782 451.993 330.601 451.835 331.344C451.678 332.086 451.443 332.808 451.18 333.481C450.966 334.126 450.675 334.75 450.356 335.325C450.085 335.872 449.766 336.447 449.39 336.925C449.014 337.402 448.639 337.879 448.255 338.231C447.872 338.583 447.44 338.962 447 339.216C446.561 339.47 446.072 339.752 445.555 339.985C445.039 340.219 444.543 340.375 443.969 340.51C443.445 340.617 442.872 340.753 442.27 340.84C441.669 340.926 441.088 340.936 440.459 340.974C439.878 340.983 439.192 340.923 438.527 340.786C437.861 340.649 437.168 340.464 436.474 340.278C435.781 340.092 435.059 339.857 434.309 339.574C433.559 339.29 432.781 338.958 432.003 338.625C431.196 338.244 430.362 337.814 429.548 337.307C428.685 336.828 427.871 336.321 426.98 335.793C426.089 335.265 425.198 334.737 424.251 334.112C423.332 333.535 422.384 332.909 421.409 332.235C420.433 331.561 419.408 330.915 418.433 330.24C417.429 329.517 416.376 328.822 415.373 328.099C414.369 327.375 413.288 326.631 412.256 325.859C411.175 325.115 410.143 324.343 409.062 323.6C407.981 322.856 406.9 322.112 405.791 321.319C404.682 320.526 403.573 319.734 402.464 318.941C401.355 318.148 400.197 317.383 399.088 316.591C397.93 315.826 396.849 315.082 395.691 314.318C394.533 313.553 393.375 312.789 392.189 311.975C391.031 311.211 389.845 310.397 388.638 309.661C387.431 308.925 386.273 308.16 385.038 307.375C383.832 306.639 382.597 305.854 381.341 305.145C380.162 304.458 378.907 303.75 377.7 303.013C376.444 302.305 375.266 301.618 374.038 300.959C372.811 300.299 371.583 299.64 370.356 298.981C369.128 298.322 367.852 297.69 366.568 296.933C365.236 296.205 363.931 295.525 362.57 294.747C361.266 294.067 360.018 293.485 358.741 292.854C357.444 292.3 356.119 291.697 354.766 291.045C353.441 290.443 352.087 289.791 350.713 289.216C349.339 288.642 348.014 288.039 346.745 287.534C345.512 287.203 344.308 286.922 343.054 286.668C341.8 286.415 340.575 286.211 339.293 285.908C337.991 285.683 336.66 285.409 335.357 285.184C333.796 284.848 332.493 284.623 331.114 284.377Z" stroke="#ECE8DC" stroke-width="3"/>
<path d="M353.095 355.847C351.83 356.251 350.545 356.733 349.316 357.312C348.123 358.066 346.965 358.995 345.787 360.001C344.673 361.23 343.672 362.655 342.909 364.268C342.239 366.153 341.605 368.213 341.083 370.468C340.633 373.073 340.4 375.943 340.261 379.086C340.318 382.57 340.524 386.425 340.871 390.523C341.305 395.224 341.916 400.343 342.682 405.958C343.5 412 344.24 418.021 344.919 424.274C345.515 430.834 346.021 437.578 346.359 444.482C346.636 451.618 346.661 458.769 346.56 465.928C346.263 473.199 345.82 480.555 345.125 487.926C344.194 495.564 343.172 503.385 342.178 511.254C341.012 519.614 339.846 527.974 338.464 536.523C336.809 545.165 335.047 553.283 333.228 561.303C331.124 569.618 328.678 578.13 325.944 586.483C322.992 594.571 319.702 602.073 316.216 609.687C312.443 617.142 308.271 624.697 303.668 632.631C298.81 640.126 293.796 647.124 288.446 653.991C282.816 660.824 277.134 667.231 271.431 673.26C265.758 678.554 259.994 683.576 254.089 688.353C248.328 692.591 242.586 696.297 236.759 699.857C230.84 703.144 224.885 706.256 219.139 709.053C213.385 711.723 207.603 714.345 202.009 716.728C196.554 718.9 191.217 720.939 185.901 722.901C180.585 724.863 175.261 726.699 170.035 728.479C164.732 730.238 159.527 731.94 154.35 733.691C149.144 735.394 143.988 737.068 138.852 738.665C133.765 740.234 128.748 741.698 123.73 743.162C118.733 744.549 113.814 745.956 108.915 747.286C103.967 748.645 98.8721 750.088 93.8058 751.58C88.4463 753.241 82.8763 754.763 77.1316 756.321C71.0166 758.028 64.8735 759.686 58.6815 761.371C52.42 763.163 46.089 765.059 39.7297 766.907C33.2728 768.811 26.8647 770.686 20.4567 772.562C14.0279 774.515 7.55038 776.496 1.0446 778.428C-5.48939 780.312 -11.8562 782.033 -18.2023 783.678C-24.5766 785.274 -30.9021 786.841 -37.207 788.332C-43.4347 789.843 -49.6625 791.354 -55.8489 792.711C-62.0636 794.019 -68.1806 795.271 -74.228 796.417C-80.2549 797.487 -86.0863 798.443 -91.9459 799.351C-97.8055 800.259 -103.596 801.061 -109.337 801.836C-114.883 802.497 -120.135 802.989 -125.339 803.453C-130.445 803.861 -135.426 804.261 -140.364 804.507C-145.332 804.704 -150.201 804.844 -155.05 804.908C-159.829 804.866 -164.539 804.719 -169.158 804.39C-173.806 804.012 -178.385 803.529 -182.816 802.961C-187.102 802.308 -191.366 801.578 -195.533 800.792C-199.679 799.929 -203.797 799.115 -207.894 798.223C-211.971 797.255 -216.019 796.335 -219.998 795.31C-224.006 794.237 -227.936 793.183 -231.796 792.025C-235.657 790.867 -239.546 789.66 -243.211 788.388C-246.876 787.117 -250.444 785.79 -253.962 784.434C-257.306 783.042 -260.573 781.671 -263.791 780.272C-267.037 778.824 -270.234 777.348 -273.277 775.913C-276.349 774.43 -279.4 772.869 -282.296 771.349C-285.144 769.802 -287.915 768.275 -290.665 766.671C-293.415 765.066 -296.116 763.434 -298.663 761.843C-301.084 760.245 -303.456 758.618 -305.752 757.012C-307.998 755.377 -310.273 753.694 -312.421 752.003C-314.57 750.313 -316.67 748.594 -318.644 746.867C-320.54 745.161 -322.388 743.427 -324.033 741.706C-325.601 740.006 -327.169 738.305 -328.611 736.598C-330.082 734.841 -331.524 733.133 -332.868 731.369C-334.212 729.604 -335.508 727.812 -336.747 726.117C-337.965 724.345 -339.135 722.545 -340.276 720.794C-341.369 719.015 -342.412 717.207 -343.225 715.461C-343.932 713.785 -344.59 712.081 -345.123 710.369C-345.627 708.706 -346.054 707.063 -346.355 705.413C-346.705 703.791 -346.958 702.113 -347.154 700.533C-347.301 698.924 -347.448 697.315 -347.441 695.748C-347.434 694.18 -347.378 692.585 -347.294 691.038C-347.161 689.463 -347 687.937 -346.713 686.403C-346.503 684.849 -346.167 683.287 -345.803 681.774C-345.362 680.282 -344.871 678.761 -344.304 677.261C-343.737 675.761 -343.17 674.262 -342.449 672.803C-341.756 671.295 -340.93 669.906 -340.047 668.615C-339.058 667.393 -337.993 666.192 -336.823 665.06C-335.68 663.879 -334.461 662.719 -333.214 661.608C-331.889 660.518 -330.487 659.448 -329.009 658.399C-327.53 657.35 -326.051 656.3 -324.39 655.341C-322.701 654.431 -320.857 653.562 -318.937 652.714C-317.016 651.866 -315.019 651.038 -312.896 650.203C-310.821 649.396 -308.718 648.638 -306.369 648.194C-303.992 647.799 -301.489 647.396 -298.929 647.09C-296.321 646.757 -293.558 646.465 -290.767 646.221C-287.948 646.027 -284.757 646.139 -281.46 646.32C-278.164 646.501 -274.811 646.78 -271.276 647.149C-267.72 647.441 -264.095 647.628 -260.42 647.786C-256.648 647.889 -252.617 648.102 -248.46 648.307C-244.359 648.415 -240.23 648.571 -236.011 648.545C-231.82 648.471 -227.588 648.242 -223.383 647.964C-219.236 647.589 -215.067 647.137 -210.724 646.649C-206.361 646.083 -201.892 645.588 -197.135 645.252C-192.301 644.936 -187.419 644.593 -182.236 644.206C-176.898 643.86 -171.309 643.499 -165.574 643.054C-159.719 642.475 -153.67 641.783 -147.299 640.971C-140.859 640.054 -134.251 638.975 -127.428 637.706C-120.493 636.178 -113.294 634.432 -105.907 632.446C-98.4088 630.202 -90.3527 627.57 -82.0882 624.622C-73.8387 621.423 -65.4785 617.964 -56.9792 614.295C-48.3128 610.464 -39.2837 606.358 -29.9408 602.006C-20.3819 597.464 -10.6764 592.838 -0.824352 588.127C8.82473 583.403 18.425 578.707 28.277 573.996C38.2474 569.152 48.0919 564.315 58.1732 559.211C67.5815 553.844 76.6946 548.192 85.3661 542.339C93.2181 536.307 100.474 530.033 107.037 523.574C113.047 517.172 118.546 510.675 123.562 504.132C128.2 497.611 132.278 491.022 135.95 484.407C139.09 477.774 141.719 471.045 143.991 464.262C145.751 457.383 147.127 450.4 147.963 443.273C148.252 435.876 148.099 428.278 147.461 420.178C146.207 411.913 144.811 403.404 143.422 394.565C142.253 385.208 141.476 375.626 140.678 366.12C139.831 356.642 139.02 347.34 138.904 338.678C139.253 330.595 140.01 322.992 140.81 315.691C141.597 308.592 142.33 301.85 142.972 295.291C143.553 288.963 144.023 282.894 144.248 276.967C144.299 271.075 143.767 264.738 141.538 257.492C138.538 250.039 134.978 242.519 130.963 235.001C127.566 228.103 124.424 221.644 121.507 215.577C118.759 209.802 116.392 204.46 114.845 199.751C113.93 195.459 113.044 191.215 112.432 187.335C112.325 183.878 112.458 180.61 112.934 177.599C113.706 174.874 114.59 172.344 115.651 170.233C116.874 168.289 118.231 166.464 119.671 164.785C121.141 163.155 122.771 161.693 124.508 160.3C126.328 159.053 128.282 157.925 130.293 156.894C132.332 155.912 134.455 155.077 136.53 154.27C138.661 153.561 140.841 152.824 143.028 152.212C145.146 151.706 147.264 151.2 149.256 150.701C151.114 150.084 152.77 149.454 154.397 148.775C155.822 148.083 157.092 147.35 158.285 146.596C159.401 145.821 160.489 144.997 161.577 144.174C162.588 143.33 163.473 142.493 164.406 141.628C165.109 140.702 165.706 139.705 166.283 138.786C166.831 137.818 167.38 136.85 167.908 135.959C168.407 135.019 168.976 133.974 169.469 132.908C169.981 131.765 170.417 130.602 170.881 129.487C171.499 128.414 172.222 127.41 173.022 126.427C173.851 125.493 174.679 124.558 175.641 123.742C176.68 122.947 177.67 122.18 178.738 121.434C179.805 120.687 180.9 119.99 181.996 119.292C183.119 118.643 184.32 118.015 185.444 117.366C186.645 116.738 187.768 116.09 188.92 115.49C190.121 114.862 191.273 114.262 192.445 113.585C193.646 112.957 194.798 112.357 196.027 111.777C197.256 111.198 198.513 110.668 199.721 110.166C200.978 109.635 202.243 109.231 203.556 108.798C204.898 108.414 206.184 107.933 207.525 107.549C208.972 107.235 210.419 106.92 211.895 106.655C213.37 106.389 214.873 106.173 216.377 105.956C217.908 105.788 219.496 105.718 221.084 105.648C222.701 105.627 224.317 105.606 226.087 105.626C227.858 105.646 229.579 105.694 231.329 105.792C233.05 105.84 234.849 105.909 236.676 106.027C238.503 106.145 240.358 106.311 242.241 106.527C244.173 106.714 246.084 106.978 248.073 107.263C250.061 107.548 252.001 107.862 254.046 108.244C256.091 108.627 258.164 109.059 260.237 109.49C262.338 109.971 264.488 110.423 266.618 110.952C268.824 111.502 270.982 112.08 273.217 112.679C275.451 113.278 277.637 113.905 279.844 114.455C282.03 115.082 284.216 115.709 286.402 116.336C288.559 116.914 290.745 117.541 292.882 118.196C294.991 118.803 297.121 119.332 299.201 119.89C301.416 120.565 303.658 121.29 305.957 122.113C308.227 122.886 310.547 123.632 312.951 124.524C315.439 125.562 317.984 126.698 320.529 127.834C323.103 129.02 325.655 130.282 328.208 131.544C330.76 132.806 333.264 134.096 335.817 135.358C338.32 136.649 340.852 137.988 343.307 139.306C345.79 140.674 348.196 142.021 350.631 143.416C353.065 144.812 355.45 146.236 357.836 147.659C360.221 149.083 362.557 150.535 364.922 152.036C367.287 153.537 369.603 155.066 371.919 156.595C374.214 158.201 376.53 159.73 378.776 161.365C381.071 162.971 383.318 164.605 385.592 166.288C387.818 168 390.093 169.683 392.27 171.422C394.495 173.134 396.672 174.873 398.8 176.641C400.928 178.409 403.084 180.226 405.164 182.022C407.271 183.867 409.35 185.663 411.409 187.536C413.467 189.409 415.449 191.261 417.458 193.162C419.468 195.064 421.429 196.993 423.313 198.902C425.273 200.832 427.136 202.817 429.048 204.775C430.911 206.761 432.775 208.747 434.589 210.761C436.403 212.775 438.168 214.818 439.934 216.86C441.699 218.902 443.416 220.973 445.083 223.071C446.751 225.17 448.419 227.269 450.038 229.396C451.656 231.523 453.275 233.65 454.845 235.805C456.415 237.96 457.936 240.143 459.457 242.327C460.93 244.538 462.402 246.75 463.874 248.961C465.298 251.201 466.721 253.441 468.067 255.66C469.442 257.928 470.739 260.175 472.037 262.423C473.334 264.67 474.555 266.897 475.726 269.151C476.898 271.406 478.041 273.612 479.136 275.847C480.202 278.032 481.248 280.294 482.265 282.508C483.283 284.721 484.251 286.963 485.192 289.156C486.132 291.349 487.024 293.57 487.915 295.791C488.779 297.964 489.621 300.213 490.359 302.393C491.124 304.622 491.862 306.801 492.599 308.981C493.336 311.161 493.976 313.397 494.637 315.557C495.248 317.744 495.86 319.931 496.422 322.147C496.985 324.363 497.519 326.529 498.005 328.724C498.49 330.919 498.976 333.114 499.385 335.288C499.793 337.463 500.202 339.637 500.533 341.791C500.864 343.944 501.168 346.049 501.471 348.154C501.774 350.259 502 352.343 502.198 354.378C502.396 356.414 502.517 358.428 502.659 360.366C502.78 362.38 502.873 364.346 502.888 366.291C502.925 368.159 502.961 370.028 502.892 371.826C502.851 373.674 502.782 375.472 502.713 377.271C502.644 379.069 502.498 380.847 502.324 382.576C502.15 384.305 501.976 386.035 501.752 387.792C501.501 389.5 501.25 391.209 500.999 392.917C500.719 394.577 500.391 396.264 500.062 397.952C499.706 399.591 499.349 401.23 498.965 402.82C498.58 404.41 498.195 406 497.733 407.57C497.32 409.111 496.83 410.632 496.34 412.152C495.85 413.673 495.332 415.144 494.785 416.567C494.239 417.99 493.664 419.364 493.033 420.64C492.423 421.84 491.784 422.99 491.117 424.092C490.451 425.193 489.735 426.323 489.068 427.424C488.352 428.554 487.608 429.635 486.865 430.716C486.121 431.797 485.328 432.906 484.556 433.938C483.756 434.921 482.927 435.855 482.063 436.615C481.227 437.423 480.285 438.162 479.365 438.824C478.465 439.409 477.537 439.945 476.552 440.383C475.539 440.772 474.575 441.133 473.526 441.348C472.527 441.534 471.47 441.623 470.358 441.614C469.294 441.577 468.181 441.568 467.061 441.433C465.969 441.347 464.821 441.163 463.693 440.902C462.566 440.641 461.389 440.408 460.233 440.099C459.098 439.712 457.947 439.073 456.761 438.26C455.603 437.495 454.381 436.507 453.16 435.519C451.909 434.482 450.736 433.466 449.479 432.303C448.249 431.189 446.963 429.977 445.726 428.737C444.469 427.574 443.203 426.285 441.861 424.976C440.547 423.715 439.254 422.377 437.932 420.991C436.59 419.681 435.268 418.295 433.897 416.936C432.527 415.578 431.149 414.094 429.75 412.687C428.352 411.279 426.925 409.823 425.47 408.318C424.091 406.834 422.636 405.329 421.23 403.796C419.803 402.34 418.348 400.835 416.921 399.379C415.445 397.951 413.99 396.446 412.563 394.99C411.116 393.611 409.745 392.253 408.298 390.874C406.878 389.544 405.374 388.067 403.814 386.493C402.254 384.918 400.588 383.274 398.943 381.553C397.277 379.909 395.535 378.245 393.764 376.531C392 374.944 390.237 373.356 388.417 371.671C386.605 370.112 384.793 368.553 382.96 367.07C381.183 365.686 379.379 364.252 377.525 362.847C375.756 361.589 373.91 360.309 372.064 359.03C370.318 358.149 368.643 357.618 367.046 357.107C365.428 356.674 363.809 356.24 362.142 355.835C360.56 355.576 358.964 355.52 357.445 355.485C355.976 355.421 354.493 355.561 353.095 355.847Z" stroke="#ECE8DC" stroke-width="3"/>
<path d="M372.036 418.779C371.55 419.516 371.014 420.281 370.584 421.116C370.134 422.027 369.662 423.016 369.219 424.054C368.783 425.217 368.376 426.429 367.968 427.642C367.569 428.98 367.169 430.318 366.825 431.754C366.461 433.267 366.133 434.955 365.881 436.663C365.638 438.498 365.373 440.409 365.137 442.369C364.909 444.456 364.68 446.542 364.459 448.754C364.217 451.043 364.004 453.381 363.77 455.796C363.592 458.309 363.316 460.878 363.118 463.468C362.85 466.163 362.61 468.907 362.322 471.679C362.041 474.577 361.655 477.406 361.297 480.283C360.897 483.315 360.547 486.318 360.099 489.378C359.63 492.515 359.14 495.729 358.651 498.943C358.141 502.234 357.525 505.455 356.882 508.628C355.512 515.281 354.178 522.109 352.782 529.169C351.275 536.487 349.699 543.911 347.948 551.371C346.029 558.993 343.908 566.601 341.725 574.441C339.431 582.54 336.836 590.682 334.072 598.531C331.07 606.192 327.808 613.743 324.391 621.252C320.862 628.566 317.082 635.895 313.077 643.288C308.821 650.696 304.465 657.705 299.94 664.422C295.162 671.153 290.175 677.746 285.144 684.038C280.013 689.931 274.922 695.216 269.8 699.997C264.669 704.197 259.376 708.23 254.089 711.934C248.786 715.386 243.358 718.846 238.012 721.997C232.568 725.205 227.138 728.21 221.957 730.745C216.846 733.175 211.609 735.613 206.462 737.868C201.357 739.968 196.202 742.098 191.068 744.15C185.858 746.181 180.57 748.192 175.254 750.154C169.889 752.144 164.544 754.057 159.318 755.836C154.141 757.588 148.936 759.29 143.807 761.013C138.651 762.688 133.523 764.411 128.562 765.972C123.698 767.477 118.856 768.905 114.062 770.305C109.268 771.705 104.474 773.105 99.6315 774.533C94.8789 775.778 89.664 776.9 84.0149 777.947C78.0652 779.037 71.92 780.24 65.5512 781.507C58.9099 782.866 52.1991 784.33 45.4113 785.774C38.6517 787.266 31.9484 788.856 25.2941 790.419C18.6191 792.058 11.9647 793.62 5.21261 795.238C-1.66538 796.864 -8.59224 798.518 -15.5266 800.046C-22.384 801.595 -29.2131 803.193 -35.9446 804.735C-42.879 806.263 -49.834 807.868 -56.7478 809.319C-63.6127 810.742 -70.3104 812.004 -76.8615 813.18C-83.3638 814.329 -89.6143 815.462 -95.6899 816.56C-101.668 817.601 -107.373 818.55 -113.086 819.373C-118.799 820.196 -124.394 820.886 -129.94 821.547C-135.514 822.16 -141.019 822.667 -146.454 823.069C-151.917 823.423 -157.31 823.671 -162.614 823.736C-167.876 823.648 -172.93 823.243 -177.837 822.754C-182.724 822.188 -187.618 821.496 -192.386 820.797C-197.183 820.049 -201.881 819.244 -206.531 818.411C-211.16 817.501 -215.664 816.583 -220.069 815.609C-224.503 814.587 -228.888 813.535 -233.196 812.505C-237.56 811.377 -241.798 810.241 -245.89 809.021C-249.856 807.793 -253.745 806.586 -257.564 805.274C-261.383 803.961 -265.231 802.6 -268.953 801.231C-272.702 799.813 -276.403 798.367 -280.055 796.893C-283.708 795.419 -287.339 793.868 -290.893 792.337C-294.448 790.807 -297.905 789.22 -301.284 787.653C-304.615 786.059 -307.869 784.485 -311.073 782.883C-314.307 781.232 -317.337 779.594 -320.164 777.969C-322.991 776.345 -325.72 774.663 -328.401 772.954C-331.081 771.245 -333.762 769.535 -336.373 767.721C-338.956 765.955 -341.518 764.112 -344.003 762.29C-346.362 760.46 -348.595 758.623 -350.801 756.834C-352.985 754.969 -355.121 753.075 -357.207 751.153C-359.294 749.231 -361.332 747.281 -363.321 745.303C-365.31 743.324 -367.25 741.318 -369.064 739.304C-370.879 737.29 -372.644 735.247 -374.206 733.218C-375.692 731.209 -377.051 729.193 -378.362 727.149C-379.7 725.056 -381.011 723.011 -382.224 720.911C-383.437 718.81 -384.601 716.681 -385.737 714.601C-386.852 712.444 -387.862 710.356 -388.851 708.191C-389.84 706.027 -390.752 703.882 -391.587 701.759C-392.451 699.587 -393.237 697.435 -393.975 695.255C-394.635 693.096 -395.246 690.909 -395.704 688.763C-396.161 686.617 -396.57 684.442 -396.901 682.289C-397.233 680.135 -397.515 677.953 -397.798 675.771C-398.003 673.61 -398.152 671.546 -398.204 669.427C-398.199 667.404 -398.194 665.382 -398.084 663.429C-397.973 661.477 -397.814 659.496 -397.578 657.536C-397.342 655.575 -397.029 653.636 -396.659 651.794C-396.269 649.875 -395.85 648.005 -395.383 646.106C-394.915 644.208 -394.294 642.351 -393.441 640.556C-392.589 638.761 -391.736 636.966 -390.757 635.163C-389.779 633.36 -388.772 631.607 -387.639 629.845C-386.584 628.063 -385.402 626.274 -384.192 624.533C-382.983 622.792 -381.675 620.995 -380.262 619.268C-378.899 617.568 -377.352 615.959 -375.757 614.322C-374.106 612.782 -372.377 611.263 -370.572 609.764C-368.794 608.217 -366.806 606.809 -364.741 605.421C-362.676 604.034 -360.478 602.764 -358.279 601.495C-356.06 600.149 -353.813 598.851 -351.44 597.546C-349.144 596.22 -346.665 594.985 -344.11 593.77C-341.554 592.555 -338.844 591.381 -336.042 590.48C-333.241 589.579 -330.411 588.727 -327.398 587.965C-324.414 587.154 -321.381 586.315 -318.212 586.049C-314.967 585.803 -311.467 585.998 -307.735 586.709C-303.897 587.489 -300.01 588.242 -295.738 589.097C-291.438 590.002 -286.927 591.045 -282.318 592.032C-277.753 592.719 -273.034 593.447 -268.265 594.146C-263.589 594.573 -258.836 595.021 -253.957 595.461C-249.114 595.726 -244.222 595.963 -239.33 596.2C-234.389 596.409 -229.23 596.883 -223.747 597.691C-218.209 598.597 -212.418 599.488 -206.509 600.245C-200.463 600.337 -194.229 600.191 -187.905 599.862C-181.589 599.407 -175.126 598.867 -168.573 598.145C-162.076 597.326 -155.433 596.421 -148.517 595.425C-141.377 594.365 -134.042 593.191 -126.492 591.828C-118.83 590.206 -110.813 588.183 -102.159 586.248C-93.1069 584.214 -83.5736 581.771 -73.4692 578.738C-62.8163 574.738 -51.769 569.727 -40.3743 564.191C-28.8199 558.367 -17.0907 552.507 -5.23557 546.639C6.3264 540.941 17.4411 535.371 28.1293 529.852C38.0412 524.455 46.4402 518.693 52.4049 511.537C56.5463 503.478 59.406 495.118 61.5232 486.6C63.3961 478.223 65.2202 469.874 66.9803 461.302C68.5299 452.591 70.5474 443.674 72.5009 434.534C74.4262 425.345 76.295 416.059 78.1563 406.646C79.8147 397.221 81.4166 387.697 82.9415 378.153C84.2352 368.547 85.3259 358.928 86.2343 349.219C86.9679 339.546 87.6245 329.852 88.4991 320.423C89.5375 311.616 90.5909 303.06 92.0317 295.063C93.5723 287.464 94.9813 280.202 96.2232 273.101C97.3542 266.26 98.1997 259.714 98.8574 253.406C99.2143 247.142 98.5715 241.065 97.4946 234.912C95.9497 228.964 94.2865 223.15 92.7078 217.482C91.0955 212.095 89.5113 206.756 87.5268 201.062C86.5768 198.288 85.6344 195.641 84.7126 192.916C83.9807 190.407 83.4801 187.96 83.0358 185.611C82.6967 183.332 82.6171 181.163 82.6634 178.986C82.7379 176.859 82.7917 174.809 82.9378 173.031C83.189 171.322 83.525 169.76 83.9944 168.317C84.492 166.922 85.0459 165.625 85.7052 164.398C86.3927 163.219 87.0595 162.118 87.7752 160.988C88.5473 159.956 89.3194 158.924 90.1197 157.941C90.92 156.958 91.7974 155.995 92.6541 155.11C93.5878 154.245 94.5986 153.401 95.5606 152.585C96.5997 151.789 97.6181 151.071 98.7624 150.345C99.8578 149.648 100.953 148.95 102.056 148.378C103.236 147.827 104.396 147.353 105.604 146.851C106.841 146.398 108.028 145.973 109.314 145.491C110.55 145.038 111.815 144.633 113.108 144.278C114.323 143.902 115.539 143.525 116.755 143.149C117.971 142.773 119.11 142.376 120.228 142.056C121.395 141.708 122.534 141.311 123.652 140.991C124.742 140.622 125.783 140.282 126.852 139.99C127.893 139.65 128.857 139.289 129.821 138.928C130.785 138.566 131.672 138.185 132.587 137.852C133.474 137.47 134.361 137.088 135.171 136.686C135.981 136.283 136.762 135.832 137.495 135.409C138.228 134.986 138.884 134.542 139.588 134.07C140.216 133.577 140.872 133.134 141.45 132.669C142.029 132.205 142.58 131.692 143.158 131.227C143.66 130.742 144.211 130.229 144.558 129.703C144.926 129.099 145.245 128.524 145.614 127.921C146.273 126.693 146.925 125.34 147.45 123.994C148.025 122.62 148.628 121.295 149.231 119.97C149.939 118.714 150.906 117.569 152.036 116.592C153.088 115.593 154.14 114.595 155.192 113.597C156.244 112.598 157.317 111.523 158.362 110.399C159.406 109.275 160.458 108.276 161.559 107.25C162.66 106.223 163.789 105.246 164.947 104.317C166.104 103.388 167.339 102.48 168.524 101.6C169.71 100.72 171.001 99.9098 172.263 99.0505C173.505 98.2683 174.768 97.409 176.059 96.5985C177.35 95.7881 178.697 95.0754 180.044 94.3627C181.42 93.6988 182.901 93.1045 184.438 92.6078C185.947 92.0623 187.484 91.5656 188.972 91.0972C190.509 90.6006 192.103 90.2016 193.648 89.8309C195.241 89.432 196.884 89.0048 198.534 88.7036C200.289 88.4719 202.093 88.2119 203.905 88.0779C205.716 87.9439 207.605 87.8305 209.648 87.7585C211.691 87.6864 213.664 87.7196 215.735 87.6964C217.835 87.722 220.011 87.7683 222.167 87.8916C224.322 88.015 226.583 88.2078 228.844 88.4007C231.133 88.6424 233.423 88.8841 235.74 89.1746C238.163 89.5347 240.536 89.923 242.959 90.2831C245.382 90.6431 247.755 91.0314 250.206 91.4403C252.657 91.8492 255.059 92.2864 257.461 92.7235C259.863 93.1606 262.342 93.6184 264.744 94.0555C267.174 94.5415 269.604 95.0275 272.035 95.5134C274.465 95.9994 276.98 96.632 279.705 97.4035C282.515 98.3216 285.43 99.3092 288.402 100.395C291.402 101.529 294.401 102.663 297.401 103.797C300.373 104.882 303.296 105.996 306.267 107.081C309.218 108.244 312.169 109.406 315.071 110.597C317.974 111.787 320.904 113.027 323.708 114.274C326.59 115.541 329.422 116.837 332.332 118.154C335.165 119.45 337.977 120.823 340.761 122.147C343.544 123.471 346.259 124.9 348.994 126.252C351.708 127.682 354.422 129.111 357.136 130.54C359.802 131.998 362.467 133.455 365.112 134.99C367.757 136.525 370.325 138.039 372.92 139.601C375.516 141.164 378.063 142.755 380.61 144.346C383.158 145.937 385.656 147.556 388.133 149.253C390.583 150.9 393.032 152.548 395.461 154.272C397.861 155.948 400.29 157.672 402.67 159.425C405.05 161.178 407.352 162.91 409.655 164.642C411.958 166.374 414.212 168.134 416.417 169.922C418.622 171.711 420.799 173.45 422.927 175.218C425.055 176.986 427.134 178.782 429.213 180.578C431.264 182.325 433.295 184.15 435.276 186.002C437.258 187.854 439.239 189.707 441.22 191.559C443.153 193.44 445.086 195.32 446.998 197.278C448.881 199.187 450.744 201.173 452.608 203.159C454.471 205.145 456.236 207.187 458.05 209.201C459.816 211.243 461.581 213.286 463.298 215.356C465.014 217.427 466.682 219.526 468.329 221.701C470.025 223.849 471.595 226.004 473.242 228.18C474.84 230.384 476.361 232.567 477.91 234.799C479.46 237.032 480.96 239.292 482.412 241.581C483.863 243.869 485.315 246.158 486.718 248.475C488.12 250.792 489.474 253.137 490.828 255.482C492.133 257.855 493.41 260.179 494.666 262.581C495.894 264.933 497.073 267.314 498.281 269.744C499.46 272.124 500.59 274.533 501.643 276.922C502.725 279.359 503.778 281.747 504.782 284.164C505.787 286.58 506.742 289.025 507.67 291.421C508.597 293.817 509.504 296.29 510.333 298.742C511.163 301.195 511.992 303.647 512.773 306.128C513.554 308.608 514.257 311.068 514.961 313.528C515.665 315.988 516.32 318.476 516.946 320.915C517.552 323.431 518.13 325.899 518.708 328.366C519.237 330.862 519.766 333.357 520.217 335.832C520.697 338.356 521.149 340.831 521.552 343.334C521.955 345.838 522.309 348.369 522.635 350.852C522.961 353.334 523.238 355.845 523.467 358.384C523.695 360.923 523.895 363.413 524.095 365.903C524.246 368.421 524.397 370.94 524.471 373.437C524.573 375.984 524.648 378.482 524.673 381.007C524.698 383.533 524.646 386.039 524.623 388.593C524.571 391.098 524.47 393.631 524.341 396.116C524.212 398.6 524.006 401.064 523.829 403.577C523.623 406.041 523.368 408.533 523.085 410.976C522.802 413.42 522.491 415.814 522.131 418.237C521.763 420.534 521.339 422.733 520.859 424.834C520.378 426.935 519.87 428.988 519.304 430.942C518.739 432.897 518.118 434.754 517.525 436.66C516.882 438.594 516.212 440.479 515.514 442.316C514.766 444.18 514.039 445.968 513.284 447.706C512.53 449.445 511.726 451.212 510.894 452.93C510.09 454.697 509.23 456.366 508.398 458.084C507.489 459.781 506.628 461.45 505.719 463.148C504.782 464.796 503.865 466.368 502.9 467.967C501.934 469.567 500.969 471.167 499.947 472.669C498.925 474.171 497.847 475.575 496.802 476.699C495.758 477.823 494.636 478.927 493.563 480.002C492.442 481.106 491.32 482.209 490.17 483.264C489.02 484.319 487.842 485.325 486.649 486.079C485.435 486.91 484.214 487.615 482.964 488.271C481.735 488.85 480.507 489.43 479.201 489.988C477.943 490.519 476.566 490.728 475.25 490.706C473.914 490.76 472.599 490.738 471.255 490.667C469.932 490.519 468.56 490.399 467.208 490.203C465.857 490.006 464.506 489.809 463.126 489.563C461.824 489.338 460.542 489.036 459.26 488.734C457.978 488.431 456.668 488.08 455.315 487.429C454.031 486.672 452.711 485.74 451.384 484.682C450.057 483.625 448.73 482.567 447.451 481.481C446.173 480.395 444.81 479.163 443.468 477.853C442.154 476.593 440.832 475.206 439.482 473.771C438.112 472.412 436.79 471.026 435.546 469.66C434.252 468.322 432.979 466.907 431.727 465.416C430.454 464.001 429.174 462.46 427.817 460.899C426.487 459.386 425.102 457.776 423.716 456.166C422.282 454.584 420.84 452.876 419.313 451.022C417.794 449.293 416.324 447.536 414.784 445.885C413.237 444.107 411.661 442.281 410.086 440.455C408.497 438.832 406.929 437.131 405.333 435.382C404.496 434.497 403.66 433.612 402.823 432.727C401.938 431.871 401.129 431.035 400.244 430.178C399.379 429.244 398.494 428.387 397.608 427.531C396.751 426.723 395.865 425.866 394.959 425.087C394.053 424.307 393.147 423.527 392.318 422.768C391.489 422.009 390.611 421.278 389.733 420.548C388.855 419.817 388.006 419.135 387.156 418.453C386.285 417.848 385.464 417.215 384.622 416.659C383.872 416.375 383.101 416.169 382.303 415.914C381.532 415.707 380.789 415.549 379.998 415.42C379.235 415.34 378.472 415.259 377.717 415.304C376.989 415.398 376.367 415.562 375.619 415.733C374.948 415.925 374.313 416.292 373.763 416.805C373.122 417.501 372.579 418.14 372.036 418.779Z" stroke="#ECE8DC" stroke-width="3"/>
</g>
</svg>
