<svg width="963" height="331" viewBox="0 0 963 331" fill="none" xmlns="http://www.w3.org/2000/svg">
<path d="M837.527 176.564C836.568 176.451 835.553 176.338 834.537 176.282C833.522 176.282 832.563 176.282 831.604 176.338C830.645 176.451 829.686 176.62 828.727 176.79C827.768 176.959 826.752 177.185 825.737 177.297C824.778 177.523 823.875 177.749 822.86 177.974C821.788 178.144 820.716 178.313 819.644 178.426C818.516 178.538 817.275 178.482 815.977 178.144C814.567 177.749 813.1 177.354 811.577 176.959C809.998 176.564 808.305 176.226 806.556 175.831C804.808 175.549 803.059 175.323 801.31 175.21C799.505 175.21 797.643 175.21 795.782 175.323C794.033 175.661 792.284 176.056 790.592 176.62C789.125 177.749 787.715 179.385 786.304 181.077C784.894 183.277 783.484 185.872 782.073 188.749C780.55 191.908 779.196 195.406 777.842 199.185C776.432 203.247 775.022 207.478 773.555 211.765C772.088 216.335 770.678 221.299 769.324 226.207C768.027 231.284 766.729 236.361 765.488 241.438C764.247 246.572 762.837 251.593 761.596 256.613C760.185 261.86 758.831 266.993 757.534 272.183C756.18 277.599 754.713 282.902 753.359 288.261C751.893 293.846 750.369 299.149 748.79 304.282C747.098 309.472 745.292 314.549 743.431 319.344C741.456 324.196 739.369 328.822 737.282 333.165C735.082 337.622 732.825 341.797 730.625 345.689C728.256 349.638 725.943 353.305 723.686 356.633C721.317 360.018 719.117 363.121 716.917 365.885C714.717 368.705 712.629 371.244 710.711 373.444C708.737 375.7 706.875 377.619 705.296 379.142C703.66 380.721 702.193 381.962 700.952 382.921C699.655 383.88 698.583 384.557 697.737 384.952C696.834 385.347 696.213 385.403 695.818 385.065C695.367 384.783 695.198 384.219 695.254 383.26C695.254 382.357 695.536 381.172 695.988 379.593C696.439 378.07 697.116 376.265 698.019 374.121C698.865 371.977 699.993 369.552 701.234 366.787C702.475 364.08 703.829 361.033 705.409 357.648C706.875 354.32 708.455 350.71 710.147 346.874C711.727 343.038 713.363 338.976 715.055 334.576C716.522 330.345 717.932 325.832 719.173 321.037C720.189 316.411 721.204 311.616 722.163 306.539C723.009 301.631 723.856 296.497 724.702 291.194C725.435 285.948 726.225 280.532 726.958 274.891C727.579 269.363 728.143 263.665 728.763 257.967C729.384 252.495 730.117 247.023 730.907 241.495C731.641 236.136 732.487 230.664 733.333 225.022C734.348 219.55 735.477 213.966 736.492 208.324C737.338 202.909 738.184 197.437 738.918 191.908C739.538 186.549 740.046 181.133 740.554 175.718C740.949 170.471 741.343 165.225 741.738 160.035C742.133 155.071 742.415 150.219 742.754 145.481C743.149 141.024 743.656 136.793 744.221 132.675C744.785 128.895 745.349 125.172 746.364 122.013C747.323 118.967 748.282 116.09 749.241 113.325C750.2 110.674 751.329 108.192 752.57 105.823C753.924 103.792 755.334 101.874 756.744 100.069C758.098 98.2633 759.508 96.6274 760.919 95.1607C762.329 93.9196 763.739 92.9606 765.206 92.1144C766.729 91.5502 768.422 91.4938 770.17 91.6066C771.919 91.7759 773.611 91.9451 775.36 92.1708C776.996 92.4528 778.632 92.7913 780.325 93.1862C781.904 93.5811 783.597 94.0324 785.176 94.4837C786.699 94.8221 788.11 94.9914 789.351 94.8786C790.535 94.6529 791.664 94.4273 792.792 94.2016C793.92 93.9195 794.992 93.5811 796.064 93.2426C797.136 92.9041 798.151 92.6221 799.223 92.5092C800.295 92.3964 801.423 92.34 802.495 92.2836C803.567 92.2272 804.582 92.2272 805.597 92.1708C806.556 92.1144 807.515 92.1144 808.474 92.1708C809.433 92.1708 810.336 92.2836 811.295 92.3964C812.254 92.5093 813.213 92.7349 814.172 92.9606C815.131 93.1862 816.147 93.4119 817.218 93.7503C818.234 94.0888 819.306 94.4273 820.321 94.8222C821.393 95.2735 822.465 95.6683 823.48 96.1196C824.496 96.5145 825.568 96.9659 826.527 97.4736C827.542 97.9813 828.67 98.5454 829.742 99.1095C830.814 99.7301 831.886 100.351 833.014 101.084C834.086 101.817 835.158 102.551 836.286 103.453C837.414 104.412 838.486 105.428 839.614 106.443C840.742 107.515 841.814 108.643 842.943 109.772C844.014 110.9 845.143 112.084 846.158 113.325C847.23 114.567 848.302 115.808 849.43 117.105C850.558 118.403 851.63 119.7 852.702 121.054C853.83 122.408 854.902 123.762 855.974 125.172C857.046 126.582 858.061 127.993 859.133 129.459C860.148 130.926 861.22 132.393 862.179 133.916C863.195 135.496 864.21 137.019 865.113 138.598C866.072 140.178 867.031 141.701 867.99 143.281C868.892 144.804 869.795 146.383 870.641 147.906C871.544 149.43 872.39 150.896 873.236 152.363C874.082 153.773 874.928 155.24 875.718 156.594C876.564 158.004 877.354 159.358 878.088 160.712C878.821 162.122 879.554 163.476 880.231 164.83C880.908 166.184 881.529 167.594 882.149 168.948C882.713 170.302 883.334 171.656 883.842 173.01C884.349 174.364 884.857 175.718 885.308 177.015C885.76 178.369 886.155 179.667 886.493 180.908C886.888 182.205 887.17 183.446 887.452 184.631C887.734 185.872 887.96 187 888.185 188.129C888.355 189.257 888.524 190.329 888.637 191.344C888.75 192.416 888.862 193.375 888.862 194.334C888.919 195.293 888.919 196.139 888.919 196.985C888.919 197.832 888.862 198.621 888.75 199.411C888.637 200.144 888.524 200.878 888.355 201.498C888.185 202.175 887.96 202.739 887.791 203.304C887.565 203.868 887.283 204.319 887.001 204.77C886.719 205.222 886.38 205.617 886.042 205.955C885.703 206.293 885.365 206.576 884.914 206.801C884.519 207.027 884.067 207.196 883.616 207.309C883.165 207.365 882.657 207.365 882.149 207.365C881.642 207.309 881.077 207.253 880.57 207.083C880.006 206.914 879.442 206.745 878.821 206.463C878.2 206.237 877.58 205.899 876.903 205.56C876.226 205.222 875.549 204.77 874.816 204.319C874.082 203.868 873.349 203.304 872.616 202.796C871.882 202.288 871.092 201.724 870.246 201.047C869.456 200.427 868.667 199.75 867.821 199.016C866.974 198.283 866.072 197.549 865.226 196.873C864.379 196.252 863.533 195.575 862.631 195.011C861.728 194.447 860.825 193.826 859.923 193.206C859.02 192.585 858.061 191.965 857.102 191.288C856.143 190.611 855.184 189.99 854.225 189.37C853.322 188.636 852.363 187.79 851.517 186.944C850.615 186.041 849.712 185.082 848.753 184.067C847.85 183.108 846.891 182.149 845.932 181.246C844.973 180.456 844.014 179.78 843.055 179.103C842.153 178.538 841.25 178.031 840.291 177.523C839.501 177.128 838.542 176.846 837.527 176.564Z" stroke="#655454" stroke-width="3"/>
<path d="M840.122 200.596C839.445 200.314 838.768 200.088 838.091 199.919C837.414 199.75 836.737 199.58 836.06 199.468C835.44 199.355 834.763 199.185 834.142 199.073C833.522 198.96 832.845 198.791 832.224 198.621C831.547 198.452 830.87 198.283 830.25 198.114C829.573 197.888 828.896 197.662 828.219 197.493C827.486 197.267 826.752 197.098 826.019 196.816C825.342 196.59 824.609 196.308 823.932 196.026C823.255 195.744 822.521 195.462 821.788 195.124C821.054 194.785 820.321 194.503 819.531 194.165C818.742 193.826 817.952 193.488 817.049 193.206C816.147 192.98 815.188 192.754 814.172 192.585C813.157 192.472 812.028 192.303 810.9 192.19C809.716 192.134 808.531 192.134 807.29 192.134C806.049 192.247 804.808 192.472 803.679 192.811C802.551 193.149 801.367 193.601 800.238 194.052C799.054 194.56 797.869 195.18 796.797 195.97C795.725 196.929 794.653 198.057 793.638 199.468C792.623 201.16 791.551 202.965 790.479 204.94C789.351 207.252 788.222 209.735 787.094 212.33C786.079 215.15 784.95 218.14 783.879 221.412C782.807 224.797 781.735 228.182 780.663 231.566C779.648 235.064 778.576 238.618 777.56 242.398C776.658 246.234 775.699 250.126 774.74 254.019C773.724 258.08 772.709 262.198 771.806 266.317C770.847 270.604 769.832 274.891 768.76 279.291C767.745 283.861 766.616 288.487 765.488 293.282C764.36 298.302 763.175 303.38 761.934 308.569C760.524 313.759 758.944 319.006 757.308 324.196C755.559 329.442 753.698 334.745 751.723 339.991C747.323 350.653 742.246 361.146 736.718 371.357C730.569 381.68 724.081 391.609 717.368 401.086C710.937 410.62 704.845 419.702 699.09 428.108C693.111 436.457 687.075 444.185 680.982 450.842C674.382 456.991 667.556 462.237 660.786 466.581C653.735 470.474 646.796 473.52 639.97 475.946C632.918 478.315 625.923 480.289 619.041 481.7C612.102 482.772 605.333 483.449 598.62 483.787C591.624 483.787 585.024 483.166 578.706 482.207C572.67 481.023 566.803 479.669 561.331 478.202C555.69 476.623 550.161 475.043 544.971 473.464C539.556 471.771 534.422 470.248 529.571 468.725C524.719 467.258 520.15 465.791 515.862 464.438C511.406 463.027 507.4 461.73 503.734 460.489C500.01 459.248 496.682 458.006 493.805 456.822C490.815 455.637 488.277 454.453 486.246 453.324C484.102 452.196 482.466 451.124 481.507 450.165C480.492 449.206 480.097 448.304 480.153 447.457C480.153 446.611 480.717 445.878 481.733 445.201C482.692 444.524 484.158 443.847 486.077 443.283C488.164 442.719 490.759 442.211 493.749 441.816C496.682 441.365 500.123 440.97 504.072 440.688C507.908 440.349 512.139 440.011 516.765 439.785C521.391 439.503 526.468 439.334 531.827 439.052C537.017 438.77 542.602 438.713 548.469 438.657C554.223 438.601 560.259 438.431 566.577 438.093C572.895 437.416 579.439 436.626 586.152 435.723C592.978 434.764 600.143 433.523 607.533 431.887C614.979 429.913 622.426 427.092 629.703 423.369C636.585 418.969 643.242 413.835 649.617 407.743C655.653 400.917 661.463 393.245 666.935 384.896C673.31 376.265 679.741 366.957 685.834 356.746C691.306 346.592 696.326 336.042 700.783 325.437C704.111 315.452 706.481 305.41 708.737 295.369C709.752 290.405 710.768 285.384 711.727 280.307C712.573 275.286 713.306 270.209 713.871 265.245C714.322 260.393 714.717 255.598 715.112 250.859C715.563 246.234 716.183 241.608 716.86 237.095C717.594 232.582 718.44 228.012 719.343 223.556C720.584 219.099 721.825 214.586 723.009 210.13C724.138 205.729 725.21 201.273 726.169 196.816C727.015 192.416 727.748 188.016 728.425 183.672C729.046 179.385 729.61 175.154 730.174 170.866C730.569 166.692 730.964 162.517 731.246 158.343C731.528 154.281 731.81 150.276 732.092 146.27C732.374 142.378 732.543 138.598 732.769 134.819C732.994 131.208 733.22 127.711 733.559 124.439C733.953 121.336 734.348 118.29 734.856 115.582C735.364 112.931 735.928 110.392 736.605 108.023C737.282 105.71 737.902 103.51 738.579 101.366C739.2 99.3352 739.877 97.3044 740.667 95.4427C741.513 93.694 742.303 92.0016 743.262 90.422C744.277 89.0681 745.292 87.8271 746.308 86.6424C747.38 85.5706 748.452 84.5551 749.467 83.5961C750.482 82.7499 751.498 82.0729 752.626 81.5088C753.698 81.0011 754.826 80.5498 755.954 80.2113C757.083 79.9293 758.267 79.76 759.452 79.7036C760.637 79.7036 761.878 79.7036 763.119 79.8164C764.36 79.9292 765.545 80.0985 766.729 80.3241C767.914 80.5498 769.098 80.8319 770.283 81.1703C771.468 81.5088 772.652 81.8473 773.781 82.2422C774.965 82.5807 776.15 82.9755 777.335 83.3704C778.519 83.7653 779.591 84.1038 780.719 84.3859C781.678 84.4987 782.525 84.4423 783.371 84.3859C784.161 84.2731 784.894 84.1038 785.684 83.9346C786.417 83.7653 787.151 83.5397 787.884 83.2576C788.561 82.9756 789.294 82.7499 789.971 82.4678C790.648 82.2986 791.269 82.1858 791.946 82.0165C792.623 81.9037 793.299 81.7909 793.976 81.6781C794.653 81.5652 795.33 81.5088 796.007 81.396C796.684 81.2832 797.305 81.1704 797.869 81.0011C798.489 80.8883 799.054 80.7754 799.674 80.6626C800.295 80.5498 800.859 80.437 801.423 80.3241C801.987 80.2113 802.608 80.1549 803.172 80.0985C803.736 80.0421 804.356 80.0421 804.92 80.0421C805.541 80.0421 806.105 80.0985 806.726 80.0421C807.29 79.9857 807.91 79.9857 808.587 80.0421C809.264 80.0421 809.885 80.0421 810.562 80.0985C811.239 80.1549 811.859 80.2113 812.536 80.2677C813.157 80.3242 813.834 80.437 814.511 80.6062C815.188 80.7754 815.864 80.9447 816.541 81.0575C817.218 81.2268 817.895 81.3396 818.572 81.5088C819.249 81.7344 819.983 81.9601 820.716 82.1858C821.449 82.4114 822.126 82.6935 822.86 82.9756C823.537 83.2576 824.27 83.5397 825.003 83.8782C825.737 84.2166 826.47 84.6115 827.203 85.0628C827.937 85.5141 828.727 85.9654 829.516 86.4167C830.25 86.868 831.04 87.3193 831.829 87.827C832.563 88.3348 833.352 88.8424 834.142 89.4066C834.932 89.9707 835.722 90.5348 836.455 91.0989C837.245 91.7195 837.978 92.2836 838.768 92.9042C839.558 93.5247 840.348 94.2017 841.081 94.8222C841.871 95.4992 842.604 96.1761 843.394 96.8531C844.184 97.53 844.917 98.2633 845.65 98.9967C847.174 100.463 848.753 102.043 850.333 103.623C851.912 105.259 853.435 107.007 855.015 108.756C856.594 110.674 858.174 112.705 859.697 114.736C861.277 116.767 862.8 118.798 864.267 120.772C865.79 122.746 867.256 124.777 868.667 126.808C870.133 128.839 871.544 130.813 872.954 132.844C874.364 134.875 875.718 136.85 877.072 138.824C878.426 140.742 879.724 142.716 881.077 144.578C882.431 146.383 883.729 148.245 885.026 150.05C886.267 151.912 887.508 153.83 888.75 155.804C889.934 157.835 891.119 159.809 892.191 161.84C893.319 163.928 894.334 165.958 895.35 168.102C896.365 170.189 897.324 172.333 898.227 174.533C899.13 176.846 899.976 179.103 900.822 181.472C901.612 183.841 902.401 186.267 903.135 188.636C903.812 191.062 904.489 193.431 905.109 195.801C905.673 198.17 906.237 200.539 906.745 202.852C907.197 205.222 907.648 207.535 907.986 209.791C908.325 212.048 908.663 214.248 908.889 216.335C909.115 218.479 909.34 220.453 909.453 222.371C909.566 224.289 909.679 226.151 909.679 227.956C909.735 229.705 909.679 231.397 909.622 233.033C909.566 234.613 909.453 236.136 909.284 237.49C909.115 238.9 908.889 240.197 908.663 241.438C908.381 242.68 908.099 243.751 907.761 244.823C907.422 245.839 907.027 246.798 906.632 247.644C906.238 248.49 905.786 249.167 905.335 249.731C904.884 250.295 904.376 250.803 903.868 251.198C903.36 251.593 902.796 251.875 902.232 252.044C901.668 252.213 901.048 252.383 900.427 252.383C899.806 252.383 899.186 252.383 898.509 252.213C897.832 252.044 897.155 251.762 896.422 251.424C895.688 251.085 894.955 250.69 894.222 250.182C893.432 249.675 892.698 249.167 891.852 248.547C891.457 248.264 891.063 247.926 890.611 247.587C890.216 247.249 889.765 246.911 889.37 246.516C888.975 246.177 888.524 245.782 888.073 245.387C887.621 244.992 887.17 244.598 886.719 244.146C886.267 243.751 885.816 243.3 885.365 242.849C884.914 242.398 884.406 241.89 883.955 241.438C883.447 240.931 882.995 240.479 882.488 239.972C881.98 239.464 881.472 238.956 881.021 238.392C880.513 237.885 880.006 237.32 879.498 236.756C878.99 236.192 878.426 235.628 877.918 235.008C877.354 234.387 876.847 233.823 876.282 233.202C875.718 232.582 875.154 231.961 874.59 231.341C874.026 230.72 873.462 230.1 872.898 229.479C872.334 228.859 871.769 228.182 871.205 227.505C870.641 226.828 870.077 226.151 869.456 225.474C868.892 224.797 868.272 224.12 867.651 223.386C867.031 222.71 866.467 221.976 865.846 221.299C865.226 220.622 864.605 220.002 863.984 219.438C863.364 218.873 862.743 218.309 862.123 217.802C861.502 217.294 860.882 216.73 860.261 216.166C859.641 215.658 859.02 215.094 858.4 214.586C857.779 213.966 857.102 213.345 856.482 212.668C855.861 211.991 855.184 211.371 854.564 210.75C853.887 210.13 853.266 209.509 852.589 208.832C851.912 208.212 851.292 207.591 850.615 206.97C849.938 206.406 849.261 205.899 848.584 205.334C847.907 204.827 847.174 204.319 846.497 203.811C845.763 203.36 845.03 202.965 844.296 202.57C843.62 202.175 842.943 201.837 842.266 201.442C841.476 201.216 840.799 200.878 840.122 200.596Z" stroke="#655454" stroke-width="3"/>
<path d="M840.122 227.279C839.219 226.715 838.317 226.151 837.414 225.586C836.511 225.079 835.552 224.515 834.593 223.951C833.634 223.386 832.619 222.879 831.604 222.315C830.588 221.75 829.573 221.243 828.557 220.622C827.542 220.058 826.47 219.494 825.455 218.873C824.439 218.309 823.367 217.689 822.408 217.125C821.506 216.673 820.547 216.166 819.644 215.771C818.742 215.376 817.783 215.037 816.767 214.699C815.695 214.417 814.623 214.248 813.495 214.191C812.311 214.248 811.069 214.417 809.716 214.642C808.362 214.981 807.008 215.432 805.541 216.053C804.187 216.955 802.777 218.084 801.423 219.55C800.069 221.243 798.659 223.217 797.248 225.586C795.782 228.407 794.315 231.341 792.905 234.5C791.551 238.11 790.253 241.833 788.956 245.669C787.602 249.618 786.361 253.68 785.063 257.798C783.709 262.085 782.412 266.429 781.227 271.055C780.099 275.907 778.801 280.984 777.56 286.343C776.319 291.871 775.135 297.569 773.781 303.323C772.37 309.303 770.847 315.395 769.211 321.488C767.406 327.806 765.432 334.237 763.288 340.668C760.919 347.325 758.324 354.038 755.39 360.695C752.231 367.521 748.79 374.403 745.18 381.285C741.287 388.224 737.169 395.106 732.825 401.876C728.256 408.589 723.799 415.189 719.512 421.79C715.168 428.221 710.655 434.482 706.311 440.688C701.968 446.724 697.567 452.647 693.111 458.176C688.428 463.648 683.633 468.725 678.613 472.899C673.536 476.792 668.458 480.515 663.551 483.787C658.53 486.89 653.735 489.485 648.996 492.08C644.088 494.675 639.011 497.1 633.821 499.47C628.518 501.388 623.103 503.024 617.631 504.547C611.425 505.788 605.446 506.803 599.409 507.649C593.43 508.157 587.563 508.27 581.752 508.27C575.829 508.101 570.188 507.706 564.828 507.085C559.526 506.408 554.336 505.562 549.371 504.603C544.351 503.475 539.386 502.347 534.478 501.162C529.571 499.921 524.719 498.567 519.868 497.213C514.96 495.859 509.826 494.618 504.862 493.434C499.672 492.249 494.538 491.064 489.405 489.88C484.046 488.638 478.743 487.341 473.496 486.156C468.194 484.915 462.947 483.674 457.757 482.377C452.567 481.079 447.377 479.725 442.3 478.315C437.11 476.905 431.977 475.494 426.9 474.14C421.879 472.843 417.027 471.602 412.345 470.417C407.663 469.345 403.037 468.443 398.581 467.709C394.124 467.032 389.78 466.355 385.436 465.791C381.093 465.171 376.805 464.607 372.574 463.986C368.343 463.366 364.169 462.689 360.051 462.012C356.102 461.335 352.322 460.601 348.655 459.868C341.265 458.288 334.157 456.652 327.388 454.96C320.449 453.155 313.962 451.293 308.038 449.375C302.059 447.401 296.417 445.37 291.397 443.339C286.263 441.252 281.524 439.165 277.35 437.134C273.119 434.99 269.396 432.959 266.293 430.985C263.077 428.954 260.313 426.979 258 425.061C255.575 423.143 253.657 421.282 252.19 419.477C250.667 417.671 249.708 415.979 249.313 414.399C248.862 412.82 248.918 411.353 249.369 410.056C249.764 408.702 250.78 407.574 252.303 406.615C253.713 405.599 255.631 404.753 257.944 403.963C260.257 403.23 263.134 402.666 266.462 402.158C269.734 401.65 273.965 401.368 278.873 401.312C283.837 401.199 289.366 401.199 295.571 401.368C298.674 401.425 301.889 401.425 305.274 401.537C308.602 401.594 312.044 401.65 315.71 401.707C319.377 401.819 323.27 401.876 327.331 401.989C331.337 402.045 335.511 402.158 339.799 402.214C344.086 402.271 348.486 402.327 352.999 402.384C357.738 402.496 362.589 402.553 367.497 402.666C372.462 402.722 377.482 402.835 382.729 402.948C387.975 403.004 393.334 403.173 398.75 403.343C404.165 403.568 409.694 403.794 415.279 404.076C420.751 404.358 426.336 404.697 431.977 405.091C437.562 405.486 443.259 405.881 449.239 406.389C455.219 406.897 461.311 407.404 467.46 408.025C473.609 408.645 479.758 409.21 486.02 409.886C492.282 410.507 498.544 411.071 504.918 411.748C511.236 412.256 517.442 412.651 523.647 413.046C529.74 413.384 535.776 413.666 541.925 413.779C547.961 413.835 553.941 414.005 559.977 414.287C566.013 414.569 572.219 414.851 578.65 414.907C584.968 414.681 591.23 414.174 597.548 413.44C603.584 411.917 609.564 409.774 615.487 406.897C621.015 403.625 626.318 400.014 631.452 395.896C636.416 391.44 641.098 386.588 645.216 381.849C649.391 377.054 654.299 372.09 658.981 366.9C663.381 361.541 667.669 355.9 671.73 349.863C675.51 343.376 679.008 336.437 682.054 329.16C684.48 321.77 686.285 314.323 687.752 306.877C689.105 299.825 690.629 293.507 692.265 287.64C693.731 281.886 694.916 275.794 695.931 269.758C696.834 263.721 697.624 257.572 698.357 251.367C699.034 245.275 699.937 239.295 701.065 233.428C702.419 227.617 704.111 221.694 706.029 215.827C707.947 210.017 709.809 204.319 711.67 198.734C713.363 193.262 715.055 187.846 716.522 182.318C717.763 176.62 718.778 170.923 719.737 165.338C720.527 159.753 721.091 154.112 721.543 148.527C721.825 142.942 722.107 137.414 722.389 131.998C722.615 126.695 722.84 121.731 723.009 116.823C723.235 112.141 723.799 108.079 724.363 104.243C724.927 100.576 725.548 97.0786 726.338 93.9195C727.128 90.8732 727.917 88.109 728.763 85.5141C729.722 83.0319 730.794 80.8318 731.923 78.7445C733.22 76.9958 734.574 75.529 735.984 74.2315C737.338 73.0469 738.692 71.975 740.046 71.016C741.456 70.1698 742.81 69.4365 744.277 68.8723C745.744 68.421 747.21 68.0825 748.734 67.8569C750.257 67.6876 751.78 67.7441 753.303 67.8005C754.77 67.9133 756.293 68.0826 757.872 68.3646C759.395 68.7031 760.919 69.0416 762.442 69.4365C763.965 69.8878 765.488 70.3391 767.011 70.8468C768.534 71.4109 770.057 71.9186 771.581 72.3699C772.991 72.7648 774.232 72.9904 775.36 72.9904C776.376 72.8776 777.391 72.7083 778.294 72.4827C779.196 72.1442 780.099 71.8622 781.002 71.5801C781.848 71.3545 782.637 71.1852 783.484 71.016C784.273 70.8467 785.063 70.6211 785.909 70.4519C786.756 70.2826 787.545 70.1134 788.335 69.8877C789.069 69.6621 789.802 69.4365 790.535 69.1544C791.212 68.8723 791.946 68.5903 792.623 68.3082C793.3 68.0826 793.976 67.8005 794.71 67.6312C795.387 67.4056 796.064 67.2363 796.741 67.0671C797.418 66.8414 798.095 66.6722 798.771 66.4466C799.505 66.2773 800.295 66.1081 801.084 65.9952C801.874 65.9388 802.664 65.8824 803.454 65.8824C804.244 65.8824 805.033 65.9388 805.823 65.9388C806.669 65.9953 807.459 66.0517 808.305 66.0517C809.151 66.1081 809.998 66.1645 810.844 66.2773C811.69 66.3901 812.536 66.503 813.439 66.6158C814.341 66.7287 815.244 66.9543 816.147 67.2364C817.049 67.5184 818.008 67.8569 818.911 68.1953C819.87 68.5902 820.829 68.9852 821.788 69.4365C822.747 69.8878 823.706 70.3391 824.665 70.8468C825.624 71.3545 826.583 71.8622 827.542 72.3699C828.501 72.934 829.46 73.4981 830.419 74.0623C831.378 74.6828 832.393 75.3034 833.352 75.9803C834.311 76.6573 835.27 77.3342 836.229 78.0112C837.188 78.6881 838.147 79.365 839.106 80.042C840.065 80.7189 841.025 81.4524 841.984 82.1293C842.943 82.8627 843.902 83.5396 844.804 84.3293C845.763 85.0627 846.779 85.8525 847.794 86.6987C848.809 87.6013 849.825 88.5603 850.84 89.5193C851.856 90.5348 852.871 91.5502 853.887 92.622C854.902 93.6375 855.917 94.7657 856.876 95.7811C857.892 96.853 858.851 97.9248 859.866 98.9966C860.882 100.125 861.841 101.197 862.856 102.325C863.815 103.453 864.831 104.581 865.79 105.766C866.749 106.894 867.708 108.079 868.667 109.207C869.626 110.392 870.585 111.577 871.544 112.705C872.503 113.89 873.405 115.074 874.364 116.259C875.323 117.444 876.226 118.685 877.129 119.869C878.031 121.054 878.934 122.295 879.836 123.48C880.739 124.664 881.698 125.849 882.601 127.034C883.503 128.218 884.406 129.403 885.252 130.531C886.155 131.66 887.057 132.788 887.96 133.916C888.862 135.044 889.765 136.173 890.611 137.301C891.514 138.485 892.36 139.67 893.206 140.855C894.052 142.039 894.899 143.281 895.745 144.522C896.591 145.763 897.381 147.004 898.17 148.301C898.96 149.599 899.75 150.953 900.54 152.25C901.33 153.66 902.063 155.071 902.853 156.537C903.586 158.061 904.376 159.584 905.109 161.163C906.576 164.379 907.986 167.594 909.34 170.866C910.694 174.195 911.992 177.523 913.233 180.964C914.474 184.405 915.602 187.959 916.73 191.513C917.802 195.124 918.874 198.734 919.833 202.345C920.792 205.955 921.638 209.565 922.428 213.176C923.218 216.843 923.895 220.453 924.515 224.063C925.079 227.674 925.643 231.284 926.038 234.838C926.433 238.392 926.828 241.89 927.11 245.218C927.392 248.603 927.561 251.818 927.674 254.977C927.787 258.137 927.787 261.239 927.731 264.229C927.674 267.219 927.561 270.04 927.336 272.747C927.11 275.455 926.884 278.05 926.546 280.532C926.207 283.015 925.813 285.44 925.361 287.697C924.91 289.953 924.402 292.041 923.838 294.015C923.556 294.974 923.274 295.933 922.992 296.836C922.71 297.738 922.371 298.641 922.089 299.487C921.751 300.333 921.469 301.123 921.13 301.856C920.792 302.59 920.453 303.267 920.115 303.944C919.777 304.621 919.438 305.241 919.043 305.805C918.648 306.426 918.31 306.99 917.915 307.498C917.52 308.005 917.125 308.513 916.73 308.964C916.335 309.416 915.94 309.81 915.546 310.205C915.151 310.6 914.699 310.939 914.304 311.221C913.853 311.559 913.458 311.785 913.063 311.954C912.669 312.123 912.217 312.293 911.822 312.405C911.371 312.518 910.976 312.631 910.525 312.688C910.074 312.744 909.679 312.744 909.227 312.744C908.776 312.744 908.325 312.688 907.873 312.575C907.422 312.462 906.971 312.293 906.519 312.123C906.068 311.954 905.617 311.729 905.166 311.503C904.714 311.277 904.263 310.939 903.812 310.6C903.36 310.262 902.909 309.81 902.458 309.359C902.007 308.908 901.555 308.4 901.104 307.892C900.653 307.328 900.145 306.764 899.694 306.144C899.242 305.523 898.735 304.903 898.283 304.169C897.832 303.492 897.324 302.759 896.873 301.969C896.365 301.236 895.914 300.502 895.406 299.713C894.899 298.923 894.447 298.133 893.94 297.287C893.432 296.497 892.924 295.707 892.416 294.861C891.909 294.015 891.401 293.169 890.837 292.266C890.329 291.42 889.765 290.517 889.257 289.615C888.75 288.712 888.185 287.81 887.678 286.851C887.114 286.004 886.606 285.102 886.042 284.199C885.478 283.297 884.914 282.338 884.349 281.379C883.785 280.42 883.221 279.461 882.601 278.502C882.036 277.543 881.416 276.584 880.852 275.625C880.231 274.665 879.611 273.65 879.047 272.691C878.426 271.732 877.805 270.773 877.185 269.758C876.564 268.799 875.888 267.783 875.267 266.768C874.59 265.752 873.969 264.737 873.293 263.721C872.616 262.706 871.939 261.691 871.318 260.675C870.641 259.716 869.964 258.701 869.287 257.685C868.554 256.726 867.877 255.711 867.2 254.695C866.467 253.736 865.79 252.721 865.056 251.706C864.323 250.747 863.646 249.788 862.913 248.885C862.179 248.039 861.446 247.136 860.656 246.121C859.866 245.162 859.133 244.203 858.343 243.187C857.553 242.228 856.707 241.269 855.917 240.367C855.128 239.52 854.338 238.731 853.605 237.941C852.815 237.151 852.025 236.305 851.235 235.459C850.445 234.613 849.599 233.879 848.753 233.146C847.907 232.469 847.004 231.792 846.158 231.115C845.255 230.494 844.353 229.817 843.45 229.141C841.927 228.464 841.024 227.843 840.122 227.279Z" stroke="#655454" stroke-width="3"/>
<path d="M838.035 242.172C836.963 241.326 835.947 240.536 834.876 239.69C833.804 238.9 832.619 238.167 831.491 237.377C830.306 236.643 829.121 236.023 827.993 235.515C826.865 235.064 825.737 234.669 824.552 234.274C823.367 233.936 822.183 233.597 820.998 233.259C819.757 232.977 818.459 232.751 817.275 232.525C816.034 232.356 814.849 232.243 813.552 232.13C812.254 232.13 811.013 232.243 809.716 232.469C808.418 232.864 807.121 233.428 805.767 234.161C804.413 235.29 803.002 236.643 801.479 238.392C799.956 240.536 798.377 243.018 796.966 245.895C795.556 249.336 794.146 253.003 792.735 256.839C791.381 260.788 790.028 264.737 788.617 268.742C787.094 272.973 785.684 277.261 784.33 281.83C782.976 287.02 781.622 292.548 780.325 298.359C778.971 304.395 777.56 310.431 776.15 316.524C774.57 322.785 772.878 328.934 771.017 335.083C768.929 341.345 766.729 347.72 764.303 354.151C761.596 360.864 758.662 367.633 755.39 374.629C751.78 381.849 747.774 389.183 743.487 396.46C738.805 403.907 733.953 411.071 729.046 418.292C724.081 425.682 719.173 432.903 714.04 439.954C708.963 446.95 703.998 453.775 698.978 460.037C693.788 466.073 688.485 471.771 683.013 476.905C677.372 481.643 671.787 486.156 666.258 490.162C660.899 493.772 655.653 496.988 650.406 500.147C644.934 503.306 638.729 506.352 632.354 509.003C625.698 511.26 618.815 513.347 611.707 515.209C604.599 516.788 597.604 518.086 590.948 518.763C584.178 519.158 577.465 519.383 570.977 519.383C564.659 519.158 558.51 518.763 552.531 518.199C546.551 517.409 540.797 516.393 535.155 515.322C529.458 514.193 523.873 512.896 518.288 511.598C512.59 510.301 506.78 508.891 501.308 507.537C495.779 506.126 490.195 504.772 484.497 503.419C478.63 502.065 472.876 500.767 467.122 499.357C461.311 497.947 455.444 496.48 449.521 494.957C443.485 493.434 437.505 491.91 431.582 490.444C425.546 488.977 419.566 487.51 413.925 486.156C408.227 484.859 402.699 483.731 397.283 482.772C391.811 481.869 386.452 481.023 381.205 480.233C375.959 479.5 370.713 478.71 365.466 477.976C360.164 477.187 354.917 476.341 349.784 475.438C344.65 474.535 339.686 473.576 334.778 472.561C329.87 471.545 324.962 470.53 320.167 469.458C315.316 468.386 310.52 467.202 305.782 466.073C300.987 464.889 296.361 463.648 291.791 462.407C287.222 461.109 282.878 459.812 278.704 458.514C274.529 457.16 270.411 455.75 266.462 454.396C262.401 452.986 258.452 451.519 254.616 450.052C250.723 448.529 247 447.062 243.446 445.539C239.835 444.016 236.338 442.493 232.953 440.913C229.625 439.334 226.409 437.811 223.307 436.175C220.204 434.539 217.214 432.959 214.281 431.323C211.347 429.687 208.527 427.995 205.875 426.359C203.449 424.779 201.08 423.143 198.824 421.564C196.567 419.928 194.423 418.348 192.336 416.769C190.249 415.133 188.331 413.553 186.469 411.974C184.608 410.338 182.802 408.758 181.166 407.179C179.474 405.599 177.951 404.02 176.541 402.553C175.187 401.03 173.889 399.563 172.705 398.096C171.52 396.63 170.392 395.219 169.376 393.809C168.361 392.399 167.515 391.045 166.725 389.747C165.935 388.393 165.258 387.152 164.694 385.911C164.13 384.67 163.735 383.485 163.453 382.414C163.171 381.285 162.945 380.27 162.889 379.254C162.776 378.239 162.832 377.336 162.889 376.434C163.002 375.531 163.171 374.741 163.509 373.952C163.904 373.218 164.355 372.485 164.976 371.864C165.54 371.244 166.217 370.623 166.95 370.059C167.74 369.551 168.586 369.157 169.545 368.762C170.448 368.367 171.52 367.972 172.592 367.69C173.72 367.351 174.905 367.126 176.259 366.9C177.556 366.674 178.966 366.505 180.489 366.392C182.013 366.28 183.705 366.28 185.454 366.392C187.259 366.449 189.121 366.562 191.039 366.731C192.957 366.844 194.987 367.013 197.131 367.239C199.275 367.464 201.475 367.746 203.901 368.085C206.27 368.367 208.752 368.705 211.347 369.1C214.111 369.495 217.045 370.003 220.091 370.51C223.137 370.962 226.296 371.469 229.512 371.977C232.84 372.485 236.394 373.105 240.118 373.726C243.841 374.347 247.677 374.967 251.626 375.644C255.575 376.265 259.693 376.885 264.036 377.562C268.437 378.239 273.006 378.916 277.688 379.537C282.54 380.157 287.617 380.834 292.807 381.455C298.11 382.075 303.695 382.696 309.449 383.316C315.372 383.88 321.465 384.444 327.783 385.009C334.214 385.516 340.701 385.968 347.358 386.419C354.071 386.814 361.01 387.209 368.061 387.604C375.057 387.942 382.164 388.28 389.329 388.619C396.55 388.957 403.827 389.296 411.161 389.691C418.381 390.086 425.715 390.593 433.105 391.214C440.552 391.778 448.111 392.455 455.783 393.188C463.399 393.922 470.958 394.712 478.574 395.501C486.02 396.235 493.467 396.912 501.026 397.589C508.303 398.04 515.411 398.266 522.35 398.378C529.176 398.322 536.002 398.322 542.884 398.548C549.597 399.112 556.141 399.732 562.516 400.24C568.665 400.578 574.757 400.748 580.962 400.466C587.055 399.563 593.317 398.265 599.353 396.46C605.163 394.204 610.636 391.44 615.825 388.28C620.79 384.896 625.641 381.06 630.436 377.054C635.626 372.654 641.437 367.69 647.134 362.218C652.55 356.464 657.909 350.258 662.874 343.489C667.217 335.478 671.053 326.791 673.479 317.652C674.889 308.4 675.905 299.092 677.428 291.138C679.064 284.03 680.531 277.091 681.941 270.435C683.408 264.398 684.762 258.249 686.003 251.818C687.075 245.331 688.259 238.787 689.782 232.469C691.644 225.981 694.126 219.381 696.608 212.781C698.978 206.406 701.234 200.201 703.491 194.165C705.691 188.354 707.722 182.544 709.696 176.959C711.445 171.092 712.799 165.112 713.927 159.189C714.83 153.096 715.563 146.665 716.014 140.234C716.24 133.803 716.465 127.429 716.691 121.28C716.86 115.413 717.03 109.771 717.368 104.638C717.819 99.8428 718.384 95.4427 719.004 91.2681C719.737 87.4885 720.584 83.9909 721.486 80.8318C722.445 77.8984 723.517 75.247 724.815 72.8213C726.168 70.734 727.692 68.9852 729.215 67.5185C730.738 66.1646 732.261 64.9799 733.784 63.9644C735.307 63.0054 736.887 62.2157 738.523 61.5387C740.159 61.031 741.795 60.6361 743.487 60.4105C745.123 60.2977 746.815 60.2412 748.508 60.354C750.2 60.5232 751.893 60.7489 753.585 61.031C755.277 61.4259 757.026 61.8772 758.719 62.3849C760.411 62.8926 762.103 63.4567 763.852 64.0208C765.545 64.585 767.18 65.2055 768.76 65.7132C770.114 65.9389 771.299 65.826 772.427 65.6568C773.499 65.4312 774.514 65.0927 775.53 64.9235C776.489 64.7542 777.391 64.5285 778.35 64.3029C779.253 64.0772 780.099 63.8516 781.002 63.626C781.904 63.4003 782.75 63.1746 783.597 62.8926C784.386 62.5541 785.176 62.2157 785.966 61.9336C786.756 61.5951 787.489 61.3131 788.279 60.9746C789.012 60.6925 789.745 60.354 790.479 60.0156C791.212 59.6771 791.946 59.395 792.679 59.113C793.412 58.7745 794.202 58.4924 794.992 58.2668C795.838 58.0411 796.628 57.8719 797.474 57.7026C798.32 57.5898 799.166 57.4206 800.013 57.3642C800.859 57.3078 801.761 57.2513 802.664 57.2513C803.567 57.1949 804.526 57.1949 805.428 57.1949C806.331 57.1949 807.29 57.1385 808.305 57.3642C809.321 57.5334 810.336 57.7591 811.352 57.9847C812.367 58.2104 813.439 58.5488 814.454 58.8309C815.526 59.1694 816.541 59.5643 817.613 59.9592C818.685 60.354 819.701 60.7489 820.772 61.2002C821.844 61.6515 822.86 62.1028 823.932 62.5541C825.003 63.0054 826.019 63.4567 827.091 63.9644C828.162 64.4721 829.178 64.9799 830.25 65.4876C831.322 65.9953 832.393 66.5594 833.465 67.1235C834.537 67.6876 835.553 68.3082 836.624 68.9288C837.696 69.6057 838.712 70.2262 839.783 70.9596C840.799 71.6366 841.871 72.3699 842.943 73.2161C844.014 74.0623 845.143 74.9649 846.271 75.8675C847.399 76.8829 848.527 77.8983 849.656 78.9138C850.784 79.9292 851.912 81.001 853.04 82.0729C854.169 83.1447 855.297 84.273 856.369 85.3448C857.441 86.4731 858.569 87.6013 859.697 88.786C860.825 89.9706 861.897 91.0989 863.025 92.2836C864.154 93.4683 865.226 94.6529 866.354 95.8375C867.482 97.0786 868.554 98.3197 869.682 99.5608C870.754 100.802 871.882 102.043 872.954 103.284C874.026 104.525 875.098 105.766 876.17 107.007C877.241 108.248 878.257 109.546 879.329 110.787C880.401 112.028 881.416 113.269 882.431 114.51C883.447 115.751 884.462 116.992 885.478 118.233C886.437 119.531 887.452 120.772 888.467 122.013C889.483 123.254 890.498 124.382 891.514 125.623C892.529 126.865 893.545 128.049 894.504 129.29C895.463 130.531 896.478 131.772 897.437 133.07C898.396 134.367 899.412 135.778 900.371 137.244C901.33 138.824 902.289 140.404 903.304 142.039C904.263 143.788 905.222 145.537 906.181 147.342C907.14 149.147 908.043 150.953 908.945 152.814C909.848 154.676 910.751 156.594 911.653 158.512C912.556 160.43 913.402 162.404 914.248 164.379C915.094 166.41 915.94 168.384 916.787 170.415C917.576 172.446 918.366 174.477 919.156 176.508C919.946 178.538 920.679 180.626 921.412 182.657C922.146 184.687 922.823 186.775 923.5 188.862C924.177 190.949 924.854 193.036 925.474 195.124C926.095 197.211 926.715 199.298 927.279 201.385C927.844 203.473 928.408 205.56 928.915 207.647C929.423 209.735 929.931 211.822 930.438 213.909C930.89 215.996 931.341 218.084 931.792 220.115C932.244 222.202 932.639 224.233 933.033 226.32C933.428 228.407 933.767 230.438 934.105 232.469C934.444 234.5 934.726 236.531 935.008 238.561C935.29 240.592 935.516 242.623 935.798 244.598C936.023 246.628 936.249 248.603 936.418 250.634C936.587 252.665 936.757 254.639 936.87 256.557C936.982 258.531 937.095 260.45 937.152 262.368C937.264 264.286 937.321 266.204 937.321 268.065C937.377 269.927 937.377 271.788 937.321 273.65C937.321 275.455 937.264 277.26 937.208 279.066C937.152 280.814 937.039 282.563 936.926 284.256C936.813 285.948 936.7 287.697 936.531 289.333C936.362 291.025 936.193 292.661 936.023 294.297C935.854 295.933 935.628 297.513 935.403 299.092C935.177 300.672 934.895 302.195 934.669 303.718C934.387 305.241 934.105 306.708 933.823 308.175C933.541 309.641 933.203 311.052 932.864 312.462C932.526 313.816 932.187 315.17 931.849 316.524C931.51 317.878 931.115 319.175 930.721 320.473C930.326 321.714 929.931 322.955 929.479 324.196C929.028 325.437 928.633 326.565 928.182 327.693C927.731 328.822 927.279 329.893 926.772 330.909C926.32 331.924 925.813 332.94 925.305 333.899C924.797 334.858 924.29 335.817 923.782 336.719C923.274 337.622 922.766 338.412 922.202 339.202C921.695 339.935 921.187 340.668 920.679 341.345C920.171 342.022 919.607 342.643 919.1 343.207C918.592 343.771 918.028 344.279 917.464 344.73C916.956 345.181 916.392 345.576 915.828 345.915C915.32 346.253 914.756 346.592 914.192 346.817C913.628 347.043 913.063 347.269 912.556 347.381C912.048 347.494 911.484 347.607 910.976 347.607C910.468 347.607 909.904 347.607 909.34 347.551C908.776 347.494 908.268 347.381 907.704 347.212C907.197 347.043 906.632 346.874 906.068 346.648C905.504 346.422 904.996 346.14 904.432 345.858C903.925 345.576 903.36 345.181 902.853 344.73C902.345 344.279 901.837 343.771 901.33 343.263C900.822 342.755 900.314 342.191 899.806 341.571C899.299 340.95 898.791 340.273 898.283 339.596C897.776 338.863 897.268 338.073 896.817 337.227C896.309 336.381 895.858 335.535 895.35 334.632C894.842 333.729 894.334 332.827 893.827 331.811C893.319 330.852 892.811 329.837 892.304 328.765C891.796 327.693 891.232 326.622 890.724 325.55C890.216 324.421 889.652 323.293 889.144 322.165C888.637 321.037 888.073 319.852 887.565 318.667C887.001 317.483 886.493 316.298 885.929 315.113C885.365 313.929 884.801 312.744 884.237 311.503C883.672 310.262 883.108 309.021 882.544 307.78C881.98 306.539 881.36 305.298 880.795 304.056C880.175 302.815 879.611 301.631 878.99 300.39C878.37 299.149 877.749 297.907 877.129 296.61C876.508 295.369 875.887 294.071 875.211 292.83C874.534 291.589 873.913 290.348 873.236 289.051C872.559 287.81 871.882 286.512 871.149 285.271C870.472 284.086 869.739 282.845 869.062 281.604C868.328 280.363 867.651 279.179 866.918 277.994C866.185 276.809 865.451 275.624 864.718 274.44C863.984 273.255 863.195 272.07 862.461 270.773C861.672 269.476 860.882 268.234 860.092 266.881C859.302 265.64 858.512 264.511 857.723 263.327C856.876 262.198 856.03 261.014 855.184 259.773C854.338 258.588 853.492 257.347 852.589 256.162C851.686 254.978 850.84 253.793 849.994 252.721C849.092 251.818 848.189 250.972 847.23 250.126C846.271 249.28 845.312 248.49 844.353 247.587C843.337 246.741 842.322 245.839 841.307 244.992C840.122 243.921 839.107 243.074 838.035 242.172Z" stroke="#655454" stroke-width="3"/>
<path d="M821.336 315.057C820.039 314.775 818.685 314.549 817.331 314.436C815.921 314.493 814.454 314.718 812.931 315C811.351 315.508 809.772 316.242 808.305 317.257C806.782 318.554 805.203 320.021 803.623 321.714C801.931 323.744 800.295 326.114 798.602 328.765C796.91 331.811 795.161 335.253 793.412 338.976C791.438 343.263 789.407 348.002 787.263 353.248C784.95 358.889 782.581 364.474 780.042 370.228C777.278 376.208 774.345 382.301 771.186 388.45C767.857 394.768 764.303 400.973 760.637 407.122C756.744 413.271 752.682 419.42 748.395 425.456C743.769 431.605 738.974 437.867 734.179 444.185C728.989 450.842 723.799 457.499 718.327 464.212C712.573 470.868 706.988 477.017 701.403 483.054C695.424 489.203 689.049 495.351 682.505 501.218C675.905 506.747 669.305 511.598 662.479 516.45C655.483 521.019 648.093 525.476 640.139 530.045C632.185 534.107 624.344 537.661 616.277 540.933C607.984 544.036 599.861 546.743 591.907 549.113C584.347 550.861 576.844 552.328 569.341 553.513C562.233 554.303 555.408 554.641 548.582 554.81C541.812 554.698 535.099 554.415 528.724 553.964C522.406 553.4 516.088 552.78 510.052 552.046C504.241 551.2 498.6 550.297 493.015 549.338C487.43 548.379 481.902 547.308 476.486 546.236C471.014 545.107 465.655 543.979 460.296 542.907C454.937 541.779 449.634 540.651 444.388 539.466C439.198 538.282 434.12 537.04 429.043 535.799C424.023 534.502 419.058 533.261 414.15 531.963C409.186 530.666 404.053 529.368 398.919 528.127C393.447 526.886 387.862 525.419 382.108 523.896C375.959 522.317 369.81 520.681 363.605 519.045C357.287 517.465 350.855 515.942 344.424 514.363C337.881 512.783 331.393 511.203 324.906 509.624C318.362 508.101 311.762 506.578 305.161 504.998C298.561 503.362 292.186 501.67 285.868 499.921C279.55 498.116 273.288 496.311 267.083 494.449C260.934 492.644 254.785 490.839 248.749 488.92C242.713 486.946 236.789 484.972 230.979 482.941C225.225 480.854 219.696 478.766 214.168 476.623C208.639 474.479 203.224 472.279 197.865 470.079C192.731 467.879 187.936 465.679 183.197 463.478C178.571 461.278 174.058 459.135 169.658 456.878C165.258 454.565 160.971 452.252 156.74 449.883C152.622 447.457 148.616 444.975 144.78 442.38C140.944 439.729 137.221 437.021 133.667 434.313C130.282 431.605 126.954 428.841 123.738 426.077C120.579 423.256 117.42 420.492 114.317 417.671C111.271 414.794 108.225 411.974 105.291 409.097C102.358 406.163 99.4809 403.286 96.7167 400.353C93.9525 397.419 91.1883 394.429 88.6497 391.496C86.1112 388.562 83.6854 385.629 81.3161 382.696C79.116 379.819 76.9723 376.998 74.8851 374.177C72.7978 371.3 70.7669 368.423 68.8489 365.659C66.9309 362.838 65.0693 359.961 63.3205 357.197C61.6281 354.433 59.9921 351.725 58.4126 348.961C56.833 346.197 55.3099 343.432 53.8996 340.781C52.6021 338.186 51.361 335.591 50.1763 333.052C49.0481 330.514 47.9198 327.919 46.9044 325.38C45.889 322.842 44.93 320.303 44.0838 317.821C43.294 315.395 42.5606 312.97 41.9965 310.657C41.4888 308.4 40.9811 306.144 40.5862 303.944C40.1913 301.687 39.7964 299.487 39.5144 297.287C39.2323 295.087 39.0066 292.887 38.781 290.799C38.6118 288.656 38.4989 286.512 38.3861 284.425C38.3297 282.338 38.3297 280.25 38.4989 278.332C38.7246 276.527 39.0066 274.722 39.4015 272.973C39.7964 271.281 40.2477 269.645 40.8118 268.065C41.3196 266.486 41.9401 264.906 42.5606 263.439C43.2376 261.973 43.9145 260.506 44.7043 259.152C45.4941 257.798 46.3403 256.444 47.1865 255.147C48.0891 253.849 48.9917 252.608 50.0071 251.423C50.9661 250.182 52.038 248.998 53.1098 247.869C54.238 246.798 55.4227 245.726 56.6638 244.71C57.9049 243.695 59.1459 242.68 60.4998 241.777C61.8537 240.818 63.2641 240.028 64.6744 239.351C66.1411 238.787 67.6642 238.279 69.2438 237.884C70.8234 237.433 72.4593 237.038 74.0953 236.7C75.7877 236.418 77.5364 236.192 79.3416 236.023C81.1469 235.854 82.9521 235.684 84.8701 235.684C86.7881 235.741 88.819 235.91 90.9062 236.136C92.9935 236.361 95.1372 236.643 97.3937 236.982C99.5938 237.32 101.794 237.715 104.05 238.505C106.307 239.351 108.676 240.254 111.046 241.269C113.471 242.285 116.01 243.413 118.548 244.598C121.087 245.839 123.795 247.531 126.559 249.336C129.323 251.141 132.087 253.059 134.964 255.147C137.898 257.178 140.944 259.152 144.047 261.126C147.262 263.101 150.647 265.301 154.145 267.557C157.642 269.701 161.14 271.901 164.807 273.989C168.474 276.019 172.253 277.937 176.033 279.799C179.812 281.548 183.649 283.24 187.654 284.989C191.716 286.681 195.834 288.487 200.121 290.574C204.465 292.718 208.865 294.861 213.547 297.118C218.342 299.487 223.363 301.969 228.553 304.451C233.912 306.877 239.497 309.303 245.42 311.785C251.456 314.211 257.718 316.58 264.262 318.893C271.032 321.037 278.14 323.124 285.53 325.098C293.145 326.904 301.438 328.652 310.069 330.232C318.813 331.586 327.783 332.77 336.978 333.842C346.399 334.858 356.271 335.817 366.538 336.719C377.087 337.565 387.806 338.412 398.693 339.258C409.412 339.991 420.074 340.725 430.961 341.571C442.018 342.361 452.962 343.094 464.245 343.714C475.076 343.771 485.794 343.432 496.231 342.699C506.047 341.402 515.467 339.596 524.381 337.283C532.786 334.745 540.797 331.868 548.412 328.709C555.69 325.38 562.516 321.714 569.003 317.821C575.039 313.647 580.68 309.134 586.04 304.395C591.004 299.318 595.686 293.959 599.974 288.204C603.922 281.943 607.589 275.286 611.087 267.952C614.133 260.167 617.179 252.1 620.395 243.751C624.062 235.064 628.18 226.376 632.241 217.745C636.247 209.114 640.196 200.652 644.427 193.093C648.77 186.267 653.227 180.062 657.571 174.138C661.802 168.384 665.807 162.912 669.643 157.553C673.31 152.363 676.751 147.342 679.91 142.321C682.9 137.244 685.608 131.49 687.3 124.1C688.428 116.146 689.105 107.853 689.387 99.3351C689.895 91.663 690.403 84.4986 690.911 77.7855C691.418 71.4109 692.039 65.6004 693.054 60.7489C694.408 56.5744 695.762 52.4562 697.172 48.7894C698.808 45.7431 700.557 42.9789 702.475 40.6096C704.506 38.6352 706.537 36.8863 708.511 35.5889C710.542 34.517 712.629 33.6144 714.717 32.8811C716.804 32.2041 718.948 31.7528 721.148 31.4143C723.348 31.2451 725.604 31.2451 727.861 31.3579C730.117 31.5272 732.374 31.8656 734.574 32.2041C736.774 32.6554 739.03 33.1067 741.231 33.6709C743.318 34.2914 745.405 34.9119 747.38 35.476C749.298 35.8709 751.046 36.153 752.795 36.3786C754.375 36.4915 755.841 36.4915 757.252 36.435C758.606 36.3222 759.96 36.153 761.314 35.9838C762.611 35.7581 763.796 35.476 765.037 35.194C766.109 34.7427 767.124 34.1786 768.083 33.6709C769.042 33.1067 770.001 32.5426 770.904 32.0349C771.806 31.4707 772.822 30.8502 773.781 30.1733C774.796 29.4399 775.755 28.6501 776.714 27.9168C777.786 27.2962 778.914 26.7885 780.099 26.3372C781.284 25.9423 782.468 25.5474 783.709 25.3218C785.007 25.1525 786.248 24.9833 787.545 24.8705C788.843 24.7576 790.14 24.7012 791.438 24.6448C792.735 24.6448 794.089 24.7012 795.387 24.7012C796.741 24.7576 798.038 24.7577 799.336 24.8141C800.689 24.8705 801.987 24.9269 803.341 24.9269C804.695 24.9833 805.992 25.0397 807.346 25.1525C808.7 25.2654 810.054 25.4346 811.351 25.6038C812.705 25.7731 814.003 26.0552 815.357 26.3372C816.711 26.6757 818.065 26.9013 819.418 27.2398C820.829 27.6911 822.239 28.1424 823.649 28.6501C825.06 29.1578 826.47 29.722 827.88 30.2861C829.291 30.9066 830.701 31.64 832.111 32.3733C833.522 33.1631 834.932 33.9529 836.455 34.8555C837.978 35.7581 839.445 36.6607 840.912 37.6197C842.378 38.5223 843.902 39.4813 845.425 40.4968C846.948 41.5122 848.471 42.584 849.994 43.7123C851.574 44.8405 853.097 46.0252 854.676 47.2663C856.256 48.5074 857.779 49.7485 859.359 51.1024C860.938 52.4563 862.518 53.8665 864.097 55.2768C865.677 56.7436 867.313 58.2103 868.892 59.7334C870.528 61.313 872.108 62.8925 873.744 64.5285C875.38 66.1645 876.959 67.8004 878.595 69.38C880.175 71.0159 881.754 72.652 883.334 74.2879C884.913 75.8675 886.493 77.5034 888.016 79.1394C889.539 80.7189 891.119 82.2421 892.642 83.7652C894.222 85.4576 895.801 87.2064 897.381 89.068C898.96 90.8732 900.596 92.6784 902.232 94.6529C903.868 96.7965 905.504 99.0531 907.14 101.31C908.776 103.622 910.356 105.992 911.935 108.361C913.515 110.73 915.038 113.1 916.617 115.469C918.14 117.838 919.664 120.264 921.13 122.633C922.597 125.059 924.007 127.429 925.418 129.854C926.828 132.28 928.182 134.706 929.536 137.132C930.89 139.557 932.187 141.983 933.485 144.465C934.782 146.947 936.023 149.429 937.264 151.912C938.449 154.45 939.69 156.932 940.818 159.471C942.003 162.01 943.131 164.548 944.26 167.143C945.331 169.738 946.46 172.333 947.475 174.928C948.547 177.523 949.562 180.118 950.521 182.713C951.48 185.308 952.439 187.959 953.342 190.554C954.245 193.206 955.147 195.801 955.993 198.452C956.84 201.103 957.629 203.698 958.419 206.35C959.209 209.001 959.942 211.653 960.619 214.248C961.353 216.899 961.973 219.55 962.65 222.202C963.271 224.853 963.891 227.504 964.455 230.156C965.019 232.807 965.527 235.459 966.035 238.11C966.542 240.762 966.994 243.413 967.389 246.064C967.784 248.716 968.178 251.367 968.517 254.018C968.855 256.67 969.194 259.321 969.476 261.973C969.758 264.624 969.984 267.275 970.209 269.927C970.379 272.578 970.548 275.23 970.717 277.881C970.83 280.532 970.943 283.184 970.999 285.779C971.056 288.43 971.056 291.025 971.056 293.62C971.056 296.215 970.999 298.754 970.886 301.292C970.773 303.831 970.661 306.313 970.491 308.795C970.322 311.221 970.097 313.703 969.871 316.129C969.645 318.554 969.363 320.98 969.081 323.35C968.799 325.719 968.461 328.088 968.122 330.458C967.784 332.77 967.389 335.14 966.937 337.396C966.486 339.709 966.035 341.966 965.584 344.222C965.132 346.479 964.568 348.735 964.06 350.935C963.496 353.135 962.932 355.335 962.312 357.536C961.691 359.736 961.07 361.879 960.394 364.023C959.717 366.167 959.04 368.31 958.306 370.398C957.573 372.485 956.84 374.572 956.05 376.603C955.26 378.634 954.47 380.608 953.68 382.583C952.891 384.557 952.044 386.475 951.198 388.337C950.352 390.198 949.45 392.004 948.603 393.752C947.701 395.558 946.798 397.306 945.839 398.999C944.937 400.635 944.034 402.271 943.075 403.794C942.116 405.373 941.157 406.897 940.198 408.42C939.239 409.943 938.223 411.41 937.208 412.82C936.193 414.23 935.177 415.641 934.105 417.051C933.033 418.405 931.962 419.759 930.89 421.113C929.818 422.41 928.69 423.708 927.561 425.005C926.433 426.246 925.305 427.487 924.177 428.672C923.048 429.856 921.92 431.041 920.736 432.169C919.607 433.298 918.423 434.369 917.238 435.441C916.053 436.513 914.869 437.529 913.684 438.488C912.499 439.447 911.315 440.349 910.13 441.139C909.002 441.872 907.873 442.549 906.745 443.17C905.617 443.79 904.432 444.411 903.304 445.031C902.119 445.652 900.935 446.216 899.75 446.78C898.565 447.344 897.324 447.909 896.14 448.416C894.955 448.868 893.77 449.262 892.642 449.488C891.514 449.77 890.329 449.939 889.201 450.052C888.129 450.109 887.057 450.109 885.985 449.996C884.914 449.827 883.898 449.657 882.883 449.319C881.924 448.98 880.965 448.529 880.006 447.965C879.103 447.401 878.144 446.837 877.241 446.16C876.339 445.539 875.436 444.806 874.59 444.016C873.744 443.226 872.841 442.437 871.995 441.59C871.205 440.688 870.528 439.559 869.908 438.262C869.287 437.021 868.723 435.554 868.159 434.087C867.595 432.564 867.087 431.098 866.579 429.462C866.072 427.882 865.564 426.19 865.113 424.497C864.605 422.861 864.154 421.113 863.646 419.307C863.138 417.559 862.687 415.753 862.236 413.892C861.728 412.087 861.277 410.225 860.769 408.363C860.261 406.502 859.81 404.527 859.302 402.609C858.794 400.691 858.287 398.717 857.779 396.686C857.328 394.711 856.82 392.681 856.369 390.65C855.861 388.675 855.353 386.644 854.846 384.67C854.281 382.696 853.774 380.665 853.266 378.69C852.702 376.772 852.194 374.911 851.63 372.993C851.066 371.131 850.502 369.1 849.938 366.956C849.374 364.813 848.753 362.556 848.189 360.243C847.568 357.987 846.891 355.674 846.214 353.305C845.481 351.048 844.748 348.792 844.014 346.422C843.225 344.166 842.435 341.909 841.589 339.709C840.742 337.622 839.896 335.478 838.994 333.335C838.091 331.36 837.132 329.329 836.173 327.298C835.101 325.662 833.917 324.365 832.788 323.124C831.604 321.939 830.419 320.755 829.178 319.57C827.937 318.554 826.583 317.708 825.285 316.918C824.044 316.129 822.69 315.508 821.336 315.057Z" stroke="#655454" stroke-width="3"/>
<path d="M806.274 379.029C805.485 379.424 804.638 379.819 803.849 380.326C803.002 380.89 802.1 381.511 801.197 382.188C800.238 382.978 799.279 383.824 798.32 384.67C797.305 385.629 796.289 386.588 795.274 387.66C794.202 388.788 793.074 390.086 792.002 391.439C790.874 392.906 789.689 394.429 788.504 396.009C787.263 397.701 786.022 399.394 784.725 401.199C783.371 403.06 782.017 404.978 780.607 406.953C779.196 409.04 777.673 411.128 776.206 413.271C774.627 415.471 773.047 417.728 771.411 419.984C769.719 422.354 767.97 424.61 766.221 426.923C764.36 429.349 762.555 431.775 760.637 434.2C758.662 436.682 756.631 439.221 754.6 441.76C752.513 444.355 750.369 446.837 748.226 449.262C743.713 454.34 739.143 459.586 734.405 465.002C729.44 470.586 724.363 476.228 719.117 481.812C713.645 487.454 708.004 492.982 702.193 498.68C696.157 504.547 689.839 510.301 683.521 515.716C677.09 520.85 670.489 525.758 663.776 530.553C657.063 535.122 650.124 539.579 642.96 543.979C635.57 548.266 628.293 552.159 621.015 555.713C613.512 559.154 605.897 562.37 598.394 565.303C591.004 567.842 583.952 569.872 577.126 571.452C570.583 572.524 563.982 573.37 557.551 573.934C551.233 574.273 544.802 574.555 538.597 574.611C532.278 574.668 526.073 574.555 520.319 574.16C514.678 573.709 508.924 573.201 503.339 572.58C497.867 571.847 492.338 571.114 486.866 570.324C481.338 569.478 475.753 568.575 470.168 567.616C464.527 566.657 458.942 565.642 453.526 564.57C448.167 563.498 442.808 562.37 437.505 561.298C432.202 560.17 426.9 559.098 421.823 557.969C416.858 556.841 411.95 555.657 407.099 554.472C402.247 553.287 397.396 552.103 392.488 550.918C387.749 549.62 382.672 547.984 377.257 546.066C371.559 544.036 365.636 542.005 359.487 539.917C353.056 537.774 346.512 535.686 339.911 533.543C333.311 531.456 326.711 529.481 320.167 527.507C313.567 525.589 307.023 523.614 300.366 521.64C293.597 519.609 286.771 517.578 280.001 515.434C273.288 513.347 266.575 511.316 259.975 509.285C253.205 507.142 246.379 505.054 239.666 502.854C233.01 500.654 226.579 498.398 220.317 496.141C214.111 493.885 208.132 491.741 202.321 489.654C196.623 487.567 191.208 485.536 185.849 483.392C180.489 481.248 175.299 479.048 170.166 476.848C165.032 474.592 160.012 472.279 155.104 469.909C150.196 467.484 145.401 465.002 140.775 462.407C136.262 459.699 132.087 456.822 128.082 453.945C124.133 451.011 120.241 447.965 116.461 444.975C112.682 441.929 109.015 438.883 105.404 435.836C101.85 432.734 98.4091 429.687 95.0808 426.641C91.7524 423.538 88.4805 420.436 85.265 417.389C82.0495 414.23 78.9468 411.127 76.0133 408.025C73.1927 404.979 70.4285 401.989 67.7771 398.942C65.1257 395.896 62.4743 392.793 59.9357 389.747C57.3972 386.644 54.915 383.542 52.4893 380.439C50.0635 377.336 47.6942 374.177 45.3813 371.075C43.0684 367.972 40.8683 364.869 38.7246 361.823C36.6373 358.777 34.6065 355.787 32.632 352.797C30.6576 349.751 28.8524 346.817 27.2164 343.997C25.5805 341.176 24.0573 338.355 22.5906 335.535C21.1239 332.714 19.6571 329.893 18.3032 327.016C16.9493 324.196 15.6518 321.319 14.4108 318.498C13.2825 315.734 12.2671 313.026 11.2517 310.375C10.2927 307.667 9.39005 304.959 8.54386 302.251C7.69767 299.543 6.9079 296.836 6.17453 294.128C5.44117 291.42 4.76422 288.712 4.20009 286.061C3.63597 283.409 3.12825 280.758 2.78978 278.219C2.50771 275.737 2.33848 273.312 2.22565 270.886C2.11283 268.404 2 265.978 2 263.552C2 261.126 2.05641 258.701 2.11283 256.331C2.22565 253.906 2.39489 251.593 2.62054 249.223C2.84619 246.854 3.12825 244.541 3.46673 242.285C3.8052 239.972 4.20009 237.715 4.65139 235.459C5.15911 233.259 5.72323 231.058 6.40018 228.971C7.07713 226.884 7.8105 224.797 8.60027 222.766C9.39005 220.735 10.2362 218.704 11.0824 216.673C11.985 214.699 12.8876 212.837 13.9031 210.976C14.9185 209.227 15.9339 207.478 17.0058 205.842C18.0776 204.206 19.2058 202.57 20.3905 200.991C21.5752 199.411 22.8162 197.888 24.0573 196.478C25.3548 195.011 26.6523 193.601 28.0062 192.19C29.3601 190.78 30.8268 189.482 32.4628 188.354C34.0988 187.226 35.7347 186.098 37.4835 185.026C39.2323 183.954 40.9811 182.939 42.8427 181.98C44.6479 180.964 46.5659 180.005 48.484 179.102C50.402 178.2 52.4329 177.297 54.5201 176.507C56.551 175.718 58.6947 175.097 60.8947 174.477C63.0948 173.969 65.3513 173.518 67.6643 173.123C69.9772 172.671 72.4029 172.446 74.8851 172.277C77.3672 172.107 79.9058 172.107 82.4444 172.107C85.0393 172.051 87.6343 172.051 90.3421 172.107C92.9935 172.107 95.7577 172.277 98.5784 172.502C101.399 172.728 104.332 173.066 107.209 173.687C110.087 174.307 112.964 174.984 115.953 175.831C118.943 176.62 121.99 177.41 124.867 178.764C127.8 180.174 130.734 182.092 133.611 184.575C136.544 187.17 139.534 189.764 142.806 192.641C146.078 195.575 149.463 198.734 152.96 201.893C156.571 204.77 160.294 207.76 164.073 210.75C167.909 213.458 171.802 216.222 175.807 219.043C179.869 221.694 183.987 224.345 188.105 226.997C192.28 229.648 196.511 232.638 200.854 236.079C205.198 239.633 209.768 243.3 214.506 246.91C219.696 250.013 225.168 253.003 230.809 255.88C236.507 258.644 242.374 261.408 248.41 264.06C254.446 266.598 260.652 269.137 267.139 271.732C273.852 274.383 280.791 277.035 288.012 279.63C295.458 282.055 303.412 284.312 311.874 286.963C320.731 289.728 330.208 292.379 340.476 294.805C351.702 296.666 363.774 297.851 376.41 298.754C389.329 299.487 402.417 300.277 415.617 301.123C428.479 301.969 440.89 302.703 452.906 303.267C464.188 303.549 474.343 302.759 483.087 299.543C490.702 294.635 497.359 288.825 503.452 282.507C509.262 276.189 515.016 269.87 520.827 263.326C526.524 256.557 532.73 249.844 538.992 242.905C545.253 235.91 551.515 228.802 557.833 221.581C563.982 214.248 570.131 206.801 576.224 199.298C582.147 191.626 587.901 183.841 593.542 175.887C599.014 167.876 604.43 159.809 609.902 152.081C615.205 144.973 620.395 138.091 625.641 131.885C630.775 126.075 635.626 120.49 640.252 114.961C644.652 109.602 648.658 104.356 652.381 99.2222C655.822 93.9759 658.304 88.391 660.448 82.5241C662.084 76.6008 663.55 70.7339 665.017 65.0362C666.315 59.5642 667.612 54.1486 668.74 48.2253C669.305 45.3482 669.812 42.584 670.376 39.7634C670.997 37.2248 671.787 34.8555 672.576 32.599C673.423 30.4553 674.438 28.5373 675.566 26.6757C676.695 24.8705 677.766 23.1217 678.782 21.6549C679.854 20.301 680.926 19.1164 682.054 18.101C683.182 17.1419 684.31 16.2957 685.495 15.5624C686.68 14.8854 687.808 14.2649 688.993 13.6444C690.177 13.1367 691.362 12.6289 692.547 12.1776C693.731 11.7263 694.972 11.3315 696.157 10.993C697.398 10.7109 698.696 10.4853 699.937 10.2596C701.234 10.0904 702.475 9.97754 703.829 9.92112C705.127 9.86471 706.424 9.80831 707.665 9.86473C708.963 9.97755 710.204 10.1468 711.501 10.316C712.799 10.5417 714.04 10.7673 715.394 10.993C716.691 11.2186 717.989 11.5007 719.286 11.8392C720.527 12.1212 721.768 12.4033 723.009 12.6854C724.25 12.9674 725.435 13.193 726.563 13.4751C727.748 13.7572 728.933 13.9828 730.061 14.2649C731.189 14.4906 732.261 14.7162 733.333 14.9983C734.405 15.2239 735.42 15.3931 736.436 15.5624C737.451 15.7316 738.41 15.8444 739.369 16.0137C740.328 16.1265 741.287 16.2393 742.19 16.2957C743.092 16.3522 743.995 16.3522 744.841 16.3522C745.687 16.3522 746.477 16.2958 747.323 16.2393C748.113 16.1265 748.903 16.0701 749.636 15.9573C750.369 15.8445 751.103 15.6752 751.836 15.5624C752.513 15.3931 753.247 15.2239 753.811 14.9419C754.431 14.6034 754.995 14.2649 755.616 13.9264C756.8 13.1931 758.042 12.3469 759.17 11.4443C760.354 10.5417 761.539 9.6955 762.724 8.84931C763.965 8.11594 765.375 7.60822 766.842 7.32616C768.252 6.98768 769.663 6.64922 771.073 6.31074C772.483 5.97226 773.95 5.57736 775.417 5.12606C776.883 4.67475 778.294 4.33628 779.76 3.9978C781.227 3.65933 782.694 3.37726 784.161 3.15161C785.627 2.92596 787.15 2.75673 788.617 2.58749C790.084 2.41825 791.607 2.36185 793.13 2.24903C794.597 2.19261 796.12 2.07978 797.643 2.02336C799.166 1.96695 800.69 2.02338 802.213 2.0798C803.736 2.19262 805.315 2.41824 806.895 2.75672C808.474 3.03878 810.054 3.37726 811.577 3.71574C813.157 4.05422 814.736 4.50552 816.259 4.95682C817.839 5.40812 819.475 5.85941 821.054 6.42354C822.69 7.10049 824.383 7.77747 826.019 8.56724C827.655 9.35702 829.347 10.2032 831.152 11.1622C832.957 12.1212 834.65 13.1366 836.455 14.1521C838.26 15.2239 840.122 16.3522 841.927 17.5368C843.732 18.7215 845.594 20.019 847.456 21.3165C849.317 22.6704 851.179 24.0243 853.04 25.4346C854.958 26.9577 856.82 28.4809 858.738 30.004C860.656 31.5272 862.518 33.0503 864.436 34.6298C866.354 36.2094 868.215 37.789 870.077 39.3685C871.939 40.9481 873.857 42.584 875.718 44.1636C877.58 45.7995 879.441 47.4355 881.303 49.0715C883.165 50.7074 885.026 52.5127 887.001 54.5435C888.975 56.7436 891.006 59.0565 893.037 61.4822C895.068 63.9644 897.099 66.4466 899.129 68.9287C901.16 71.3545 903.135 73.7802 905.166 76.206C907.14 78.6881 909.114 81.1702 911.033 83.6524C912.951 86.1345 914.869 88.6731 916.674 91.1553C918.535 93.6939 920.341 96.2324 922.202 98.8274C924.007 101.366 925.756 103.961 927.505 106.499C929.254 109.038 930.89 111.633 932.582 114.172C934.218 116.767 935.854 119.362 937.49 121.957C939.07 124.552 940.649 127.147 942.172 129.798C943.695 132.449 945.162 135.044 946.629 137.696C948.096 140.347 949.506 142.998 950.916 145.65C952.327 148.301 953.68 150.953 954.978 153.66C956.275 156.312 957.573 158.963 958.814 161.671C960.055 164.322 961.296 167.03 962.481 169.738C963.666 172.446 964.794 175.097 965.922 177.749C967.05 180.4 968.122 183.051 969.137 185.703C970.153 188.354 971.168 190.949 972.127 193.544C973.086 196.139 973.989 198.734 974.892 201.329C975.794 203.868 976.64 206.463 977.43 209.058C978.22 211.653 979.01 214.248 979.799 216.842C980.533 219.437 981.266 222.032 981.943 224.684C982.62 227.279 983.241 229.93 983.861 232.582C984.482 235.233 984.989 237.884 985.554 240.536C986.061 243.187 986.569 245.839 987.02 248.49C987.472 251.141 987.866 253.793 988.205 256.501C988.6 259.208 988.882 261.86 989.22 264.568C989.502 267.275 989.728 269.927 989.954 272.635C990.179 275.342 990.349 278.05 990.461 280.758C990.574 283.466 990.687 286.174 990.744 288.881C990.8 291.589 990.8 294.297 990.8 297.005C990.744 299.713 990.687 302.364 990.574 305.072C990.461 307.723 990.292 310.375 990.123 313.082C989.954 315.734 989.728 318.385 989.446 320.98C989.164 323.632 988.882 326.227 988.543 328.822C988.205 331.416 987.81 334.012 987.415 336.55C987.02 339.089 986.569 341.684 986.061 344.222C985.554 346.761 985.046 349.299 984.482 351.838C983.918 354.376 983.297 356.859 982.677 359.341C982.056 361.823 981.379 364.305 980.702 366.731C979.969 369.213 979.235 371.639 978.502 374.064C977.712 376.49 976.922 378.916 976.076 381.285C975.23 383.711 974.384 386.08 973.481 388.45C972.579 390.819 971.62 393.188 970.661 395.501C969.702 397.814 968.686 400.127 967.614 402.44C966.543 404.753 965.471 407.009 964.399 409.266C963.271 411.522 962.142 413.779 960.958 415.979C959.773 418.235 958.588 420.436 957.347 422.636C956.106 424.836 954.809 426.979 953.511 429.18C952.214 431.323 950.86 433.467 949.506 435.554C948.152 437.641 946.742 439.672 945.331 441.76C943.921 443.79 942.454 445.821 940.988 447.796C939.521 449.77 938.054 451.688 936.531 453.606C935.064 455.411 933.598 457.104 932.131 458.683C930.664 460.263 929.197 461.786 927.731 463.196C926.264 464.607 924.797 465.904 923.33 467.258C921.807 468.612 920.284 469.909 918.761 471.15C917.182 472.392 915.658 473.576 914.135 474.704C912.612 475.833 911.033 476.961 909.453 478.033C907.873 479.161 906.294 480.177 904.714 481.248C903.078 482.264 901.499 483.279 899.863 484.295C898.227 485.254 896.647 486.156 895.011 487.059C893.375 487.961 891.739 488.864 890.103 489.654C888.467 490.444 886.832 491.121 885.365 491.572C883.898 492.023 882.375 492.418 880.908 492.813C879.385 493.208 877.862 493.603 876.339 493.941C874.816 494.28 873.293 494.562 871.882 494.618C870.415 494.731 869.005 494.731 867.595 494.675C866.241 494.562 864.887 494.449 863.477 494.28C862.123 494.11 860.825 493.603 859.697 492.926C858.512 492.305 857.384 491.628 856.256 490.895C855.184 490.105 854.056 489.315 852.984 488.469C851.912 487.623 850.84 486.777 849.768 485.874C848.753 485.028 847.794 484.125 846.835 483.223C845.876 482.32 844.917 481.361 844.071 480.12C843.337 478.823 842.66 477.356 842.04 475.776C841.419 474.197 840.799 472.617 840.235 471.038C839.671 469.458 839.107 467.709 838.599 465.904C838.091 464.155 837.64 462.294 837.188 460.376C836.681 458.514 836.229 456.652 835.835 454.847C835.383 453.042 834.988 451.18 834.65 449.262C834.255 447.401 833.917 445.426 833.522 443.395C833.127 441.421 832.732 439.334 832.337 437.247C831.886 435.159 831.491 432.959 831.096 430.59C830.645 428.333 830.25 426.077 829.742 423.877C829.291 421.564 828.839 419.194 828.388 416.825C827.824 414.625 827.316 412.369 826.809 410.056C826.526 408.871 826.244 407.686 825.962 406.502C825.624 405.317 825.342 404.189 825.003 403.004C824.721 401.763 824.383 400.578 824.044 399.394C823.706 398.265 823.367 397.081 822.972 395.952C822.578 394.824 822.183 393.696 821.844 392.624C821.506 391.552 821.111 390.48 820.716 389.409C820.321 388.337 819.926 387.321 819.531 386.306C819.08 385.347 818.685 384.388 818.234 383.485C817.726 382.865 817.162 382.301 816.598 381.68C816.034 381.116 815.47 380.608 814.849 380.101C814.228 379.649 813.608 379.198 812.931 378.86C812.254 378.577 811.634 378.408 810.9 378.183C810.223 378.013 809.49 378.013 808.757 378.183C807.854 378.465 807.064 378.747 806.274 379.029Z" stroke="#655454" stroke-width="3"/>
</svg>
