<svg width="335" height="577" viewBox="0 0 335 577" fill="none" xmlns="http://www.w3.org/2000/svg">
<path d="M360.527 176.564C359.568 176.451 358.553 176.338 357.537 176.282C356.522 176.282 355.563 176.282 354.604 176.338C353.645 176.451 352.686 176.62 351.727 176.79C350.768 176.959 349.752 177.185 348.737 177.297C347.778 177.523 346.875 177.749 345.86 177.974C344.788 178.144 343.716 178.313 342.644 178.426C341.516 178.538 340.275 178.482 338.977 178.144C337.567 177.749 336.1 177.354 334.577 176.959C332.998 176.564 331.305 176.226 329.556 175.831C327.808 175.549 326.059 175.323 324.31 175.21C322.505 175.21 320.643 175.21 318.782 175.323C317.033 175.661 315.284 176.056 313.592 176.62C312.125 177.749 310.715 179.385 309.304 181.077C307.894 183.277 306.484 185.872 305.073 188.749C303.55 191.908 302.196 195.406 300.842 199.185C299.432 203.247 298.022 207.478 296.555 211.765C295.088 216.335 293.678 221.299 292.324 226.207C291.027 231.284 289.729 236.361 288.488 241.438C287.247 246.572 285.837 251.593 284.596 256.613C283.185 261.86 281.831 266.993 280.534 272.183C279.18 277.599 277.713 282.902 276.359 288.261C274.893 293.846 273.369 299.149 271.79 304.282C270.098 309.472 268.292 314.549 266.431 319.344C264.456 324.196 262.369 328.822 260.282 333.165C258.082 337.622 255.825 341.797 253.625 345.689C251.256 349.638 248.943 353.305 246.686 356.633C244.317 360.018 242.117 363.121 239.917 365.885C237.717 368.705 235.629 371.244 233.711 373.444C231.737 375.7 229.875 377.619 228.296 379.142C226.66 380.721 225.193 381.962 223.952 382.921C222.655 383.88 221.583 384.557 220.737 384.952C219.834 385.347 219.213 385.403 218.818 385.065C218.367 384.783 218.198 384.219 218.254 383.26C218.254 382.357 218.536 381.172 218.988 379.593C219.439 378.07 220.116 376.265 221.019 374.121C221.865 371.977 222.993 369.552 224.234 366.787C225.475 364.08 226.829 361.033 228.409 357.648C229.875 354.32 231.455 350.71 233.147 346.874C234.727 343.038 236.363 338.976 238.055 334.576C239.522 330.345 240.932 325.832 242.173 321.037C243.189 316.411 244.204 311.616 245.163 306.539C246.009 301.631 246.856 296.497 247.702 291.194C248.435 285.948 249.225 280.532 249.958 274.891C250.579 269.363 251.143 263.665 251.763 257.967C252.384 252.495 253.117 247.023 253.907 241.495C254.641 236.136 255.487 230.664 256.333 225.022C257.348 219.55 258.477 213.966 259.492 208.324C260.338 202.909 261.184 197.437 261.918 191.908C262.538 186.549 263.046 181.133 263.554 175.718C263.949 170.471 264.343 165.225 264.738 160.035C265.133 155.071 265.415 150.219 265.754 145.481C266.149 141.024 266.656 136.793 267.221 132.675C267.785 128.895 268.349 125.172 269.364 122.013C270.323 118.967 271.282 116.09 272.241 113.325C273.2 110.674 274.329 108.192 275.57 105.823C276.924 103.792 278.334 101.874 279.744 100.069C281.098 98.2633 282.508 96.6274 283.919 95.1607C285.329 93.9196 286.739 92.9606 288.206 92.1144C289.729 91.5502 291.422 91.4938 293.17 91.6066C294.919 91.7759 296.611 91.9451 298.36 92.1708C299.996 92.4528 301.632 92.7913 303.325 93.1862C304.904 93.5811 306.597 94.0324 308.176 94.4837C309.699 94.8221 311.11 94.9914 312.351 94.8786C313.535 94.6529 314.664 94.4273 315.792 94.2016C316.92 93.9195 317.992 93.5811 319.064 93.2426C320.136 92.9041 321.151 92.6221 322.223 92.5092C323.295 92.3964 324.423 92.34 325.495 92.2836C326.567 92.2272 327.582 92.2272 328.597 92.1708C329.556 92.1144 330.515 92.1144 331.474 92.1708C332.433 92.1708 333.336 92.2836 334.295 92.3964C335.254 92.5093 336.213 92.7349 337.172 92.9606C338.131 93.1862 339.147 93.4119 340.218 93.7503C341.234 94.0888 342.306 94.4273 343.321 94.8222C344.393 95.2735 345.465 95.6683 346.48 96.1196C347.496 96.5145 348.568 96.9659 349.527 97.4736C350.542 97.9813 351.67 98.5454 352.742 99.1095C353.814 99.7301 354.886 100.351 356.014 101.084C357.086 101.817 358.158 102.551 359.286 103.453C360.414 104.412 361.486 105.428 362.614 106.443C363.742 107.515 364.814 108.643 365.943 109.772C367.014 110.9 368.143 112.084 369.158 113.325C370.23 114.567 371.302 115.808 372.43 117.105C373.558 118.403 374.63 119.7 375.702 121.054C376.83 122.408 377.902 123.762 378.974 125.172C380.046 126.582 381.061 127.993 382.133 129.459C383.148 130.926 384.22 132.393 385.179 133.916C386.195 135.496 387.21 137.019 388.113 138.598C389.072 140.178 390.031 141.701 390.99 143.281C391.892 144.804 392.795 146.383 393.641 147.906C394.544 149.43 395.39 150.896 396.236 152.363C397.082 153.773 397.928 155.24 398.718 156.594C399.564 158.004 400.354 159.358 401.088 160.712C401.821 162.122 402.554 163.476 403.231 164.83C403.908 166.184 404.529 167.594 405.149 168.948C405.713 170.302 406.334 171.656 406.842 173.01C407.349 174.364 407.857 175.718 408.308 177.015C408.76 178.369 409.155 179.667 409.493 180.908C409.888 182.205 410.17 183.446 410.452 184.631C410.734 185.872 410.96 187 411.185 188.129C411.355 189.257 411.524 190.329 411.637 191.344C411.75 192.416 411.862 193.375 411.862 194.334C411.919 195.293 411.919 196.139 411.919 196.985C411.919 197.832 411.862 198.621 411.75 199.411C411.637 200.144 411.524 200.878 411.355 201.498C411.185 202.175 410.96 202.739 410.791 203.304C410.565 203.868 410.283 204.319 410.001 204.77C409.719 205.222 409.38 205.617 409.042 205.955C408.703 206.293 408.365 206.576 407.914 206.801C407.519 207.027 407.067 207.196 406.616 207.309C406.165 207.365 405.657 207.365 405.149 207.365C404.642 207.309 404.077 207.253 403.57 207.083C403.006 206.914 402.442 206.745 401.821 206.463C401.2 206.237 400.58 205.899 399.903 205.56C399.226 205.222 398.549 204.77 397.816 204.319C397.082 203.868 396.349 203.304 395.616 202.796C394.882 202.288 394.092 201.724 393.246 201.047C392.456 200.427 391.667 199.75 390.821 199.016C389.974 198.283 389.072 197.549 388.226 196.873C387.379 196.252 386.533 195.575 385.631 195.011C384.728 194.447 383.825 193.826 382.923 193.206C382.02 192.585 381.061 191.965 380.102 191.288C379.143 190.611 378.184 189.99 377.225 189.37C376.322 188.636 375.363 187.79 374.517 186.944C373.615 186.041 372.712 185.082 371.753 184.067C370.85 183.108 369.891 182.149 368.932 181.246C367.973 180.456 367.014 179.78 366.055 179.103C365.153 178.538 364.25 178.031 363.291 177.523C362.501 177.128 361.542 176.846 360.527 176.564Z" stroke="#655454" stroke-width="3"/>
<path d="M363.122 200.596C362.445 200.314 361.768 200.088 361.091 199.919C360.414 199.75 359.737 199.58 359.06 199.468C358.44 199.355 357.763 199.185 357.142 199.073C356.522 198.96 355.845 198.791 355.224 198.621C354.547 198.452 353.87 198.283 353.25 198.114C352.573 197.888 351.896 197.662 351.219 197.493C350.486 197.267 349.752 197.098 349.019 196.816C348.342 196.59 347.609 196.308 346.932 196.026C346.255 195.744 345.521 195.462 344.788 195.124C344.054 194.785 343.321 194.503 342.531 194.165C341.742 193.826 340.952 193.488 340.049 193.206C339.147 192.98 338.188 192.754 337.172 192.585C336.157 192.472 335.028 192.303 333.9 192.19C332.716 192.134 331.531 192.134 330.29 192.134C329.049 192.247 327.808 192.472 326.679 192.811C325.551 193.149 324.367 193.601 323.238 194.052C322.054 194.56 320.869 195.18 319.797 195.97C318.725 196.929 317.653 198.057 316.638 199.468C315.623 201.16 314.551 202.965 313.479 204.94C312.351 207.252 311.222 209.735 310.094 212.33C309.079 215.15 307.95 218.14 306.879 221.412C305.807 224.797 304.735 228.182 303.663 231.566C302.648 235.064 301.576 238.618 300.56 242.398C299.658 246.234 298.699 250.126 297.74 254.019C296.724 258.08 295.709 262.198 294.806 266.317C293.847 270.604 292.832 274.891 291.76 279.291C290.745 283.861 289.616 288.487 288.488 293.282C287.36 298.302 286.175 303.38 284.934 308.569C283.524 313.759 281.944 319.006 280.308 324.196C278.559 329.442 276.698 334.745 274.723 339.991C270.323 350.653 265.246 361.146 259.718 371.357C253.569 381.68 247.081 391.609 240.368 401.086C233.937 410.62 227.845 419.702 222.09 428.108C216.111 436.457 210.075 444.185 203.982 450.842C197.382 456.991 190.556 462.237 183.786 466.581C176.735 470.474 169.796 473.52 162.97 475.946C155.918 478.315 148.923 480.289 142.041 481.7C135.102 482.772 128.333 483.449 121.62 483.787C114.624 483.787 108.024 483.166 101.706 482.207C95.6698 481.023 89.8029 479.669 84.3309 478.202C78.6896 476.623 73.1612 475.043 67.9712 473.464C62.5556 471.771 57.4221 470.248 52.5706 468.725C47.7191 467.258 43.1497 465.791 38.8624 464.438C34.4058 463.027 30.4005 461.73 26.7337 460.489C23.0104 459.248 19.6821 458.006 16.805 456.822C13.8152 455.637 11.2766 454.453 9.24575 453.324C7.10207 452.196 5.46609 451.124 4.50708 450.165C3.49165 449.206 3.09678 448.304 3.1532 447.457C3.1532 446.611 3.71732 445.878 4.73274 445.201C5.69176 444.524 7.15849 443.847 9.07652 443.283C11.1638 442.719 13.7588 442.211 16.7486 441.816C19.6821 441.365 23.1232 440.97 27.0721 440.688C30.9082 440.349 35.1391 440.011 39.7649 439.785C44.3908 439.503 49.4679 439.334 54.8271 439.052C60.0171 438.77 65.6019 438.713 71.4688 438.657C77.2229 438.601 83.2591 438.431 89.5773 438.093C95.8955 437.416 102.439 436.626 109.152 435.723C115.978 434.764 123.143 433.523 130.533 431.887C137.979 429.913 145.426 427.092 152.703 423.369C159.585 418.969 166.242 413.835 172.617 407.743C178.653 400.917 184.463 393.245 189.935 384.896C196.31 376.265 202.741 366.957 208.834 356.746C214.306 346.592 219.326 336.042 223.783 325.437C227.111 315.452 229.481 305.41 231.737 295.369C232.752 290.405 233.768 285.384 234.727 280.307C235.573 275.286 236.306 270.209 236.871 265.245C237.322 260.393 237.717 255.598 238.112 250.859C238.563 246.234 239.183 241.608 239.86 237.095C240.594 232.582 241.44 228.012 242.343 223.556C243.584 219.099 244.825 214.586 246.009 210.13C247.138 205.729 248.21 201.273 249.169 196.816C250.015 192.416 250.748 188.016 251.425 183.672C252.046 179.385 252.61 175.154 253.174 170.866C253.569 166.692 253.964 162.517 254.246 158.343C254.528 154.281 254.81 150.276 255.092 146.27C255.374 142.378 255.543 138.598 255.769 134.819C255.994 131.208 256.22 127.711 256.559 124.439C256.953 121.336 257.348 118.29 257.856 115.582C258.364 112.931 258.928 110.392 259.605 108.023C260.282 105.71 260.902 103.51 261.579 101.366C262.2 99.3352 262.877 97.3044 263.667 95.4427C264.513 93.694 265.303 92.0016 266.262 90.422C267.277 89.0681 268.292 87.8271 269.308 86.6424C270.38 85.5706 271.452 84.5551 272.467 83.5961C273.482 82.7499 274.498 82.0729 275.626 81.5088C276.698 81.0011 277.826 80.5498 278.954 80.2113C280.083 79.9293 281.267 79.76 282.452 79.7036C283.637 79.7036 284.878 79.7036 286.119 79.8164C287.36 79.9292 288.545 80.0985 289.729 80.3241C290.914 80.5498 292.098 80.8319 293.283 81.1703C294.468 81.5088 295.652 81.8473 296.781 82.2422C297.965 82.5807 299.15 82.9755 300.335 83.3704C301.519 83.7653 302.591 84.1038 303.719 84.3859C304.678 84.4987 305.525 84.4423 306.371 84.3859C307.161 84.2731 307.894 84.1038 308.684 83.9346C309.417 83.7653 310.151 83.5397 310.884 83.2576C311.561 82.9756 312.294 82.7499 312.971 82.4678C313.648 82.2986 314.269 82.1858 314.946 82.0165C315.623 81.9037 316.299 81.7909 316.976 81.6781C317.653 81.5652 318.33 81.5088 319.007 81.396C319.684 81.2832 320.305 81.1704 320.869 81.0011C321.489 80.8883 322.054 80.7754 322.674 80.6626C323.295 80.5498 323.859 80.437 324.423 80.3241C324.987 80.2113 325.608 80.1549 326.172 80.0985C326.736 80.0421 327.356 80.0421 327.92 80.0421C328.541 80.0421 329.105 80.0985 329.726 80.0421C330.29 79.9857 330.91 79.9857 331.587 80.0421C332.264 80.0421 332.885 80.0421 333.562 80.0985C334.239 80.1549 334.859 80.2113 335.536 80.2677C336.157 80.3242 336.834 80.437 337.511 80.6062C338.188 80.7754 338.864 80.9447 339.541 81.0575C340.218 81.2268 340.895 81.3396 341.572 81.5088C342.249 81.7344 342.983 81.9601 343.716 82.1858C344.449 82.4114 345.126 82.6935 345.86 82.9756C346.537 83.2576 347.27 83.5397 348.003 83.8782C348.737 84.2166 349.47 84.6115 350.203 85.0628C350.937 85.5141 351.727 85.9654 352.516 86.4167C353.25 86.868 354.04 87.3193 354.829 87.827C355.563 88.3348 356.352 88.8424 357.142 89.4066C357.932 89.9707 358.722 90.5348 359.455 91.0989C360.245 91.7195 360.978 92.2836 361.768 92.9042C362.558 93.5247 363.348 94.2017 364.081 94.8222C364.871 95.4992 365.604 96.1761 366.394 96.8531C367.184 97.53 367.917 98.2633 368.65 98.9967C370.174 100.463 371.753 102.043 373.333 103.623C374.912 105.259 376.435 107.007 378.015 108.756C379.594 110.674 381.174 112.705 382.697 114.736C384.277 116.767 385.8 118.798 387.267 120.772C388.79 122.746 390.256 124.777 391.667 126.808C393.133 128.839 394.544 130.813 395.954 132.844C397.364 134.875 398.718 136.85 400.072 138.824C401.426 140.742 402.724 142.716 404.077 144.578C405.431 146.383 406.729 148.245 408.026 150.05C409.267 151.912 410.508 153.83 411.75 155.804C412.934 157.835 414.119 159.809 415.191 161.84C416.319 163.928 417.334 165.958 418.35 168.102C419.365 170.189 420.324 172.333 421.227 174.533C422.13 176.846 422.976 179.103 423.822 181.472C424.612 183.841 425.401 186.267 426.135 188.636C426.812 191.062 427.489 193.431 428.109 195.801C428.673 198.17 429.237 200.539 429.745 202.852C430.197 205.222 430.648 207.535 430.986 209.791C431.325 212.048 431.663 214.248 431.889 216.335C432.115 218.479 432.34 220.453 432.453 222.371C432.566 224.289 432.679 226.151 432.679 227.956C432.735 229.705 432.679 231.397 432.622 233.033C432.566 234.613 432.453 236.136 432.284 237.49C432.115 238.9 431.889 240.197 431.663 241.438C431.381 242.68 431.099 243.751 430.761 244.823C430.422 245.839 430.027 246.798 429.632 247.644C429.238 248.49 428.786 249.167 428.335 249.731C427.884 250.295 427.376 250.803 426.868 251.198C426.36 251.593 425.796 251.875 425.232 252.044C424.668 252.213 424.048 252.383 423.427 252.383C422.806 252.383 422.186 252.383 421.509 252.213C420.832 252.044 420.155 251.762 419.422 251.424C418.688 251.085 417.955 250.69 417.222 250.182C416.432 249.675 415.698 249.167 414.852 248.547C414.457 248.264 414.063 247.926 413.611 247.587C413.216 247.249 412.765 246.911 412.37 246.516C411.975 246.177 411.524 245.782 411.073 245.387C410.621 244.992 410.17 244.598 409.719 244.146C409.267 243.751 408.816 243.3 408.365 242.849C407.914 242.398 407.406 241.89 406.955 241.438C406.447 240.931 405.995 240.479 405.488 239.972C404.98 239.464 404.472 238.956 404.021 238.392C403.513 237.885 403.006 237.32 402.498 236.756C401.99 236.192 401.426 235.628 400.918 235.008C400.354 234.387 399.847 233.823 399.282 233.202C398.718 232.582 398.154 231.961 397.59 231.341C397.026 230.72 396.462 230.1 395.898 229.479C395.334 228.859 394.769 228.182 394.205 227.505C393.641 226.828 393.077 226.151 392.456 225.474C391.892 224.797 391.272 224.12 390.651 223.386C390.031 222.71 389.467 221.976 388.846 221.299C388.226 220.622 387.605 220.002 386.984 219.438C386.364 218.873 385.743 218.309 385.123 217.802C384.502 217.294 383.882 216.73 383.261 216.166C382.641 215.658 382.02 215.094 381.4 214.586C380.779 213.966 380.102 213.345 379.482 212.668C378.861 211.991 378.184 211.371 377.564 210.75C376.887 210.13 376.266 209.509 375.589 208.832C374.912 208.212 374.292 207.591 373.615 206.97C372.938 206.406 372.261 205.899 371.584 205.334C370.907 204.827 370.174 204.319 369.497 203.811C368.763 203.36 368.03 202.965 367.296 202.57C366.62 202.175 365.943 201.837 365.266 201.442C364.476 201.216 363.799 200.878 363.122 200.596Z" stroke="#655454" stroke-width="3"/>
<path d="M363.122 227.279C362.219 226.715 361.317 226.151 360.414 225.586C359.511 225.079 358.552 224.515 357.593 223.951C356.634 223.386 355.619 222.879 354.604 222.315C353.588 221.75 352.573 221.243 351.557 220.622C350.542 220.058 349.47 219.494 348.455 218.873C347.439 218.309 346.367 217.689 345.408 217.125C344.506 216.673 343.547 216.166 342.644 215.771C341.742 215.376 340.783 215.037 339.767 214.699C338.695 214.417 337.623 214.248 336.495 214.191C335.311 214.248 334.069 214.417 332.716 214.642C331.362 214.981 330.008 215.432 328.541 216.053C327.187 216.955 325.777 218.084 324.423 219.55C323.069 221.243 321.659 223.217 320.248 225.586C318.782 228.407 317.315 231.341 315.905 234.5C314.551 238.11 313.253 241.833 311.956 245.669C310.602 249.618 309.361 253.68 308.063 257.798C306.709 262.085 305.412 266.429 304.227 271.055C303.099 275.907 301.801 280.984 300.56 286.343C299.319 291.871 298.135 297.569 296.781 303.323C295.37 309.303 293.847 315.395 292.211 321.488C290.406 327.806 288.432 334.237 286.288 340.668C283.919 347.325 281.324 354.038 278.39 360.695C275.231 367.521 271.79 374.403 268.18 381.285C264.287 388.224 260.169 395.106 255.825 401.876C251.256 408.589 246.799 415.189 242.512 421.79C238.168 428.221 233.655 434.482 229.311 440.688C224.968 446.724 220.567 452.647 216.111 458.176C211.428 463.648 206.633 468.725 201.613 472.899C196.536 476.792 191.458 480.515 186.551 483.787C181.53 486.89 176.735 489.485 171.996 492.08C167.088 494.675 162.011 497.1 156.821 499.47C151.518 501.388 146.103 503.024 140.631 504.547C134.425 505.788 128.446 506.803 122.409 507.649C116.43 508.157 110.563 508.27 104.752 508.27C98.8289 508.101 93.1877 507.706 87.8285 507.085C82.5257 506.408 77.3357 505.562 72.3714 504.603C67.3507 503.475 62.3864 502.347 57.4785 501.162C52.5706 499.921 47.7191 498.567 42.8676 497.213C37.9597 495.859 32.8262 494.618 27.8619 493.434C22.6719 492.249 17.5383 491.064 12.4048 489.88C7.0456 488.638 1.74281 487.341 -3.50356 486.156C-8.80634 484.915 -14.0527 483.674 -19.2427 482.377C-24.4326 481.079 -29.6226 479.725 -34.6997 478.315C-39.8897 476.905 -45.0232 475.494 -50.1003 474.14C-55.1211 472.843 -59.9725 471.602 -64.6548 470.417C-69.337 469.345 -73.9629 468.443 -78.4195 467.709C-82.8761 467.032 -87.2198 466.355 -91.5636 465.791C-95.9074 465.171 -100.195 464.607 -104.426 463.986C-108.657 463.366 -112.831 462.689 -116.949 462.012C-120.898 461.335 -124.678 460.601 -128.345 459.868C-135.735 458.288 -142.843 456.652 -149.612 454.96C-156.551 453.155 -163.038 451.293 -168.962 449.375C-174.941 447.401 -180.583 445.37 -185.603 443.339C-190.737 441.252 -195.476 439.165 -199.65 437.134C-203.881 434.99 -207.604 432.959 -210.707 430.985C-213.923 428.954 -216.687 426.979 -219 425.061C-221.425 423.143 -223.343 421.282 -224.81 419.477C-226.333 417.671 -227.292 415.979 -227.687 414.399C-228.138 412.82 -228.082 411.353 -227.631 410.056C-227.236 408.702 -226.22 407.574 -224.697 406.615C-223.287 405.599 -221.369 404.753 -219.056 403.963C-216.743 403.23 -213.866 402.666 -210.538 402.158C-207.266 401.65 -203.035 401.368 -198.127 401.312C-193.163 401.199 -187.634 401.199 -181.429 401.368C-178.326 401.425 -175.111 401.425 -171.726 401.537C-168.398 401.594 -164.956 401.65 -161.29 401.707C-157.623 401.819 -153.73 401.876 -149.669 401.989C-145.663 402.045 -141.489 402.158 -137.201 402.214C-132.914 402.271 -128.514 402.327 -124.001 402.384C-119.262 402.496 -114.411 402.553 -109.503 402.666C-104.538 402.722 -99.5178 402.835 -94.2714 402.948C-89.025 403.004 -83.6659 403.173 -78.2502 403.343C-72.8346 403.568 -67.3062 403.794 -61.7213 404.076C-56.2493 404.358 -50.6645 404.697 -45.0232 405.091C-39.4384 405.486 -33.7407 405.881 -27.761 406.389C-21.7812 406.897 -15.6887 407.404 -9.53968 408.025C-3.3907 408.645 2.75825 409.21 9.02005 409.886C15.2818 410.507 21.5436 411.071 27.9183 411.748C34.2365 412.256 40.4419 412.651 46.6473 413.046C52.7398 413.384 58.776 413.666 64.925 413.779C70.9611 413.835 76.9408 414.005 82.977 414.287C89.0131 414.569 95.2185 414.851 101.65 414.907C107.968 414.681 114.23 414.174 120.548 413.44C126.584 411.917 132.564 409.774 138.487 406.897C144.015 403.625 149.318 400.014 154.452 395.896C159.416 391.44 164.098 386.588 168.216 381.849C172.391 377.054 177.299 372.09 181.981 366.9C186.381 361.541 190.669 355.9 194.73 349.863C198.51 343.376 202.008 336.437 205.054 329.16C207.48 321.77 209.285 314.323 210.752 306.877C212.105 299.825 213.629 293.507 215.265 287.64C216.731 281.886 217.916 275.794 218.931 269.758C219.834 263.721 220.624 257.572 221.357 251.367C222.034 245.275 222.937 239.295 224.065 233.428C225.419 227.617 227.111 221.694 229.029 215.827C230.947 210.017 232.809 204.319 234.67 198.734C236.363 193.262 238.055 187.846 239.522 182.318C240.763 176.62 241.778 170.923 242.737 165.338C243.527 159.753 244.091 154.112 244.543 148.527C244.825 142.942 245.107 137.414 245.389 131.998C245.615 126.695 245.84 121.731 246.009 116.823C246.235 112.141 246.799 108.079 247.363 104.243C247.927 100.576 248.548 97.0786 249.338 93.9195C250.128 90.8732 250.917 88.109 251.763 85.5141C252.722 83.0319 253.794 80.8318 254.923 78.7445C256.22 76.9958 257.574 75.529 258.984 74.2315C260.338 73.0469 261.692 71.975 263.046 71.016C264.456 70.1698 265.81 69.4365 267.277 68.8723C268.744 68.421 270.21 68.0825 271.734 67.8569C273.257 67.6876 274.78 67.7441 276.303 67.8005C277.77 67.9133 279.293 68.0826 280.872 68.3646C282.395 68.7031 283.919 69.0416 285.442 69.4365C286.965 69.8878 288.488 70.3391 290.011 70.8468C291.534 71.4109 293.057 71.9186 294.581 72.3699C295.991 72.7648 297.232 72.9904 298.36 72.9904C299.376 72.8776 300.391 72.7083 301.294 72.4827C302.196 72.1442 303.099 71.8622 304.002 71.5801C304.848 71.3545 305.637 71.1852 306.484 71.016C307.273 70.8467 308.063 70.6211 308.909 70.4519C309.756 70.2826 310.545 70.1134 311.335 69.8877C312.069 69.6621 312.802 69.4365 313.535 69.1544C314.212 68.8723 314.946 68.5903 315.623 68.3082C316.3 68.0826 316.976 67.8005 317.71 67.6312C318.387 67.4056 319.064 67.2363 319.741 67.0671C320.418 66.8414 321.095 66.6722 321.771 66.4466C322.505 66.2773 323.295 66.1081 324.084 65.9952C324.874 65.9388 325.664 65.8824 326.454 65.8824C327.244 65.8824 328.033 65.9388 328.823 65.9388C329.669 65.9953 330.459 66.0517 331.305 66.0517C332.151 66.1081 332.998 66.1645 333.844 66.2773C334.69 66.3901 335.536 66.503 336.439 66.6158C337.341 66.7287 338.244 66.9543 339.147 67.2364C340.049 67.5184 341.008 67.8569 341.911 68.1953C342.87 68.5902 343.829 68.9852 344.788 69.4365C345.747 69.8878 346.706 70.3391 347.665 70.8468C348.624 71.3545 349.583 71.8622 350.542 72.3699C351.501 72.934 352.46 73.4981 353.419 74.0623C354.378 74.6828 355.393 75.3034 356.352 75.9803C357.311 76.6573 358.27 77.3342 359.229 78.0112C360.188 78.6881 361.147 79.365 362.106 80.042C363.065 80.7189 364.025 81.4524 364.984 82.1293C365.943 82.8627 366.902 83.5396 367.804 84.3293C368.763 85.0627 369.779 85.8525 370.794 86.6987C371.809 87.6013 372.825 88.5603 373.84 89.5193C374.856 90.5348 375.871 91.5502 376.887 92.622C377.902 93.6375 378.917 94.7657 379.876 95.7811C380.892 96.853 381.851 97.9248 382.866 98.9966C383.882 100.125 384.841 101.197 385.856 102.325C386.815 103.453 387.831 104.581 388.79 105.766C389.749 106.894 390.708 108.079 391.667 109.207C392.626 110.392 393.585 111.577 394.544 112.705C395.503 113.89 396.405 115.074 397.364 116.259C398.323 117.444 399.226 118.685 400.129 119.869C401.031 121.054 401.934 122.295 402.836 123.48C403.739 124.664 404.698 125.849 405.601 127.034C406.503 128.218 407.406 129.403 408.252 130.531C409.155 131.66 410.057 132.788 410.96 133.916C411.862 135.044 412.765 136.173 413.611 137.301C414.514 138.485 415.36 139.67 416.206 140.855C417.052 142.039 417.899 143.281 418.745 144.522C419.591 145.763 420.381 147.004 421.17 148.301C421.96 149.599 422.75 150.953 423.54 152.25C424.33 153.66 425.063 155.071 425.853 156.537C426.586 158.061 427.376 159.584 428.109 161.163C429.576 164.379 430.986 167.594 432.34 170.866C433.694 174.195 434.992 177.523 436.233 180.964C437.474 184.405 438.602 187.959 439.73 191.513C440.802 195.124 441.874 198.734 442.833 202.345C443.792 205.955 444.638 209.565 445.428 213.176C446.218 216.843 446.895 220.453 447.515 224.063C448.079 227.674 448.643 231.284 449.038 234.838C449.433 238.392 449.828 241.89 450.11 245.218C450.392 248.603 450.561 251.818 450.674 254.977C450.787 258.137 450.787 261.239 450.731 264.229C450.674 267.219 450.561 270.04 450.336 272.747C450.11 275.455 449.884 278.05 449.546 280.532C449.207 283.015 448.813 285.44 448.361 287.697C447.91 289.953 447.402 292.041 446.838 294.015C446.556 294.974 446.274 295.933 445.992 296.836C445.71 297.738 445.371 298.641 445.089 299.487C444.751 300.333 444.469 301.123 444.13 301.856C443.792 302.59 443.453 303.267 443.115 303.944C442.777 304.621 442.438 305.241 442.043 305.805C441.648 306.426 441.31 306.99 440.915 307.498C440.52 308.005 440.125 308.513 439.73 308.964C439.335 309.416 438.94 309.81 438.546 310.205C438.151 310.6 437.699 310.939 437.304 311.221C436.853 311.559 436.458 311.785 436.063 311.954C435.669 312.123 435.217 312.293 434.822 312.405C434.371 312.518 433.976 312.631 433.525 312.688C433.074 312.744 432.679 312.744 432.227 312.744C431.776 312.744 431.325 312.688 430.873 312.575C430.422 312.462 429.971 312.293 429.519 312.123C429.068 311.954 428.617 311.729 428.166 311.503C427.714 311.277 427.263 310.939 426.812 310.6C426.36 310.262 425.909 309.81 425.458 309.359C425.007 308.908 424.555 308.4 424.104 307.892C423.653 307.328 423.145 306.764 422.694 306.144C422.242 305.523 421.735 304.903 421.283 304.169C420.832 303.492 420.324 302.759 419.873 301.969C419.365 301.236 418.914 300.502 418.406 299.713C417.899 298.923 417.447 298.133 416.94 297.287C416.432 296.497 415.924 295.707 415.416 294.861C414.909 294.015 414.401 293.169 413.837 292.266C413.329 291.42 412.765 290.517 412.257 289.615C411.75 288.712 411.185 287.81 410.678 286.851C410.114 286.004 409.606 285.102 409.042 284.199C408.478 283.297 407.914 282.338 407.349 281.379C406.785 280.42 406.221 279.461 405.601 278.502C405.036 277.543 404.416 276.584 403.852 275.625C403.231 274.665 402.611 273.65 402.047 272.691C401.426 271.732 400.805 270.773 400.185 269.758C399.564 268.799 398.888 267.783 398.267 266.768C397.59 265.752 396.969 264.737 396.293 263.721C395.616 262.706 394.939 261.691 394.318 260.675C393.641 259.716 392.964 258.701 392.287 257.685C391.554 256.726 390.877 255.711 390.2 254.695C389.467 253.736 388.79 252.721 388.056 251.706C387.323 250.747 386.646 249.788 385.913 248.885C385.179 248.039 384.446 247.136 383.656 246.121C382.866 245.162 382.133 244.203 381.343 243.187C380.553 242.228 379.707 241.269 378.917 240.367C378.128 239.52 377.338 238.731 376.605 237.941C375.815 237.151 375.025 236.305 374.235 235.459C373.445 234.613 372.599 233.879 371.753 233.146C370.907 232.469 370.004 231.792 369.158 231.115C368.255 230.494 367.353 229.817 366.45 229.141C364.927 228.464 364.024 227.843 363.122 227.279Z" stroke="#655454" stroke-width="3"/>
<path d="M361.035 242.172C359.963 241.326 358.947 240.536 357.876 239.69C356.804 238.9 355.619 238.167 354.491 237.377C353.306 236.643 352.122 236.023 350.993 235.515C349.865 235.064 348.737 234.669 347.552 234.274C346.367 233.936 345.183 233.597 343.998 233.259C342.757 232.977 341.46 232.751 340.275 232.525C339.034 232.356 337.849 232.243 336.552 232.13C335.254 232.13 334.013 232.243 332.716 232.469C331.418 232.864 330.121 233.428 328.767 234.161C327.413 235.29 326.002 236.643 324.479 238.392C322.956 240.536 321.377 243.018 319.966 245.895C318.556 249.336 317.146 253.003 315.735 256.839C314.381 260.788 313.028 264.737 311.617 268.742C310.094 272.973 308.684 277.261 307.33 281.83C305.976 287.02 304.622 292.548 303.325 298.359C301.971 304.395 300.56 310.431 299.15 316.524C297.571 322.785 295.878 328.934 294.017 335.083C291.929 341.345 289.729 347.72 287.303 354.151C284.596 360.864 281.662 367.633 278.39 374.629C274.78 381.849 270.775 389.183 266.487 396.46C261.805 403.907 256.953 411.071 252.046 418.292C247.081 425.682 242.173 432.903 237.04 439.954C231.963 446.95 226.998 453.775 221.978 460.037C216.788 466.073 211.485 471.771 206.013 476.905C200.372 481.643 194.787 486.156 189.258 490.162C183.899 493.772 178.653 496.988 173.406 500.147C167.934 503.306 161.729 506.352 155.354 509.003C148.698 511.26 141.815 513.347 134.707 515.209C127.599 516.788 120.604 518.086 113.948 518.763C107.178 519.158 100.465 519.383 93.9775 519.383C87.6593 519.158 81.5103 518.763 75.5306 518.199C69.5508 517.409 63.7967 516.393 58.1555 515.322C52.4578 514.193 46.873 512.896 41.2881 511.598C35.5904 510.301 29.7799 508.891 24.3079 507.537C18.7795 506.126 13.1946 504.772 7.49695 503.419C1.63004 502.065 -4.12404 500.767 -9.87813 499.357C-15.6886 497.947 -21.5555 496.48 -27.4789 494.957C-33.515 493.434 -39.4947 491.91 -45.4181 490.444C-51.4542 488.977 -57.4339 487.51 -63.0752 486.156C-68.7729 484.859 -74.3013 483.731 -79.7169 482.772C-85.1889 481.869 -90.5481 481.023 -95.7945 480.233C-101.041 479.5 -106.287 478.71 -111.534 477.976C-116.836 477.187 -122.083 476.341 -127.216 475.438C-132.35 474.535 -137.314 473.576 -142.222 472.561C-147.13 471.545 -152.038 470.53 -156.833 469.458C-161.684 468.386 -166.48 467.202 -171.218 466.073C-176.013 464.889 -180.639 463.648 -185.208 462.407C-189.778 461.109 -194.122 459.812 -198.296 458.514C-202.471 457.16 -206.589 455.75 -210.538 454.396C-214.599 452.986 -218.548 451.519 -222.384 450.052C-226.277 448.529 -230 447.062 -233.554 445.539C-237.164 444.016 -240.662 442.493 -244.047 440.913C-247.375 439.334 -250.591 437.811 -253.693 436.175C-256.796 434.539 -259.786 432.959 -262.719 431.323C-265.653 429.687 -268.473 427.995 -271.125 426.359C-273.551 424.779 -275.92 423.143 -278.176 421.564C-280.433 419.928 -282.577 418.348 -284.664 416.769C-286.751 415.133 -288.669 413.553 -290.531 411.974C-292.392 410.338 -294.198 408.758 -295.834 407.179C-297.526 405.599 -299.049 404.02 -300.459 402.553C-301.813 401.03 -303.111 399.563 -304.295 398.096C-305.48 396.63 -306.608 395.219 -307.624 393.809C-308.639 392.399 -309.485 391.045 -310.275 389.747C-311.065 388.393 -311.742 387.152 -312.306 385.911C-312.87 384.67 -313.265 383.485 -313.547 382.414C-313.829 381.285 -314.055 380.27 -314.111 379.254C-314.224 378.239 -314.168 377.336 -314.111 376.434C-313.998 375.531 -313.829 374.741 -313.491 373.952C-313.096 373.218 -312.645 372.485 -312.024 371.864C-311.46 371.244 -310.783 370.623 -310.05 370.059C-309.26 369.551 -308.414 369.157 -307.455 368.762C-306.552 368.367 -305.48 367.972 -304.408 367.69C-303.28 367.351 -302.095 367.126 -300.741 366.9C-299.444 366.674 -298.034 366.505 -296.511 366.392C-294.987 366.28 -293.295 366.28 -291.546 366.392C-289.741 366.449 -287.879 366.562 -285.961 366.731C-284.043 366.844 -282.012 367.013 -279.869 367.239C-277.725 367.464 -275.525 367.746 -273.099 368.085C-270.73 368.367 -268.248 368.705 -265.653 369.1C-262.889 369.495 -259.955 370.003 -256.909 370.51C-253.863 370.962 -250.703 371.469 -247.488 371.977C-244.16 372.485 -240.606 373.105 -236.882 373.726C-233.159 374.347 -229.323 374.967 -225.374 375.644C-221.425 376.265 -217.307 376.885 -212.963 377.562C-208.563 378.239 -203.994 378.916 -199.312 379.537C-194.46 380.157 -189.383 380.834 -184.193 381.455C-178.89 382.075 -173.305 382.696 -167.551 383.316C-161.628 383.88 -155.535 384.444 -149.217 385.009C-142.786 385.516 -136.299 385.968 -129.642 386.419C-122.929 386.814 -115.99 387.209 -108.939 387.604C-101.943 387.942 -94.8355 388.28 -87.6711 388.619C-80.4503 388.957 -73.1731 389.296 -65.8394 389.691C-58.6186 390.086 -51.285 390.593 -43.8949 391.214C-36.4485 391.778 -28.8892 392.455 -21.217 393.188C-13.6013 393.922 -6.04208 394.712 1.57362 395.501C9.02009 396.235 16.4666 396.912 24.0259 397.589C31.3031 398.04 38.4111 398.266 45.3498 398.378C52.1757 398.322 59.0016 398.322 65.884 398.548C72.5971 399.112 79.141 399.732 85.5156 400.24C91.6646 400.578 97.7571 400.748 103.962 400.466C110.055 399.563 116.317 398.265 122.353 396.46C128.163 394.204 133.636 391.44 138.825 388.28C143.79 384.896 148.641 381.06 153.436 377.054C158.626 372.654 164.437 367.69 170.134 362.218C175.55 356.464 180.909 350.258 185.874 343.489C190.217 335.478 194.053 326.791 196.479 317.652C197.889 308.4 198.905 299.092 200.428 291.138C202.064 284.03 203.531 277.091 204.941 270.435C206.408 264.398 207.762 258.249 209.003 251.818C210.075 245.331 211.259 238.787 212.782 232.469C214.644 225.981 217.126 219.381 219.608 212.781C221.978 206.406 224.234 200.201 226.491 194.165C228.691 188.354 230.722 182.544 232.696 176.959C234.445 171.092 235.799 165.112 236.927 159.189C237.83 153.096 238.563 146.665 239.014 140.234C239.24 133.803 239.466 127.429 239.691 121.28C239.86 115.413 240.03 109.771 240.368 104.638C240.819 99.8428 241.384 95.4427 242.004 91.2681C242.738 87.4885 243.584 83.9909 244.486 80.8318C245.445 77.8984 246.517 75.247 247.815 72.8213C249.169 70.734 250.692 68.9852 252.215 67.5185C253.738 66.1646 255.261 64.9799 256.784 63.9644C258.307 63.0054 259.887 62.2157 261.523 61.5387C263.159 61.031 264.795 60.6361 266.487 60.4105C268.123 60.2977 269.816 60.2412 271.508 60.354C273.2 60.5232 274.893 60.7489 276.585 61.031C278.277 61.4259 280.026 61.8772 281.719 62.3849C283.411 62.8926 285.103 63.4567 286.852 64.0208C288.545 64.585 290.18 65.2055 291.76 65.7132C293.114 65.9389 294.299 65.826 295.427 65.6568C296.499 65.4312 297.514 65.0927 298.53 64.9235C299.489 64.7542 300.391 64.5285 301.35 64.3029C302.253 64.0772 303.099 63.8516 304.002 63.626C304.904 63.4003 305.75 63.1746 306.597 62.8926C307.386 62.5541 308.176 62.2157 308.966 61.9336C309.756 61.5951 310.489 61.3131 311.279 60.9746C312.012 60.6925 312.746 60.354 313.479 60.0156C314.212 59.6771 314.946 59.395 315.679 59.113C316.412 58.7745 317.202 58.4924 317.992 58.2668C318.838 58.0411 319.628 57.8719 320.474 57.7026C321.32 57.5898 322.166 57.4206 323.013 57.3642C323.859 57.3078 324.761 57.2513 325.664 57.2513C326.567 57.1949 327.526 57.1949 328.428 57.1949C329.331 57.1949 330.29 57.1385 331.305 57.3642C332.321 57.5334 333.336 57.7591 334.352 57.9847C335.367 58.2104 336.439 58.5488 337.454 58.8309C338.526 59.1694 339.541 59.5643 340.613 59.9592C341.685 60.354 342.701 60.7489 343.772 61.2002C344.844 61.6515 345.86 62.1028 346.932 62.5541C348.003 63.0054 349.019 63.4567 350.091 63.9644C351.163 64.4721 352.178 64.9799 353.25 65.4876C354.322 65.9953 355.393 66.5594 356.465 67.1235C357.537 67.6876 358.553 68.3082 359.624 68.9288C360.696 69.6057 361.712 70.2262 362.784 70.9596C363.799 71.6366 364.871 72.3699 365.943 73.2161C367.014 74.0623 368.143 74.9649 369.271 75.8675C370.399 76.8829 371.527 77.8983 372.656 78.9138C373.784 79.9292 374.912 81.001 376.04 82.0729C377.169 83.1447 378.297 84.273 379.369 85.3448C380.441 86.4731 381.569 87.6013 382.697 88.786C383.825 89.9706 384.897 91.0989 386.025 92.2836C387.154 93.4683 388.226 94.6529 389.354 95.8375C390.482 97.0786 391.554 98.3197 392.682 99.5608C393.754 100.802 394.882 102.043 395.954 103.284C397.026 104.525 398.098 105.766 399.17 107.007C400.241 108.248 401.257 109.546 402.329 110.787C403.401 112.028 404.416 113.269 405.431 114.51C406.447 115.751 407.462 116.992 408.478 118.233C409.437 119.531 410.452 120.772 411.468 122.013C412.483 123.254 413.498 124.382 414.514 125.623C415.529 126.865 416.545 128.049 417.504 129.29C418.463 130.531 419.478 131.772 420.437 133.07C421.396 134.367 422.412 135.778 423.371 137.244C424.33 138.824 425.289 140.404 426.304 142.039C427.263 143.788 428.222 145.537 429.181 147.342C430.14 149.147 431.043 150.953 431.945 152.814C432.848 154.676 433.751 156.594 434.653 158.512C435.556 160.43 436.402 162.404 437.248 164.379C438.094 166.41 438.941 168.384 439.787 170.415C440.576 172.446 441.366 174.477 442.156 176.508C442.946 178.538 443.679 180.626 444.412 182.657C445.146 184.687 445.823 186.775 446.5 188.862C447.177 190.949 447.854 193.036 448.474 195.124C449.095 197.211 449.715 199.298 450.279 201.385C450.844 203.473 451.408 205.56 451.915 207.647C452.423 209.735 452.931 211.822 453.439 213.909C453.89 215.996 454.341 218.084 454.792 220.115C455.244 222.202 455.639 224.233 456.033 226.32C456.428 228.407 456.767 230.438 457.105 232.469C457.444 234.5 457.726 236.531 458.008 238.561C458.29 240.592 458.516 242.623 458.798 244.598C459.023 246.628 459.249 248.603 459.418 250.634C459.587 252.665 459.757 254.639 459.87 256.557C459.982 258.531 460.095 260.45 460.152 262.368C460.264 264.286 460.321 266.204 460.321 268.065C460.377 269.927 460.377 271.788 460.321 273.65C460.321 275.455 460.264 277.26 460.208 279.066C460.152 280.814 460.039 282.563 459.926 284.256C459.813 285.948 459.7 287.697 459.531 289.333C459.362 291.025 459.193 292.661 459.023 294.297C458.854 295.933 458.628 297.513 458.403 299.092C458.177 300.672 457.895 302.195 457.669 303.718C457.387 305.241 457.105 306.708 456.823 308.175C456.541 309.641 456.203 311.052 455.864 312.462C455.526 313.816 455.187 315.17 454.849 316.524C454.51 317.878 454.115 319.175 453.721 320.473C453.326 321.714 452.931 322.955 452.48 324.196C452.028 325.437 451.633 326.565 451.182 327.693C450.731 328.822 450.279 329.893 449.772 330.909C449.32 331.924 448.813 332.94 448.305 333.899C447.797 334.858 447.29 335.817 446.782 336.719C446.274 337.622 445.766 338.412 445.202 339.202C444.695 339.935 444.187 340.668 443.679 341.345C443.171 342.022 442.607 342.643 442.1 343.207C441.592 343.771 441.028 344.279 440.464 344.73C439.956 345.181 439.392 345.576 438.828 345.915C438.32 346.253 437.756 346.592 437.192 346.817C436.628 347.043 436.063 347.269 435.556 347.381C435.048 347.494 434.484 347.607 433.976 347.607C433.468 347.607 432.904 347.607 432.34 347.551C431.776 347.494 431.268 347.381 430.704 347.212C430.197 347.043 429.632 346.874 429.068 346.648C428.504 346.422 427.996 346.14 427.432 345.858C426.925 345.576 426.36 345.181 425.853 344.73C425.345 344.279 424.837 343.771 424.33 343.263C423.822 342.755 423.314 342.191 422.807 341.571C422.299 340.95 421.791 340.273 421.283 339.596C420.776 338.863 420.268 338.073 419.817 337.227C419.309 336.381 418.858 335.535 418.35 334.632C417.842 333.729 417.334 332.827 416.827 331.811C416.319 330.852 415.811 329.837 415.304 328.765C414.796 327.693 414.232 326.622 413.724 325.55C413.216 324.421 412.652 323.293 412.145 322.165C411.637 321.037 411.073 319.852 410.565 318.667C410.001 317.483 409.493 316.298 408.929 315.113C408.365 313.929 407.801 312.744 407.237 311.503C406.672 310.262 406.108 309.021 405.544 307.78C404.98 306.539 404.36 305.298 403.795 304.056C403.175 302.815 402.611 301.631 401.99 300.39C401.37 299.149 400.749 297.907 400.129 296.61C399.508 295.369 398.888 294.071 398.211 292.83C397.534 291.589 396.913 290.348 396.236 289.051C395.559 287.81 394.882 286.512 394.149 285.271C393.472 284.086 392.739 282.845 392.062 281.604C391.328 280.363 390.651 279.179 389.918 277.994C389.185 276.809 388.451 275.624 387.718 274.44C386.984 273.255 386.195 272.07 385.461 270.773C384.672 269.476 383.882 268.234 383.092 266.881C382.302 265.64 381.512 264.511 380.723 263.327C379.876 262.198 379.03 261.014 378.184 259.773C377.338 258.588 376.492 257.347 375.589 256.162C374.687 254.978 373.84 253.793 372.994 252.721C372.092 251.818 371.189 250.972 370.23 250.126C369.271 249.28 368.312 248.49 367.353 247.587C366.337 246.741 365.322 245.839 364.307 244.992C363.122 243.921 362.107 243.074 361.035 242.172Z" stroke="#655454" stroke-width="3"/>
<path d="M344.336 315.057C343.039 314.775 341.685 314.549 340.331 314.436C338.921 314.493 337.454 314.718 335.931 315C334.351 315.508 332.772 316.242 331.305 317.257C329.782 318.554 328.203 320.021 326.623 321.714C324.931 323.744 323.295 326.114 321.602 328.765C319.91 331.811 318.161 335.253 316.412 338.976C314.438 343.263 312.407 348.002 310.263 353.248C307.95 358.889 305.581 364.474 303.042 370.228C300.278 376.208 297.345 382.301 294.186 388.45C290.857 394.768 287.303 400.973 283.637 407.122C279.744 413.271 275.682 419.42 271.395 425.456C266.769 431.605 261.974 437.867 257.179 444.185C251.989 450.842 246.799 457.499 241.327 464.212C235.573 470.868 229.988 477.017 224.403 483.054C218.424 489.203 212.049 495.351 205.505 501.218C198.905 506.747 192.305 511.598 185.479 516.45C178.483 521.019 171.093 525.476 163.139 530.045C155.185 534.107 147.344 537.661 139.277 540.933C130.984 544.036 122.861 546.743 114.906 549.113C107.347 550.861 99.8443 552.328 92.3415 553.513C85.2335 554.303 78.4076 554.641 71.5816 554.81C64.8121 554.698 58.099 554.415 51.7244 553.964C45.4062 553.4 39.088 552.78 33.0518 552.046C27.2413 551.2 21.6001 550.297 16.0152 549.338C10.4304 548.379 4.90195 547.308 -0.513664 546.236C-5.98569 545.107 -11.3449 543.979 -16.7041 542.907C-22.0633 541.779 -27.3661 540.651 -32.6124 539.466C-37.8024 538.282 -42.8795 537.04 -47.9567 535.799C-52.9774 534.502 -57.9417 533.261 -62.8496 531.963C-67.8139 530.666 -72.9474 529.368 -78.081 528.127C-83.553 526.886 -89.1379 525.419 -94.892 523.896C-101.041 522.317 -107.19 520.681 -113.395 519.045C-119.713 517.465 -126.145 515.942 -132.576 514.363C-139.119 512.783 -145.607 511.203 -152.094 509.624C-158.638 508.101 -165.238 506.578 -171.839 504.998C-178.439 503.362 -184.814 501.67 -191.132 499.921C-197.45 498.116 -203.712 496.311 -209.917 494.449C-216.066 492.644 -222.215 490.839 -228.251 488.92C-234.287 486.946 -240.211 484.972 -246.021 482.941C-251.775 480.854 -257.304 478.766 -262.832 476.623C-268.361 474.479 -273.776 472.279 -279.136 470.079C-284.269 467.879 -289.064 465.679 -293.803 463.478C-298.429 461.278 -302.942 459.135 -307.342 456.878C-311.742 454.565 -316.029 452.252 -320.26 449.883C-324.378 447.457 -328.384 444.975 -332.22 442.38C-336.056 439.729 -339.779 437.021 -343.333 434.313C-346.718 431.605 -350.046 428.841 -353.262 426.077C-356.421 423.256 -359.58 420.492 -362.683 417.671C-365.729 414.794 -368.775 411.974 -371.709 409.097C-374.642 406.163 -377.519 403.286 -380.283 400.353C-383.048 397.419 -385.812 394.429 -388.35 391.496C-390.889 388.562 -393.315 385.629 -395.684 382.696C-397.884 379.819 -400.028 376.998 -402.115 374.177C-404.202 371.3 -406.233 368.423 -408.151 365.659C-410.069 362.838 -411.931 359.961 -413.68 357.197C-415.372 354.433 -417.008 351.725 -418.587 348.961C-420.167 346.197 -421.69 343.432 -423.1 340.781C-424.398 338.186 -425.639 335.591 -426.824 333.052C-427.952 330.514 -429.08 327.919 -430.096 325.38C-431.111 322.842 -432.07 320.303 -432.916 317.821C-433.706 315.395 -434.439 312.97 -435.004 310.657C-435.511 308.4 -436.019 306.144 -436.414 303.944C-436.809 301.687 -437.204 299.487 -437.486 297.287C-437.768 295.087 -437.993 292.887 -438.219 290.799C-438.388 288.656 -438.501 286.512 -438.614 284.425C-438.67 282.338 -438.67 280.25 -438.501 278.332C-438.275 276.527 -437.993 274.722 -437.598 272.973C-437.204 271.281 -436.752 269.645 -436.188 268.065C-435.68 266.486 -435.06 264.906 -434.439 263.439C-433.762 261.973 -433.085 260.506 -432.296 259.152C-431.506 257.798 -430.66 256.444 -429.814 255.147C-428.911 253.849 -428.008 252.608 -426.993 251.423C-426.034 250.182 -424.962 248.998 -423.89 247.869C-422.762 246.798 -421.577 245.726 -420.336 244.71C-419.095 243.695 -417.854 242.68 -416.5 241.777C-415.146 240.818 -413.736 240.028 -412.326 239.351C-410.859 238.787 -409.336 238.279 -407.756 237.884C-406.177 237.433 -404.541 237.038 -402.905 236.7C-401.212 236.418 -399.464 236.192 -397.658 236.023C-395.853 235.854 -394.048 235.684 -392.13 235.684C-390.212 235.741 -388.181 235.91 -386.094 236.136C-384.007 236.361 -381.863 236.643 -379.606 236.982C-377.406 237.32 -375.206 237.715 -372.95 238.505C-370.693 239.351 -368.324 240.254 -365.954 241.269C-363.529 242.285 -360.99 243.413 -358.452 244.598C-355.913 245.839 -353.205 247.531 -350.441 249.336C-347.677 251.141 -344.913 253.059 -342.036 255.147C-339.102 257.178 -336.056 259.152 -332.953 261.126C-329.738 263.101 -326.353 265.301 -322.855 267.557C-319.358 269.701 -315.86 271.901 -312.193 273.989C-308.526 276.019 -304.747 277.937 -300.967 279.799C-297.188 281.548 -293.351 283.24 -289.346 284.989C-285.284 286.681 -281.166 288.487 -276.879 290.574C-272.535 292.718 -268.135 294.861 -263.453 297.118C-258.658 299.487 -253.637 301.969 -248.447 304.451C-243.088 306.877 -237.503 309.303 -231.58 311.785C-225.544 314.211 -219.282 316.58 -212.738 318.893C-205.968 321.037 -198.86 323.124 -191.47 325.098C-183.855 326.904 -175.562 328.652 -166.931 330.232C-158.187 331.586 -149.217 332.77 -140.022 333.842C-130.601 334.858 -120.729 335.817 -110.462 336.719C-99.9127 337.565 -89.1943 338.412 -78.3066 339.258C-67.5883 339.991 -56.9263 340.725 -46.0386 341.571C-34.9818 342.361 -24.0377 343.094 -12.7552 343.714C-1.92399 343.771 8.79441 343.432 19.2307 342.699C29.0465 341.402 38.4674 339.596 47.3806 337.283C55.7861 334.745 63.7967 331.868 71.4124 328.709C78.6896 325.38 85.5155 321.714 92.003 317.821C98.0391 313.647 103.68 309.134 109.04 304.395C114.004 299.318 118.686 293.959 122.974 288.204C126.922 281.943 130.589 275.286 134.087 267.952C137.133 260.167 140.179 252.1 143.395 243.751C147.062 235.064 151.18 226.376 155.241 217.745C159.247 209.114 163.196 200.652 167.427 193.093C171.77 186.267 176.227 180.062 180.571 174.138C184.802 168.384 188.807 162.912 192.643 157.553C196.31 152.363 199.751 147.342 202.91 142.321C205.9 137.244 208.608 131.49 210.3 124.1C211.428 116.146 212.105 107.853 212.387 99.3351C212.895 91.663 213.403 84.4986 213.911 77.7855C214.418 71.4109 215.039 65.6004 216.054 60.7489C217.408 56.5744 218.762 52.4562 220.172 48.7894C221.808 45.7431 223.557 42.9789 225.475 40.6096C227.506 38.6352 229.537 36.8863 231.511 35.5889C233.542 34.517 235.629 33.6144 237.717 32.8811C239.804 32.2041 241.948 31.7528 244.148 31.4143C246.348 31.2451 248.604 31.2451 250.861 31.3579C253.117 31.5272 255.374 31.8656 257.574 32.2041C259.774 32.6554 262.03 33.1067 264.231 33.6709C266.318 34.2914 268.405 34.9119 270.38 35.476C272.298 35.8709 274.046 36.153 275.795 36.3786C277.375 36.4915 278.841 36.4915 280.252 36.435C281.606 36.3222 282.96 36.153 284.314 35.9838C285.611 35.7581 286.796 35.476 288.037 35.194C289.109 34.7427 290.124 34.1786 291.083 33.6709C292.042 33.1067 293.001 32.5426 293.904 32.0349C294.806 31.4707 295.822 30.8502 296.781 30.1733C297.796 29.4399 298.755 28.6501 299.714 27.9168C300.786 27.2962 301.914 26.7885 303.099 26.3372C304.284 25.9423 305.468 25.5474 306.709 25.3218C308.007 25.1525 309.248 24.9833 310.545 24.8705C311.843 24.7576 313.14 24.7012 314.438 24.6448C315.735 24.6448 317.089 24.7012 318.387 24.7012C319.741 24.7576 321.038 24.7577 322.336 24.8141C323.689 24.8705 324.987 24.9269 326.341 24.9269C327.695 24.9833 328.992 25.0397 330.346 25.1525C331.7 25.2654 333.054 25.4346 334.351 25.6038C335.705 25.7731 337.003 26.0552 338.357 26.3372C339.711 26.6757 341.065 26.9013 342.418 27.2398C343.829 27.6911 345.239 28.1424 346.649 28.6501C348.06 29.1578 349.47 29.722 350.88 30.2861C352.291 30.9066 353.701 31.64 355.111 32.3733C356.522 33.1631 357.932 33.9529 359.455 34.8555C360.978 35.7581 362.445 36.6607 363.912 37.6197C365.378 38.5223 366.902 39.4813 368.425 40.4968C369.948 41.5122 371.471 42.584 372.994 43.7123C374.574 44.8405 376.097 46.0252 377.676 47.2663C379.256 48.5074 380.779 49.7485 382.359 51.1024C383.938 52.4563 385.518 53.8665 387.097 55.2768C388.677 56.7436 390.313 58.2103 391.892 59.7334C393.528 61.313 395.108 62.8925 396.744 64.5285C398.38 66.1645 399.959 67.8004 401.595 69.38C403.175 71.0159 404.754 72.652 406.334 74.2879C407.913 75.8675 409.493 77.5034 411.016 79.1394C412.539 80.7189 414.119 82.2421 415.642 83.7652C417.222 85.4576 418.801 87.2064 420.381 89.068C421.96 90.8732 423.596 92.6784 425.232 94.6529C426.868 96.7965 428.504 99.0531 430.14 101.31C431.776 103.622 433.356 105.992 434.935 108.361C436.515 110.73 438.038 113.1 439.617 115.469C441.14 117.838 442.664 120.264 444.13 122.633C445.597 125.059 447.007 127.429 448.418 129.854C449.828 132.28 451.182 134.706 452.536 137.132C453.89 139.557 455.187 141.983 456.485 144.465C457.782 146.947 459.023 149.429 460.264 151.912C461.449 154.45 462.69 156.932 463.818 159.471C465.003 162.01 466.131 164.548 467.26 167.143C468.331 169.738 469.46 172.333 470.475 174.928C471.547 177.523 472.562 180.118 473.521 182.713C474.48 185.308 475.439 187.959 476.342 190.554C477.245 193.206 478.147 195.801 478.993 198.452C479.84 201.103 480.629 203.698 481.419 206.35C482.209 209.001 482.942 211.653 483.619 214.248C484.353 216.899 484.973 219.55 485.65 222.202C486.271 224.853 486.891 227.504 487.455 230.156C488.019 232.807 488.527 235.459 489.035 238.11C489.542 240.762 489.994 243.413 490.389 246.064C490.784 248.716 491.178 251.367 491.517 254.018C491.855 256.67 492.194 259.321 492.476 261.973C492.758 264.624 492.984 267.275 493.209 269.927C493.379 272.578 493.548 275.23 493.717 277.881C493.83 280.532 493.943 283.184 493.999 285.779C494.056 288.43 494.055 291.025 494.055 293.62C494.055 296.215 493.999 298.754 493.886 301.292C493.773 303.831 493.661 306.313 493.491 308.795C493.322 311.221 493.096 313.703 492.871 316.129C492.645 318.554 492.363 320.98 492.081 323.35C491.799 325.719 491.461 328.088 491.122 330.458C490.784 332.77 490.389 335.14 489.937 337.396C489.486 339.709 489.035 341.966 488.584 344.222C488.132 346.479 487.568 348.735 487.06 350.935C486.496 353.135 485.932 355.335 485.312 357.536C484.691 359.736 484.07 361.879 483.394 364.023C482.717 366.167 482.04 368.31 481.306 370.398C480.573 372.485 479.84 374.572 479.05 376.603C478.26 378.634 477.47 380.608 476.68 382.583C475.891 384.557 475.044 386.475 474.198 388.337C473.352 390.198 472.45 392.004 471.603 393.752C470.701 395.558 469.798 397.306 468.839 398.999C467.936 400.635 467.034 402.271 466.075 403.794C465.116 405.373 464.157 406.897 463.198 408.42C462.239 409.943 461.223 411.41 460.208 412.82C459.193 414.23 458.177 415.641 457.105 417.051C456.033 418.405 454.962 419.759 453.89 421.113C452.818 422.41 451.69 423.708 450.561 425.005C449.433 426.246 448.305 427.487 447.177 428.672C446.048 429.856 444.92 431.041 443.735 432.169C442.607 433.298 441.423 434.369 440.238 435.441C439.053 436.513 437.869 437.529 436.684 438.488C435.499 439.447 434.315 440.349 433.13 441.139C432.002 441.872 430.873 442.549 429.745 443.17C428.617 443.79 427.432 444.411 426.304 445.031C425.119 445.652 423.935 446.216 422.75 446.78C421.565 447.344 420.324 447.909 419.14 448.416C417.955 448.868 416.77 449.262 415.642 449.488C414.514 449.77 413.329 449.939 412.201 450.052C411.129 450.109 410.057 450.109 408.985 449.996C407.914 449.827 406.898 449.657 405.883 449.319C404.924 448.98 403.965 448.529 403.006 447.965C402.103 447.401 401.144 446.837 400.241 446.16C399.339 445.539 398.436 444.806 397.59 444.016C396.744 443.226 395.841 442.437 394.995 441.59C394.205 440.688 393.528 439.559 392.908 438.262C392.287 437.021 391.723 435.554 391.159 434.087C390.595 432.564 390.087 431.098 389.579 429.462C389.072 427.882 388.564 426.19 388.113 424.497C387.605 422.861 387.154 421.113 386.646 419.307C386.138 417.559 385.687 415.753 385.236 413.892C384.728 412.087 384.277 410.225 383.769 408.363C383.261 406.502 382.81 404.527 382.302 402.609C381.794 400.691 381.287 398.717 380.779 396.686C380.328 394.711 379.82 392.681 379.369 390.65C378.861 388.675 378.353 386.644 377.846 384.67C377.281 382.696 376.774 380.665 376.266 378.69C375.702 376.772 375.194 374.911 374.63 372.993C374.066 371.131 373.502 369.1 372.938 366.956C372.374 364.813 371.753 362.556 371.189 360.243C370.568 357.987 369.891 355.674 369.214 353.305C368.481 351.048 367.748 348.792 367.014 346.422C366.225 344.166 365.435 341.909 364.589 339.709C363.742 337.622 362.896 335.478 361.994 333.335C361.091 331.36 360.132 329.329 359.173 327.298C358.101 325.662 356.916 324.365 355.788 323.124C354.604 321.939 353.419 320.755 352.178 319.57C350.937 318.554 349.583 317.708 348.285 316.918C347.044 316.129 345.69 315.508 344.336 315.057Z" stroke="#655454" stroke-width="3"/>
<path d="M329.274 379.029C328.485 379.424 327.638 379.819 326.849 380.326C326.002 380.89 325.1 381.511 324.197 382.188C323.238 382.978 322.279 383.824 321.32 384.67C320.305 385.629 319.289 386.588 318.274 387.66C317.202 388.788 316.074 390.086 315.002 391.439C313.874 392.906 312.689 394.429 311.504 396.009C310.263 397.701 309.022 399.394 307.725 401.199C306.371 403.06 305.017 404.978 303.607 406.953C302.196 409.04 300.673 411.128 299.206 413.271C297.627 415.471 296.047 417.728 294.411 419.984C292.719 422.354 290.97 424.61 289.221 426.923C287.36 429.349 285.555 431.775 283.637 434.2C281.662 436.682 279.631 439.221 277.6 441.76C275.513 444.355 273.369 446.837 271.226 449.262C266.713 454.34 262.143 459.586 257.405 465.002C252.44 470.586 247.363 476.228 242.117 481.812C236.645 487.454 231.004 492.982 225.193 498.68C219.157 504.547 212.839 510.301 206.521 515.716C200.09 520.85 193.489 525.758 186.776 530.553C180.063 535.122 173.124 539.579 165.96 543.979C158.57 548.266 151.293 552.159 144.015 555.713C136.512 559.154 128.897 562.37 121.394 565.303C114.004 567.842 106.952 569.872 100.126 571.452C93.5825 572.524 86.9823 573.37 80.5512 573.934C74.233 574.273 67.802 574.555 61.5966 574.611C55.2784 574.668 49.073 574.555 43.3189 574.16C37.6777 573.709 31.9236 573.201 26.3387 572.58C20.8667 571.847 15.3383 571.114 9.86626 570.324C4.33782 569.478 -1.24701 568.575 -6.83186 567.616C-12.4731 566.657 -18.058 565.642 -23.4736 564.57C-28.8328 563.498 -34.192 562.37 -39.4948 561.298C-44.7975 560.17 -50.1003 559.098 -55.1775 557.969C-60.1418 556.841 -65.0496 555.657 -69.9011 554.472C-74.7526 553.287 -79.6041 552.103 -84.512 550.918C-89.2507 549.62 -94.3278 547.984 -99.7434 546.066C-105.441 544.036 -111.364 542.005 -117.513 539.917C-123.944 537.774 -130.488 535.686 -137.089 533.543C-143.689 531.456 -150.289 529.481 -156.833 527.507C-163.433 525.589 -169.977 523.614 -176.634 521.64C-183.403 519.609 -190.229 517.578 -196.999 515.434C-203.712 513.347 -210.425 511.316 -217.025 509.285C-223.795 507.142 -230.621 505.054 -237.334 502.854C-243.99 500.654 -250.421 498.398 -256.683 496.141C-262.889 493.885 -268.868 491.741 -274.679 489.654C-280.377 487.567 -285.792 485.536 -291.151 483.392C-296.511 481.248 -301.701 479.048 -306.834 476.848C-311.968 474.592 -316.988 472.279 -321.896 469.909C-326.804 467.484 -331.599 465.002 -336.225 462.407C-340.738 459.699 -344.913 456.822 -348.918 453.945C-352.867 451.011 -356.759 447.965 -360.539 444.975C-364.318 441.929 -367.985 438.883 -371.596 435.836C-375.15 432.734 -378.591 429.687 -381.919 426.641C-385.248 423.538 -388.519 420.436 -391.735 417.389C-394.951 414.23 -398.053 411.127 -400.987 408.025C-403.807 404.979 -406.572 401.989 -409.223 398.942C-411.874 395.896 -414.526 392.793 -417.064 389.747C-419.603 386.644 -422.085 383.542 -424.511 380.439C-426.936 377.336 -429.306 374.177 -431.619 371.075C-433.932 367.972 -436.132 364.869 -438.275 361.823C-440.363 358.777 -442.394 355.787 -444.368 352.797C-446.342 349.751 -448.148 346.817 -449.784 343.997C-451.42 341.176 -452.943 338.355 -454.409 335.535C-455.876 332.714 -457.343 329.893 -458.697 327.016C-460.051 324.196 -461.348 321.319 -462.589 318.498C-463.717 315.734 -464.733 313.026 -465.748 310.375C-466.707 307.667 -467.61 304.959 -468.456 302.251C-469.302 299.543 -470.092 296.836 -470.825 294.128C-471.559 291.42 -472.236 288.712 -472.8 286.061C-473.364 283.409 -473.872 280.758 -474.21 278.219C-474.492 275.737 -474.662 273.312 -474.774 270.886C-474.887 268.404 -475 265.978 -475 263.552C-475 261.126 -474.944 258.701 -474.887 256.331C-474.774 253.906 -474.605 251.593 -474.379 249.223C-474.154 246.854 -473.872 244.541 -473.533 242.285C-473.195 239.972 -472.8 237.715 -472.349 235.459C-471.841 233.259 -471.277 231.058 -470.6 228.971C-469.923 226.884 -469.19 224.797 -468.4 222.766C-467.61 220.735 -466.764 218.704 -465.918 216.673C-465.015 214.699 -464.112 212.837 -463.097 210.976C-462.082 209.227 -461.066 207.478 -459.994 205.842C-458.922 204.206 -457.794 202.57 -456.609 200.991C-455.425 199.411 -454.184 197.888 -452.943 196.478C-451.645 195.011 -450.348 193.601 -448.994 192.19C-447.64 190.78 -446.173 189.482 -444.537 188.354C-442.901 187.226 -441.265 186.098 -439.516 185.026C-437.768 183.954 -436.019 182.939 -434.157 181.98C-432.352 180.964 -430.434 180.005 -428.516 179.102C-426.598 178.2 -424.567 177.297 -422.48 176.507C-420.449 175.718 -418.305 175.097 -416.105 174.477C-413.905 173.969 -411.649 173.518 -409.336 173.123C-407.023 172.671 -404.597 172.446 -402.115 172.277C-399.633 172.107 -397.094 172.107 -394.556 172.107C-391.961 172.051 -389.366 172.051 -386.658 172.107C-384.006 172.107 -381.242 172.277 -378.422 172.502C-375.601 172.728 -372.668 173.066 -369.791 173.687C-366.913 174.307 -364.036 174.984 -361.047 175.831C-358.057 176.62 -355.01 177.41 -352.133 178.764C-349.2 180.174 -346.266 182.092 -343.389 184.575C-340.456 187.17 -337.466 189.764 -334.194 192.641C-330.922 195.575 -327.537 198.734 -324.04 201.893C-320.429 204.77 -316.706 207.76 -312.927 210.75C-309.091 213.458 -305.198 216.222 -301.193 219.043C-297.131 221.694 -293.013 224.345 -288.895 226.997C-284.72 229.648 -280.489 232.638 -276.146 236.079C-271.802 239.633 -267.232 243.3 -262.494 246.91C-257.304 250.013 -251.832 253.003 -246.191 255.88C-240.493 258.644 -234.626 261.408 -228.59 264.06C-222.554 266.598 -216.348 269.137 -209.861 271.732C-203.148 274.383 -196.209 277.035 -188.988 279.63C-181.542 282.055 -173.588 284.312 -165.126 286.963C-156.269 289.728 -146.792 292.379 -136.524 294.805C-125.298 296.666 -113.226 297.851 -100.59 298.754C-87.6711 299.487 -74.5834 300.277 -61.3828 301.123C-48.5208 301.969 -36.11 302.703 -24.0941 303.267C-12.8116 303.549 -2.65734 302.759 6.08661 299.543C13.7023 294.635 20.359 288.825 26.4516 282.507C32.2621 276.189 38.0162 269.87 43.8266 263.326C49.5243 256.557 55.7297 249.844 61.9915 242.905C68.2533 235.91 74.5151 228.802 80.8333 221.581C86.9823 214.248 93.1313 206.801 99.2238 199.298C105.147 191.626 110.901 183.841 116.542 175.887C122.014 167.876 127.43 159.809 132.902 152.081C138.205 144.973 143.395 138.091 148.641 131.885C153.775 126.075 158.626 120.49 163.252 114.961C167.652 109.602 171.658 104.356 175.381 99.2222C178.822 93.9759 181.304 88.391 183.448 82.5241C185.084 76.6008 186.55 70.7339 188.017 65.0362C189.315 59.5642 190.612 54.1486 191.74 48.2253C192.305 45.3482 192.812 42.584 193.376 39.7634C193.997 37.2248 194.787 34.8555 195.576 32.599C196.423 30.4553 197.438 28.5373 198.566 26.6757C199.695 24.8705 200.766 23.1217 201.782 21.6549C202.854 20.301 203.926 19.1164 205.054 18.101C206.182 17.1419 207.31 16.2957 208.495 15.5624C209.68 14.8854 210.808 14.2649 211.993 13.6444C213.177 13.1367 214.362 12.6289 215.547 12.1776C216.731 11.7263 217.972 11.3315 219.157 10.993C220.398 10.7109 221.696 10.4853 222.937 10.2596C224.234 10.0904 225.475 9.97754 226.829 9.92112C228.127 9.86471 229.424 9.80831 230.665 9.86473C231.963 9.97755 233.204 10.1468 234.501 10.316C235.799 10.5417 237.04 10.7673 238.394 10.993C239.691 11.2186 240.989 11.5007 242.286 11.8392C243.527 12.1212 244.768 12.4033 246.009 12.6854C247.25 12.9674 248.435 13.193 249.563 13.4751C250.748 13.7572 251.933 13.9828 253.061 14.2649C254.189 14.4906 255.261 14.7162 256.333 14.9983C257.405 15.2239 258.42 15.3931 259.436 15.5624C260.451 15.7316 261.41 15.8444 262.369 16.0137C263.328 16.1265 264.287 16.2393 265.19 16.2957C266.092 16.3522 266.995 16.3522 267.841 16.3522C268.687 16.3522 269.477 16.2958 270.323 16.2393C271.113 16.1265 271.903 16.0701 272.636 15.9573C273.369 15.8445 274.103 15.6752 274.836 15.5624C275.513 15.3931 276.247 15.2239 276.811 14.9419C277.431 14.6034 277.995 14.2649 278.616 13.9264C279.8 13.1931 281.042 12.3469 282.17 11.4443C283.354 10.5417 284.539 9.6955 285.724 8.84931C286.965 8.11594 288.375 7.60822 289.842 7.32616C291.252 6.98768 292.663 6.64922 294.073 6.31074C295.483 5.97226 296.95 5.57736 298.417 5.12606C299.883 4.67475 301.294 4.33628 302.76 3.9978C304.227 3.65933 305.694 3.37726 307.161 3.15161C308.627 2.92596 310.15 2.75673 311.617 2.58749C313.084 2.41825 314.607 2.36185 316.13 2.24903C317.597 2.19261 319.12 2.07978 320.643 2.02336C322.166 1.96695 323.69 2.02338 325.213 2.0798C326.736 2.19262 328.315 2.41824 329.895 2.75672C331.474 3.03878 333.054 3.37726 334.577 3.71574C336.157 4.05422 337.736 4.50552 339.259 4.95682C340.839 5.40812 342.475 5.85941 344.054 6.42354C345.69 7.10049 347.383 7.77747 349.019 8.56724C350.655 9.35702 352.347 10.2032 354.152 11.1622C355.957 12.1212 357.65 13.1366 359.455 14.1521C361.26 15.2239 363.122 16.3522 364.927 17.5368C366.732 18.7215 368.594 20.019 370.456 21.3165C372.317 22.6704 374.179 24.0243 376.04 25.4346C377.958 26.9577 379.82 28.4809 381.738 30.004C383.656 31.5272 385.518 33.0503 387.436 34.6298C389.354 36.2094 391.215 37.789 393.077 39.3685C394.939 40.9481 396.857 42.584 398.718 44.1636C400.58 45.7995 402.441 47.4355 404.303 49.0715C406.165 50.7074 408.026 52.5127 410.001 54.5435C411.975 56.7436 414.006 59.0565 416.037 61.4822C418.068 63.9644 420.099 66.4466 422.129 68.9287C424.16 71.3545 426.135 73.7802 428.166 76.206C430.14 78.6881 432.114 81.1702 434.033 83.6524C435.951 86.1345 437.869 88.6731 439.674 91.1553C441.535 93.6939 443.341 96.2324 445.202 98.8274C447.007 101.366 448.756 103.961 450.505 106.499C452.254 109.038 453.89 111.633 455.582 114.172C457.218 116.767 458.854 119.362 460.49 121.957C462.07 124.552 463.649 127.147 465.172 129.798C466.695 132.449 468.162 135.044 469.629 137.696C471.096 140.347 472.506 142.998 473.916 145.65C475.327 148.301 476.68 150.953 477.978 153.66C479.275 156.312 480.573 158.963 481.814 161.671C483.055 164.322 484.296 167.03 485.481 169.738C486.666 172.446 487.794 175.097 488.922 177.749C490.05 180.4 491.122 183.051 492.137 185.703C493.153 188.354 494.168 190.949 495.127 193.544C496.086 196.139 496.989 198.734 497.892 201.329C498.794 203.868 499.64 206.463 500.43 209.058C501.22 211.653 502.01 214.248 502.799 216.842C503.533 219.437 504.266 222.032 504.943 224.684C505.62 227.279 506.241 229.93 506.861 232.582C507.482 235.233 507.989 237.884 508.554 240.536C509.061 243.187 509.569 245.839 510.02 248.49C510.472 251.141 510.866 253.793 511.205 256.501C511.6 259.208 511.882 261.86 512.22 264.568C512.502 267.275 512.728 269.927 512.954 272.635C513.179 275.342 513.349 278.05 513.461 280.758C513.574 283.466 513.687 286.174 513.744 288.881C513.8 291.589 513.8 294.297 513.8 297.005C513.744 299.713 513.687 302.364 513.574 305.072C513.461 307.723 513.292 310.375 513.123 313.082C512.954 315.734 512.728 318.385 512.446 320.98C512.164 323.632 511.882 326.227 511.543 328.822C511.205 331.416 510.81 334.012 510.415 336.55C510.02 339.089 509.569 341.684 509.061 344.222C508.554 346.761 508.046 349.299 507.482 351.838C506.918 354.376 506.297 356.859 505.677 359.341C505.056 361.823 504.379 364.305 503.702 366.731C502.969 369.213 502.235 371.639 501.502 374.064C500.712 376.49 499.922 378.916 499.076 381.285C498.23 383.711 497.384 386.08 496.481 388.45C495.579 390.819 494.62 393.188 493.661 395.501C492.702 397.814 491.686 400.127 490.614 402.44C489.543 404.753 488.471 407.009 487.399 409.266C486.271 411.522 485.142 413.779 483.958 415.979C482.773 418.235 481.588 420.436 480.347 422.636C479.106 424.836 477.809 426.979 476.511 429.18C475.214 431.323 473.86 433.467 472.506 435.554C471.152 437.641 469.742 439.672 468.331 441.76C466.921 443.79 465.454 445.821 463.988 447.796C462.521 449.77 461.054 451.688 459.531 453.606C458.064 455.411 456.598 457.104 455.131 458.683C453.664 460.263 452.197 461.786 450.731 463.196C449.264 464.607 447.797 465.904 446.33 467.258C444.807 468.612 443.284 469.909 441.761 471.15C440.182 472.392 438.658 473.576 437.135 474.704C435.612 475.833 434.033 476.961 432.453 478.033C430.873 479.161 429.294 480.177 427.714 481.248C426.078 482.264 424.499 483.279 422.863 484.295C421.227 485.254 419.647 486.156 418.011 487.059C416.375 487.961 414.739 488.864 413.103 489.654C411.467 490.444 409.832 491.121 408.365 491.572C406.898 492.023 405.375 492.418 403.908 492.813C402.385 493.208 400.862 493.603 399.339 493.941C397.816 494.28 396.293 494.562 394.882 494.618C393.415 494.731 392.005 494.731 390.595 494.675C389.241 494.562 387.887 494.449 386.477 494.28C385.123 494.11 383.825 493.603 382.697 492.926C381.512 492.305 380.384 491.628 379.256 490.895C378.184 490.105 377.056 489.315 375.984 488.469C374.912 487.623 373.84 486.777 372.768 485.874C371.753 485.028 370.794 484.125 369.835 483.223C368.876 482.32 367.917 481.361 367.071 480.12C366.337 478.823 365.66 477.356 365.04 475.776C364.419 474.197 363.799 472.617 363.235 471.038C362.671 469.458 362.107 467.709 361.599 465.904C361.091 464.155 360.64 462.294 360.188 460.376C359.681 458.514 359.229 456.652 358.835 454.847C358.383 453.042 357.988 451.18 357.65 449.262C357.255 447.401 356.917 445.426 356.522 443.395C356.127 441.421 355.732 439.334 355.337 437.247C354.886 435.159 354.491 432.959 354.096 430.59C353.645 428.333 353.25 426.077 352.742 423.877C352.291 421.564 351.839 419.194 351.388 416.825C350.824 414.625 350.316 412.369 349.809 410.056C349.526 408.871 349.244 407.686 348.962 406.502C348.624 405.317 348.342 404.189 348.003 403.004C347.721 401.763 347.383 400.578 347.044 399.394C346.706 398.265 346.367 397.081 345.972 395.952C345.578 394.824 345.183 393.696 344.844 392.624C344.506 391.552 344.111 390.48 343.716 389.409C343.321 388.337 342.926 387.321 342.531 386.306C342.08 385.347 341.685 384.388 341.234 383.485C340.726 382.865 340.162 382.301 339.598 381.68C339.034 381.116 338.47 380.608 337.849 380.101C337.228 379.649 336.608 379.198 335.931 378.86C335.254 378.577 334.634 378.408 333.9 378.183C333.223 378.013 332.49 378.013 331.757 378.183C330.854 378.465 330.064 378.747 329.274 379.029Z" stroke="#655454" stroke-width="3"/>
</svg>
